999
dxfrw 0.6.3
  0
SECTION
  2
HEADER
  9
$ACADVER
  1
AC1021
  9
$DWGCODEPAGE
  3
ANSI_1252
  9
$INSBASE
 10
0
 20
0
 30
0
  9
$EXTMIN
 10
6.291128224072141
 20
2.243786574760934
 30
0
  9
$EXTMAX
 10
93.34443847980145
 20
63.23790844703407
 30
0
  9
$LIMMIN
 10
0
 20
0
  9
$LIMMAX
 10
420
 20
297
  9
$ORTHOMODE
 70
    0
  9
$REGENMODE
 70
    1
  9
$FILLMODE
 70
    1
  9
$QTEXTMODE
 70
    0
  9
$MIRRTEXT
 70
    0
  9
$LTSCALE
 40
1
  9
$ATTMODE
 70
    0
  9
$TEXTSIZE
 40
2.5
  9
$TRACEWID
 40
15.68
  9
$TEXTSTYLE
  7
STANDARD
  9
$CLAYER
  8
0
  9
$CELTYPE
  6
BYLAYER
  9
$CECOLOR
 62
  256
  9
$CELTSCALE
 40
1
  9
$DISPSILH
 70
    0
  9
$DIMSCALE
 40
1
  9
$DIMASZ
 40
2.5
  9
$DIMEXO
 40
0.625
  9
$DIMDLI
 40
3.75
  9
$DIMRND
 40
0
  9
$DIMDLE
 40
0
  9
$DIMEXE
 40
1.25
  9
$DIMTP
 40
0
  9
$DIMTM
 40
0
  9
$DIMTXT
 40
2.5
  9
$DIMCEN
 40
2.5
  9
$DIMTSZ
 40
0
  9
$DIMTOL
 70
    0
  9
$DIMLIM
 70
    0
  9
$DIMTIH
 70
    0
  9
$DIMTOH
 70
    0
  9
$DIMSE1
 70
    0
  9
$DIMSE2
 70
    0
  9
$DIMTAD
 70
    1
  9
$DIMZIN
 70
    8
  9
$DIMBLK
  1

  9
$DIMASO
 70
    1
  9
$DIMSHO
 70
    1
  9
$DIMPOST
  1

  9
$DIMAPOST
  1

  9
$DIMALT
 70
    0
  9
$DIMALTD
 70
    3
  9
$DIMALTF
 40
0.03937
  9
$DIMLFAC
 40
1
  9
$DIMTOFL
 70
    1
  9
$DIMTVP
 40
0
  9
$DIMTIX
 70
    0
  9
$DIMSOXD
 70
    0
  9
$DIMSAH
 70
    0
  9
$DIMBLK1
  1

  9
$DIMBLK2
  1

  9
$DIMSTYLE
  2
Standard
  9
$DIMCLRD
 70
    0
  9
$DIMCLRE
 70
    0
  9
$DIMCLRT
 70
    0
  9
$DIMTFAC
 40
1
  9
$DIMGAP
 40
0.625
  9
$DIMJUST
 70
    0
  9
$DIMSD1
 70
    0
  9
$DIMSD2
 70
    0
  9
$DIMTOLJ
 70
    0
  9
$DIMTZIN
 70
    8
  9
$DIMALTZ
 70
    0
  9
$DIMALTTZ
 70
    0
  9
$DIMUPT
 70
    0
  9
$DIMDEC
 70
    2
  9
$DIMTDEC
 70
    2
  9
$DIMALTU
 70
    2
  9
$DIMALTTD
 70
    3
  9
$DIMTXSTY
  7
STANDARD
  9
$DIMAUNIT
 70
    0
  9
$DIMADEC
 70
    0
  9
$DIMALTRND
 40
0
  9
$DIMAZIN
 70
    0
  9
$DIMDSEP
 70
   44
  9
$DIMATFIT
 70
    3
  9
$DIMFRAC
 70
    0
  9
$DIMLDRBLK
  1
STANDARD
  9
$DIMLUNIT
 70
    2
  9
$DIMLWD
 70
   -2
  9
$DIMLWE
 70
   -2
  9
$DIMTMOVE
 70
    0
  9
$DIMFXL
 40
1
  9
$DIMFXLON
 70
    0
  9
$DIMJOGANG
 40
0.7854
  9
$DIMTFILL
 70
    0
  9
$DIMTFILLCLR
 70
    0
  9
$DIMARCSYM
 70
    0
  9
$DIMLTYPE
  6

  9
$DIMLTEX1
  6

  9
$DIMLTEX2
  6

  9
$LUNITS
 70
    2
  9
$LUPREC
 70
    4
  9
$SKETCHINC
 40
1
  9
$FILLETRAD
 40
0
  9
$AUNITS
 70
    0
  9
$AUPREC
 70
    2
  9
$MENU
  1
.
  9
$ELEVATION
 40
0
  9
$PELEVATION
 40
0
  9
$THICKNESS
 40
0
  9
$LIMCHECK
 70
    0
  9
$CHAMFERA
 40
0
  9
$CHAMFERB
 40
0
  9
$CHAMFERC
 40
0
  9
$CHAMFERD
 40
0
  9
$SKPOLY
 70
    0
  9
$USRTIMER
 70
    1
  9
$ANGBASE
 50
0
  9
$ANGDIR
 70
    0
  9
$PDMODE
 70
   34
  9
$PDSIZE
 40
0
  9
$PLINEWID
 40
0
  9
$SPLFRAME
 70
    0
  9
$SPLINETYPE
 70
    2
  9
$SPLINESEGS
 70
    8
  9
$HANDSEED
  5
20000
  9
$SURFTAB1
 70
    6
  9
$SURFTAB2
 70
    6
  9
$SURFTYPE
 70
    6
  9
$SURFU
 70
    6
  9
$SURFV
 70
    6
  9
$UCSBASE
  2

  9
$UCSNAME
  2

  9
$UCSORG
 10
0
 20
0
 30
0
  9
$UCSXDIR
 10
1
 20
0
 30
0
  9
$UCSYDIR
 10
0
 20
1
 30
0
  9
$UCSORTHOREF
  2

  9
$UCSORTHOVIEW
 70
    0
  9
$UCSORGTOP
 10
0
 20
0
 30
0
  9
$UCSORGBOTTOM
 10
0
 20
0
 30
0
  9
$UCSORGLEFT
 10
0
 20
0
 30
0
  9
$UCSORGRIGHT
 10
0
 20
0
 30
0
  9
$UCSORGFRONT
 10
0
 20
0
 30
0
  9
$UCSORGBACK
 10
0
 20
0
 30
0
  9
$PUCSBASE
  2

  9
$PUCSNAME
  2

  9
$PUCSORG
 10
0
 20
0
 30
0
  9
$PUCSXDIR
 10
1
 20
0
 30
0
  9
$PUCSYDIR
 10
0
 20
1
 30
0
  9
$PUCSORTHOREF
  2

  9
$PUCSORTHOVIEW
 70
    0
  9
$PUCSORGTOP
 10
0
 20
0
 30
0
  9
$PUCSORGBOTTOM
 10
0
 20
0
 30
0
  9
$PUCSORGLEFT
 10
0
 20
0
 30
0
  9
$PUCSORGRIGHT
 10
0
 20
0
 30
0
  9
$PUCSORGFRONT
 10
0
 20
0
 30
0
  9
$PUCSORGBACK
 10
0
 20
0
 30
0
  9
$USERI1
 70
    0
  9
$USERI2
 70
    0
  9
$USERI3
 70
    0
  9
$USERI4
 70
    0
  9
$USERI5
 70
    0
  9
$USERR1
 40
0
  9
$USERR2
 40
0
  9
$USERR3
 40
0
  9
$USERR4
 40
0
  9
$USERR5
 40
0
  9
$WORLDVIEW
 70
    1
  9
$SHADEDGE
 70
    3
  9
$SHADEDIF
 70
   70
  9
$TILEMODE
 70
    1
  9
$MAXACTVP
 70
   64
  9
$PINSBASE
 10
0
 20
0
 30
0
  9
$PLIMCHECK
 70
    0
  9
$PEXTMIN
 10
0
 20
0
 30
0
  9
$PEXTMAX
 10
0
 20
0
 30
0
  9
$GRIDMODE
 70
    1
  9
$SNAPSTYLE
 70
    0
  9
$PLIMMIN
 10
0
 20
0
  9
$PLIMMAX
 10
210
 20
297
  9
$UNITMODE
 70
    0
  9
$VISRETAIN
 70
    1
  9
$PLINEGEN
 70
    0
  9
$PSLTSCALE
 70
    1
  9
$TREEDEPTH
 70
 3020
  9
$CMLSTYLE
  2
Standard
  9
$CMLJUST
 70
    0
  9
$CMLSCALE
 40
20
  9
$PROXYGRAPHICS
 70
    1
  9
$MEASUREMENT
 70
    1
  9
$CELWEIGHT
370
   -1
  9
$ENDCAPS
280
    0
  9
$JOINSTYLE
280
    0
  9
$LWDISPLAY
290
    0
  9
$INSUNITS
 70
    4
  9
$HYPERLINKBASE
  1

  9
$STYLESHEET
  1

  9
$XEDIT
290
    1
  9
$CEPSNTYPE
380
    0
  9
$PSTYLEMODE
290
    1
  9
$EXTNAMES
290
    1
  9
$PSVPSCALE
 40
1
  9
$OLESTARTUP
290
    0
  9
$SORTENTS
280
  127
  9
$INDEXCTL
280
    0
  9
$HIDETEXT
280
    1
  9
$XCLIPFRAME
290
    0
  9
$HALOGAP
280
    0
  9
$OBSCOLOR
 70
  257
  9
$OBSLTYPE
280
    0
  9
$INTERSECTIONDISPLAY
280
    0
  9
$INTERSECTIONCOLOR
 70
  257
  9
$DIMASSOC
280
    1
  9
$PROJECTNAME
  1

  9
$CAMERADISPLAY
290
    0
  9
$LENSLENGTH
 40
50
  9
$CAMERAHEIGHT
 40
0
  9
$STEPSPERSEC
 40
2
  9
$STEPSIZE
 40
50
  9
$3DDWFPREC
 40
2
  9
$PSOLWIDTH
 40
5
  9
$PSOLHEIGHT
 40
80
  9
$LOFTANG1
 40
1.570796326794897
  9
$LOFTANG2
 40
1.570796326794897
  9
$LOFTMAG1
 40
0
  9
$LOFTMAG2
 40
0
  9
$LOFTPARAM
 70
    7
  9
$LOFTNORMALS
280
    1
  9
$LATITUDE
 40
1
  9
$LONGITUDE
 40
1
  9
$NORTHDIRECTION
 40
0
  9
$TIMEZONE
 70
-8000
  9
$LIGHTGLYPHDISPLAY
280
    1
  9
$TILEMODELIGHTSYNCH
280
    1
  9
$SOLIDHIST
280
    1
  9
$SHOWHIST
280
    1
  9
$DWFFRAME
280
    2
  9
$DGNFRAME
280
    0
  9
$REALWORLDSCALE
290
    1
  9
$INTERFERECOLOR
 62
    1
  9
$CSHADOW
280
    0
  9
$SHADOWPLANELOCATION
 40
0
  0
ENDSEC
  0
SECTION
  2
CLASSES
  0
ENDSEC
  0
SECTION
  2
TABLES
  0
TABLE
  2
VPORT
  5
8
330
0
100
AcDbSymbolTable
 70
    1
  0
VPORT
  5
31
330
2
100
AcDbSymbolTableRecord
100
AcDbViewportTableRecord
  2
*ACTIVE
 70
    0
 10
0
 20
0
 11
1
 21
1
 12
59.11910942331885
 22
50.19918667834403
 13
0
 23
0
 14
10
 24
10
 15
10
 25
10
 16
0
 26
0
 36
1
 17
0
 27
0
 37
0
 40
106.4763017885952
 41
1.794397463002114
 42
50
 43
0
 44
0
 50
0
 51
0
 71
    0
 72
  100
 73
    1
 74
    3
 75
    0
 76
    1
 77
    0
 78
    0
281
    0
 65
    1
110
0
120
0
130
0
111
1
121
0
131
0
112
0
122
1
132
0
 79
    0
146
0
348
10020
 60
    7
 61
    5
292
1
282
    1
141
0
142
0
 63
  250
421
3358443
  0
ENDTAB
  0
TABLE
  2
LTYPE
  5
5
330
0
100
AcDbSymbolTable
 70
    4
  0
LTYPE
  5
14
330
5
100
AcDbSymbolTableRecord
100
AcDbLinetypeTableRecord
  2
ByBlock
 70
    0
  3

 72
   65
 73
    0
 40
0
  0
LTYPE
  5
15
330
5
100
AcDbSymbolTableRecord
100
AcDbLinetypeTableRecord
  2
ByLayer
 70
    0
  3

 72
   65
 73
    0
 40
0
  0
LTYPE
  5
16
330
5
100
AcDbSymbolTableRecord
100
AcDbLinetypeTableRecord
  2
Continuous
 70
    0
  3
Solid line
 72
   65
 73
    0
 40
0
  0
LTYPE
  5
32
330
5
100
AcDbSymbolTableRecord
100
AcDbLinetypeTableRecord
  2
DOT
 70
    0
  3
Dot . . . . . . . . . . . . . . . . . . . . . .
 72
   65
 73
    2
 40
6.35
 49
0
 74
    0
 49
-6.35
 74
    0
  0
LTYPE
  5
33
330
5
100
AcDbSymbolTableRecord
100
AcDbLinetypeTableRecord
  2
DOTTINY
 70
    0
  3
Dot (.15x) .....................................
 72
   65
 73
    2
 40
0.9525
 49
0
 74
    0
 49
-0.9525
 74
    0
  0
LTYPE
  5
34
330
5
100
AcDbSymbolTableRecord
100
AcDbLinetypeTableRecord
  2
DOT2
 70
    0
  3
Dot (.5x) .....................................
 72
   65
 73
    2
 40
3.175
 49
0
 74
    0
 49
-3.175
 74
    0
  0
LTYPE
  5
35
330
5
100
AcDbSymbolTableRecord
100
AcDbLinetypeTableRecord
  2
DOTX2
 70
    0
  3
Dot (2x) .  .  .  .  .  .  .  .  .  .  .  .  .
 72
   65
 73
    2
 40
12.7
 49
0
 74
    0
 49
-12.7
 74
    0
  0
LTYPE
  5
36
330
5
100
AcDbSymbolTableRecord
100
AcDbLinetypeTableRecord
  2
DASHED
 70
    0
  3
Dashed _ _ _ _ _ _ _ _ _ _ _ _ _ _ _ _ _
 72
   65
 73
    2
 40
19.05
 49
12.7
 74
    0
 49
-6.35
 74
    0
  0
LTYPE
  5
37
330
5
100
AcDbSymbolTableRecord
100
AcDbLinetypeTableRecord
  2
DASHEDTINY
 70
    0
  3
Dashed (.15x) _ _ _ _ _ _ _ _ _ _ _ _ _ _ _ _ _
 72
   65
 73
    2
 40
2.8575
 49
1.905
 74
    0
 49
-0.9525
 74
    0
  0
LTYPE
  5
38
330
5
100
AcDbSymbolTableRecord
100
AcDbLinetypeTableRecord
  2
DASHED2
 70
    0
  3
Dashed (.5x) _ _ _ _ _ _ _ _ _ _ _ _ _ _ _ _ _
 72
   65
 73
    2
 40
9.524999999999999
 49
6.35
 74
    0
 49
-3.175
 74
    0
  0
LTYPE
  5
39
330
5
100
AcDbSymbolTableRecord
100
AcDbLinetypeTableRecord
  2
DASHEDX2
 70
    0
  3
Dashed (2x) ____  ____  ____  ____  ____  ___
 72
   65
 73
    2
 40
38.09999999999999
 49
25.4
 74
    0
 49
-12.7
 74
    0
  0
LTYPE
  5
3A
330
5
100
AcDbSymbolTableRecord
100
AcDbLinetypeTableRecord
  2
DASHDOT
 70
    0
  3
Dash dot __ . __ . __ . __ . __ . __ . __ . __
 72
   65
 73
    4
 40
25.4
 49
12.7
 74
    0
 49
-6.35
 74
    0
 49
0
 74
    0
 49
-6.35
 74
    0
  0
LTYPE
  5
3B
330
5
100
AcDbSymbolTableRecord
100
AcDbLinetypeTableRecord
  2
DASHDOTTINY
 70
    0
  3
Dash dot (.15x) _._._._._._._._._._._._._._._.
 72
   65
 73
    4
 40
3.81
 49
1.905
 74
    0
 49
-0.9525
 74
    0
 49
0
 74
    0
 49
-0.9525
 74
    0
  0
LTYPE
  5
3C
330
5
100
AcDbSymbolTableRecord
100
AcDbLinetypeTableRecord
  2
DASHDOT2
 70
    0
  3
Dash dot (.5x) _._._._._._._._._._._._._._._.
 72
   65
 73
    4
 40
12.7
 49
6.35
 74
    0
 49
-3.175
 74
    0
 49
0
 74
    0
 49
-3.175
 74
    0
  0
LTYPE
  5
3D
330
5
100
AcDbSymbolTableRecord
100
AcDbLinetypeTableRecord
  2
DASHDOTX2
 70
    0
  3
Dash dot (2x) ____  .  ____  .  ____  .  ___
 72
   65
 73
    4
 40
50.8
 49
25.4
 74
    0
 49
-12.7
 74
    0
 49
0
 74
    0
 49
-12.7
 74
    0
  0
LTYPE
  5
3E
330
5
100
AcDbSymbolTableRecord
100
AcDbLinetypeTableRecord
  2
DIVIDE
 70
    0
  3
Divide ____ . . ____ . . ____ . . ____ . . ____
 72
   65
 73
    6
 40
31.75
 49
12.7
 74
    0
 49
-6.35
 74
    0
 49
0
 74
    0
 49
-6.35
 74
    0
 49
0
 74
    0
 49
-6.35
 74
    0
  0
LTYPE
  5
3F
330
5
100
AcDbSymbolTableRecord
100
AcDbLinetypeTableRecord
  2
DIVIDETINY
 70
    0
  3
Divide (.15x) __..__..__..__..__..__..__..__.._
 72
   65
 73
    6
 40
4.7625
 49
1.905
 74
    0
 49
-0.9525
 74
    0
 49
0
 74
    0
 49
-0.9525
 74
    0
 49
0
 74
    0
 49
-0.9525
 74
    0
  0
LTYPE
  5
40
330
5
100
AcDbSymbolTableRecord
100
AcDbLinetypeTableRecord
  2
DIVIDE2
 70
    0
  3
Divide (.5x) __..__..__..__..__..__..__..__.._
 72
   65
 73
    6
 40
15.875
 49
6.35
 74
    0
 49
-3.175
 74
    0
 49
0
 74
    0
 49
-3.175
 74
    0
 49
0
 74
    0
 49
-3.175
 74
    0
  0
LTYPE
  5
41
330
5
100
AcDbSymbolTableRecord
100
AcDbLinetypeTableRecord
  2
DIVIDEX2
 70
    0
  3
Divide (2x) ________  .  .  ________  .  .  _
 72
   65
 73
    6
 40
63.5
 49
25.4
 74
    0
 49
-12.7
 74
    0
 49
0
 74
    0
 49
-12.7
 74
    0
 49
0
 74
    0
 49
-12.7
 74
    0
  0
LTYPE
  5
42
330
5
100
AcDbSymbolTableRecord
100
AcDbLinetypeTableRecord
  2
BORDER
 70
    0
  3
Border __ __ . __ __ . __ __ . __ __ . __ __ .
 72
   65
 73
    6
 40
44.45
 49
12.7
 74
    0
 49
-6.35
 74
    0
 49
12.7
 74
    0
 49
-6.35
 74
    0
 49
0
 74
    0
 49
-6.35
 74
    0
  0
LTYPE
  5
43
330
5
100
AcDbSymbolTableRecord
100
AcDbLinetypeTableRecord
  2
BORDERTINY
 70
    0
  3
Border (.15x) __.__.__.__.__.__.__.__.__.__.__.
 72
   65
 73
    6
 40
6.6675
 49
1.905
 74
    0
 49
-0.9525
 74
    0
 49
1.905
 74
    0
 49
-0.9525
 74
    0
 49
0
 74
    0
 49
-0.9525
 74
    0
  0
LTYPE
  5
44
330
5
100
AcDbSymbolTableRecord
100
AcDbLinetypeTableRecord
  2
BORDER2
 70
    0
  3
Border (.5x) __.__.__.__.__.__.__.__.__.__.__.
 72
   65
 73
    6
 40
22.225
 49
6.35
 74
    0
 49
-3.175
 74
    0
 49
6.35
 74
    0
 49
-3.175
 74
    0
 49
0
 74
    0
 49
-3.175
 74
    0
  0
LTYPE
  5
45
330
5
100
AcDbSymbolTableRecord
100
AcDbLinetypeTableRecord
  2
BORDERX2
 70
    0
  3
Border (2x) ____  ____  .  ____  ____  .  ___
 72
   65
 73
    6
 40
88.89999999999999
 49
25.4
 74
    0
 49
-12.7
 74
    0
 49
25.4
 74
    0
 49
-12.7
 74
    0
 49
0
 74
    0
 49
-12.7
 74
    0
  0
LTYPE
  5
46
330
5
100
AcDbSymbolTableRecord
100
AcDbLinetypeTableRecord
  2
CENTER
 70
    0
  3
Center ____ _ ____ _ ____ _ ____ _ ____ _ ____
 72
   65
 73
    4
 40
50.8
 49
31.75
 74
    0
 49
-6.35
 74
    0
 49
6.35
 74
    0
 49
-6.35
 74
    0
  0
LTYPE
  5
47
330
5
100
AcDbSymbolTableRecord
100
AcDbLinetypeTableRecord
  2
CENTERTINY
 70
    0
  3
Center (.15x) ___ _ ___ _ ___ _ ___ _ ___ _ ___
 72
   65
 73
    4
 40
7.619999999999999
 49
4.7625
 74
    0
 49
-0.9525
 74
    0
 49
0.9525
 74
    0
 49
-0.9525
 74
    0
  0
LTYPE
  5
48
330
5
100
AcDbSymbolTableRecord
100
AcDbLinetypeTableRecord
  2
CENTER2
 70
    0
  3
Center (.5x) ___ _ ___ _ ___ _ ___ _ ___ _ ___
 72
   65
 73
    4
 40
28.575
 49
19.05
 74
    0
 49
-3.175
 74
    0
 49
3.175
 74
    0
 49
-3.175
 74
    0
  0
LTYPE
  5
49
330
5
100
AcDbSymbolTableRecord
100
AcDbLinetypeTableRecord
  2
CENTERX2
 70
    0
  3
Center (2x) ________  __  ________  __  _____
 72
   65
 73
    4
 40
101.6
 49
63.5
 74
    0
 49
-12.7
 74
    0
 49
12.7
 74
    0
 49
-12.7
 74
    0
  0
ENDTAB
  0
TABLE
  2
LAYER
  5
2
330
0
100
AcDbSymbolTable
 70
    1
  0
LAYER
  5
10
330
2
100
AcDbSymbolTableRecord
100
AcDbLayerTableRecord
  2
0
 70
    0
 62
    7
  6
CONTINUOUS
370
   -3
390
F
  0
LAYER
  5
4A
330
2
100
AcDbSymbolTableRecord
100
AcDbLayerTableRecord
  2
silktop
 70
    0
 62
    7
  6
CONTINUOUS
370
   -3
390
F
  0
ENDTAB
  0
TABLE
  2
STYLE
  5
3
330
0
100
AcDbSymbolTable
 70
    3
  0
STYLE
  5
4B
330
2
100
AcDbSymbolTableRecord
100
AcDbTextStyleTableRecord
  2
Standard
 70
    0
 40
0
 41
1
 50
0
 71
    0
 42
1
  3
txt
  4

  0
ENDTAB
  0
TABLE
  2
VIEW
  5
6
330
0
100
AcDbSymbolTable
 70
    0
  0
ENDTAB
  0
TABLE
  2
UCS
  5
7
330
0
100
AcDbSymbolTable
 70
    0
  0
ENDTAB
  0
TABLE
  2
APPID
  5
9
330
0
100
AcDbSymbolTable
 70
    1
  0
APPID
  5
12
330
9
100
AcDbSymbolTableRecord
100
AcDbRegAppTableRecord
  2
ACAD
 70
    0
  0
APPID
  5
4C
330
9
100
AcDbSymbolTableRecord
100
AcDbRegAppTableRecord
  2
LibreCad
 70
    0
  0
ENDTAB
  0
TABLE
  2
DIMSTYLE
  5
A
330
0
100
AcDbSymbolTable
 70
    1
100
AcDbDimStyleTable
 71
    1
  0
DIMSTYLE
105
4D
330
A
100
AcDbSymbolTableRecord
100
AcDbDimStyleTableRecord
  2
Standard
 70
    0
 40
1
 41
2.5
 42
0.625
 43
0.38
 44
1.25
 45
0
 46
0
 47
0
 48
0
 49
1
140
2.5
141
0.09
142
0
143
25.4
144
1
145
0
146
1
147
0.625
148
0
 71
    0
 72
    0
 73
    0
 74
    1
 75
    0
 76
    0
 77
    0
 78
    8
 79
    0
170
    0
171
    2
172
    0
173
    0
174
    0
175
    0
176
    0
177
    0
178
    0
179
    0
271
    2
272
    4
273
    2
274
    2
275
    0
276
    0
277
    2
278
   44
279
    0
280
    0
281
    0
282
    0
283
    1
284
    0
285
    0
286
    0
288
    0
289
    3
340
STANDARD
341

371
   -2
372
   -2
  0
ENDTAB
  0
TABLE
  2
BLOCK_RECORD
  5
1
330
0
100
AcDbSymbolTable
 70
    2
  0
BLOCK_RECORD
  5
1F
330
1
100
AcDbSymbolTableRecord
100
AcDbBlockTableRecord
  2
*Model_Space
 70
    0
280
    1
281
    0
  0
BLOCK_RECORD
  5
1E
330
1
100
AcDbSymbolTableRecord
100
AcDbBlockTableRecord
  2
*Paper_Space
 70
    0
280
    1
281
    0
  0
ENDTAB
  0
ENDSEC
  0
SECTION
  2
BLOCKS
  0
BLOCK
  5
20
330
1F
100
AcDbEntity
  8
0
100
AcDbBlockBegin
  2
*Model_Space
 70
    0
 10
0
 20
0
 30
0
  3
*Model_Space
  1

  0
ENDBLK
  5
21
330
1F
100
AcDbEntity
  8
0
100
AcDbBlockEnd
  0
BLOCK
  5
1C
330
1B
100
AcDbEntity
  8
0
100
AcDbBlockBegin
  2
*Paper_Space
 70
    0
 10
0
 20
0
 30
0
  3
*Paper_Space
  1

  0
ENDBLK
  5
1D
330
1F
100
AcDbEntity
  8
0
100
AcDbBlockEnd
  0
ENDSEC
  0
SECTION
  2
ENTITIES
  0
LWPOLYLINE
  5
4E
100
AcDbEntity
  8
silktop
  6
ByLayer
 62
    7
370
   -1
100
AcDbPolyline
 90
    9
 70
    0
 43
0
 10
39.99055826742252
 20
59.78701891162793
 10
40.03316184607521
 20
59.73021391645019
 10
40.07576542472789
 20
59.6876103377975
 10
40.11836900338057
 20
59.65920817566987
 10
40.17517366309707
 20
59.6876103377975
 10
40.21777724174975
 20
59.73021391645019
 10
40.24617973933862
 20
59.78701891162793
 10
40.26038082040244
 20
59.8722260689333
 10
40.26038082040244
 20
60.29826185546013
  0
LWPOLYLINE
  5
4F
100
AcDbEntity
  8
silktop
  6
ByLayer
 62
    7
370
   -1
100
AcDbPolyline
 90
    3
 70
    0
 43
0
 10
40.68641660692928
 20
59.65920817566987
 10
40.68641660692928
 20
60.29826185546013
 10
40.60120944962391
 20
60.17045111950208
  0
LWPOLYLINE
  5
50
100
AcDbEntity
  8
silktop
  6
ByLayer
 62
    7
370
   -1
100
AcDbPolyline
 90
    2
 70
    0
 43
0
 10
40.60120944962391
 20
59.65920817566987
 10
40.77162376423464
 20
59.65920817566987
  0
LWPOLYLINE
  5
51
100
AcDbEntity
  8
silktop
  6
ByLayer
 62
    7
370
   -1
100
AcDbPolyline
 90
   23
 70
    0
 43
0
 10
41.11245239345612
 20
59.9290307286498
 10
41.16925705317261
 20
60.00003680489135
 10
41.2118606318253
 20
60.04264038354403
 10
41.25446421047798
 20
60.07104254567165
 10
41.31126920565573
 20
60.04264038354403
 10
41.33967136778335
 20
60.00003680489135
 10
41.36807386537222
 20
59.9432318097136
 10
41.38227494643603
 20
59.8722260689333
 10
41.36807386537222
 20
59.80121999269174
 10
41.33967136778335
 20
59.74441533297525
 10
41.29706778913066
 20
59.6876103377975
 10
41.25446421047798
 20
59.65920817566987
 10
41.19765955076149
 20
59.6876103377975
 10
41.1550559721088
 20
59.74441533297525
 10
41.12665347451993
 20
59.84382357134443
 10
41.11245239345612
 20
59.95743322623867
 10
41.12665347451993
 20
60.08524396219672
 10
41.1550559721088
 20
60.15624970297703
 10
41.18345846969767
 20
60.24145686028239
 10
41.24026312941417
 20
60.28406043893508
 10
41.28286670806685
 20
60.29826185546013
 10
41.32547028671954
 20
60.28406043893508
 10
41.36807386537222
 20
60.22725577921857
  0
LWPOLYLINE
  5
52
100
AcDbEntity
  8
silktop
  6
ByLayer
 62
    7
370
   -1
100
AcDbPolyline
 90
    2
 70
    0
 43
0
 10
84.96573490174781
 20
60.79530338276729
 10
93.31603598221257
 20
60.79530338276729
  0
LWPOLYLINE
  5
53
100
AcDbEntity
  8
silktop
  6
ByLayer
 62
    7
370
   -1
100
AcDbPolyline
 90
    2
 70
    0
 43
0
 10
93.34443847980145
 20
25.49113876713998
 10
93.34443847980145
 20
9.48639494571718
  0
LWPOLYLINE
  5
54
100
AcDbEntity
  8
silktop
  6
ByLayer
 62
    7
370
   -1
100
AcDbPolyline
 90
    2
 70
    0
 43
0
 10
93.31603598221257
 20
28.98463221666005
 10
93.31603598221257
 20
29.69469163723061
  0
LWPOLYLINE
  5
55
100
AcDbEntity
  8
silktop
  6
ByLayer
 62
    7
370
   -1
100
AcDbPolyline
 90
    2
 70
    0
 43
0
 10
93.31603598221257
 20
42.78819136466835
 10
93.31603598221257
 20
29.69469163723061
  0
LWPOLYLINE
  5
56
100
AcDbEntity
  8
silktop
  6
ByLayer
 62
    7
370
   -1
100
AcDbPolyline
 90
    2
 70
    0
 43
0
 10
93.31603598221257
 20
42.78819136466835
 10
93.31603598221257
 20
43.49825078523891
  0
LWPOLYLINE
  5
57
100
AcDbEntity
  8
silktop
  6
ByLayer
 62
    7
370
   -1
100
AcDbPolyline
 90
    2
 70
    0
 43
0
 10
93.31603598221257
 20
46.97754315369517
 10
93.31603598221257
 20
47.68760257426574
  0
LWPOLYLINE
  5
58
100
AcDbEntity
  8
silktop
  6
ByLayer
 62
    7
370
   -1
100
AcDbPolyline
 90
    2
 70
    0
 43
0
 10
93.31603598221257
 20
60.79530338276729
 10
93.31603598221257
 20
47.68760257426574
  0
LWPOLYLINE
  5
59
100
AcDbEntity
  8
silktop
  6
ByLayer
 62
    7
370
   -1
100
AcDbPolyline
 90
    2
 70
    0
 43
0
 10
93.31603598221257
 20
60.79530338276729
 10
93.31603598221257
 20
61.50536313879909
  0
LWPOLYLINE
  5
5A
100
AcDbEntity
  8
silktop
  6
ByLayer
 62
    7
370
   -1
100
AcDbPolyline
 90
    2
 70
    0
 43
0
 10
72.04264982438205
 20
9.48639494571718
 10
72.04264982438205
 20
25.49113876713998
  0
LWPOLYLINE
  5
5B
100
AcDbEntity
  8
silktop
  6
ByLayer
 62
    7
370
   -1
100
AcDbPolyline
 90
    2
 70
    0
 43
0
 10
78.13496123625458
 20
9.48639494571718
 10
72.04264982438205
 20
9.48639494571718
  0
LWPOLYLINE
  5
5C
100
AcDbEntity
  8
silktop
  6
ByLayer
 62
    7
370
   -1
100
AcDbPolyline
 90
    2
 70
    0
 43
0
 10
72.04264982438205
 20
25.49113876713998
 10
78.13496123625458
 20
25.49113876713998
  0
LWPOLYLINE
  5
5D
100
AcDbEntity
  8
silktop
  6
ByLayer
 62
    7
370
   -1
100
AcDbPolyline
 90
    2
 70
    0
 43
0
 10
75.80596582688203
 20
30.9443968346835
 10
75.80596582688203
 20
41.5384865026767
  0
LWPOLYLINE
  5
5E
100
AcDbEntity
  8
silktop
  6
ByLayer
 62
    7
370
   -1
100
AcDbPolyline
 90
    2
 70
    0
 43
0
 10
75.80596582688203
 20
48.93730777171863
 10
75.80596582688203
 20
59.54559852077564
  0
LWPOLYLINE
  5
5F
100
AcDbEntity
  8
silktop
  6
ByLayer
 62
    7
370
   -1
100
AcDbPolyline
 90
    2
 70
    0
 43
0
 10
93.34443847980145
 20
9.48639494571718
 10
80.83318777243748
 20
9.48639494571718
  0
LWPOLYLINE
  5
60
100
AcDbEntity
  8
silktop
  6
ByLayer
 62
    7
370
   -1
100
AcDbPolyline
 90
    2
 70
    0
 43
0
 10
80.83318777243748
 20
25.49113876713998
 10
93.34443847980145
 20
25.49113876713998
  0
LWPOLYLINE
  5
61
100
AcDbEntity
  8
silktop
  6
ByLayer
 62
    7
370
   -1
100
AcDbPolyline
 90
    2
 70
    0
 43
0
 10
81.07460816328977
 20
29.69469163723061
 10
79.27105677881323
 20
29.69469163723061
  0
LWPOLYLINE
  5
62
100
AcDbEntity
  8
silktop
  6
ByLayer
 62
    7
370
   -1
100
AcDbPolyline
 90
    2
 70
    0
 43
0
 10
79.27105677881323
 20
42.78819136466835
 10
81.07460816328977
 20
42.78819136466835
  0
LWPOLYLINE
  5
63
100
AcDbEntity
  8
silktop
  6
ByLayer
 62
    7
370
   -1
100
AcDbPolyline
 90
    2
 70
    0
 43
0
 10
81.07460816328977
 20
47.68760257426574
 10
79.27105677881323
 20
47.68760257426574
  0
LWPOLYLINE
  5
64
100
AcDbEntity
  8
silktop
  6
ByLayer
 62
    7
370
   -1
100
AcDbPolyline
 90
    2
 70
    0
 43
0
 10
79.27105677881323
 20
60.79530338276729
 10
81.07460816328977
 20
60.79530338276729
  0
LWPOLYLINE
  5
65
100
AcDbEntity
  8
silktop
  6
ByLayer
 62
    7
370
   -1
100
AcDbPolyline
 90
    2
 70
    0
 43
0
 10
93.31603598221257
 20
29.69469163723061
 10
84.96573490174781
 20
29.69469163723061
  0
LWPOLYLINE
  5
66
100
AcDbEntity
  8
silktop
  6
ByLayer
 62
    7
370
   -1
100
AcDbPolyline
 90
    2
 70
    0
 43
0
 10
84.96573490174781
 20
42.78819136466835
 10
93.31603598221257
 20
42.78819136466835
  0
LWPOLYLINE
  5
67
100
AcDbEntity
  8
silktop
  6
ByLayer
 62
    7
370
   -1
100
AcDbPolyline
 90
    2
 70
    0
 43
0
 10
93.31603598221257
 20
47.68760257426574
 10
84.96573490174781
 20
47.68760257426574
  0
LWPOLYLINE
  5
68
100
AcDbEntity
  8
silktop
  6
ByLayer
 62
    7
370
   -1
100
AcDbPolyline
 90
    2
 70
    0
 43
0
 10
31.29942822227503
 20
56.91837772537306
 10
32.06629263802333
 20
56.91837772537306
  0
LWPOLYLINE
  5
69
100
AcDbEntity
  8
silktop
  6
ByLayer
 62
    7
370
   -1
100
AcDbPolyline
 90
    2
 70
    0
 43
0
 10
33.30179641895117
 20
56.91837772537306
 10
34.06866083469948
 20
56.91837772537306
  0
LWPOLYLINE
  5
6A
100
AcDbEntity
  8
silktop
  6
ByLayer
 62
    7
370
   -1
100
AcDbPolyline
 90
    2
 70
    0
 43
0
 10
32.06629263802333
 20
60.97991877844183
 10
31.29942822227503
 20
60.97991877844183
  0
LWPOLYLINE
  5
6B
100
AcDbEntity
  8
silktop
  6
ByLayer
 62
    7
370
   -1
100
AcDbPolyline
 90
    2
 70
    0
 43
0
 10
34.06866083469948
 20
60.97991877844183
 10
33.30179641895117
 20
60.97991877844183
  0
LWPOLYLINE
  5
6C
100
AcDbEntity
  8
silktop
  6
ByLayer
 62
    7
370
   -1
100
AcDbPolyline
 90
    2
 70
    0
 43
0
 10
35.30416461562731
 20
56.91837772537306
 10
36.0568279503118
 20
56.91837772537306
  0
LWPOLYLINE
  5
6D
100
AcDbEntity
  8
silktop
  6
ByLayer
 62
    7
370
   -1
100
AcDbPolyline
 90
    2
 70
    0
 43
0
 10
37.30653281230344
 20
56.91837772537306
 10
38.05919581152669
 20
56.91837772537306
  0
LWPOLYLINE
  5
6E
100
AcDbEntity
  8
silktop
  6
ByLayer
 62
    7
370
   -1
100
AcDbPolyline
 90
    2
 70
    0
 43
0
 10
36.0568279503118
 20
60.97991877844183
 10
35.30416461562731
 20
60.97991877844183
  0
LWPOLYLINE
  5
6F
100
AcDbEntity
  8
silktop
  6
ByLayer
 62
    7
370
   -1
100
AcDbPolyline
 90
    2
 70
    0
 43
0
 10
38.05919581152669
 20
60.97991877844183
 10
37.30653281230344
 20
60.97991877844183
  0
LWPOLYLINE
  5
70
100
AcDbEntity
  8
silktop
  6
ByLayer
 62
    7
370
   -1
100
AcDbPolyline
 90
   14
 70
    0
 43
0
 10
39.49351640465413
 20
56.02370290912794
 10
39.53611998330681
 20
56.09470864990826
 10
39.5787235619595
 20
56.12311114749712
 10
39.635528221676
 20
56.13731222856094
 10
39.70653429791755
 20
56.10891006643332
 10
39.74913787657023
 20
56.06630648778063
 10
39.76333895763405
 20
55.99530041153907
 10
39.76333895763405
 20
55.93849575182258
 10
39.73493679550642
 20
55.88169075664484
 10
39.59292464302331
 20
55.76808143721184
 10
39.53611998330681
 20
55.69707536097029
 10
39.49351640465413
 20
55.59766712260111
 10
39.47931532359031
 20
55.49825854877068
 10
39.76333895763405
 20
55.49825854877068
  0
LWPOLYLINE
  5
71
100
AcDbEntity
  8
silktop
  6
ByLayer
 62
    7
370
   -1
100
AcDbPolyline
 90
   16
 70
    0
 43
0
 10
40.03316184607521
 20
55.59766712260111
 10
40.07576542472789
 20
55.54086212742336
 10
40.11836900338057
 20
55.51245996529574
 10
40.17517366309707
 20
55.49825854877068
 10
40.24617973933862
 20
55.52666104635955
 10
40.28878331799131
 20
55.56926462501224
 10
40.31718548011894
 20
55.64027070125379
 10
40.33138689664399
 20
55.72547785855916
 10
40.31718548011894
 20
55.81068501586453
 10
40.28878331799131
 20
55.85328859451722
 10
40.23197832281357
 20
55.89589217316989
 10
40.18937474416088
 20
55.91009325423371
 10
40.1467711655082
 20
55.89589217316989
 10
40.07576542472789
 20
55.85328859451722
 10
40.10416758685551
 20
56.13731222856094
 10
40.28878331799131
 20
56.13731222856094
  0
LWPOLYLINE
  5
72
100
AcDbEntity
  8
silktop
  6
ByLayer
 62
    7
370
   -1
100
AcDbPolyline
 90
    2
 70
    0
 43
0
 10
39.72073537898136
 20
56.91837772537306
 10
39.72073537898136
 20
60.97991877844183
  0
LWPOLYLINE
  5
73
100
AcDbEntity
  8
silktop
  6
ByLayer
 62
    7
370
   -1
100
AcDbPolyline
 90
    2
 70
    0
 43
0
 10
39.20949243514915
 20
56.91837772537306
 10
39.72073537898136
 20
56.91837772537306
  0
LWPOLYLINE
  5
74
100
AcDbEntity
  8
silktop
  6
ByLayer
 62
    7
370
   -1
100
AcDbPolyline
 90
   14
 70
    0
 43
0
 10
39.49351640465413
 20
62.03080716369512
 10
39.53611998330681
 20
62.08761182341161
 10
39.5787235619595
 20
62.11601432100048
 10
39.635528221676
 20
62.13021540206429
 10
39.70653429791755
 20
62.10181323993667
 10
39.74913787657023
 20
62.05920966128399
 10
39.76333895763405
 20
61.98820358504243
 10
39.76333895763405
 20
61.93139892532593
 10
39.73493679550642
 20
61.87459393014819
 10
39.59292464302331
 20
61.77518569177901
 10
39.53611998330681
 20
61.68997853447365
 10
39.49351640465413
 20
61.59057029610447
 10
39.47931532359031
 20
61.49116172227404
 10
39.76333895763405
 20
61.49116172227404
  0
LWPOLYLINE
  5
75
100
AcDbEntity
  8
silktop
  6
ByLayer
 62
    7
370
   -1
100
AcDbPolyline
 90
   22
 70
    0
 43
0
 10
40.04736292713902
 20
61.76098461071519
 10
40.10416758685551
 20
61.83199035149551
 10
40.1467711655082
 20
61.87459393014819
 10
40.18937474416088
 20
61.90299642773706
 10
40.24617973933862
 20
61.87459393014819
 10
40.27458190146625
 20
61.83199035149551
 10
40.30298439905512
 20
61.77518569177901
 10
40.30298439905512
 20
61.63317387475714
 10
40.27458190146625
 20
61.5621677985156
 10
40.23197832281357
 20
61.51956421986291
 10
40.18937474416088
 20
61.49116172227404
 10
40.13257008444438
 20
61.51956421986291
 10
40.0899665057917
 20
61.5763688795794
 10
40.06156400820283
 20
61.67577745340983
 10
40.04736292713902
 20
61.77518569177901
 10
40.06156400820283
 20
61.91719750880087
 10
40.0899665057917
 20
61.98820358504243
 10
40.11836900338057
 20
62.05920966128399
 10
40.16097258203326
 20
62.11601432100048
 10
40.21777724174975
 20
62.13021540206429
 10
40.26038082040244
 20
62.10181323993667
 10
40.28878331799131
 20
62.05920966128399
  0
LWPOLYLINE
  5
76
100
AcDbEntity
  8
silktop
  6
ByLayer
 62
    7
370
   -1
100
AcDbPolyline
 90
    2
 70
    0
 43
0
 10
39.72073537898136
 20
60.97991877844183
 10
39.20949243514915
 20
60.97991877844183
  0
LWPOLYLINE
  5
77
100
AcDbEntity
  8
silktop
  6
ByLayer
 62
    7
370
   -1
100
AcDbPolyline
 90
    2
 70
    0
 43
0
 10
6.291128224072141
 20
14.61302546510305
 10
6.291128224072141
 20
24.61066503195867
  0
LWPOLYLINE
  5
78
100
AcDbEntity
  8
silktop
  6
ByLayer
 62
    7
370
   -1
100
AcDbPolyline
 90
    2
 70
    0
 43
0
 10
7.001187980103953
 20
14.61302546510305
 10
6.291128224072141
 20
14.61302546510305
  0
LWPOLYLINE
  5
79
100
AcDbEntity
  8
silktop
  6
ByLayer
 62
    7
370
   -1
100
AcDbPolyline
 90
    2
 70
    0
 43
0
 10
6.291128224072141
 20
24.61066503195867
 10
7.001187980103953
 20
24.61066503195867
  0
LWPOLYLINE
  5
7A
100
AcDbEntity
  8
silktop
  6
ByLayer
 62
    7
370
   -1
100
AcDbPolyline
 90
    1
 70
    1
 43
0
 10
6.40473787896638
 20
37.00830608442841
  0
LWPOLYLINE
  5
7B
100
AcDbEntity
  8
silktop
  6
ByLayer
 62
    7
370
   -1
100
AcDbPolyline
 90
    2
 70
    0
 43
0
 10
13.44852943772302
 20
8.691128032379998
 10
19.45563369229018
 20
8.691128032379998
  0
LWPOLYLINE
  5
7C
100
AcDbEntity
  8
silktop
  6
ByLayer
 62
    7
370
   -1
100
AcDbPolyline
 90
    2
 70
    0
 43
0
 10
13.44852943772302
 20
13.39172276523903
 10
13.44852943772302
 20
8.691128032379998
  0
LWPOLYLINE
  5
7D
100
AcDbEntity
  8
silktop
  6
ByLayer
 62
    7
370
   -1
100
AcDbPolyline
 90
    2
 70
    0
 43
0
 10
19.45563369229018
 20
13.39172276523903
 10
13.44852943772302
 20
13.39172276523903
  0
LWPOLYLINE
  5
7E
100
AcDbEntity
  8
silktop
  6
ByLayer
 62
    7
370
   -1
100
AcDbPolyline
 90
    2
 70
    0
 43
0
 10
15.09586758865263
 20
14.61302546510305
 10
11.28994800749996
 20
14.61302546510305
  0
LWPOLYLINE
  5
7F
100
AcDbEntity
  8
silktop
  6
ByLayer
 62
    7
370
   -1
100
AcDbPolyline
 90
    2
 70
    0
 43
0
 10
11.28994800749996
 20
24.61066503195867
 10
17.59527764809716
 20
24.61066503195867
  0
LWPOLYLINE
  5
80
100
AcDbEntity
  8
silktop
  6
ByLayer
 62
    7
370
   -1
100
AcDbPolyline
 90
    3
 70
    0
 43
0
 10
13.50533409743951
 20
55.69707536097029
 10
13.50533409743951
 20
56.33612904076055
 10
13.42012694013414
 20
56.2083183048025
  0
LWPOLYLINE
  5
81
100
AcDbEntity
  8
silktop
  6
ByLayer
 62
    7
370
   -1
100
AcDbPolyline
 90
    2
 70
    0
 43
0
 10
13.42012694013414
 20
55.69707536097029
 10
13.59054125474488
 20
55.69707536097029
  0
LWPOLYLINE
  5
82
100
AcDbEntity
  8
silktop
  6
ByLayer
 62
    7
370
   -1
100
AcDbPolyline
 90
    2
 70
    0
 43
0
 10
13.00829223467112
 20
56.74796341076232
 10
12.85207933658545
 20
56.74796341076232
  0
LWPOLYLINE
  5
83
100
AcDbEntity
  8
silktop
  6
ByLayer
 62
    7
370
   -1
100
AcDbPolyline
 90
    2
 70
    0
 43
0
 10
12.80947575793276
 20
56.59175051267665
 10
13.00829223467112
 20
56.74796341076232
  0
LWPOLYLINE
  5
84
100
AcDbEntity
  8
silktop
  6
ByLayer
 62
    7
370
   -1
100
AcDbPolyline
 90
    2
 70
    0
 43
0
 10
12.80947575793276
 20
56.84737198459275
 10
12.80947575793276
 20
56.59175051267665
  0
LWPOLYLINE
  5
85
100
AcDbEntity
  8
silktop
  6
ByLayer
 62
    7
370
   -1
100
AcDbPolyline
 90
    2
 70
    0
 43
0
 10
13.30651728523991
 20
56.74796341076232
 10
12.80947575793276
 20
56.84737198459275
  0
LWPOLYLINE
  5
86
100
AcDbEntity
  8
silktop
  6
ByLayer
 62
    7
370
   -1
100
AcDbPolyline
 90
    2
 70
    0
 43
0
 10
12.71006718410233
 20
56.49234193884622
 10
13.30651728523991
 20
56.74796341076232
  0
LWPOLYLINE
  5
87
100
AcDbEntity
  8
silktop
  6
ByLayer
 62
    7
370
   -1
100
AcDbPolyline
 90
    2
 70
    0
 43
0
 10
12.71006718410233
 20
56.98938380161461
 10
12.71006718410233
 20
56.49234193884622
  0
LWPOLYLINE
  5
88
100
AcDbEntity
  8
silktop
  6
ByLayer
 62
    7
370
   -1
100
AcDbPolyline
 90
    2
 70
    0
 43
0
 10
13.30651728523991
 20
56.74796341076232
 10
12.71006718410233
 20
56.98938380161461
  0
LWPOLYLINE
  5
89
100
AcDbEntity
  8
silktop
  6
ByLayer
 62
    7
370
   -1
100
AcDbPolyline
 90
   14
 70
    0
 43
0
 10
13.37752336148146
 20
61.8177892704317
 10
13.42012694013414
 20
61.88879534667325
 10
13.46273051878683
 20
61.91719750880087
 10
13.51953517850333
 20
61.93139892532593
 10
13.59054125474488
 20
61.90299642773706
 10
13.63314483339757
 20
61.84619176802057
 10
13.64734591446138
 20
61.78938677284282
 10
13.64734591446138
 20
61.71838103206252
 10
13.61894375233375
 20
61.67577745340983
 10
13.47693159985064
 20
61.5621677985156
 10
13.42012694013414
 20
61.49116172227404
 10
13.37752336148146
 20
61.39175348390486
 10
13.36332228041765
 20
61.29234524553568
 10
13.64734591446138
 20
61.29234524553568
  0
LWPOLYLINE
  5
8A
100
AcDbEntity
  8
silktop
  6
ByLayer
 62
    7
370
   -1
100
AcDbPolyline
 90
    2
 70
    0
 43
0
 10
13.61894375233375
 20
56.91837772537306
 10
14.13018669616596
 20
56.91837772537306
  0
LWPOLYLINE
  5
8B
100
AcDbEntity
  8
silktop
  6
ByLayer
 62
    7
370
   -1
100
AcDbPolyline
 90
    2
 70
    0
 43
0
 10
13.61894375233375
 20
60.97991877844183
 10
13.61894375233375
 20
56.91837772537306
  0
LWPOLYLINE
  5
8C
100
AcDbEntity
  8
silktop
  6
ByLayer
 62
    7
370
   -1
100
AcDbPolyline
 90
    2
 70
    0
 43
0
 10
15.26628190326336
 20
56.91837772537306
 10
16.03314631901167
 20
56.91837772537306
  0
LWPOLYLINE
  5
8D
100
AcDbEntity
  8
silktop
  6
ByLayer
 62
    7
370
   -1
100
AcDbPolyline
 90
    2
 70
    0
 43
0
 10
17.29705259752837
 20
56.91837772537306
 10
18.06391701327668
 20
56.91837772537306
  0
LWPOLYLINE
  5
8E
100
AcDbEntity
  8
silktop
  6
ByLayer
 62
    7
370
   -1
100
AcDbPolyline
 90
    2
 70
    0
 43
0
 10
14.13018669616596
 20
60.97991877844183
 10
13.61894375233375
 20
60.97991877844183
  0
LWPOLYLINE
  5
8F
100
AcDbEntity
  8
silktop
  6
ByLayer
 62
    7
370
   -1
100
AcDbPolyline
 90
    2
 70
    0
 43
0
 10
18.06391701327668
 20
60.97991877844183
 10
17.29705259752837
 20
60.97991877844183
  0
LWPOLYLINE
  5
90
100
AcDbEntity
  8
silktop
  6
ByLayer
 62
    7
370
   -1
100
AcDbPolyline
 90
    2
 70
    0
 43
0
 10
16.03314631901167
 20
60.97991877844183
 10
15.26628190326336
 20
60.97991877844183
  0
LWPOLYLINE
  5
91
100
AcDbEntity
  8
silktop
  6
ByLayer
 62
    7
370
   -1
100
AcDbPolyline
 90
    2
 70
    0
 43
0
 10
19.45563369229018
 20
8.691128032379998
 10
19.45563369229018
 20
13.39172276523903
  0
LWPOLYLINE
  5
92
100
AcDbEntity
  8
silktop
  6
ByLayer
 62
    7
370
   -1
100
AcDbPolyline
 90
    2
 70
    0
 43
0
 10
17.59527764809716
 20
17.41066023965512
 10
17.59527764809716
 20
15.90533390574737
  0
LWPOLYLINE
  5
93
100
AcDbEntity
  8
silktop
  6
ByLayer
 62
    7
370
   -1
100
AcDbPolyline
 90
    2
 70
    0
 43
0
 10
17.59527764809716
 20
22.60829683528254
 10
17.59527764809716
 20
19.21421162413165
  0
LWPOLYLINE
  5
94
100
AcDbEntity
  8
silktop
  6
ByLayer
 62
    7
370
   -1
100
AcDbPolyline
 90
    2
 70
    0
 43
0
 10
17.59527764809716
 20
24.61066503195867
 10
17.59527764809716
 20
24.41184821975907
  0
LWPOLYLINE
  5
95
100
AcDbEntity
  8
silktop
  6
ByLayer
 62
    7
370
   -1
100
AcDbPolyline
 90
    2
 70
    0
 43
0
 10
19.29942079420451
 20
56.91837772537306
 10
20.06628520995282
 20
56.91837772537306
  0
LWPOLYLINE
  5
96
100
AcDbEntity
  8
silktop
  6
ByLayer
 62
    7
370
   -1
100
AcDbPolyline
 90
    2
 70
    0
 43
0
 10
21.3017886554194
 20
56.91837772537306
 10
22.06865307116771
 20
56.91837772537306
  0
LWPOLYLINE
  5
97
100
AcDbEntity
  8
silktop
  6
ByLayer
 62
    7
370
   -1
100
AcDbPolyline
 90
    2
 70
    0
 43
0
 10
20.06628520995282
 20
60.97991877844183
 10
19.29942079420451
 20
60.97991877844183
  0
LWPOLYLINE
  5
98
100
AcDbEntity
  8
silktop
  6
ByLayer
 62
    7
370
   -1
100
AcDbPolyline
 90
    2
 70
    0
 43
0
 10
22.06865307116771
 20
60.97991877844183
 10
21.3017886554194
 20
60.97991877844183
  0
LWPOLYLINE
  5
99
100
AcDbEntity
  8
silktop
  6
ByLayer
 62
    7
370
   -1
100
AcDbPolyline
 90
    2
 70
    0
 43
0
 10
23.30415685209554
 20
56.91837772537306
 10
24.05682018678003
 20
56.91837772537306
  0
LWPOLYLINE
  5
9A
100
AcDbEntity
  8
silktop
  6
ByLayer
 62
    7
370
   -1
100
AcDbPolyline
 90
    2
 70
    0
 43
0
 10
25.30652504877167
 20
56.91837772537306
 10
26.05918838345617
 20
56.91837772537306
  0
LWPOLYLINE
  5
9B
100
AcDbEntity
  8
silktop
  6
ByLayer
 62
    7
370
   -1
100
AcDbPolyline
 90
    2
 70
    0
 43
0
 10
24.05682018678003
 20
60.97991877844183
 10
23.30415685209554
 20
60.97991877844183
  0
LWPOLYLINE
  5
9C
100
AcDbEntity
  8
silktop
  6
ByLayer
 62
    7
370
   -1
100
AcDbPolyline
 90
    2
 70
    0
 43
0
 10
26.05918838345617
 20
60.97991877844183
 10
25.30652504877167
 20
60.97991877844183
  0
LWPOLYLINE
  5
9D
100
AcDbEntity
  8
silktop
  6
ByLayer
 62
    7
370
   -1
100
AcDbPolyline
 90
    2
 70
    0
 43
0
 10
27.294692164384
 20
56.91837772537306
 10
28.06155658013231
 20
56.91837772537306
  0
LWPOLYLINE
  5
9E
100
AcDbEntity
  8
silktop
  6
ByLayer
 62
    7
370
   -1
100
AcDbPolyline
 90
    2
 70
    0
 43
0
 10
29.29706002559889
 20
56.91837772537306
 10
30.0639244413472
 20
56.91837772537306
  0
LWPOLYLINE
  5
9F
100
AcDbEntity
  8
silktop
  6
ByLayer
 62
    7
370
   -1
100
AcDbPolyline
 90
    2
 70
    0
 43
0
 10
28.06155658013231
 20
60.97991877844183
 10
27.294692164384
 20
60.97991877844183
  0
LWPOLYLINE
  5
A0
100
AcDbEntity
  8
silktop
  6
ByLayer
 62
    7
370
   -1
100
AcDbPolyline
 90
    2
 70
    0
 43
0
 10
30.0639244413472
 20
60.97991877844183
 10
29.29706002559889
 20
60.97991877844183
  0
LWPOLYLINE
  5
A1
100
AcDbEntity
  8
silktop
  6
ByLayer
 62
    7
370
   -1
100
AcDbPolyline
 90
    2
 70
    0
 43
0
 10
13.53373659502838
 20
52.70062377421861
 10
13.53373659502838
 20
54.98701560493848
  0
LWPOLYLINE
  5
A2
100
AcDbEntity
  8
silktop
  6
ByLayer
 62
    7
370
   -1
100
AcDbPolyline
 90
    2
 70
    0
 43
0
 10
39.56452248089568
 20
52.70062377421861
 10
13.53373659502838
 20
52.70062377421861
  0
LWPOLYLINE
  5
A3
100
AcDbEntity
  8
silktop
  6
ByLayer
 62
    7
370
   -1
100
AcDbPolyline
 90
    2
 70
    0
 43
0
 10
13.53373659502838
 20
53.85092039784107
 10
39.56452248089568
 20
53.85092039784107
  0
LWPOLYLINE
  5
A4
100
AcDbEntity
  8
silktop
  6
ByLayer
 62
    7
370
   -1
100
AcDbPolyline
 90
    2
 70
    0
 43
0
 10
13.53373659502838
 20
54.98701560493848
 10
15.6923176897902
 20
54.98701560493848
  0
LWPOLYLINE
  5
A5
100
AcDbEntity
  8
silktop
  6
ByLayer
 62
    7
370
   -1
100
AcDbPolyline
 90
    9
 70
    0
 43
0
 10
13.97397346261904
 20
54.73139413302237
 10
13.97397346261904
 20
54.27695618436791
 10
14.00237596020791
 20
54.19174902706254
 10
14.04497953886059
 20
54.12074295082099
 10
14.1159852796409
 20
54.10654186975717
 10
14.18699135588245
 20
54.12074295082099
 10
14.24379601559895
 20
54.19174902706254
 10
14.27219851318782
 20
54.27695618436791
 10
14.27219851318782
 20
54.73139413302237
  0
LWPOLYLINE
  5
A6
100
AcDbEntity
  8
silktop
  6
ByLayer
 62
    7
370
   -1
100
AcDbPolyline
 90
   10
 70
    0
 43
0
 10
14.54202106616773
 20
54.10654186975717
 10
14.54202106616773
 20
54.73139413302237
 10
14.71243538077847
 20
54.73139413302237
 10
14.76924037595622
 20
54.70299197089475
 10
14.79764253808384
 20
54.66038839224206
 10
14.8118439546089
 20
54.5751812349367
 10
14.79764253808384
 20
54.48997407763132
 10
14.75503895943116
 20
54.44737049897865
 10
14.71243538077847
 20
54.40476692032596
 10
14.54202106616773
 20
54.40476692032596
  0
LWPOLYLINE
  5
A7
100
AcDbEntity
  8
silktop
  6
ByLayer
 62
    7
370
   -1
100
AcDbPolyline
 90
    2
 70
    0
 43
0
 10
14.71243538077847
 20
54.40476692032596
 10
14.8118439546089
 20
54.10654186975717
  0
LWPOLYLINE
  5
A8
100
AcDbEntity
  8
silktop
  6
ByLayer
 62
    7
370
   -1
100
AcDbPolyline
 90
    2
 70
    0
 43
0
 10
15.09586758865263
 20
54.10654186975717
 10
15.3798915581576
 20
54.73139413302237
  0
LWPOLYLINE
  5
A9
100
AcDbEntity
  8
silktop
  6
ByLayer
 62
    7
370
   -1
100
AcDbPolyline
 90
    2
 70
    0
 43
0
 10
15.09586758865263
 20
54.73139413302237
 10
15.3798915581576
 20
54.10654186975717
  0
LWPOLYLINE
  5
AA
100
AcDbEntity
  8
silktop
  6
ByLayer
 62
    7
370
   -1
100
AcDbPolyline
 90
    9
 70
    0
 43
0
 10
15.96214024277011
 20
54.73139413302237
 10
15.96214024277011
 20
54.27695618436791
 10
15.99054274035899
 20
54.19174902706254
 10
16.04734740007548
 20
54.12074295082099
 10
16.11835347631704
 20
54.10654186975717
 10
16.18935955255859
 20
54.12074295082099
 10
16.24616421227509
 20
54.19174902706254
 10
16.2603652933389
 20
54.27695618436791
 10
16.2603652933389
 20
54.73139413302237
  0
LWPOLYLINE
  5
AB
100
AcDbEntity
  8
silktop
  6
ByLayer
 62
    7
370
   -1
100
AcDbPolyline
 90
    2
 70
    0
 43
0
 10
16.67219999880193
 20
54.73139413302237
 10
16.67219999880193
 20
54.10654186975717
  0
LWPOLYLINE
  5
AC
100
AcDbEntity
  8
silktop
  6
ByLayer
 62
    7
370
   -1
100
AcDbPolyline
 90
    2
 70
    0
 43
0
 10
16.515986765255
 20
54.73139413302237
 10
16.82841323234885
 20
54.73139413302237
  0
LWPOLYLINE
  5
AD
100
AcDbEntity
  8
silktop
  6
ByLayer
 62
    7
370
   -1
100
AcDbPolyline
 90
    2
 70
    0
 43
0
 10
17.09823578532876
 20
54.10654186975717
 10
17.38225975483374
 20
54.73139413302237
  0
LWPOLYLINE
  5
AE
100
AcDbEntity
  8
silktop
  6
ByLayer
 62
    7
370
   -1
100
AcDbPolyline
 90
    2
 70
    0
 43
0
 10
17.09823578532876
 20
54.73139413302237
 10
17.38225975483374
 20
54.10654186975717
  0
LWPOLYLINE
  5
AF
100
AcDbEntity
  8
silktop
  6
ByLayer
 62
    7
370
   -1
100
AcDbPolyline
 90
    2
 70
    0
 43
0
 10
16.03314631901167
 20
53.6237010880526
 10
16.20356063362241
 20
53.6237010880526
  0
LWPOLYLINE
  5
B0
100
AcDbEntity
  8
silktop
  6
ByLayer
 62
    7
370
   -1
100
AcDbPolyline
 90
    2
 70
    0
 43
0
 10
16.11835347631704
 20
53.6237010880526
 10
16.11835347631704
 20
52.98464740826234
  0
LWPOLYLINE
  5
B1
100
AcDbEntity
  8
silktop
  6
ByLayer
 62
    7
370
   -1
100
AcDbPolyline
 90
    2
 70
    0
 43
0
 10
16.03314631901167
 20
52.98464740826234
 10
16.20356063362241
 20
52.98464740826234
  0
LWPOLYLINE
  5
B2
100
AcDbEntity
  8
silktop
  6
ByLayer
 62
    7
370
   -1
100
AcDbPolyline
 90
   22
 70
    1
 43
0
 10
16.67219999880193
 20
52.98464740826234
 10
16.62959642014924
 20
52.99884882478739
 10
16.57279176043275
 20
53.04145240344008
 10
16.53018818178006
 20
53.09825706315657
 10
16.50178568419119
 20
53.16926313939813
 10
16.48758460312738
 20
53.2544702967035
 10
16.48758460312738
 20
53.33967745400887
 10
16.50178568419119
 20
53.42488461131423
 10
16.53018818178006
 20
53.5100917686196
 10
16.57279176043275
 20
53.56689642833609
 10
16.62959642014924
 20
53.60950000698878
 10
16.67219999880193
 20
53.6237010880526
 10
16.72900465851842
 20
53.60950000698878
 10
16.7716082371711
 20
53.56689642833609
 10
16.81421181582379
 20
53.5100917686196
 10
16.84261431341266
 20
53.42488461131423
 10
16.85681539447647
 20
53.33967745400887
 10
16.85681539447647
 20
53.2544702967035
 10
16.84261431341266
 20
53.16926313939813
 10
16.81421181582379
 20
53.09825706315657
 10
16.7716082371711
 20
53.04145240344008
 10
16.72900465851842
 20
52.99884882478739
  0
LWPOLYLINE
  5
B3
100
AcDbEntity
  8
silktop
  6
ByLayer
 62
    7
370
   -1
100
AcDbPolyline
 90
   19
 70
    1
 43
0
 10
17.24024760235063
 20
53.6237010880526
 10
17.18344294263413
 20
53.59529892592497
 10
17.14083936398145
 20
53.55269534727229
 10
17.11243686639257
 20
53.48168927103073
 10
17.09823578532876
 20
53.39648211372536
 10
17.08403470426495
 20
53.29707387535618
 10
17.09823578532876
 20
53.21186671805082
 10
17.11243686639257
 20
53.12665956074544
 10
17.14083936398145
 20
53.05565348450389
 10
17.18344294263413
 20
53.01304990585121
 10
17.24024760235063
 20
52.98464740826234
 10
17.29705259752837
 20
53.01304990585121
 10
17.32545475965599
 20
53.05565348450389
 10
17.35385725724487
 20
53.12665956074544
 10
17.38225975483374
 20
53.21186671805082
 10
17.38225975483374
 20
53.39648211372536
 10
17.35385725724487
 20
53.48168927103073
 10
17.32545475965599
 20
53.55269534727229
 10
17.29705259752837
 20
53.59529892592497
  0
LWPOLYLINE
  5
B4
100
AcDbEntity
  8
silktop
  6
ByLayer
 62
    7
370
   -1
100
AcDbPolyline
 90
   12
 70
    0
 43
0
 10
13.97397346261904
 20
53.11245814422039
 10
14.01657704127172
 20
53.04145240344008
 10
14.0591806199244
 20
52.99884882478739
 10
14.13018669616596
 20
52.98464740826234
 10
14.17279027481864
 20
52.99884882478739
 10
14.22959493453514
 20
53.04145240344008
 10
14.27219851318782
 20
53.11245814422039
 10
14.27219851318782
 20
53.16926313939813
 10
14.25799743212401
 20
53.2544702967035
 10
14.21539385347133
 20
53.29707387535618
 10
14.15858885829358
 20
53.32547603748381
 10
14.10178419857709
 20
53.32547603748381
  0
LWPOLYLINE
  5
B5
100
AcDbEntity
  8
silktop
  6
ByLayer
 62
    7
370
   -1
100
AcDbPolyline
 90
    9
 70
    0
 43
0
 10
14.15858885829358
 20
53.32547603748381
 10
14.20119243694626
 20
53.35387853507268
 10
14.24379601559895
 20
53.41068319478917
 10
14.25799743212401
 20
53.46748818996692
 10
14.24379601559895
 20
53.53849393074722
 10
14.20119243694626
 20
53.58109750939991
 10
14.14438777722977
 20
53.6237010880526
 10
14.08758311751328
 20
53.60950000698878
 10
14.01657704127172
 20
53.56689642833609
  0
LWPOLYLINE
  5
B6
100
AcDbEntity
  8
silktop
  6
ByLayer
 62
    7
370
   -1
100
AcDbPolyline
 90
    3
 70
    0
 43
0
 10
14.51361890404011
 20
53.6237010880526
 10
14.66983180212579
 20
52.98464740826234
 10
14.84024611673652
 20
53.6237010880526
  0
LWPOLYLINE
  5
B7
100
AcDbEntity
  8
silktop
  6
ByLayer
 62
    7
370
   -1
100
AcDbPolyline
 90
   12
 70
    0
 43
0
 10
15.08166650758881
 20
53.11245814422039
 10
15.1242700862415
 20
53.04145240344008
 10
15.18107474595799
 20
52.99884882478739
 10
15.23787974113574
 20
52.98464740826234
 10
15.29468440085223
 20
52.99884882478739
 10
15.35148906056873
 20
53.04145240344008
 10
15.3798915581576
 20
53.11245814422039
 10
15.39409263922141
 20
53.16926313939813
 10
15.3798915581576
 20
53.2544702967035
 10
15.33728797950492
 20
53.29707387535618
 10
15.28048331978842
 20
53.32547603748381
 10
15.22367832461068
 20
53.32547603748381
  0
LWPOLYLINE
  5
B8
100
AcDbEntity
  8
silktop
  6
ByLayer
 62
    7
370
   -1
100
AcDbPolyline
 90
    9
 70
    0
 43
0
 10
15.28048331978842
 20
53.32547603748381
 10
15.32308689844111
 20
53.35387853507268
 10
15.35148906056873
 20
53.41068319478917
 10
15.36569047709379
 20
53.46748818996692
 10
15.35148906056873
 20
53.53849393074722
 10
15.32308689844111
 20
53.58109750939991
 10
15.26628190326336
 20
53.6237010880526
 10
15.19527616248305
 20
53.60950000698878
 10
15.13847116730531
 20
53.56689642833609
  0
LWPOLYLINE
  5
B9
100
AcDbEntity
  8
silktop
  6
ByLayer
 62
    7
370
   -1
100
AcDbPolyline
 90
    2
 70
    0
 43
0
 10
15.6923176897902
 20
52.70062377421861
 10
17.72308838405521
 20
52.70062377421861
  0
LWPOLYLINE
  5
BA
100
AcDbEntity
  8
silktop
  6
ByLayer
 62
    7
370
   -1
100
AcDbPolyline
 90
    2
 70
    0
 43
0
 10
15.6923176897902
 20
54.98701560493848
 10
15.6923176897902
 20
52.70062377421861
  0
LWPOLYLINE
  5
BB
100
AcDbEntity
  8
silktop
  6
ByLayer
 62
    7
370
   -1
100
AcDbPolyline
 90
    2
 70
    0
 43
0
 10
13.66154733098644
 20
54.98701560493848
 10
39.56452248089568
 20
54.98701560493848
  0
LWPOLYLINE
  5
BC
100
AcDbEntity
  8
silktop
  6
ByLayer
 62
    7
370
   -1
100
AcDbPolyline
 90
   20
 70
    0
 43
0
 10
18.16332525164586
 20
54.41896800138978
 10
18.29113598760391
 20
54.41896800138978
 10
18.29113598760391
 20
54.23435260571522
 10
18.24853240895123
 20
54.16334652947367
 10
18.20592883029854
 20
54.12074295082099
 10
18.13492275405699
 20
54.10654186975717
 10
18.06391701327668
 20
54.12074295082099
 10
18.02131343462399
 20
54.16334652947367
 10
17.97870985597131
 20
54.23435260571522
 10
17.95030735838244
 20
54.30535834649553
 10
17.93610627731863
 20
54.39056550380091
 10
17.93610627731863
 20
54.46157158004245
 10
17.95030735838244
 20
54.53257765628401
 10
17.97870985597131
 20
54.60358339706432
 10
18.02131343462399
 20
54.66038839224206
 10
18.06391701327668
 20
54.70299197089475
 10
18.12072167299318
 20
54.73139413302237
 10
18.16332525164586
 20
54.73139413302237
 10
18.22012991136235
 20
54.71719305195856
 10
18.26273349001504
 20
54.67458947330588
  0
LWPOLYLINE
  5
BD
100
AcDbEntity
  8
silktop
  6
ByLayer
 62
    7
370
   -1
100
AcDbPolyline
 90
    4
 70
    0
 43
0
 10
18.51835496193114
 20
54.10654186975717
 10
18.51835496193114
 20
54.73139413302237
 10
18.83078142902499
 20
54.10654186975717
 10
18.83078142902499
 20
54.73139413302237
  0
LWPOLYLINE
  5
BE
100
AcDbEntity
  8
silktop
  6
ByLayer
 62
    7
370
   -1
100
AcDbPolyline
 90
   12
 70
    1
 43
0
 10
19.08640290094109
 20
54.10654186975717
 10
19.08640290094109
 20
54.73139413302237
 10
19.22841471796296
 20
54.73139413302237
 10
19.27101829661564
 20
54.70299197089475
 10
19.31362187526832
 20
54.66038839224206
 10
19.35622545392101
 20
54.60358339706432
 10
19.38462795150988
 20
54.53257765628401
 10
19.38462795150988
 20
54.3195597630206
 10
19.35622545392101
 20
54.23435260571522
 10
19.31362187526832
 20
54.17754761053748
 10
19.27101829661564
 20
54.1349440318848
 10
19.22841471796296
 20
54.10654186975717
  0
LWPOLYLINE
  5
BF
100
AcDbEntity
  8
silktop
  6
ByLayer
 62
    7
370
   -1
100
AcDbPolyline
 90
    2
 70
    0
 43
0
 10
20.03788271236395
 20
54.73139413302237
 10
20.19409561044962
 20
54.73139413302237
  0
LWPOLYLINE
  5
C0
100
AcDbEntity
  8
silktop
  6
ByLayer
 62
    7
370
   -1
100
AcDbPolyline
 90
    2
 70
    0
 43
0
 10
20.12308986966931
 20
54.73139413302237
 10
20.12308986966931
 20
54.10654186975717
  0
LWPOLYLINE
  5
C1
100
AcDbEntity
  8
silktop
  6
ByLayer
 62
    7
370
   -1
100
AcDbPolyline
 90
    2
 70
    0
 43
0
 10
20.03788271236395
 20
54.10654186975717
 10
20.19409561044962
 20
54.10654186975717
  0
LWPOLYLINE
  5
C2
100
AcDbEntity
  8
silktop
  6
ByLayer
 62
    7
370
   -1
100
AcDbPolyline
 90
   21
 70
    1
 43
0
 10
20.6769363921542
 20
54.10654186975717
 10
20.62013139697646
 20
54.10654186975717
 10
20.57752781832377
 20
54.14914544840986
 10
20.53492423967109
 20
54.22015118919017
 10
20.50652207754347
 20
54.29115726543173
 10
20.49232066101841
 20
54.37636442273709
 10
20.49232066101841
 20
54.46157158004245
 10
20.50652207754347
 20
54.54677873734783
 10
20.53492423967109
 20
54.61778481358937
 10
20.57752781832377
 20
54.68879055436969
 10
20.62013139697646
 20
54.73139413302237
 10
20.7337410518707
 20
54.73139413302237
 10
20.77634463052338
 20
54.68879055436969
 10
20.81894820917606
 20
54.61778481358937
 10
20.84735070676494
 20
54.54677873734783
 10
20.86155178782875
 20
54.46157158004245
 10
20.86155178782875
 20
54.37636442273709
 10
20.84735070676494
 20
54.29115726543173
 10
20.81894820917606
 20
54.22015118919017
 10
20.77634463052338
 20
54.14914544840986
 10
20.7337410518707
 20
54.10654186975717
  0
LWPOLYLINE
  5
C3
100
AcDbEntity
  8
silktop
  6
ByLayer
 62
    7
370
   -1
100
AcDbPolyline
 90
   14
 70
    0
 43
0
 10
21.10297217868104
 20
54.63198589465319
 10
21.14557575733372
 20
54.68879055436969
 10
21.20238041705022
 20
54.73139413302237
 10
21.2449839957029
 20
54.73139413302237
 10
21.31599007194446
 20
54.71719305195856
 10
21.35859365059714
 20
54.66038839224206
 10
21.37279473166096
 20
54.60358339706432
 10
21.37279473166096
 20
54.53257765628401
 10
21.34439223407208
 20
54.48997407763132
 10
21.20238041705022
 20
54.37636442273709
 10
21.14557575733372
 20
54.30535834649553
 10
21.10297217868104
 20
54.19174902706254
 10
21.08877076215598
 20
54.10654186975717
 10
21.37279473166096
 20
54.10654186975717
  0
LWPOLYLINE
  5
C4
100
AcDbEntity
  8
silktop
  6
ByLayer
 62
    7
370
   -1
100
AcDbPolyline
 90
   20
 70
    0
 43
0
 10
20.165693448322
 20
53.29707387535618
 10
20.29350418428005
 20
53.29707387535618
 10
20.29350418428005
 20
53.11245814422039
 10
20.25090060562736
 20
53.04145240344008
 10
20.20829702697468
 20
53.01304990585121
 10
20.13729095073312
 20
52.98464740826234
 10
20.06628520995282
 20
53.01304990585121
 10
20.02368163130014
 20
53.04145240344008
 10
19.98107805264745
 20
53.11245814422039
 10
19.95267555505858
 20
53.18346422046194
 10
19.93847447399477
 20
53.26867137776731
 10
19.93847447399477
 20
53.33967745400887
 10
19.95267555505858
 20
53.41068319478917
 10
19.98107805264745
 20
53.48168927103073
 10
20.02368163130014
 20
53.55269534727229
 10
20.06628520995282
 20
53.58109750939991
 10
20.12308986966931
 20
53.6237010880526
 10
20.165693448322
 20
53.6237010880526
 10
20.22249810803849
 20
53.59529892592497
 10
20.26510168669117
 20
53.55269534727229
  0
LWPOLYLINE
  5
C5
100
AcDbEntity
  8
silktop
  6
ByLayer
 62
    7
370
   -1
100
AcDbPolyline
 90
    4
 70
    0
 43
0
 10
20.52072315860728
 20
52.98464740826234
 10
20.52072315860728
 20
53.6237010880526
 10
20.83314929023988
 20
52.98464740826234
 10
20.83314929023988
 20
53.6237010880526
  0
LWPOLYLINE
  5
C6
100
AcDbEntity
  8
silktop
  6
ByLayer
 62
    7
370
   -1
100
AcDbPolyline
 90
   13
 70
    1
 43
0
 10
21.08877076215598
 20
52.98464740826234
 10
21.08877076215598
 20
53.6237010880526
 10
21.21658149811403
 20
53.6237010880526
 10
21.27338649329177
 20
53.58109750939991
 10
21.31599007194446
 20
53.55269534727229
 10
21.34439223407208
 20
53.48168927103073
 10
21.37279473166096
 20
53.41068319478917
 10
21.38699581272477
 20
53.29707387535618
 10
21.37279473166096
 20
53.19766530152575
 10
21.34439223407208
 20
53.12665956074544
 10
21.31599007194446
 20
53.05565348450389
 10
21.27338649329177
 20
53.01304990585121
 10
21.21658149811403
 20
52.98464740826234
  0
LWPOLYLINE
  5
C7
100
AcDbEntity
  8
silktop
  6
ByLayer
 62
    7
370
   -1
100
AcDbPolyline
 90
    2
 70
    0
 43
0
 10
18.03551451568781
 20
53.6237010880526
 10
18.20592883029854
 20
53.6237010880526
  0
LWPOLYLINE
  5
C8
100
AcDbEntity
  8
silktop
  6
ByLayer
 62
    7
370
   -1
100
AcDbPolyline
 90
    2
 70
    0
 43
0
 10
18.12072167299318
 20
53.6237010880526
 10
18.12072167299318
 20
52.98464740826234
  0
LWPOLYLINE
  5
C9
100
AcDbEntity
  8
silktop
  6
ByLayer
 62
    7
370
   -1
100
AcDbPolyline
 90
    2
 70
    0
 43
0
 10
18.03551451568781
 20
52.98464740826234
 10
18.20592883029854
 20
52.98464740826234
  0
LWPOLYLINE
  5
CA
100
AcDbEntity
  8
silktop
  6
ByLayer
 62
    7
370
   -1
100
AcDbPolyline
 90
   22
 70
    1
 43
0
 10
18.67456819547806
 20
52.98464740826234
 10
18.61776353576157
 20
52.99884882478739
 10
18.57515995710889
 20
53.04145240344008
 10
18.5325563784562
 20
53.09825706315657
 10
18.50415388086733
 20
53.16926313939813
 10
18.48995279980352
 20
53.2544702967035
 10
18.48995279980352
 20
53.33967745400887
 10
18.50415388086733
 20
53.42488461131423
 10
18.5325563784562
 20
53.5100917686196
 10
18.57515995710889
 20
53.56689642833609
 10
18.61776353576157
 20
53.60950000698878
 10
18.67456819547806
 20
53.6237010880526
 10
18.73137285519456
 20
53.60950000698878
 10
18.77397643384724
 20
53.56689642833609
 10
18.81658001249993
 20
53.5100917686196
 10
18.8449825100888
 20
53.42488461131423
 10
18.85918359115261
 20
53.33967745400887
 10
18.85918359115261
 20
53.2544702967035
 10
18.8449825100888
 20
53.16926313939813
 10
18.81658001249993
 20
53.09825706315657
 10
18.77397643384724
 20
53.04145240344008
 10
18.73137285519456
 20
52.99884882478739
  0
LWPOLYLINE
  5
CB
100
AcDbEntity
  8
silktop
  6
ByLayer
 62
    7
370
   -1
100
AcDbPolyline
 90
    3
 70
    0
 43
0
 10
19.24261579902677
 20
52.98464740826234
 10
19.24261579902677
 20
53.6237010880526
 10
19.1574086417214
 20
53.49589035209455
  0
LWPOLYLINE
  5
CC
100
AcDbEntity
  8
silktop
  6
ByLayer
 62
    7
370
   -1
100
AcDbPolyline
 90
    2
 70
    0
 43
0
 10
19.1574086417214
 20
52.98464740826234
 10
19.31362187526832
 20
52.98464740826234
  0
LWPOLYLINE
  5
CD
100
AcDbEntity
  8
silktop
  6
ByLayer
 62
    7
370
   -1
100
AcDbPolyline
 90
    2
 70
    0
 43
0
 10
19.62604800690092
 20
52.70062377421861
 10
21.65681870116593
 20
52.70062377421861
  0
LWPOLYLINE
  5
CE
100
AcDbEntity
  8
silktop
  6
ByLayer
 62
    7
370
   -1
100
AcDbPolyline
 90
    2
 70
    0
 43
0
 10
19.62604800690092
 20
54.98701560493848
 10
19.62604800690092
 20
52.70062377421861
  0
LWPOLYLINE
  5
CF
100
AcDbEntity
  8
silktop
  6
ByLayer
 62
    7
370
   -1
100
AcDbPolyline
 90
    3
 70
    0
 43
0
 10
17.72308838405521
 20
52.70062377421861
 10
17.72308838405521
 20
54.98701560493848
 10
19.62604800690092
 20
54.98701560493848
  0
LWPOLYLINE
  5
D0
100
AcDbEntity
  8
silktop
  6
ByLayer
 62
    7
370
   -1
100
AcDbPolyline
 90
    2
 70
    0
 43
0
 10
22.04025090904008
 20
54.73139413302237
 10
22.19646380712576
 20
54.73139413302237
  0
LWPOLYLINE
  5
D1
100
AcDbEntity
  8
silktop
  6
ByLayer
 62
    7
370
   -1
100
AcDbPolyline
 90
    2
 70
    0
 43
0
 10
22.12545806634545
 20
54.73139413302237
 10
22.12545806634545
 20
54.10654186975717
  0
LWPOLYLINE
  5
D2
100
AcDbEntity
  8
silktop
  6
ByLayer
 62
    7
370
   -1
100
AcDbPolyline
 90
    2
 70
    0
 43
0
 10
22.04025090904008
 20
54.10654186975717
 10
22.19646380712576
 20
54.10654186975717
  0
LWPOLYLINE
  5
D3
100
AcDbEntity
  8
silktop
  6
ByLayer
 62
    7
370
   -1
100
AcDbPolyline
 90
   21
 70
    1
 43
0
 10
22.67930458883034
 20
54.10654186975717
 10
22.6224995936526
 20
54.10654186975717
 10
22.57989601499991
 20
54.14914544840986
 10
22.53729243634723
 20
54.22015118919017
 10
22.50889027421961
 20
54.29115726543173
 10
22.49468885769454
 20
54.37636442273709
 10
22.49468885769454
 20
54.46157158004245
 10
22.50889027421961
 20
54.54677873734783
 10
22.53729243634723
 20
54.61778481358937
 10
22.57989601499991
 20
54.68879055436969
 10
22.6224995936526
 20
54.73139413302237
 10
22.73610924854684
 20
54.73139413302237
 10
22.77871282719952
 20
54.68879055436969
 10
22.8213164058522
 20
54.61778481358937
 10
22.84971890344108
 20
54.54677873734783
 10
22.86391998450489
 20
54.46157158004245
 10
22.86391998450489
 20
54.37636442273709
 10
22.84971890344108
 20
54.29115726543173
 10
22.8213164058522
 20
54.22015118919017
 10
22.77871282719952
 20
54.14914544840986
 10
22.73610924854684
 20
54.10654186975717
  0
LWPOLYLINE
  5
D4
100
AcDbEntity
  8
silktop
  6
ByLayer
 62
    7
370
   -1
100
AcDbPolyline
 90
   11
 70
    0
 43
0
 10
23.09113895883211
 20
54.23435260571522
 10
23.1337425374848
 20
54.14914544840986
 10
23.17634611613748
 20
54.10654186975717
 10
23.30415685209554
 20
54.10654186975717
 10
23.34676043074822
 20
54.16334652947367
 10
23.38936400940091
 20
54.23435260571522
 10
23.38936400940091
 20
54.29115726543173
 10
23.37516292833709
 20
54.36216334167327
 10
23.33255934968441
 20
54.41896800138978
 10
23.28995577103172
 20
54.44737049897865
 10
23.21894969479017
 20
54.44737049897865
  0
LWPOLYLINE
  5
D5
100
AcDbEntity
  8
silktop
  6
ByLayer
 62
    7
370
   -1
100
AcDbPolyline
 90
    9
 70
    0
 43
0
 10
23.28995577103172
 20
54.44737049897865
 10
23.3183582686206
 20
54.47577266110627
 10
23.36096184727328
 20
54.53257765628401
 10
23.37516292833709
 20
54.5893823160005
 10
23.36096184727328
 20
54.646186975717
 10
23.3183582686206
 20
54.70299197089475
 10
23.26155327344285
 20
54.73139413302237
 10
23.20474861372636
 20
54.73139413302237
 10
23.14794395400986
 20
54.68879055436969
  0
LWPOLYLINE
  5
D6
100
AcDbEntity
  8
silktop
  6
ByLayer
 62
    7
370
   -1
100
AcDbPolyline
 90
    3
 70
    0
 43
0
 10
24.11362484649653
 20
54.10654186975717
 10
24.11362484649653
 20
54.73139413302237
 10
24.04261910571622
 20
54.60358339706432
  0
LWPOLYLINE
  5
D7
100
AcDbEntity
  8
silktop
  6
ByLayer
 62
    7
370
   -1
100
AcDbPolyline
 90
    2
 70
    0
 43
0
 10
24.04261910571622
 20
54.10654186975717
 10
24.1988320038019
 20
54.10654186975717
  0
LWPOLYLINE
  5
D8
100
AcDbEntity
  8
silktop
  6
ByLayer
 62
    7
370
   -1
100
AcDbPolyline
 90
   14
 70
    0
 43
0
 10
24.55386204954843
 20
54.63198589465319
 10
24.59646562820111
 20
54.68879055436969
 10
24.63906887139255
 20
54.73139413302237
 10
24.69587386657029
 20
54.73139413302237
 10
24.75267852628679
 20
54.71719305195856
 10
24.80948318600328
 20
54.66038839224206
 10
24.82368460252834
 20
54.60358339706432
 10
24.80948318600328
 20
54.53257765628401
 10
24.78108102387566
 20
54.48997407763132
 10
24.65327028791761
 20
54.37636442273709
 10
24.59646562820111
 20
54.30535834649553
 10
24.55386204954843
 20
54.19174902706254
 10
24.53966063302337
 20
54.10654186975717
 10
24.82368460252834
 20
54.10654186975717
  0
LWPOLYLINE
  5
D9
100
AcDbEntity
  8
silktop
  6
ByLayer
 62
    7
370
   -1
100
AcDbPolyline
 90
    3
 70
    0
 43
0
 10
25.06510465791938
 20
54.73139413302237
 10
25.23551897253012
 20
54.10654186975717
 10
25.40593328714085
 20
54.73139413302237
  0
LWPOLYLINE
  5
DA
100
AcDbEntity
  8
silktop
  6
ByLayer
 62
    7
370
   -1
100
AcDbPolyline
 90
    2
 70
    0
 43
0
 10
24.04261910571622
 20
53.6237010880526
 10
24.1988320038019
 20
53.6237010880526
  0
LWPOLYLINE
  5
DB
100
AcDbEntity
  8
silktop
  6
ByLayer
 62
    7
370
   -1
100
AcDbPolyline
 90
    2
 70
    0
 43
0
 10
24.11362484649653
 20
53.6237010880526
 10
24.11362484649653
 20
52.98464740826234
  0
LWPOLYLINE
  5
DC
100
AcDbEntity
  8
silktop
  6
ByLayer
 62
    7
370
   -1
100
AcDbPolyline
 90
    2
 70
    0
 43
0
 10
24.04261910571622
 20
52.98464740826234
 10
24.1988320038019
 20
52.98464740826234
  0
LWPOLYLINE
  5
DD
100
AcDbEntity
  8
silktop
  6
ByLayer
 62
    7
370
   -1
100
AcDbPolyline
 90
   22
 70
    1
 43
0
 10
24.68167245004523
 20
52.98464740826234
 10
24.62486779032873
 20
52.99884882478739
 10
24.58226421167605
 20
53.04145240344008
 10
24.53966063302337
 20
53.09825706315657
 10
24.51125847089574
 20
53.16926313939813
 10
24.49705705437068
 20
53.2544702967035
 10
24.49705705437068
 20
53.33967745400887
 10
24.51125847089574
 20
53.42488461131423
 10
24.53966063302337
 20
53.5100917686196
 10
24.58226421167605
 20
53.56689642833609
 10
24.62486779032873
 20
53.60950000698878
 10
24.68167245004523
 20
53.6237010880526
 10
24.73847744522297
 20
53.60950000698878
 10
24.78108102387566
 20
53.56689642833609
 10
24.82368460252834
 20
53.5100917686196
 10
24.85208676465597
 20
53.42488461131423
 10
24.86628818118103
 20
53.33967745400887
 10
24.86628818118103
 20
53.2544702967035
 10
24.85208676465597
 20
53.16926313939813
 10
24.82368460252834
 20
53.09825706315657
 10
24.78108102387566
 20
53.04145240344008
 10
24.73847744522297
 20
52.99884882478739
  0
LWPOLYLINE
  5
DE
100
AcDbEntity
  8
silktop
  6
ByLayer
 62
    7
370
   -1
100
AcDbPolyline
 90
    4
 70
    0
 43
0
 10
25.32072612983549
 20
52.98464740826234
 10
25.32072612983549
 20
53.6237010880526
 10
25.06510465791938
 20
53.16926313939813
 10
25.40593328714085
 20
53.16926313939813
  0
LWPOLYLINE
  5
DF
100
AcDbEntity
  8
silktop
  6
ByLayer
 62
    7
370
   -1
100
AcDbPolyline
 90
    3
 70
    0
 43
0
 10
22.12545806634545
 20
52.98464740826234
 10
22.12545806634545
 20
53.6237010880526
 10
22.04025090904008
 20
53.49589035209455
  0
LWPOLYLINE
  5
E0
100
AcDbEntity
  8
silktop
  6
ByLayer
 62
    7
370
   -1
100
AcDbPolyline
 90
    2
 70
    0
 43
0
 10
22.04025090904008
 20
52.98464740826234
 10
22.19646380712576
 20
52.98464740826234
  0
LWPOLYLINE
  5
E1
100
AcDbEntity
  8
silktop
  6
ByLayer
 62
    7
370
   -1
100
AcDbPolyline
 90
    3
 70
    0
 43
0
 10
22.50889027421961
 20
53.6237010880526
 10
22.67930458883034
 20
52.98464740826234
 10
22.84971890344108
 20
53.6237010880526
  0
LWPOLYLINE
  5
E2
100
AcDbEntity
  8
silktop
  6
ByLayer
 62
    7
370
   -1
100
AcDbPolyline
 90
   28
 70
    1
 43
0
 10
23.23315111131523
 20
52.98464740826234
 10
23.28995577103172
 20
52.99884882478739
 10
23.33255934968441
 20
53.02725098691501
 10
23.37516292833709
 20
53.08405598209277
 10
23.38936400940091
 20
53.15506172287307
 10
23.37516292833709
 20
53.22606779911462
 10
23.33255934968441
 20
53.29707387535618
 10
23.27575468996791
 20
53.32547603748381
 10
23.20474861372636
 20
53.32547603748381
 10
23.16214503507367
 20
53.33967745400887
 10
23.1337425374848
 20
53.39648211372536
 10
23.11954145642099
 20
53.46748818996692
 10
23.1337425374848
 20
53.55269534727229
 10
23.17634611613748
 20
53.59529892592497
 10
23.23315111131523
 20
53.6237010880526
 10
23.28995577103172
 20
53.59529892592497
 10
23.33255934968441
 20
53.55269534727229
 10
23.36096184727328
 20
53.46748818996692
 10
23.34676043074822
 20
53.39648211372536
 10
23.30415685209554
 20
53.33967745400887
 10
23.27575468996791
 20
53.32547603748381
 10
23.20474861372636
 20
53.32547603748381
 10
23.14794395400986
 20
53.29707387535618
 10
23.10534037535718
 20
53.22606779911462
 10
23.09113895883211
 20
53.15506172287307
 10
23.10534037535718
 20
53.08405598209277
 10
23.1337425374848
 20
53.02725098691501
 10
23.19054753266255
 20
52.99884882478739
  0
LWPOLYLINE
  5
E3
100
AcDbEntity
  8
silktop
  6
ByLayer
 62
    7
370
   -1
100
AcDbPolyline
 90
    2
 70
    0
 43
0
 10
23.68758905996969
 20
52.70062377421861
 10
25.73256083529851
 20
52.70062377421861
  0
LWPOLYLINE
  5
E4
100
AcDbEntity
  8
silktop
  6
ByLayer
 62
    7
370
   -1
100
AcDbPolyline
 90
    2
 70
    0
 43
0
 10
23.68758905996969
 20
54.98701560493848
 10
23.68758905996969
 20
52.70062377421861
  0
LWPOLYLINE
  5
E5
100
AcDbEntity
  8
silktop
  6
ByLayer
 62
    7
370
   -1
100
AcDbPolyline
 90
    3
 70
    0
 43
0
 10
21.65681870116593
 20
52.70062377421861
 10
21.65681870116593
 20
54.98701560493848
 10
23.68758905996969
 20
54.98701560493848
  0
LWPOLYLINE
  5
E6
100
AcDbEntity
  8
silktop
  6
ByLayer
 62
    7
370
   -1
100
AcDbPolyline
 90
    3
 70
    0
 43
0
 10
26.11599304317267
 20
54.10654186975717
 10
26.11599304317267
 20
54.73139413302237
 10
26.0307858858673
 20
54.60358339706432
  0
LWPOLYLINE
  5
E7
100
AcDbEntity
  8
silktop
  6
ByLayer
 62
    7
370
   -1
100
AcDbPolyline
 90
    2
 70
    0
 43
0
 10
26.0307858858673
 20
54.10654186975717
 10
26.20120020047803
 20
54.10654186975717
  0
LWPOLYLINE
  5
E8
100
AcDbEntity
  8
silktop
  6
ByLayer
 62
    7
370
   -1
100
AcDbPolyline
 90
   14
 70
    0
 43
0
 10
26.5420288296995
 20
54.63198589465319
 10
26.58463240835219
 20
54.68879055436969
 10
26.64143706806869
 20
54.73139413302237
 10
26.69824206324643
 20
54.73139413302237
 10
26.75504672296293
 20
54.71719305195856
 10
26.81185138267942
 20
54.66038839224206
 10
26.82605279920448
 20
54.60358339706432
 10
26.81185138267942
 20
54.53257765628401
 10
26.7834492205518
 20
54.48997407763132
 10
26.65563848459374
 20
54.37636442273709
 10
26.58463240835219
 20
54.30535834649553
 10
26.5420288296995
 20
54.19174902706254
 10
26.5420288296995
 20
54.10654186975717
 10
26.82605279920448
 20
54.10654186975717
  0
LWPOLYLINE
  5
E9
100
AcDbEntity
  8
silktop
  6
ByLayer
 62
    7
370
   -1
100
AcDbPolyline
 90
    3
 70
    0
 43
0
 10
27.06747285459552
 20
54.73139413302237
 10
27.23788716920626
 20
54.10654186975717
 10
27.408301483817
 20
54.73139413302237
  0
LWPOLYLINE
  5
EA
100
AcDbEntity
  8
silktop
  6
ByLayer
 62
    7
370
   -1
100
AcDbPolyline
 90
   20
 70
    0
 43
0
 10
28.16096481850149
 20
54.41896800138978
 10
28.28877555445954
 20
54.41896800138978
 10
28.28877555445954
 20
54.23435260571522
 10
28.26037305687067
 20
54.16334652947367
 10
28.20356839715418
 20
54.12074295082099
 10
28.13256232091262
 20
54.10654186975717
 10
28.07575766119612
 20
54.12074295082099
 10
28.01895300147962
 20
54.16334652947367
 10
27.99055050389075
 20
54.23435260571522
 10
27.96214800630188
 20
54.30535834649553
 10
27.94794692523807
 20
54.39056550380091
 10
27.94794692523807
 20
54.46157158004245
 10
27.96214800630188
 20
54.53257765628401
 10
27.99055050389075
 20
54.60358339706432
 10
28.01895300147962
 20
54.66038839224206
 10
28.06155658013231
 20
54.70299197089475
 10
28.11836123984881
 20
54.73139413302237
 10
28.16096481850149
 20
54.73139413302237
 10
28.21776947821798
 20
54.71719305195856
 10
28.26037305687067
 20
54.67458947330588
  0
LWPOLYLINE
  5
EB
100
AcDbEntity
  8
silktop
  6
ByLayer
 62
    7
370
   -1
100
AcDbPolyline
 90
    4
 70
    0
 43
0
 10
28.51599452878677
 20
54.10654186975717
 10
28.51599452878677
 20
54.73139413302237
 10
28.82842099588062
 20
54.10654186975717
 10
28.82842099588062
 20
54.73139413302237
  0
LWPOLYLINE
  5
EC
100
AcDbEntity
  8
silktop
  6
ByLayer
 62
    7
370
   -1
100
AcDbPolyline
 90
   12
 70
    1
 43
0
 10
29.08404213233547
 20
54.10654186975717
 10
29.08404213233547
 20
54.73139413302237
 10
29.22605428481858
 20
54.73139413302237
 10
29.28285894453508
 20
54.70299197089475
 10
29.31126144212395
 20
54.66038839224206
 10
29.35386502077664
 20
54.60358339706432
 10
29.38226718290426
 20
54.53257765628401
 10
29.38226718290426
 20
54.3195597630206
 10
29.35386502077664
 20
54.23435260571522
 10
29.31126144212395
 20
54.17754761053748
 10
29.28285894453508
 20
54.1349440318848
 10
29.22605428481858
 20
54.10654186975717
  0
LWPOLYLINE
  5
ED
100
AcDbEntity
  8
silktop
  6
ByLayer
 62
    7
370
   -1
100
AcDbPolyline
 90
    2
 70
    0
 43
0
 10
28.03315408254344
 20
53.6237010880526
 10
28.20356839715418
 20
53.6237010880526
  0
LWPOLYLINE
  5
EE
100
AcDbEntity
  8
silktop
  6
ByLayer
 62
    7
370
   -1
100
AcDbPolyline
 90
    2
 70
    0
 43
0
 10
28.11836123984881
 20
53.6237010880526
 10
28.11836123984881
 20
52.98464740826234
  0
LWPOLYLINE
  5
EF
100
AcDbEntity
  8
silktop
  6
ByLayer
 62
    7
370
   -1
100
AcDbPolyline
 90
    2
 70
    0
 43
0
 10
28.03315408254344
 20
52.98464740826234
 10
28.20356839715418
 20
52.98464740826234
  0
LWPOLYLINE
  5
F0
100
AcDbEntity
  8
silktop
  6
ByLayer
 62
    7
370
   -1
100
AcDbPolyline
 90
   20
 70
    1
 43
0
 10
28.67220776233369
 20
52.98464740826234
 10
28.62960418368101
 20
52.99884882478739
 10
28.57279952396452
 20
53.04145240344008
 10
28.53019594531183
 20
53.09825706315657
 10
28.50179344772296
 20
53.16926313939813
 10
28.50179344772296
 20
53.42488461131423
 10
28.53019594531183
 20
53.5100917686196
 10
28.57279952396452
 20
53.56689642833609
 10
28.62960418368101
 20
53.60950000698878
 10
28.67220776233369
 20
53.6237010880526
 10
28.72901242205019
 20
53.60950000698878
 10
28.78581741722793
 20
53.56689642833609
 10
28.81421957935556
 20
53.5100917686196
 10
28.84262207694443
 20
53.42488461131423
 10
28.85682315800824
 20
53.33967745400887
 10
28.85682315800824
 20
53.2544702967035
 10
28.84262207694443
 20
53.16926313939813
 10
28.81421957935556
 20
53.09825706315657
 10
28.78581741722793
 20
53.04145240344008
 10
28.72901242205019
 20
52.99884882478739
  0
LWPOLYLINE
  5
F1
100
AcDbEntity
  8
silktop
  6
ByLayer
 62
    7
370
   -1
100
AcDbPolyline
 90
   16
 70
    0
 43
0
 10
29.08404213233547
 20
53.08405598209277
 10
29.12664571098816
 20
53.02725098691501
 10
29.16924928964084
 20
52.99884882478739
 10
29.2402553658824
 20
52.98464740826234
 10
29.29706002559889
 20
53.01304990585121
 10
29.33966360425157
 20
53.04145240344008
 10
29.38226718290426
 20
53.12665956074544
 10
29.38226718290426
 20
53.21186671805082
 10
29.36806610184045
 20
53.29707387535618
 10
29.33966360425157
 20
53.33967745400887
 10
29.29706002559889
 20
53.38228103266155
 10
29.2402553658824
 20
53.39648211372536
 10
29.19765178722971
 20
53.38228103266155
 10
29.14084712751322
 20
53.33967745400887
 10
29.15504820857703
 20
53.6237010880526
 10
29.33966360425157
 20
53.6237010880526
  0
LWPOLYLINE
  5
F2
100
AcDbEntity
  8
silktop
  6
ByLayer
 62
    7
370
   -1
100
AcDbPolyline
 90
   20
 70
    0
 43
0
 10
26.15859662182535
 20
53.29707387535618
 10
26.30060843884721
 20
53.29707387535618
 10
26.30060843884721
 20
53.11245814422039
 10
26.25800486019453
 20
53.04145240344008
 10
26.20120020047803
 20
53.01304990585121
 10
26.14439554076154
 20
52.98464740826234
 10
26.07338946451998
 20
53.01304990585121
 10
26.0307858858673
 20
53.04145240344008
 10
25.98818230721462
 20
53.11245814422039
 10
25.95977980962574
 20
53.18346422046194
 10
25.94557872856193
 20
53.26867137776731
 10
25.94557872856193
 20
53.33967745400887
 10
25.95977980962574
 20
53.41068319478917
 10
25.98818230721462
 20
53.48168927103073
 10
26.0307858858673
 20
53.55269534727229
 10
26.05918838345617
 20
53.58109750939991
 10
26.11599304317267
 20
53.6237010880526
 10
26.17279770288916
 20
53.6237010880526
 10
26.21540128154184
 20
53.59529892592497
 10
26.25800486019453
 20
53.55269534727229
  0
LWPOLYLINE
  5
F3
100
AcDbEntity
  8
silktop
  6
ByLayer
 62
    7
370
   -1
100
AcDbPolyline
 90
    4
 70
    0
 43
0
 10
26.52782774863569
 20
52.98464740826234
 10
26.52782774863569
 20
53.6237010880526
 10
26.84025388026829
 20
52.98464740826234
 10
26.84025388026829
 20
53.6237010880526
  0
LWPOLYLINE
  5
F4
100
AcDbEntity
  8
silktop
  6
ByLayer
 62
    7
370
   -1
100
AcDbPolyline
 90
   12
 70
    1
 43
0
 10
27.08167427112058
 20
52.98464740826234
 10
27.08167427112058
 20
53.6237010880526
 10
27.22368608814244
 20
53.6237010880526
 10
27.28049074785894
 20
53.58109750939991
 10
27.32309432651163
 20
53.55269534727229
 10
27.3514968241005
 20
53.48168927103073
 10
27.37989932168937
 20
53.41068319478917
 10
27.37989932168937
 20
53.19766530152575
 10
27.3514968241005
 20
53.12665956074544
 10
27.32309432651163
 20
53.05565348450389
 10
27.28049074785894
 20
53.01304990585121
 10
27.22368608814244
 20
52.98464740826234
  0
LWPOLYLINE
  5
F5
100
AcDbEntity
  8
silktop
  6
ByLayer
 62
    7
370
   -1
100
AcDbPolyline
 90
    2
 70
    0
 43
0
 10
27.63552079360547
 20
52.70062377421861
 10
29.66629115240923
 20
52.70062377421861
  0
LWPOLYLINE
  5
F6
100
AcDbEntity
  8
silktop
  6
ByLayer
 62
    7
370
   -1
100
AcDbPolyline
 90
    2
 70
    0
 43
0
 10
27.63552079360547
 20
54.98701560493848
 10
27.63552079360547
 20
52.70062377421861
  0
LWPOLYLINE
  5
F7
100
AcDbEntity
  8
silktop
  6
ByLayer
 62
    7
370
   -1
100
AcDbPolyline
 90
    3
 70
    0
 43
0
 10
25.73256083529851
 20
52.70062377421861
 10
25.73256083529851
 20
54.98701560493848
 10
27.63552079360547
 20
54.98701560493848
  0
LWPOLYLINE
  5
F8
100
AcDbEntity
  8
silktop
  6
ByLayer
 62
    7
370
   -1
100
AcDbPolyline
 90
    2
 70
    0
 43
0
 10
30.03552227921958
 20
54.73139413302237
 10
30.20593659383031
 20
54.73139413302237
  0
LWPOLYLINE
  5
F9
100
AcDbEntity
  8
silktop
  6
ByLayer
 62
    7
370
   -1
100
AcDbPolyline
 90
    2
 70
    0
 43
0
 10
30.12072943652495
 20
54.73139413302237
 10
30.12072943652495
 20
54.10654186975717
  0
LWPOLYLINE
  5
FA
100
AcDbEntity
  8
silktop
  6
ByLayer
 62
    7
370
   -1
100
AcDbPolyline
 90
    2
 70
    0
 43
0
 10
30.03552227921958
 20
54.10654186975717
 10
30.20593659383031
 20
54.10654186975717
  0
LWPOLYLINE
  5
FB
100
AcDbEntity
  8
silktop
  6
ByLayer
 62
    7
370
   -1
100
AcDbPolyline
 90
   21
 70
    1
 43
0
 10
30.67457595900984
 20
54.10654186975717
 10
30.61777096383209
 20
54.10654186975717
 10
30.57516738517941
 20
54.14914544840986
 10
30.53256380652672
 20
54.22015118919017
 10
30.5041616443991
 20
54.29115726543173
 10
30.48996022787404
 20
54.37636442273709
 10
30.48996022787404
 20
54.46157158004245
 10
30.5041616443991
 20
54.54677873734783
 10
30.53256380652672
 20
54.61778481358937
 10
30.57516738517941
 20
54.68879055436969
 10
30.61777096383209
 20
54.73139413302237
 10
30.73138061872633
 20
54.73139413302237
 10
30.77398419737901
 20
54.68879055436969
 10
30.8165877760317
 20
54.61778481358937
 10
30.84499027362057
 20
54.54677873734783
 10
30.85919135468438
 20
54.46157158004245
 10
30.85919135468438
 20
54.37636442273709
 10
30.84499027362057
 20
54.29115726543173
 10
30.8165877760317
 20
54.22015118919017
 10
30.77398419737901
 20
54.14914544840986
 10
30.73138061872633
 20
54.10654186975717
  0
LWPOLYLINE
  5
FC
100
AcDbEntity
  8
silktop
  6
ByLayer
 62
    7
370
   -1
100
AcDbPolyline
 90
    7
 70
    0
 43
0
 10
31.22842248149472
 20
54.10654186975717
 10
31.24262356255853
 20
54.23435260571522
 10
31.25682464362234
 20
54.36216334167327
 10
31.28522714121122
 20
54.46157158004245
 10
31.31362963880009
 20
54.5751812349367
 10
31.37043429851659
 20
54.73139413302237
 10
31.10061174553667
 20
54.73139413302237
  0
LWPOLYLINE
  5
FD
100
AcDbEntity
  8
silktop
  6
ByLayer
 62
    7
370
   -1
100
AcDbPolyline
 90
    2
 70
    0
 43
0
 10
32.03789047589571
 20
54.73139413302237
 10
32.19410337398138
 20
54.73139413302237
  0
LWPOLYLINE
  5
FE
100
AcDbEntity
  8
silktop
  6
ByLayer
 62
    7
370
   -1
100
AcDbPolyline
 90
    2
 70
    0
 43
0
 10
32.12309763320108
 20
54.73139413302237
 10
32.12309763320108
 20
54.10654186975717
  0
LWPOLYLINE
  5
FF
100
AcDbEntity
  8
silktop
  6
ByLayer
 62
    7
370
   -1
100
AcDbPolyline
 90
    2
 70
    0
 43
0
 10
32.03789047589571
 20
54.10654186975717
 10
32.19410337398138
 20
54.10654186975717
  0
LWPOLYLINE
  5
100
100
AcDbEntity
  8
silktop
  6
ByLayer
 62
    7
370
   -1
100
AcDbPolyline
 90
   21
 70
    1
 43
0
 10
32.67694415568597
 20
54.10654186975717
 10
32.62013916050823
 20
54.10654186975717
 10
32.57753558185554
 20
54.14914544840986
 10
32.53493200320286
 20
54.22015118919017
 10
32.50652984107523
 20
54.29115726543173
 10
32.49232842455018
 20
54.37636442273709
 10
32.49232842455018
 20
54.46157158004245
 10
32.50652984107523
 20
54.54677873734783
 10
32.53493200320286
 20
54.61778481358937
 10
32.57753558185554
 20
54.68879055436969
 10
32.62013916050823
 20
54.73139413302237
 10
32.73374881540247
 20
54.73139413302237
 10
32.77635239405515
 20
54.68879055436969
 10
32.81895597270783
 20
54.61778481358937
 10
32.84735847029671
 20
54.54677873734783
 10
32.86155955136052
 20
54.46157158004245
 10
32.86155955136052
 20
54.37636442273709
 10
32.84735847029671
 20
54.29115726543173
 10
32.81895597270783
 20
54.22015118919017
 10
32.77635239405515
 20
54.14914544840986
 10
32.73374881540247
 20
54.10654186975717
  0
LWPOLYLINE
  5
101
100
AcDbEntity
  8
silktop
  6
ByLayer
 62
    7
370
   -1
100
AcDbPolyline
 90
   23
 70
    0
 43
0
 10
33.11718102327662
 20
54.17754761053748
 10
33.17398568299312
 20
54.12074295082099
 10
33.2165892616458
 20
54.10654186975717
 10
33.27339425682354
 20
54.12074295082099
 10
33.33019891654004
 20
54.19174902706254
 10
33.35860141412891
 20
54.27695618436791
 10
33.37280249519273
 20
54.37636442273709
 10
33.37280249519273
 20
54.48997407763132
 10
33.35860141412891
 20
54.5893823160005
 10
33.33019891654004
 20
54.67458947330588
 10
33.28759533788736
 20
54.71719305195856
 10
33.23079067817086
 20
54.73139413302237
 10
33.18818709951817
 20
54.71719305195856
 10
33.14558352086549
 20
54.67458947330588
 10
33.11718102327662
 20
54.60358339706432
 10
33.10297994221281
 20
54.53257765628401
 10
33.11718102327662
 20
54.44737049897865
 10
33.14558352086549
 20
54.37636442273709
 10
33.18818709951817
 20
54.3337608440844
 10
33.23079067817086
 20
54.3195597630206
 10
33.28759533788736
 20
54.34796192514822
 10
33.33019891654004
 20
54.40476692032596
 10
33.37280249519273
 20
54.48997407763132
  0
LWPOLYLINE
  5
102
100
AcDbEntity
  8
silktop
  6
ByLayer
 62
    7
370
   -1
100
AcDbPolyline
 90
    2
 70
    0
 43
0
 10
32.03789047589571
 20
53.6237010880526
 10
32.19410337398138
 20
53.6237010880526
  0
LWPOLYLINE
  5
103
100
AcDbEntity
  8
silktop
  6
ByLayer
 62
    7
370
   -1
100
AcDbPolyline
 90
    2
 70
    0
 43
0
 10
32.12309763320108
 20
53.6237010880526
 10
32.12309763320108
 20
52.98464740826234
  0
LWPOLYLINE
  5
104
100
AcDbEntity
  8
silktop
  6
ByLayer
 62
    7
370
   -1
100
AcDbPolyline
 90
    2
 70
    0
 43
0
 10
32.03789047589571
 20
52.98464740826234
 10
32.19410337398138
 20
52.98464740826234
  0
LWPOLYLINE
  5
105
100
AcDbEntity
  8
silktop
  6
ByLayer
 62
    7
370
   -1
100
AcDbPolyline
 90
   22
 70
    1
 43
0
 10
32.67694415568597
 20
52.98464740826234
 10
32.62013916050823
 20
52.99884882478739
 10
32.57753558185554
 20
53.04145240344008
 10
32.53493200320286
 20
53.09825706315657
 10
32.50652984107523
 20
53.16926313939813
 10
32.49232842455018
 20
53.2544702967035
 10
32.49232842455018
 20
53.33967745400887
 10
32.50652984107523
 20
53.42488461131423
 10
32.53493200320286
 20
53.5100917686196
 10
32.57753558185554
 20
53.56689642833609
 10
32.62013916050823
 20
53.60950000698878
 10
32.67694415568597
 20
53.6237010880526
 10
32.73374881540247
 20
53.60950000698878
 10
32.77635239405515
 20
53.56689642833609
 10
32.81895597270783
 20
53.5100917686196
 10
32.84735847029671
 20
53.42488461131423
 10
32.86155955136052
 20
53.33967745400887
 10
32.86155955136052
 20
53.2544702967035
 10
32.84735847029671
 20
53.16926313939813
 10
32.81895597270783
 20
53.09825706315657
 10
32.77635239405515
 20
53.04145240344008
 10
32.73374881540247
 20
52.99884882478739
  0
LWPOLYLINE
  5
106
100
AcDbEntity
  8
silktop
  6
ByLayer
 62
    7
370
   -1
100
AcDbPolyline
 90
   28
 70
    1
 43
0
 10
33.23079067817086
 20
52.98464740826234
 10
33.28759533788736
 20
52.99884882478739
 10
33.34439999760385
 20
53.02725098691501
 10
33.37280249519273
 20
53.08405598209277
 10
33.38700357625654
 20
53.15506172287307
 10
33.37280249519273
 20
53.22606779911462
 10
33.33019891654004
 20
53.29707387535618
 10
33.27339425682354
 20
53.32547603748381
 10
33.20238818058199
 20
53.32547603748381
 10
33.1597846019293
 20
53.33967745400887
 10
33.13138210434043
 20
53.39648211372536
 10
33.11718102327662
 20
53.46748818996692
 10
33.13138210434043
 20
53.55269534727229
 10
33.18818709951817
 20
53.59529892592497
 10
33.23079067817086
 20
53.6237010880526
 10
33.28759533788736
 20
53.59529892592497
 10
33.34439999760385
 20
53.55269534727229
 10
33.35860141412891
 20
53.46748818996692
 10
33.34439999760385
 20
53.39648211372536
 10
33.31599783547622
 20
53.33967745400887
 10
33.27339425682354
 20
53.32547603748381
 10
33.20238818058199
 20
53.32547603748381
 10
33.14558352086549
 20
53.29707387535618
 10
33.10297994221281
 20
53.22606779911462
 10
33.08877852568775
 20
53.15506172287307
 10
33.10297994221281
 20
53.08405598209277
 10
33.13138210434043
 20
53.02725098691501
 10
33.18818709951817
 20
52.99884882478739
  0
LWPOLYLINE
  5
107
100
AcDbEntity
  8
silktop
  6
ByLayer
 62
    7
370
   -1
100
AcDbPolyline
 90
    2
 70
    0
 43
0
 10
30.03552227921958
 20
53.6237010880526
 10
30.20593659383031
 20
53.6237010880526
  0
LWPOLYLINE
  5
108
100
AcDbEntity
  8
silktop
  6
ByLayer
 62
    7
370
   -1
100
AcDbPolyline
 90
    2
 70
    0
 43
0
 10
30.12072943652495
 20
53.6237010880526
 10
30.12072943652495
 20
52.98464740826234
  0
LWPOLYLINE
  5
109
100
AcDbEntity
  8
silktop
  6
ByLayer
 62
    7
370
   -1
100
AcDbPolyline
 90
    2
 70
    0
 43
0
 10
30.03552227921958
 20
52.98464740826234
 10
30.20593659383031
 20
52.98464740826234
  0
LWPOLYLINE
  5
10A
100
AcDbEntity
  8
silktop
  6
ByLayer
 62
    7
370
   -1
100
AcDbPolyline
 90
   22
 70
    1
 43
0
 10
30.67457595900984
 20
52.98464740826234
 10
30.61777096383209
 20
52.99884882478739
 10
30.57516738517941
 20
53.04145240344008
 10
30.53256380652672
 20
53.09825706315657
 10
30.5041616443991
 20
53.16926313939813
 10
30.48996022787404
 20
53.2544702967035
 10
30.48996022787404
 20
53.33967745400887
 10
30.5041616443991
 20
53.42488461131423
 10
30.53256380652672
 20
53.5100917686196
 10
30.57516738517941
 20
53.56689642833609
 10
30.61777096383209
 20
53.60950000698878
 10
30.67457595900984
 20
53.6237010880526
 10
30.73138061872633
 20
53.60950000698878
 10
30.77398419737901
 20
53.56689642833609
 10
30.8165877760317
 20
53.5100917686196
 10
30.84499027362057
 20
53.42488461131423
 10
30.85919135468438
 20
53.33967745400887
 10
30.85919135468438
 20
53.2544702967035
 10
30.84499027362057
 20
53.16926313939813
 10
30.8165877760317
 20
53.09825706315657
 10
30.77398419737901
 20
53.04145240344008
 10
30.73138061872633
 20
52.99884882478739
  0
LWPOLYLINE
  5
10B
100
AcDbEntity
  8
silktop
  6
ByLayer
 62
    7
370
   -1
100
AcDbPolyline
 90
   22
 70
    0
 43
0
 10
31.11481282660048
 20
53.2544702967035
 10
31.15741640525317
 20
53.32547603748381
 10
31.20001998390585
 20
53.36807961613649
 10
31.25682464362234
 20
53.38228103266155
 10
31.29942822227503
 20
53.36807961613649
 10
31.3278307198639
 20
53.32547603748381
 10
31.35623321745278
 20
53.2544702967035
 10
31.37043429851659
 20
53.18346422046194
 10
31.35623321745278
 20
53.12665956074544
 10
31.3278307198639
 20
53.05565348450389
 10
31.28522714121122
 20
53.01304990585121
 10
31.24262356255853
 20
52.98464740826234
 10
31.18581890284204
 20
53.01304990585121
 10
31.14321532418935
 20
53.0698545655677
 10
31.11481282660048
 20
53.16926313939813
 10
31.11481282660048
 20
53.41068319478917
 10
31.14321532418935
 20
53.48168927103073
 10
31.17161748631698
 20
53.55269534727229
 10
31.22842248149472
 20
53.60950000698878
 10
31.27102606014741
 20
53.6237010880526
 10
31.31362963880009
 20
53.59529892592497
 10
31.35623321745278
 20
53.55269534727229
  0
LWPOLYLINE
  5
10C
100
AcDbEntity
  8
silktop
  6
ByLayer
 62
    7
370
   -1
100
AcDbPolyline
 90
    2
 70
    0
 43
0
 10
31.69706184667425
 20
52.70062377421861
 10
33.727832205478
 20
52.70062377421861
  0
LWPOLYLINE
  5
10D
100
AcDbEntity
  8
silktop
  6
ByLayer
 62
    7
370
   -1
100
AcDbPolyline
 90
    2
 70
    0
 43
0
 10
31.69706184667425
 20
54.98701560493848
 10
31.69706184667425
 20
52.70062377421861
  0
LWPOLYLINE
  5
10E
100
AcDbEntity
  8
silktop
  6
ByLayer
 62
    7
370
   -1
100
AcDbPolyline
 90
    3
 70
    0
 43
0
 10
29.66629115240923
 20
52.70062377421861
 10
29.66629115240923
 20
54.98701560493848
 10
31.69706184667425
 20
54.98701560493848
  0
LWPOLYLINE
  5
10F
100
AcDbEntity
  8
silktop
  6
ByLayer
 62
    7
370
   -1
100
AcDbPolyline
 90
    2
 70
    0
 43
0
 10
34.04025833711061
 20
54.73139413302237
 10
34.19647157065753
 20
54.73139413302237
  0
LWPOLYLINE
  5
110
100
AcDbEntity
  8
silktop
  6
ByLayer
 62
    7
370
   -1
100
AcDbPolyline
 90
    2
 70
    0
 43
0
 10
34.12546549441597
 20
54.73139413302237
 10
34.12546549441597
 20
54.10654186975717
  0
LWPOLYLINE
  5
111
100
AcDbEntity
  8
silktop
  6
ByLayer
 62
    7
370
   -1
100
AcDbPolyline
 90
    2
 70
    0
 43
0
 10
34.04025833711061
 20
54.10654186975717
 10
34.19647157065753
 20
54.10654186975717
  0
LWPOLYLINE
  5
112
100
AcDbEntity
  8
silktop
  6
ByLayer
 62
    7
370
   -1
100
AcDbPolyline
 90
   21
 70
    1
 43
0
 10
34.67931201690086
 20
54.10654186975717
 10
34.62250735718437
 20
54.10654186975717
 10
34.57990377853168
 20
54.14914544840986
 10
34.537300199879
 20
54.22015118919017
 10
34.50889770229013
 20
54.29115726543173
 10
34.49469662122631
 20
54.37636442273709
 10
34.49469662122631
 20
54.46157158004245
 10
34.50889770229013
 20
54.54677873734783
 10
34.537300199879
 20
54.61778481358937
 10
34.57990377853168
 20
54.68879055436969
 10
34.62250735718437
 20
54.73139413302237
 10
34.73611701207861
 20
54.73139413302237
 10
34.77872059073129
 20
54.68879055436969
 10
34.82132416938398
 20
54.61778481358937
 10
34.8497263315116
 20
54.54677873734783
 10
34.86392774803666
 20
54.46157158004245
 10
34.86392774803666
 20
54.37636442273709
 10
34.8497263315116
 20
54.29115726543173
 10
34.82132416938398
 20
54.22015118919017
 10
34.77872059073129
 20
54.14914544840986
 10
34.73611701207861
 20
54.10654186975717
  0
LWPOLYLINE
  5
113
100
AcDbEntity
  8
silktop
  6
ByLayer
 62
    7
370
   -1
100
AcDbPolyline
 90
   17
 70
    0
 43
0
 10
35.28996353456349
 20
54.44737049897865
 10
35.31836569669112
 20
54.47577266110627
 10
35.33256711321618
 20
54.53257765628401
 10
35.34676819427999
 20
54.60358339706432
 10
35.33256711321618
 20
54.66038839224206
 10
35.31836569669112
 20
54.70299197089475
 10
35.26156103697462
 20
54.73139413302237
 10
35.07694564130008
 20
54.73139413302237
 10
35.07694564130008
 20
54.10654186975717
 10
35.30416461562731
 20
54.10654186975717
 10
35.34676819427999
 20
54.14914544840986
 10
35.37517069186886
 20
54.20595010812635
 10
35.38937177293268
 20
54.27695618436791
 10
35.37517069186886
 20
54.36216334167327
 10
35.33256711321618
 20
54.41896800138978
 10
35.28996353456349
 20
54.44737049897865
 10
35.07694564130008
 20
54.44737049897865
  0
LWPOLYLINE
  5
114
100
AcDbEntity
  8
silktop
  6
ByLayer
 62
    7
370
   -1
100
AcDbPolyline
 90
    2
 70
    0
 43
0
 10
36.04262653378674
 20
54.73139413302237
 10
36.19883976733367
 20
54.73139413302237
  0
LWPOLYLINE
  5
115
100
AcDbEntity
  8
silktop
  6
ByLayer
 62
    7
370
   -1
100
AcDbPolyline
 90
    2
 70
    0
 43
0
 10
36.1136326100283
 20
54.73139413302237
 10
36.1136326100283
 20
54.10654186975717
  0
LWPOLYLINE
  5
116
100
AcDbEntity
  8
silktop
  6
ByLayer
 62
    7
370
   -1
100
AcDbPolyline
 90
    2
 70
    0
 43
0
 10
36.04262653378674
 20
54.10654186975717
 10
36.19883976733367
 20
54.10654186975717
  0
LWPOLYLINE
  5
117
100
AcDbEntity
  8
silktop
  6
ByLayer
 62
    7
370
   -1
100
AcDbPolyline
 90
   21
 70
    1
 43
0
 10
36.681680213577
 20
54.10654186975717
 10
36.6248755538605
 20
54.10654186975717
 10
36.58227197520782
 20
54.14914544840986
 10
36.53966839655514
 20
54.22015118919017
 10
36.51126589896626
 20
54.29115726543173
 10
36.49706481790246
 20
54.37636442273709
 10
36.49706481790246
 20
54.46157158004245
 10
36.51126589896626
 20
54.54677873734783
 10
36.53966839655514
 20
54.61778481358937
 10
36.58227197520782
 20
54.68879055436969
 10
36.6248755538605
 20
54.73139413302237
 10
36.73848520875474
 20
54.73139413302237
 10
36.78108878740743
 20
54.68879055436969
 10
36.82369236606011
 20
54.61778481358937
 10
36.85209452818773
 20
54.54677873734783
 10
36.8662959447128
 20
54.46157158004245
 10
36.8662959447128
 20
54.37636442273709
 10
36.85209452818773
 20
54.29115726543173
 10
36.82369236606011
 20
54.22015118919017
 10
36.78108878740743
 20
54.14914544840986
 10
36.73848520875474
 20
54.10654186975717
  0
LWPOLYLINE
  5
118
100
AcDbEntity
  8
silktop
  6
ByLayer
 62
    7
370
   -1
100
AcDbPolyline
 90
   13
 70
    1
 43
0
 10
37.09351491904003
 20
54.10654186975717
 10
37.09351491904003
 20
54.73139413302237
 10
37.22132565499808
 20
54.73139413302237
 10
37.27813031471457
 20
54.70299197089475
 10
37.32073389336725
 20
54.66038839224206
 10
37.34913639095613
 20
54.60358339706432
 10
37.377538888545
 20
54.53257765628401
 10
37.39173996960881
 20
54.41896800138978
 10
37.377538888545
 20
54.3195597630206
 10
37.34913639095613
 20
54.23435260571522
 10
37.32073389336725
 20
54.17754761053748
 10
37.27813031471457
 20
54.1349440318848
 10
37.22132565499808
 20
54.10654186975717
  0
LWPOLYLINE
  5
119
100
AcDbEntity
  8
silktop
  6
ByLayer
 62
    7
370
   -1
100
AcDbPolyline
 90
    2
 70
    0
 43
0
 10
36.04262653378674
 20
53.6237010880526
 10
36.19883976733367
 20
53.6237010880526
  0
LWPOLYLINE
  5
11A
100
AcDbEntity
  8
silktop
  6
ByLayer
 62
    7
370
   -1
100
AcDbPolyline
 90
    2
 70
    0
 43
0
 10
36.1136326100283
 20
53.6237010880526
 10
36.1136326100283
 20
52.98464740826234
  0
LWPOLYLINE
  5
11B
100
AcDbEntity
  8
silktop
  6
ByLayer
 62
    7
370
   -1
100
AcDbPolyline
 90
    2
 70
    0
 43
0
 10
36.04262653378674
 20
52.98464740826234
 10
36.19883976733367
 20
52.98464740826234
  0
LWPOLYLINE
  5
11C
100
AcDbEntity
  8
silktop
  6
ByLayer
 62
    7
370
   -1
100
AcDbPolyline
 90
   22
 70
    1
 43
0
 10
36.681680213577
 20
52.98464740826234
 10
36.6248755538605
 20
52.99884882478739
 10
36.58227197520782
 20
53.04145240344008
 10
36.53966839655514
 20
53.09825706315657
 10
36.51126589896626
 20
53.16926313939813
 10
36.49706481790246
 20
53.2544702967035
 10
36.49706481790246
 20
53.33967745400887
 10
36.51126589896626
 20
53.42488461131423
 10
36.53966839655514
 20
53.5100917686196
 10
36.58227197520782
 20
53.56689642833609
 10
36.6248755538605
 20
53.60950000698878
 10
36.681680213577
 20
53.6237010880526
 10
36.73848520875474
 20
53.60950000698878
 10
36.78108878740743
 20
53.56689642833609
 10
36.82369236606011
 20
53.5100917686196
 10
36.85209452818773
 20
53.42488461131423
 10
36.8662959447128
 20
53.33967745400887
 10
36.8662959447128
 20
53.2544702967035
 10
36.85209452818773
 20
53.16926313939813
 10
36.82369236606011
 20
53.09825706315657
 10
36.78108878740743
 20
53.04145240344008
 10
36.73848520875474
 20
52.99884882478739
  0
LWPOLYLINE
  5
11D
100
AcDbEntity
  8
silktop
  6
ByLayer
 62
    7
370
   -1
100
AcDbPolyline
 90
   18
 70
    0
 43
0
 10
37.39173996960881
 20
53.56689642833609
 10
37.34913639095613
 20
53.59529892592497
 10
37.29233173123963
 20
53.6237010880526
 10
37.24972815258695
 20
53.6237010880526
 10
37.17872207634539
 20
53.58109750939991
 10
37.13611849769271
 20
53.53849393074722
 10
37.10771600010384
 20
53.46748818996692
 10
37.07931383797622
 20
53.36807961613649
 10
37.06511242145115
 20
53.26867137776731
 10
37.07931383797622
 20
53.16926313939813
 10
37.10771600010384
 20
53.11245814422039
 10
37.13611849769271
 20
53.04145240344008
 10
37.1929231574092
 20
53.01304990585121
 10
37.23552673606189
 20
52.98464740826234
 10
37.27813031471457
 20
52.98464740826234
 10
37.33493530989232
 20
53.01304990585121
 10
37.377538888545
 20
53.04145240344008
 10
37.40594105067262
 20
53.08405598209277
  0
LWPOLYLINE
  5
11E
100
AcDbEntity
  8
silktop
  6
ByLayer
 62
    7
370
   -1
100
AcDbPolyline
 90
    2
 70
    0
 43
0
 10
34.04025833711061
 20
53.6237010880526
 10
34.19647157065753
 20
53.6237010880526
  0
LWPOLYLINE
  5
11F
100
AcDbEntity
  8
silktop
  6
ByLayer
 62
    7
370
   -1
100
AcDbPolyline
 90
    2
 70
    0
 43
0
 10
34.12546549441597
 20
53.6237010880526
 10
34.12546549441597
 20
52.98464740826234
  0
LWPOLYLINE
  5
120
100
AcDbEntity
  8
silktop
  6
ByLayer
 62
    7
370
   -1
100
AcDbPolyline
 90
    2
 70
    0
 43
0
 10
34.04025833711061
 20
52.98464740826234
 10
34.19647157065753
 20
52.98464740826234
  0
LWPOLYLINE
  5
121
100
AcDbEntity
  8
silktop
  6
ByLayer
 62
    7
370
   -1
100
AcDbPolyline
 90
   22
 70
    1
 43
0
 10
34.67931201690086
 20
52.98464740826234
 10
34.62250735718437
 20
52.99884882478739
 10
34.57990377853168
 20
53.04145240344008
 10
34.537300199879
 20
53.09825706315657
 10
34.50889770229013
 20
53.16926313939813
 10
34.49469662122631
 20
53.2544702967035
 10
34.49469662122631
 20
53.33967745400887
 10
34.50889770229013
 20
53.42488461131423
 10
34.537300199879
 20
53.5100917686196
 10
34.57990377853168
 20
53.56689642833609
 10
34.62250735718437
 20
53.60950000698878
 10
34.67931201690086
 20
53.6237010880526
 10
34.73611701207861
 20
53.60950000698878
 10
34.77872059073129
 20
53.56689642833609
 10
34.82132416938398
 20
53.5100917686196
 10
34.8497263315116
 20
53.42488461131423
 10
34.86392774803666
 20
53.33967745400887
 10
34.86392774803666
 20
53.2544702967035
 10
34.8497263315116
 20
53.16926313939813
 10
34.82132416938398
 20
53.09825706315657
 10
34.77872059073129
 20
53.04145240344008
 10
34.73611701207861
 20
52.99884882478739
  0
LWPOLYLINE
  5
122
100
AcDbEntity
  8
silktop
  6
ByLayer
 62
    7
370
   -1
100
AcDbPolyline
 90
    3
 70
    0
 43
0
 10
35.06274422477501
 20
52.98464740826234
 10
35.23315853938575
 20
53.6237010880526
 10
35.40357285399649
 20
52.98464740826234
  0
LWPOLYLINE
  5
123
100
AcDbEntity
  8
silktop
  6
ByLayer
 62
    7
370
   -1
100
AcDbPolyline
 90
    2
 70
    0
 43
0
 10
35.34676819427999
 20
53.21186671805082
 10
35.13375030101657
 20
53.21186671805082
  0
LWPOLYLINE
  5
124
100
AcDbEntity
  8
silktop
  6
ByLayer
 62
    7
370
   -1
100
AcDbPolyline
 90
    2
 70
    0
 43
0
 10
35.63079216378497
 20
52.70062377421861
 10
37.66156252258872
 20
52.70062377421861
  0
LWPOLYLINE
  5
125
100
AcDbEntity
  8
silktop
  6
ByLayer
 62
    7
370
   -1
100
AcDbPolyline
 90
    2
 70
    0
 43
0
 10
35.63079216378497
 20
54.98701560493848
 10
35.63079216378497
 20
52.70062377421861
  0
LWPOLYLINE
  5
126
100
AcDbEntity
  8
silktop
  6
ByLayer
 62
    7
370
   -1
100
AcDbPolyline
 90
    3
 70
    0
 43
0
 10
33.727832205478
 20
52.70062377421861
 10
33.727832205478
 20
54.98701560493848
 10
35.63079216378497
 20
54.98701560493848
  0
LWPOLYLINE
  5
127
100
AcDbEntity
  8
silktop
  6
ByLayer
 62
    7
370
   -1
100
AcDbPolyline
 90
    2
 70
    0
 43
0
 10
38.04499473046288
 20
54.73139413302237
 10
38.2012079640098
 20
54.73139413302237
  0
LWPOLYLINE
  5
128
100
AcDbEntity
  8
silktop
  6
ByLayer
 62
    7
370
   -1
100
AcDbPolyline
 90
    2
 70
    0
 43
0
 10
38.11600080670443
 20
54.73139413302237
 10
38.11600080670443
 20
54.10654186975717
  0
LWPOLYLINE
  5
129
100
AcDbEntity
  8
silktop
  6
ByLayer
 62
    7
370
   -1
100
AcDbPolyline
 90
    2
 70
    0
 43
0
 10
38.04499473046288
 20
54.10654186975717
 10
38.2012079640098
 20
54.10654186975717
  0
LWPOLYLINE
  5
12A
100
AcDbEntity
  8
silktop
  6
ByLayer
 62
    7
370
   -1
100
AcDbPolyline
 90
   21
 70
    1
 43
0
 10
38.68404841025313
 20
54.10654186975717
 10
38.62724375053664
 20
54.10654186975717
 10
38.57043875535889
 20
54.14914544840986
 10
38.54203659323127
 20
54.22015118919017
 10
38.5136340956424
 20
54.29115726543173
 10
38.49943301457859
 20
54.37636442273709
 10
38.49943301457859
 20
54.46157158004245
 10
38.5136340956424
 20
54.54677873734783
 10
38.54203659323127
 20
54.61778481358937
 10
38.57043875535889
 20
54.68879055436969
 10
38.62724375053664
 20
54.73139413302237
 10
38.72665198890582
 20
54.73139413302237
 10
38.78345664862232
 20
54.68879055436969
 10
38.826060227275
 20
54.61778481358937
 10
38.85446272486387
 20
54.54677873734783
 10
38.86866380592769
 20
54.46157158004245
 10
38.86866380592769
 20
54.37636442273709
 10
38.85446272486387
 20
54.29115726543173
 10
38.826060227275
 20
54.22015118919017
 10
38.78345664862232
 20
54.14914544840986
 10
38.72665198890582
 20
54.10654186975717
  0
LWPOLYLINE
  5
12B
100
AcDbEntity
  8
silktop
  6
ByLayer
 62
    7
370
   -1
100
AcDbPolyline
 90
    4
 70
    0
 43
0
 10
39.37990674975989
 20
54.10654186975717
 10
39.09588311571616
 20
54.10654186975717
 10
39.09588311571616
 20
54.73139413302237
 10
39.37990674975989
 20
54.73139413302237
  0
LWPOLYLINE
  5
12C
100
AcDbEntity
  8
silktop
  6
ByLayer
 62
    7
370
   -1
100
AcDbPolyline
 90
    2
 70
    0
 43
0
 10
39.2662974303269
 20
54.43316908245358
 10
39.09588311571616
 20
54.43316908245358
  0
LWPOLYLINE
  5
12D
100
AcDbEntity
  8
silktop
  6
ByLayer
 62
    7
370
   -1
100
AcDbPolyline
 90
   20
 70
    0
 43
0
 10
38.15860438535712
 20
53.29707387535618
 10
38.30061620237898
 20
53.29707387535618
 10
38.30061620237898
 20
53.11245814422039
 10
38.2580126237263
 20
53.04145240344008
 10
38.2012079640098
 20
53.01304990585121
 10
38.14440296883206
 20
52.98464740826234
 10
38.07339722805175
 20
53.01304990585121
 10
38.03079364939907
 20
53.04145240344008
 10
37.98819007074638
 20
53.11245814422039
 10
37.95978757315751
 20
53.18346422046194
 10
37.9455864920937
 20
53.26867137776731
 10
37.9455864920937
 20
53.33967745400887
 10
37.95978757315751
 20
53.41068319478917
 10
37.98819007074638
 20
53.48168927103073
 10
38.03079364939907
 20
53.55269534727229
 10
38.05919581152669
 20
53.58109750939991
 10
38.11600080670443
 20
53.6237010880526
 10
38.17280546642093
 20
53.6237010880526
 10
38.21540904507362
 20
53.59529892592497
 10
38.2580126237263
 20
53.55269534727229
  0
LWPOLYLINE
  5
12E
100
AcDbEntity
  8
silktop
  6
ByLayer
 62
    7
370
   -1
100
AcDbPolyline
 90
    4
 70
    0
 43
0
 10
38.52783517670621
 20
52.98464740826234
 10
38.52783517670621
 20
53.6237010880526
 10
38.84026164380006
 20
52.98464740826234
 10
38.84026164380006
 20
53.6237010880526
  0
LWPOLYLINE
  5
12F
100
AcDbEntity
  8
silktop
  6
ByLayer
 62
    7
370
   -1
100
AcDbPolyline
 90
   12
 70
    1
 43
0
 10
39.0816816991911
 20
52.98464740826234
 10
39.0816816991911
 20
53.6237010880526
 10
39.22369385167422
 20
53.6237010880526
 10
39.28049851139071
 20
53.58109750939991
 10
39.32310209004339
 20
53.55269534727229
 10
39.35150458763226
 20
53.48168927103073
 10
39.37990674975989
 20
53.41068319478917
 10
39.37990674975989
 20
53.19766530152575
 10
39.35150458763226
 20
53.12665956074544
 10
39.32310209004339
 20
53.05565348450389
 10
39.28049851139071
 20
53.01304990585121
 10
39.22369385167422
 20
52.98464740826234
  0
LWPOLYLINE
  5
130
100
AcDbEntity
  8
silktop
  6
ByLayer
 62
    7
370
   -1
100
AcDbPolyline
 90
    2
 70
    0
 43
0
 10
37.66156252258872
 20
52.70062377421861
 10
37.66156252258872
 20
54.98701560493848
  0
LWPOLYLINE
  5
131
100
AcDbEntity
  8
silktop
  6
ByLayer
 62
    7
370
   -1
100
AcDbPolyline
 90
    2
 70
    0
 43
0
 10
39.56452248089568
 20
54.98701560493848
 10
39.56452248089568
 20
52.70062377421861
  0
LWPOLYLINE
  5
132
100
AcDbEntity
  8
silktop
  6
ByLayer
 62
    7
370
   -1
100
AcDbPolyline
 90
    2
 70
    0
 43
0
 10
39.56452248089568
 20
53.85092039784107
 10
39.56452248089568
 20
53.8793225599687
  0
LWPOLYLINE
  5
133
100
AcDbEntity
  8
silktop
  6
ByLayer
 62
    7
370
   -1
100
AcDbPolyline
 90
    2
 70
    0
 43
0
 10
37.66156252258872
 20
54.98701560493848
 10
37.53375178663067
 20
54.98701560493848
  0
SPLINE
  5
134
100
AcDbEntity
  8
silktop
  6
ByLayer
 62
    7
370
   -1
100
AcDbSpline
210
0
220
0
230
0
 70
    8
 71
    3
 72
    8
 73
    4
 74
    0
 42
1e-07
 43
1e-07
 40
0
 40
0
 40
0
 40
0
 40
1
 40
1
 40
1
 40
1
 10
6.291128224072141
 20
10.25325936146549
 30
0
 10
6.291128224072141
 20
8.605920875074631
 30
0
 10
7.626040243369149
 20
7.256807774713811
 30
0
 10
9.273378729760006
 20
7.256807774713811
 30
0
  0
LWPOLYLINE
  5
135
100
AcDbEntity
  8
silktop
  6
ByLayer
 62
    7
370
   -1
100
AcDbPolyline
 90
    1
 70
    1
 43
0
 10
6.291128224072141
 20
10.25325936146549
  0
LWPOLYLINE
  5
136
100
AcDbEntity
  8
silktop
  6
ByLayer
 62
    7
370
   -1
100
AcDbPolyline
 90
    1
 70
    1
 43
0
 10
9.273378729760006
 20
7.256807774713811
  0
SPLINE
  5
137
100
AcDbEntity
  8
silktop
  6
ByLayer
 62
    7
370
   -1
100
AcDbSpline
210
0
220
0
230
0
 70
    8
 71
    3
 72
    8
 73
    4
 74
    0
 42
1e-07
 43
1e-07
 40
0
 40
0
 40
0
 40
0
 40
1
 40
1
 40
1
 40
1
 10
9.273378729760006
 20
63.23790844703407
 30
0
 10
7.626040243369149
 20
63.23790844703407
 30
0
 10
6.291128224072141
 20
61.90299642773706
 30
0
 10
6.291128224072141
 20
60.25565827680746
 30
0
  0
SPLINE
  5
138
100
AcDbEntity
  8
silktop
  6
ByLayer
 62
    7
370
   -1
100
AcDbSpline
210
0
220
0
230
0
 70
    8
 71
    3
 72
    8
 73
    4
 74
    0
 42
1e-07
 43
1e-07
 40
0
 40
0
 40
0
 40
0
 40
1
 40
1
 40
1
 40
1
 10
88.28881403665714
 20
7.256807774713811
 30
0
 10
89.93615218758674
 20
7.256807774713811
 30
0
 10
91.2852656234088
 20
8.605920875074631
 30
0
 10
91.2852656234088
 20
10.25325936146549
 30
0
  0
SPLINE
  5
139
100
AcDbEntity
  8
silktop
  6
ByLayer
 62
    7
370
   -1
100
AcDbSpline
210
0
220
0
230
0
 70
    8
 71
    3
 72
    8
 73
    4
 74
    0
 42
1e-07
 43
1e-07
 40
0
 40
0
 40
0
 40
0
 40
1
 40
1
 40
1
 40
1
 10
91.2852656234088
 20
60.25565827680746
 30
0
 10
91.2852656234088
 20
61.90299642773706
 30
0
 10
89.93615218758674
 20
63.23790844703407
 30
0
 10
88.28881403665714
 20
63.23790844703407
 30
0
  0
LWPOLYLINE
  5
13A
100
AcDbEntity
  8
silktop
  6
ByLayer
 62
    7
370
   -1
100
AcDbPolyline
 90
   22
 70
    1
 43
0
 10
17.5810762315721
 20
14.31480041453426
 10
16.0047438214228
 20
14.31480041453426
 10
15.79172592815938
 20
14.34320257666188
 10
15.60711053248483
 20
14.42840973396725
 10
15.46509871546297
 20
14.57042188645036
 10
15.3798915581576
 20
14.75503728212491
 10
15.33728797950492
 20
14.98225625645214
 10
15.3798915581576
 20
15.18107306865175
 10
15.46509871546297
 20
15.36568846432629
 10
15.60711053248483
 20
15.50770061680941
 10
15.79172592815938
 20
15.59290777411477
 10
16.0047438214228
 20
15.63551135276746
 10
17.5810762315721
 20
15.63551135276746
 10
17.79409412483551
 20
15.59290777411477
 10
17.97870985597131
 20
15.50770061680941
 10
18.12072167299318
 20
15.36568846432629
 10
18.20592883029854
 20
15.18107306865175
 10
18.24853240895123
 20
14.95385409432452
 10
18.20592883029854
 20
14.75503728212491
 10
18.12072167299318
 20
14.57042188645036
 10
17.97870985597131
 20
14.42840973396725
 10
17.79409412483551
 20
14.34320257666188
  0
LWPOLYLINE
  5
13B
100
AcDbEntity
  8
silktop
  6
ByLayer
 62
    7
370
   -1
100
AcDbPolyline
 90
   18
 70
    1
 43
0
 10
17.5810762315721
 20
14.57042188645036
 10
16.0047438214228
 20
14.57042188645036
 10
15.84853092333712
 20
14.59882404857798
 10
15.72072018737907
 20
14.68403120588335
 10
15.6355130300737
 20
14.8118419418414
 10
15.59290945142102
 20
14.98225625645214
 10
15.6355130300737
 20
15.12426840893525
 10
15.72072018737907
 20
15.2520791448933
 10
15.84853092333712
 20
15.33728630219867
 10
16.0047438214228
 20
15.37988988085135
 10
17.5810762315721
 20
15.37988988085135
 10
17.73728946511902
 20
15.33728630219867
 10
17.86510020107707
 20
15.2520791448933
 10
17.95030735838244
 20
15.12426840893525
 10
17.99291093703512
 20
14.95385409432452
 10
17.95030735838244
 20
14.8118419418414
 10
17.86510020107707
 20
14.68403120588335
 10
17.73728946511902
 20
14.59882404857798
  0
LWPOLYLINE
  5
13C
100
AcDbEntity
  8
silktop
  6
ByLayer
 62
    7
370
   -1
100
AcDbPolyline
 90
    4
 70
    1
 43
0
 10
14.21539385347133
 20
55.18583241713809
 10
15.11006900517769
 20
55.18583241713809
 10
15.11006900517769
 20
58.23908866360625
 10
14.21539385347133
 20
58.23908866360625
  0
LWPOLYLINE
  5
13D
100
AcDbEntity
  8
silktop
  6
ByLayer
 62
    7
370
   -1
100
AcDbPolyline
 90
    4
 70
    1
 43
0
 10
16.20356063362241
 20
55.18583241713809
 10
17.09823578532876
 20
55.18583241713809
 10
17.09823578532876
 20
58.23908866360625
 10
16.20356063362241
 20
58.23908866360625
  0
LWPOLYLINE
  5
13E
100
AcDbEntity
  8
silktop
  6
ByLayer
 62
    7
370
   -1
100
AcDbPolyline
 90
    4
 70
    1
 43
0
 10
14.21539385347133
 20
59.6876103377975
 10
15.11006900517769
 20
59.6876103377975
 10
15.11006900517769
 20
62.74086691972693
 10
14.21539385347133
 20
62.74086691972693
  0
LWPOLYLINE
  5
13F
100
AcDbEntity
  8
silktop
  6
ByLayer
 62
    7
370
   -1
100
AcDbPolyline
 90
    4
 70
    1
 43
0
 10
16.20356063362241
 20
59.6876103377975
 10
17.09823578532876
 20
59.6876103377975
 10
17.09823578532876
 20
62.74086691972693
 10
16.20356063362241
 20
62.74086691972693
  0
LWPOLYLINE
  5
140
100
AcDbEntity
  8
silktop
  6
ByLayer
 62
    7
370
   -1
100
AcDbPolyline
 90
    4
 70
    1
 43
0
 10
18.20592883029854
 20
55.18583241713809
 10
19.1006039820049
 20
55.18583241713809
 10
19.1006039820049
 20
58.23908866360625
 10
18.20592883029854
 20
58.23908866360625
  0
LWPOLYLINE
  5
141
100
AcDbEntity
  8
silktop
  6
ByLayer
 62
    7
370
   -1
100
AcDbPolyline
 90
    4
 70
    1
 43
0
 10
20.20829702697468
 20
59.6876103377975
 10
21.10297217868104
 20
59.6876103377975
 10
21.10297217868104
 20
62.74086691972693
 10
20.20829702697468
 20
62.74086691972693
  0
LWPOLYLINE
  5
142
100
AcDbEntity
  8
silktop
  6
ByLayer
 62
    7
370
   -1
100
AcDbPolyline
 90
    4
 70
    1
 43
0
 10
22.21066522365082
 20
55.18583241713809
 10
23.10534037535718
 20
55.18583241713809
 10
23.10534037535718
 20
58.23908866360625
 10
22.21066522365082
 20
58.23908866360625
  0
LWPOLYLINE
  5
143
100
AcDbEntity
  8
silktop
  6
ByLayer
 62
    7
370
   -1
100
AcDbPolyline
 90
    4
 70
    1
 43
0
 10
24.21303342032695
 20
55.18583241713809
 10
25.10770823657207
 20
55.18583241713809
 10
25.10770823657207
 20
58.23908866360625
 10
24.21303342032695
 20
58.23908866360625
  0
LWPOLYLINE
  5
144
100
AcDbEntity
  8
silktop
  6
ByLayer
 62
    7
370
   -1
100
AcDbPolyline
 90
    4
 70
    1
 43
0
 10
22.21066522365082
 20
59.6876103377975
 10
23.10534037535718
 20
59.6876103377975
 10
23.10534037535718
 20
62.74086691972693
 10
22.21066522365082
 20
62.74086691972693
  0
LWPOLYLINE
  5
145
100
AcDbEntity
  8
silktop
  6
ByLayer
 62
    7
370
   -1
100
AcDbPolyline
 90
    4
 70
    1
 43
0
 10
24.21303342032695
 20
59.6876103377975
 10
25.10770823657207
 20
59.6876103377975
 10
25.10770823657207
 20
62.74086691972693
 10
24.21303342032695
 20
62.74086691972693
  0
LWPOLYLINE
  5
146
100
AcDbEntity
  8
silktop
  6
ByLayer
 62
    7
370
   -1
100
AcDbPolyline
 90
    4
 70
    1
 43
0
 10
28.21776947821798
 20
55.18583241713809
 10
29.11244462992435
 20
55.18583241713809
 10
29.11244462992435
 20
58.23908866360625
 10
28.21776947821798
 20
58.23908866360625
  0
LWPOLYLINE
  5
147
100
AcDbEntity
  8
silktop
  6
ByLayer
 62
    7
370
   -1
100
AcDbPolyline
 90
    4
 70
    1
 43
0
 10
26.21540128154184
 20
59.6876103377975
 10
27.11007643324821
 20
59.6876103377975
 10
27.11007643324821
 20
62.74086691972693
 10
26.21540128154184
 20
62.74086691972693
  0
LWPOLYLINE
  5
148
100
AcDbEntity
  8
silktop
  6
ByLayer
 62
    7
370
   -1
100
AcDbPolyline
 90
    4
 70
    1
 43
0
 10
30.20593659383031
 20
55.18583241713809
 10
31.10061174553667
 20
55.18583241713809
 10
31.10061174553667
 20
58.23908866360625
 10
30.20593659383031
 20
58.23908866360625
  0
LWPOLYLINE
  5
149
100
AcDbEntity
  8
silktop
  6
ByLayer
 62
    7
370
   -1
100
AcDbPolyline
 90
    4
 70
    1
 43
0
 10
32.20830479050645
 20
55.18583241713809
 10
33.10297994221281
 20
55.18583241713809
 10
33.10297994221281
 20
58.23908866360625
 10
32.20830479050645
 20
58.23908866360625
  0
LWPOLYLINE
  5
14A
100
AcDbEntity
  8
silktop
  6
ByLayer
 62
    7
370
   -1
100
AcDbPolyline
 90
    4
 70
    1
 43
0
 10
30.20593659383031
 20
59.6876103377975
 10
31.10061174553667
 20
59.6876103377975
 10
31.10061174553667
 20
62.74086691972693
 10
30.20593659383031
 20
62.74086691972693
  0
LWPOLYLINE
  5
14B
100
AcDbEntity
  8
silktop
  6
ByLayer
 62
    7
370
   -1
100
AcDbPolyline
 90
    4
 70
    1
 43
0
 10
32.20830479050645
 20
59.6876103377975
 10
33.10297994221281
 20
59.6876103377975
 10
33.10297994221281
 20
62.74086691972693
 10
32.20830479050645
 20
62.74086691972693
  0
LWPOLYLINE
  5
14C
100
AcDbEntity
  8
silktop
  6
ByLayer
 62
    7
370
   -1
100
AcDbPolyline
 90
    4
 70
    1
 43
0
 10
34.21067265172134
 20
55.18583241713809
 10
35.1053478034277
 20
55.18583241713809
 10
35.1053478034277
 20
58.23908866360625
 10
34.21067265172134
 20
58.23908866360625
  0
LWPOLYLINE
  5
14D
100
AcDbEntity
  8
silktop
  6
ByLayer
 62
    7
370
   -1
100
AcDbPolyline
 90
    4
 70
    1
 43
0
 10
36.21304084839748
 20
55.18583241713809
 10
37.10771600010384
 20
55.18583241713809
 10
37.10771600010384
 20
58.23908866360625
 10
36.21304084839748
 20
58.23908866360625
  0
LWPOLYLINE
  5
14E
100
AcDbEntity
  8
silktop
  6
ByLayer
 62
    7
370
   -1
100
AcDbPolyline
 90
    4
 70
    1
 43
0
 10
34.21067265172134
 20
59.6876103377975
 10
35.1053478034277
 20
59.6876103377975
 10
35.1053478034277
 20
62.74086691972693
 10
34.21067265172134
 20
62.74086691972693
  0
LWPOLYLINE
  5
14F
100
AcDbEntity
  8
silktop
  6
ByLayer
 62
    7
370
   -1
100
AcDbPolyline
 90
    4
 70
    1
 43
0
 10
36.21304084839748
 20
59.6876103377975
 10
37.10771600010384
 20
59.6876103377975
 10
37.10771600010384
 20
62.74086691972693
 10
36.21304084839748
 20
62.74086691972693
  0
LWPOLYLINE
  5
150
100
AcDbEntity
  8
silktop
  6
ByLayer
 62
    7
370
   -1
100
AcDbPolyline
 90
    4
 70
    1
 43
0
 10
38.21540904507362
 20
59.6876103377975
 10
39.11008419677998
 20
59.6876103377975
 10
39.11008419677998
 20
62.74086691972693
 10
38.21540904507362
 20
62.74086691972693
  0
SPLINE
  5
151
100
AcDbEntity
  8
silktop
  6
ByLayer
 62
    7
370
   -1
100
AcDbSpline
210
0
220
0
230
0
 70
    8
 71
    3
 72
    8
 73
    4
 74
    0
 42
1e-07
 43
1e-07
 40
0
 40
0
 40
0
 40
0
 40
1
 40
1
 40
1
 40
1
 10
84.1562669073468
 20
11.78698785750085
 30
0
 10
84.1562669073468
 20
12.68166300920721
 30
0
 10
83.43200607025119
 20
13.39172276523903
 30
0
 10
82.53733091854482
 20
13.39172276523903
 30
0
  0
SPLINE
  5
152
100
AcDbEntity
  8
silktop
  6
ByLayer
 62
    7
370
   -1
100
AcDbSpline
210
0
220
0
230
0
 70
    8
 71
    3
 72
    8
 73
    4
 74
    0
 42
1e-07
 43
1e-07
 40
0
 40
0
 40
0
 40
0
 40
1
 40
1
 40
1
 40
1
 10
82.53733091854482
 20
13.39172276523903
 30
0
 10
81.64265576683846
 20
13.39172276523903
 30
0
 10
80.9325963462679
 20
12.68166300920721
 30
0
 10
80.9325963462679
 20
11.78698785750085
 30
0
  0
SPLINE
  5
153
100
AcDbEntity
  8
silktop
  6
ByLayer
 62
    7
370
   -1
100
AcDbSpline
210
0
220
0
230
0
 70
    8
 71
    3
 72
    8
 73
    4
 74
    0
 42
1e-07
 43
1e-07
 40
0
 40
0
 40
0
 40
0
 40
1
 40
1
 40
1
 40
1
 10
80.9325963462679
 20
11.78698785750085
 30
0
 10
80.9325963462679
 20
10.89231304125575
 30
0
 10
81.64265576683846
 20
10.16805220416012
 30
0
 10
82.53733091854482
 20
10.16805220416012
 30
0
  0
SPLINE
  5
154
100
AcDbEntity
  8
silktop
  6
ByLayer
 62
    7
370
   -1
100
AcDbSpline
210
0
220
0
230
0
 70
    8
 71
    3
 72
    8
 73
    4
 74
    0
 42
1e-07
 43
1e-07
 40
0
 40
0
 40
0
 40
0
 40
1
 40
1
 40
1
 40
1
 10
82.53733091854482
 20
10.16805220416012
 30
0
 10
83.43200607025119
 20
10.16805220416012
 30
0
 10
84.1562669073468
 20
10.89231304125575
 30
0
 10
84.1562669073468
 20
11.78698785750085
 30
0
  0
SPLINE
  5
155
100
AcDbEntity
  8
silktop
  6
ByLayer
 62
    7
370
   -1
100
AcDbSpline
210
0
220
0
230
0
 70
    8
 71
    3
 72
    8
 73
    4
 74
    0
 42
1e-07
 43
1e-07
 40
0
 40
0
 40
0
 40
0
 40
1
 40
1
 40
1
 40
1
 10
84.1562669073468
 20
11.78698785750085
 30
0
 10
84.1562669073468
 20
12.68166300920721
 30
0
 10
83.43200607025119
 20
13.39172276523903
 30
0
 10
82.53733091854482
 20
13.39172276523903
 30
0
  0
SPLINE
  5
156
100
AcDbEntity
  8
silktop
  6
ByLayer
 62
    7
370
   -1
100
AcDbSpline
210
0
220
0
230
0
 70
    8
 71
    3
 72
    8
 73
    4
 74
    0
 42
1e-07
 43
1e-07
 40
0
 40
0
 40
0
 40
0
 40
1
 40
1
 40
1
 40
1
 10
82.53733091854482
 20
13.39172276523903
 30
0
 10
81.64265576683846
 20
13.39172276523903
 30
0
 10
80.9325963462679
 20
12.68166300920721
 30
0
 10
80.9325963462679
 20
11.78698785750085
 30
0
  0
SPLINE
  5
157
100
AcDbEntity
  8
silktop
  6
ByLayer
 62
    7
370
   -1
100
AcDbSpline
210
0
220
0
230
0
 70
    8
 71
    3
 72
    8
 73
    4
 74
    0
 42
1e-07
 43
1e-07
 40
0
 40
0
 40
0
 40
0
 40
1
 40
1
 40
1
 40
1
 10
80.9325963462679
 20
11.78698785750085
 30
0
 10
80.9325963462679
 20
10.89231304125575
 30
0
 10
81.64265576683846
 20
10.16805220416012
 30
0
 10
82.53733091854482
 20
10.16805220416012
 30
0
  0
SPLINE
  5
158
100
AcDbEntity
  8
silktop
  6
ByLayer
 62
    7
370
   -1
100
AcDbSpline
210
0
220
0
230
0
 70
    8
 71
    3
 72
    8
 73
    4
 74
    0
 42
1e-07
 43
1e-07
 40
0
 40
0
 40
0
 40
0
 40
1
 40
1
 40
1
 40
1
 10
82.53733091854482
 20
10.16805220416012
 30
0
 10
83.43200607025119
 20
10.16805220416012
 30
0
 10
84.1562669073468
 20
10.89231304125575
 30
0
 10
84.1562669073468
 20
11.78698785750085
 30
0
  0
SPLINE
  5
159
100
AcDbEntity
  8
silktop
  6
ByLayer
 62
    7
370
   -1
100
AcDbSpline
210
0
220
0
230
0
 70
    8
 71
    3
 72
    8
 73
    4
 74
    0
 42
1e-07
 43
1e-07
 40
0
 40
0
 40
0
 40
0
 40
1
 40
1
 40
1
 40
1
 10
84.1562669073468
 20
23.21894801748392
 30
0
 10
84.1562669073468
 20
24.11362316919028
 30
0
 10
83.43200607025119
 20
24.8236829252221
 30
0
 10
82.53733091854482
 20
24.8236829252221
 30
0
  0
SPLINE
  5
15A
100
AcDbEntity
  8
silktop
  6
ByLayer
 62
    7
370
   -1
100
AcDbSpline
210
0
220
0
230
0
 70
    8
 71
    3
 72
    8
 73
    4
 74
    0
 42
1e-07
 43
1e-07
 40
0
 40
0
 40
0
 40
0
 40
1
 40
1
 40
1
 40
1
 10
82.53733091854482
 20
24.8236829252221
 30
0
 10
81.64265576683846
 20
24.8236829252221
 30
0
 10
80.9325963462679
 20
24.11362316919028
 30
0
 10
80.9325963462679
 20
23.21894801748392
 30
0
  0
SPLINE
  5
15B
100
AcDbEntity
  8
silktop
  6
ByLayer
 62
    7
370
   -1
100
AcDbSpline
210
0
220
0
230
0
 70
    8
 71
    3
 72
    8
 73
    4
 74
    0
 42
1e-07
 43
1e-07
 40
0
 40
0
 40
0
 40
0
 40
1
 40
1
 40
1
 40
1
 10
80.9325963462679
 20
23.21894801748392
 30
0
 10
80.9325963462679
 20
22.32427286577757
 30
0
 10
81.64265576683846
 20
21.60001202868194
 30
0
 10
82.53733091854482
 20
21.60001202868194
 30
0
  0
SPLINE
  5
15C
100
AcDbEntity
  8
silktop
  6
ByLayer
 62
    7
370
   -1
100
AcDbSpline
210
0
220
0
230
0
 70
    8
 71
    3
 72
    8
 73
    4
 74
    0
 42
1e-07
 43
1e-07
 40
0
 40
0
 40
0
 40
0
 40
1
 40
1
 40
1
 40
1
 10
82.53733091854482
 20
21.60001202868194
 30
0
 10
83.43200607025119
 20
21.60001202868194
 30
0
 10
84.1562669073468
 20
22.32427286577757
 30
0
 10
84.1562669073468
 20
23.21894801748392
 30
0
  0
LWPOLYLINE
  5
15D
100
AcDbEntity
  8
silktop
  6
ByLayer
 62
    7
370
   -1
100
AcDbPolyline
 90
    2
 70
    1
 43
0
 10
84.1562669073468
 20
11.78698785750085
 10
84.1562669073468
 20
11.78698785750085
  0
SPLINE
  5
15E
100
AcDbEntity
  8
silktop
  6
ByLayer
 62
    7
370
   -1
100
AcDbSpline
210
0
220
0
230
0
 70
    8
 71
    3
 72
    8
 73
    4
 74
    0
 42
1e-07
 43
1e-07
 40
0
 40
0
 40
0
 40
0
 40
1
 40
1
 40
1
 40
1
 10
84.1562669073468
 20
23.21894801748392
 30
0
 10
84.1562669073468
 20
24.11362316919028
 30
0
 10
83.43200607025119
 20
24.8236829252221
 30
0
 10
82.53733091854482
 20
24.8236829252221
 30
0
  0
SPLINE
  5
15F
100
AcDbEntity
  8
silktop
  6
ByLayer
 62
    7
370
   -1
100
AcDbSpline
210
0
220
0
230
0
 70
    8
 71
    3
 72
    8
 73
    4
 74
    0
 42
1e-07
 43
1e-07
 40
0
 40
0
 40
0
 40
0
 40
1
 40
1
 40
1
 40
1
 10
82.53733091854482
 20
24.8236829252221
 30
0
 10
81.64265576683846
 20
24.8236829252221
 30
0
 10
80.9325963462679
 20
24.11362316919028
 30
0
 10
80.9325963462679
 20
23.21894801748392
 30
0
  0
SPLINE
  5
160
100
AcDbEntity
  8
silktop
  6
ByLayer
 62
    7
370
   -1
100
AcDbSpline
210
0
220
0
230
0
 70
    8
 71
    3
 72
    8
 73
    4
 74
    0
 42
1e-07
 43
1e-07
 40
0
 40
0
 40
0
 40
0
 40
1
 40
1
 40
1
 40
1
 10
80.9325963462679
 20
23.21894801748392
 30
0
 10
80.9325963462679
 20
22.32427286577757
 30
0
 10
81.64265576683846
 20
21.60001202868194
 30
0
 10
82.53733091854482
 20
21.60001202868194
 30
0
  0
SPLINE
  5
161
100
AcDbEntity
  8
silktop
  6
ByLayer
 62
    7
370
   -1
100
AcDbSpline
210
0
220
0
230
0
 70
    8
 71
    3
 72
    8
 73
    4
 74
    0
 42
1e-07
 43
1e-07
 40
0
 40
0
 40
0
 40
0
 40
1
 40
1
 40
1
 40
1
 10
82.53733091854482
 20
21.60001202868194
 30
0
 10
83.43200607025119
 20
21.60001202868194
 30
0
 10
84.1562669073468
 20
22.32427286577757
 30
0
 10
84.1562669073468
 20
23.21894801748392
 30
0
  0
LWPOLYLINE
  5
162
100
AcDbEntity
  8
silktop
  6
ByLayer
 62
    7
370
   -1
100
AcDbPolyline
 90
    2
 70
    1
 43
0
 10
84.1562669073468
 20
23.21894801748392
 10
84.1562669073468
 20
23.21894801748392
  0
SPLINE
  5
163
100
AcDbEntity
  8
silktop
  6
ByLayer
 62
    7
370
   -1
100
AcDbSpline
210
0
220
0
230
0
 70
    8
 71
    3
 72
    8
 73
    4
 74
    0
 42
1e-07
 43
1e-07
 40
0
 40
0
 40
0
 40
0
 40
1
 40
1
 40
1
 40
1
 10
79.08644104767744
 20
29.6804905561668
 30
0
 10
79.08644104767744
 20
30.66037286517853
 30
0
 10
78.2911744698015
 20
31.44143836199065
 30
0
 10
77.31129216078978
 20
31.44143836199065
 30
0
  0
SPLINE
  5
164
100
AcDbEntity
  8
silktop
  6
ByLayer
 62
    7
370
   -1
100
AcDbSpline
210
0
220
0
230
0
 70
    8
 71
    3
 72
    8
 73
    4
 74
    0
 42
1e-07
 43
1e-07
 40
0
 40
0
 40
0
 40
0
 40
1
 40
1
 40
1
 40
1
 10
77.31129216078978
 20
31.44143836199065
 30
0
 10
76.33140985177805
 20
31.44143836199065
 30
0
 10
75.55034435496593
 20
30.66037286517853
 30
0
 10
75.55034435496593
 20
29.6804905561668
 30
0
  0
SPLINE
  5
165
100
AcDbEntity
  8
silktop
  6
ByLayer
 62
    7
370
   -1
100
AcDbSpline
210
0
220
0
230
0
 70
    8
 71
    3
 72
    8
 73
    4
 74
    0
 42
1e-07
 43
1e-07
 40
0
 40
0
 40
0
 40
0
 40
1
 40
1
 40
1
 40
1
 10
75.55034435496593
 20
29.6804905561668
 30
0
 10
75.55034435496593
 20
28.70060824715507
 30
0
 10
76.33140985177805
 20
27.90534166927914
 30
0
 10
77.31129216078978
 20
27.90534166927914
 30
0
  0
SPLINE
  5
166
100
AcDbEntity
  8
silktop
  6
ByLayer
 62
    7
370
   -1
100
AcDbSpline
210
0
220
0
230
0
 70
    8
 71
    3
 72
    8
 73
    4
 74
    0
 42
1e-07
 43
1e-07
 40
0
 40
0
 40
0
 40
0
 40
1
 40
1
 40
1
 40
1
 10
77.31129216078978
 20
27.90534166927914
 30
0
 10
78.2911744698015
 20
27.90534166927914
 30
0
 10
79.08644104767744
 20
28.70060824715507
 30
0
 10
79.08644104767744
 20
29.6804905561668
 30
0
  0
SPLINE
  5
167
100
AcDbEntity
  8
silktop
  6
ByLayer
 62
    7
370
   -1
100
AcDbSpline
210
0
220
0
230
0
 70
    8
 71
    3
 72
    8
 73
    4
 74
    0
 42
1e-07
 43
1e-07
 40
0
 40
0
 40
0
 40
0
 40
1
 40
1
 40
1
 40
1
 10
78.57519810384522
 20
29.6804905561668
 30
0
 10
78.57519810384522
 20
30.37634889567355
 30
0
 10
78.00715050029653
 20
30.93019541815844
 30
0
 10
77.31129216078978
 20
30.93019541815844
 30
0
  0
SPLINE
  5
168
100
AcDbEntity
  8
silktop
  6
ByLayer
 62
    7
370
   -1
100
AcDbSpline
210
0
220
0
230
0
 70
    8
 71
    3
 72
    8
 73
    4
 74
    0
 42
1e-07
 43
1e-07
 40
0
 40
0
 40
0
 40
0
 40
1
 40
1
 40
1
 40
1
 10
77.31129216078978
 20
30.93019541815844
 30
0
 10
76.61543382128303
 20
30.93019541815844
 30
0
 10
76.06158729879813
 20
30.37634889567355
 30
0
 10
76.06158729879813
 20
29.6804905561668
 30
0
  0
SPLINE
  5
169
100
AcDbEntity
  8
silktop
  6
ByLayer
 62
    7
370
   -1
100
AcDbSpline
210
0
220
0
230
0
 70
    8
 71
    3
 72
    8
 73
    4
 74
    0
 42
1e-07
 43
1e-07
 40
0
 40
0
 40
0
 40
0
 40
1
 40
1
 40
1
 40
1
 10
76.06158729879813
 20
29.6804905561668
 30
0
 10
76.06158729879813
 20
28.98463221666005
 30
0
 10
76.61543382128303
 20
28.41658461311135
 30
0
 10
77.31129216078978
 20
28.41658461311135
 30
0
  0
SPLINE
  5
16A
100
AcDbEntity
  8
silktop
  6
ByLayer
 62
    7
370
   -1
100
AcDbSpline
210
0
220
0
230
0
 70
    8
 71
    3
 72
    8
 73
    4
 74
    0
 42
1e-07
 43
1e-07
 40
0
 40
0
 40
0
 40
0
 40
1
 40
1
 40
1
 40
1
 10
77.31129216078978
 20
28.41658461311135
 30
0
 10
78.00715050029653
 20
28.41658461311135
 30
0
 10
78.57519810384522
 20
28.98463221666005
 30
0
 10
78.57519810384522
 20
29.6804905561668
 30
0
  0
LWPOLYLINE
  5
16B
100
AcDbEntity
  8
silktop
  6
ByLayer
 62
    7
370
   -1
100
AcDbPolyline
 90
    1
 70
    1
 43
0
 10
79.08644104767744
 20
29.6804905561668
  0
LWPOLYLINE
  5
16C
100
AcDbEntity
  8
silktop
  6
ByLayer
 62
    7
370
   -1
100
AcDbPolyline
 90
    1
 70
    1
 43
0
 10
78.57519810384522
 20
29.6804905561668
  0
SPLINE
  5
16D
100
AcDbEntity
  8
silktop
  6
ByLayer
 62
    7
370
   -1
100
AcDbSpline
210
0
220
0
230
0
 70
    8
 71
    3
 72
    8
 73
    4
 74
    0
 42
1e-07
 43
1e-07
 40
0
 40
0
 40
0
 40
0
 40
1
 40
1
 40
1
 40
1
 10
79.08644104767744
 20
42.81659386225722
 30
0
 10
79.08644104767744
 20
43.7964758358077
 30
0
 10
78.2911744698015
 20
44.57754166808106
 30
0
 10
77.31129216078978
 20
44.57754166808106
 30
0
  0
SPLINE
  5
16E
100
AcDbEntity
  8
silktop
  6
ByLayer
 62
    7
370
   -1
100
AcDbSpline
210
0
220
0
230
0
 70
    8
 71
    3
 72
    8
 73
    4
 74
    0
 42
1e-07
 43
1e-07
 40
0
 40
0
 40
0
 40
0
 40
1
 40
1
 40
1
 40
1
 10
77.31129216078978
 20
44.57754166808106
 30
0
 10
76.33140985177805
 20
44.57754166808106
 30
0
 10
75.55034435496593
 20
43.7964758358077
 30
0
 10
75.55034435496593
 20
42.81659386225722
 30
0
  0
SPLINE
  5
16F
100
AcDbEntity
  8
silktop
  6
ByLayer
 62
    7
370
   -1
100
AcDbSpline
210
0
220
0
230
0
 70
    8
 71
    3
 72
    8
 73
    4
 74
    0
 42
1e-07
 43
1e-07
 40
0
 40
0
 40
0
 40
0
 40
1
 40
1
 40
1
 40
1
 10
75.55034435496593
 20
42.81659386225722
 30
0
 10
75.55034435496593
 20
41.83671155324549
 30
0
 10
76.33140985177805
 20
41.04144463990831
 30
0
 10
77.31129216078978
 20
41.04144463990831
 30
0
  0
SPLINE
  5
170
100
AcDbEntity
  8
silktop
  6
ByLayer
 62
    7
370
   -1
100
AcDbSpline
210
0
220
0
230
0
 70
    8
 71
    3
 72
    8
 73
    4
 74
    0
 42
1e-07
 43
1e-07
 40
0
 40
0
 40
0
 40
0
 40
1
 40
1
 40
1
 40
1
 10
77.31129216078978
 20
41.04144463990831
 30
0
 10
78.2911744698015
 20
41.04144463990831
 30
0
 10
79.08644104767744
 20
41.83671155324549
 30
0
 10
79.08644104767744
 20
42.81659386225722
 30
0
  0
SPLINE
  5
171
100
AcDbEntity
  8
silktop
  6
ByLayer
 62
    7
370
   -1
100
AcDbSpline
210
0
220
0
230
0
 70
    8
 71
    3
 72
    8
 73
    4
 74
    0
 42
1e-07
 43
1e-07
 40
0
 40
0
 40
0
 40
0
 40
1
 40
1
 40
1
 40
1
 10
78.57519810384522
 20
42.81659386225722
 30
0
 10
78.57519810384522
 20
43.51245220176397
 30
0
 10
78.00715050029653
 20
44.06629872424886
 30
0
 10
77.31129216078978
 20
44.06629872424886
 30
0
  0
SPLINE
  5
172
100
AcDbEntity
  8
silktop
  6
ByLayer
 62
    7
370
   -1
100
AcDbSpline
210
0
220
0
230
0
 70
    8
 71
    3
 72
    8
 73
    4
 74
    0
 42
1e-07
 43
1e-07
 40
0
 40
0
 40
0
 40
0
 40
1
 40
1
 40
1
 40
1
 10
77.31129216078978
 20
44.06629872424886
 30
0
 10
76.61543382128303
 20
44.06629872424886
 30
0
 10
76.06158729879813
 20
43.51245220176397
 30
0
 10
76.06158729879813
 20
42.81659386225722
 30
0
  0
SPLINE
  5
173
100
AcDbEntity
  8
silktop
  6
ByLayer
 62
    7
370
   -1
100
AcDbSpline
210
0
220
0
230
0
 70
    8
 71
    3
 72
    8
 73
    4
 74
    0
 42
1e-07
 43
1e-07
 40
0
 40
0
 40
0
 40
0
 40
1
 40
1
 40
1
 40
1
 10
76.06158729879813
 20
42.81659386225722
 30
0
 10
76.06158729879813
 20
42.12073518728922
 30
0
 10
76.61543382128303
 20
41.55268758374051
 30
0
 10
77.31129216078978
 20
41.55268758374051
 30
0
  0
SPLINE
  5
174
100
AcDbEntity
  8
silktop
  6
ByLayer
 62
    7
370
   -1
100
AcDbSpline
210
0
220
0
230
0
 70
    8
 71
    3
 72
    8
 73
    4
 74
    0
 42
1e-07
 43
1e-07
 40
0
 40
0
 40
0
 40
0
 40
1
 40
1
 40
1
 40
1
 10
77.31129216078978
 20
41.55268758374051
 30
0
 10
78.00715050029653
 20
41.55268758374051
 30
0
 10
78.57519810384522
 20
42.12073518728922
 30
0
 10
78.57519810384522
 20
42.81659386225722
 30
0
  0
LWPOLYLINE
  5
175
100
AcDbEntity
  8
silktop
  6
ByLayer
 62
    7
370
   -1
100
AcDbPolyline
 90
    1
 70
    1
 43
0
 10
79.08644104767744
 20
42.81659386225722
  0
LWPOLYLINE
  5
176
100
AcDbEntity
  8
silktop
  6
ByLayer
 62
    7
370
   -1
100
AcDbPolyline
 90
    1
 70
    1
 43
0
 10
78.57519810384522
 20
42.81659386225722
  0
SPLINE
  5
177
100
AcDbEntity
  8
silktop
  6
ByLayer
 62
    7
370
   -1
100
AcDbSpline
210
0
220
0
230
0
 70
    8
 71
    3
 72
    8
 73
    4
 74
    0
 42
1e-07
 43
1e-07
 40
0
 40
0
 40
0
 40
0
 40
1
 40
1
 40
1
 40
1
 10
79.08644104767744
 20
47.68760257426574
 30
0
 10
79.08644104767744
 20
48.66748488327746
 30
0
 10
78.2911744698015
 20
49.44855071555084
 30
0
 10
77.31129216078978
 20
49.44855071555084
 30
0
  0
SPLINE
  5
178
100
AcDbEntity
  8
silktop
  6
ByLayer
 62
    7
370
   -1
100
AcDbSpline
210
0
220
0
230
0
 70
    8
 71
    3
 72
    8
 73
    4
 74
    0
 42
1e-07
 43
1e-07
 40
0
 40
0
 40
0
 40
0
 40
1
 40
1
 40
1
 40
1
 10
77.31129216078978
 20
49.44855071555084
 30
0
 10
76.33140985177805
 20
49.44855071555084
 30
0
 10
75.55034435496593
 20
48.66748488327746
 30
0
 10
75.55034435496593
 20
47.68760257426574
 30
0
  0
SPLINE
  5
179
100
AcDbEntity
  8
silktop
  6
ByLayer
 62
    7
370
   -1
100
AcDbSpline
210
0
220
0
230
0
 70
    8
 71
    3
 72
    8
 73
    4
 74
    0
 42
1e-07
 43
1e-07
 40
0
 40
0
 40
0
 40
0
 40
1
 40
1
 40
1
 40
1
 10
75.55034435496593
 20
47.68760257426574
 30
0
 10
75.55034435496593
 20
46.70772060071526
 30
0
 10
76.33140985177805
 20
45.91245368737807
 30
0
 10
77.31129216078978
 20
45.91245368737807
 30
0
  0
SPLINE
  5
17A
100
AcDbEntity
  8
silktop
  6
ByLayer
 62
    7
370
   -1
100
AcDbSpline
210
0
220
0
230
0
 70
    8
 71
    3
 72
    8
 73
    4
 74
    0
 42
1e-07
 43
1e-07
 40
0
 40
0
 40
0
 40
0
 40
1
 40
1
 40
1
 40
1
 10
77.31129216078978
 20
45.91245368737807
 30
0
 10
78.2911744698015
 20
45.91245368737807
 30
0
 10
79.08644104767744
 20
46.70772060071526
 30
0
 10
79.08644104767744
 20
47.68760257426574
 30
0
  0
SPLINE
  5
17B
100
AcDbEntity
  8
silktop
  6
ByLayer
 62
    7
370
   -1
100
AcDbSpline
210
0
220
0
230
0
 70
    8
 71
    3
 72
    8
 73
    4
 74
    0
 42
1e-07
 43
1e-07
 40
0
 40
0
 40
0
 40
0
 40
1
 40
1
 40
1
 40
1
 10
78.57519810384522
 20
47.68760257426574
 30
0
 10
78.57519810384522
 20
48.38346124923373
 30
0
 10
78.00715050029653
 20
48.93730777171863
 30
0
 10
77.31129216078978
 20
48.93730777171863
 30
0
  0
SPLINE
  5
17C
100
AcDbEntity
  8
silktop
  6
ByLayer
 62
    7
370
   -1
100
AcDbSpline
210
0
220
0
230
0
 70
    8
 71
    3
 72
    8
 73
    4
 74
    0
 42
1e-07
 43
1e-07
 40
0
 40
0
 40
0
 40
0
 40
1
 40
1
 40
1
 40
1
 10
77.31129216078978
 20
48.93730777171863
 30
0
 10
76.61543382128303
 20
48.93730777171863
 30
0
 10
76.06158729879813
 20
48.38346124923373
 30
0
 10
76.06158729879813
 20
47.68760257426574
 30
0
  0
SPLINE
  5
17D
100
AcDbEntity
  8
silktop
  6
ByLayer
 62
    7
370
   -1
100
AcDbSpline
210
0
220
0
230
0
 70
    8
 71
    3
 72
    8
 73
    4
 74
    0
 42
1e-07
 43
1e-07
 40
0
 40
0
 40
0
 40
0
 40
1
 40
1
 40
1
 40
1
 10
76.06158729879813
 20
47.68760257426574
 30
0
 10
76.06158729879813
 20
46.99174423475898
 30
0
 10
76.61543382128303
 20
46.42369663121028
 30
0
 10
77.31129216078978
 20
46.42369663121028
 30
0
  0
SPLINE
  5
17E
100
AcDbEntity
  8
silktop
  6
ByLayer
 62
    7
370
   -1
100
AcDbSpline
210
0
220
0
230
0
 70
    8
 71
    3
 72
    8
 73
    4
 74
    0
 42
1e-07
 43
1e-07
 40
0
 40
0
 40
0
 40
0
 40
1
 40
1
 40
1
 40
1
 10
77.31129216078978
 20
46.42369663121028
 30
0
 10
78.00715050029653
 20
46.42369663121028
 30
0
 10
78.57519810384522
 20
46.99174423475898
 30
0
 10
78.57519810384522
 20
47.68760257426574
 30
0
  0
LWPOLYLINE
  5
17F
100
AcDbEntity
  8
silktop
  6
ByLayer
 62
    7
370
   -1
100
AcDbPolyline
 90
    1
 70
    1
 43
0
 10
79.08644104767744
 20
47.68760257426574
  0
LWPOLYLINE
  5
180
100
AcDbEntity
  8
silktop
  6
ByLayer
 62
    7
370
   -1
100
AcDbPolyline
 90
    1
 70
    1
 43
0
 10
78.57519810384522
 20
47.68760257426574
  0
SPLINE
  5
181
100
AcDbEntity
  8
silktop
  6
ByLayer
 62
    7
370
   -1
100
AcDbSpline
210
0
220
0
230
0
 70
    8
 71
    3
 72
    8
 73
    4
 74
    0
 42
1e-07
 43
1e-07
 40
0
 40
0
 40
0
 40
0
 40
1
 40
1
 40
1
 40
1
 10
79.08644104767744
 20
60.82370588035616
 30
0
 10
79.08644104767744
 20
61.80358818936788
 30
0
 10
78.2911744698015
 20
62.58465368618
 30
0
 10
77.31129216078978
 20
62.58465368618
 30
0
  0
SPLINE
  5
182
100
AcDbEntity
  8
silktop
  6
ByLayer
 62
    7
370
   -1
100
AcDbSpline
210
0
220
0
230
0
 70
    8
 71
    3
 72
    8
 73
    4
 74
    0
 42
1e-07
 43
1e-07
 40
0
 40
0
 40
0
 40
0
 40
1
 40
1
 40
1
 40
1
 10
77.31129216078978
 20
62.58465368618
 30
0
 10
76.33140985177805
 20
62.58465368618
 30
0
 10
75.55034435496593
 20
61.80358818936788
 30
0
 10
75.55034435496593
 20
60.82370588035616
 30
0
  0
SPLINE
  5
183
100
AcDbEntity
  8
silktop
  6
ByLayer
 62
    7
370
   -1
100
AcDbSpline
210
0
220
0
230
0
 70
    8
 71
    3
 72
    8
 73
    4
 74
    0
 42
1e-07
 43
1e-07
 40
0
 40
0
 40
0
 40
0
 40
1
 40
1
 40
1
 40
1
 10
75.55034435496593
 20
60.82370588035616
 30
0
 10
75.55034435496593
 20
59.84382357134443
 30
0
 10
76.33140985177805
 20
59.04855665800724
 30
0
 10
77.31129216078978
 20
59.04855665800724
 30
0
  0
SPLINE
  5
184
100
AcDbEntity
  8
silktop
  6
ByLayer
 62
    7
370
   -1
100
AcDbSpline
210
0
220
0
230
0
 70
    8
 71
    3
 72
    8
 73
    4
 74
    0
 42
1e-07
 43
1e-07
 40
0
 40
0
 40
0
 40
0
 40
1
 40
1
 40
1
 40
1
 10
77.31129216078978
 20
59.04855665800724
 30
0
 10
78.2911744698015
 20
59.04855665800724
 30
0
 10
79.08644104767744
 20
59.84382357134443
 30
0
 10
79.08644104767744
 20
60.82370588035616
 30
0
  0
SPLINE
  5
185
100
AcDbEntity
  8
silktop
  6
ByLayer
 62
    7
370
   -1
100
AcDbSpline
210
0
220
0
230
0
 70
    8
 71
    3
 72
    8
 73
    4
 74
    0
 42
1e-07
 43
1e-07
 40
0
 40
0
 40
0
 40
0
 40
1
 40
1
 40
1
 40
1
 10
78.57519810384522
 20
60.82370588035616
 30
0
 10
78.57519810384522
 20
61.51956421986291
 30
0
 10
78.00715050029653
 20
62.0734107423478
 30
0
 10
77.31129216078978
 20
62.0734107423478
 30
0
  0
SPLINE
  5
186
100
AcDbEntity
  8
silktop
  6
ByLayer
 62
    7
370
   -1
100
AcDbSpline
210
0
220
0
230
0
 70
    8
 71
    3
 72
    8
 73
    4
 74
    0
 42
1e-07
 43
1e-07
 40
0
 40
0
 40
0
 40
0
 40
1
 40
1
 40
1
 40
1
 10
77.31129216078978
 20
62.0734107423478
 30
0
 10
76.61543382128303
 20
62.0734107423478
 30
0
 10
76.06158729879813
 20
61.51956421986291
 30
0
 10
76.06158729879813
 20
60.82370588035616
 30
0
  0
SPLINE
  5
187
100
AcDbEntity
  8
silktop
  6
ByLayer
 62
    7
370
   -1
100
AcDbSpline
210
0
220
0
230
0
 70
    8
 71
    3
 72
    8
 73
    4
 74
    0
 42
1e-07
 43
1e-07
 40
0
 40
0
 40
0
 40
0
 40
1
 40
1
 40
1
 40
1
 10
76.06158729879813
 20
60.82370588035616
 30
0
 10
76.06158729879813
 20
60.12784754084941
 30
0
 10
76.61543382128303
 20
59.55979960183945
 30
0
 10
77.31129216078978
 20
59.55979960183945
 30
0
  0
SPLINE
  5
188
100
AcDbEntity
  8
silktop
  6
ByLayer
 62
    7
370
   -1
100
AcDbSpline
210
0
220
0
230
0
 70
    8
 71
    3
 72
    8
 73
    4
 74
    0
 42
1e-07
 43
1e-07
 40
0
 40
0
 40
0
 40
0
 40
1
 40
1
 40
1
 40
1
 10
77.31129216078978
 20
59.55979960183945
 30
0
 10
78.00715050029653
 20
59.55979960183945
 30
0
 10
78.57519810384522
 20
60.12784754084941
 30
0
 10
78.57519810384522
 20
60.82370588035616
 30
0
  0
LWPOLYLINE
  5
189
100
AcDbEntity
  8
silktop
  6
ByLayer
 62
    7
370
   -1
100
AcDbPolyline
 90
    1
 70
    1
 43
0
 10
79.08644104767744
 20
60.82370588035616
  0
LWPOLYLINE
  5
18A
100
AcDbEntity
  8
silktop
  6
ByLayer
 62
    7
370
   -1
100
AcDbPolyline
 90
    1
 70
    1
 43
0
 10
78.57519810384522
 20
60.82370588035616
  0
SPLINE
  5
18B
100
AcDbEntity
  8
silktop
  6
ByLayer
 62
    7
370
   -1
100
AcDbSpline
210
0
220
0
230
0
 70
    8
 71
    3
 72
    8
 73
    4
 74
    0
 42
1e-07
 43
1e-07
 40
0
 40
0
 40
0
 40
0
 40
1
 40
1
 40
1
 40
1
 10
80.56336521945755
 20
9.628406762739042
 30
0
 10
80.56336521945755
 20
10.22485686387662
 30
0
 10
80.08052477321422
 20
10.69349622905614
 30
0
 10
79.48407467207666
 20
10.69349622905614
 30
0
  0
SPLINE
  5
18C
100
AcDbEntity
  8
silktop
  6
ByLayer
 62
    7
370
   -1
100
AcDbSpline
210
0
220
0
230
0
 70
    8
 71
    3
 72
    8
 73
    4
 74
    0
 42
1e-07
 43
1e-07
 40
0
 40
0
 40
0
 40
0
 40
1
 40
1
 40
1
 40
1
 10
79.48407467207666
 20
10.69349622905614
 30
0
 10
78.88762457093908
 20
10.69349622905614
 30
0
 10
78.41898520575955
 20
10.22485686387662
 30
0
 10
78.41898520575955
 20
9.628406762739042
 30
0
  0
SPLINE
  5
18D
100
AcDbEntity
  8
silktop
  6
ByLayer
 62
    7
370
   -1
100
AcDbSpline
210
0
220
0
230
0
 70
    8
 71
    3
 72
    8
 73
    4
 74
    0
 42
1e-07
 43
1e-07
 40
0
 40
0
 40
0
 40
0
 40
1
 40
1
 40
1
 40
1
 10
78.41898520575955
 20
9.628406762739042
 30
0
 10
78.41898520575955
 20
9.03195666160147
 30
0
 10
78.88762457093908
 20
8.549116215358135
 30
0
 10
79.48407467207666
 20
8.549116215358135
 30
0
  0
SPLINE
  5
18E
100
AcDbEntity
  8
silktop
  6
ByLayer
 62
    7
370
   -1
100
AcDbSpline
210
0
220
0
230
0
 70
    8
 71
    3
 72
    8
 73
    4
 74
    0
 42
1e-07
 43
1e-07
 40
0
 40
0
 40
0
 40
0
 40
1
 40
1
 40
1
 40
1
 10
79.48407467207666
 20
8.549116215358135
 30
0
 10
80.08052477321422
 20
8.549116215358135
 30
0
 10
80.56336521945755
 20
9.03195666160147
 30
0
 10
80.56336521945755
 20
9.628406762739042
 30
0
  0
SPLINE
  5
18F
100
AcDbEntity
  8
silktop
  6
ByLayer
 62
    7
370
   -1
100
AcDbSpline
210
0
220
0
230
0
 70
    8
 71
    3
 72
    8
 73
    4
 74
    0
 42
1e-07
 43
1e-07
 40
0
 40
0
 40
0
 40
0
 40
1
 40
1
 40
1
 40
1
 10
80.30774374754145
 20
9.628406762739042
 30
0
 10
80.30774374754145
 20
10.08284504685475
 30
0
 10
79.93851262073112
 20
10.43787475714003
 30
0
 10
79.48407467207666
 20
10.43787475714003
 30
0
  0
SPLINE
  5
190
100
AcDbEntity
  8
silktop
  6
ByLayer
 62
    7
370
   -1
100
AcDbSpline
210
0
220
0
230
0
 70
    8
 71
    3
 72
    8
 73
    4
 74
    0
 42
1e-07
 43
1e-07
 40
0
 40
0
 40
0
 40
0
 40
1
 40
1
 40
1
 40
1
 10
79.48407467207666
 20
10.43787475714003
 30
0
 10
79.02963638796093
 20
10.43787475714003
 30
0
 10
78.67460667767565
 20
10.08284504685475
 30
0
 10
78.67460667767565
 20
9.628406762739042
 30
0
  0
SPLINE
  5
191
100
AcDbEntity
  8
silktop
  6
ByLayer
 62
    7
370
   -1
100
AcDbSpline
210
0
220
0
230
0
 70
    8
 71
    3
 72
    8
 73
    4
 74
    0
 42
1e-07
 43
1e-07
 40
0
 40
0
 40
0
 40
0
 40
1
 40
1
 40
1
 40
1
 10
78.67460667767565
 20
9.628406762739042
 30
0
 10
78.67460667767565
 20
9.173968478623332
 30
0
 10
79.02963638796093
 20
8.804737687274239
 30
0
 10
79.48407467207666
 20
8.804737687274239
 30
0
  0
SPLINE
  5
192
100
AcDbEntity
  8
silktop
  6
ByLayer
 62
    7
370
   -1
100
AcDbSpline
210
0
220
0
230
0
 70
    8
 71
    3
 72
    8
 73
    4
 74
    0
 42
1e-07
 43
1e-07
 40
0
 40
0
 40
0
 40
0
 40
1
 40
1
 40
1
 40
1
 10
79.48407467207666
 20
8.804737687274239
 30
0
 10
79.93851262073112
 20
8.804737687274239
 30
0
 10
80.30774374754145
 20
9.173968478623332
 30
0
 10
80.30774374754145
 20
9.628406762739042
 30
0
  0
LWPOLYLINE
  5
193
100
AcDbEntity
  8
silktop
  6
ByLayer
 62
    7
370
   -1
100
AcDbPolyline
 90
    1
 70
    1
 43
0
 10
80.56336521945755
 20
9.628406762739042
  0
SPLINE
  5
194
100
AcDbEntity
  8
silktop
  6
ByLayer
 62
    7
370
   -1
100
AcDbSpline
210
0
220
0
230
0
 70
    8
 71
    3
 72
    8
 73
    4
 74
    0
 42
1e-07
 43
1e-07
 40
0
 40
0
 40
0
 40
0
 40
1
 40
1
 40
1
 40
1
 10
80.56336521945755
 20
25.37752911224574
 30
0
 10
80.56336521945755
 20
25.97397921338331
 30
0
 10
80.08052477321422
 20
26.44261857856283
 30
0
 10
79.48407467207666
 20
26.44261857856283
 30
0
  0
SPLINE
  5
195
100
AcDbEntity
  8
silktop
  6
ByLayer
 62
    7
370
   -1
100
AcDbSpline
210
0
220
0
230
0
 70
    8
 71
    3
 72
    8
 73
    4
 74
    0
 42
1e-07
 43
1e-07
 40
0
 40
0
 40
0
 40
0
 40
1
 40
1
 40
1
 40
1
 10
79.48407467207666
 20
26.44261857856283
 30
0
 10
78.88762457093908
 20
26.44261857856283
 30
0
 10
78.41898520575955
 20
25.97397921338331
 30
0
 10
78.41898520575955
 20
25.37752911224574
 30
0
  0
SPLINE
  5
196
100
AcDbEntity
  8
silktop
  6
ByLayer
 62
    7
370
   -1
100
AcDbSpline
210
0
220
0
230
0
 70
    8
 71
    3
 72
    8
 73
    4
 74
    0
 42
1e-07
 43
1e-07
 40
0
 40
0
 40
0
 40
0
 40
1
 40
1
 40
1
 40
1
 10
78.41898520575955
 20
25.37752911224574
 30
0
 10
78.41898520575955
 20
24.78107934656941
 30
0
 10
78.88762457093908
 20
24.29823856486483
 30
0
 10
79.48407467207666
 20
24.29823856486483
 30
0
  0
SPLINE
  5
197
100
AcDbEntity
  8
silktop
  6
ByLayer
 62
    7
370
   -1
100
AcDbSpline
210
0
220
0
230
0
 70
    8
 71
    3
 72
    8
 73
    4
 74
    0
 42
1e-07
 43
1e-07
 40
0
 40
0
 40
0
 40
0
 40
1
 40
1
 40
1
 40
1
 10
79.48407467207666
 20
24.29823856486483
 30
0
 10
80.08052477321422
 20
24.29823856486483
 30
0
 10
80.56336521945755
 20
24.78107934656941
 30
0
 10
80.56336521945755
 20
25.37752911224574
 30
0
  0
LWPOLYLINE
  5
198
100
AcDbEntity
  8
silktop
  6
ByLayer
 62
    7
370
   -1
100
AcDbPolyline
 90
    1
 70
    1
 43
0
 10
80.30774374754145
 20
9.628406762739042
  0
SPLINE
  5
199
100
AcDbEntity
  8
silktop
  6
ByLayer
 62
    7
370
   -1
100
AcDbSpline
210
0
220
0
230
0
 70
    8
 71
    3
 72
    8
 73
    4
 74
    0
 42
1e-07
 43
1e-07
 40
0
 40
0
 40
0
 40
0
 40
1
 40
1
 40
1
 40
1
 10
80.30774374754145
 20
25.37752911224574
 30
0
 10
80.30774374754145
 20
25.83196739636145
 30
0
 10
79.93851262073112
 20
26.18699710664673
 30
0
 10
79.48407467207666
 20
26.18699710664673
 30
0
  0
SPLINE
  5
19A
100
AcDbEntity
  8
silktop
  6
ByLayer
 62
    7
370
   -1
100
AcDbSpline
210
0
220
0
230
0
 70
    8
 71
    3
 72
    8
 73
    4
 74
    0
 42
1e-07
 43
1e-07
 40
0
 40
0
 40
0
 40
0
 40
1
 40
1
 40
1
 40
1
 10
79.48407467207666
 20
26.18699710664673
 30
0
 10
79.02963638796093
 20
26.18699710664673
 30
0
 10
78.67460667767565
 20
25.83196739636145
 30
0
 10
78.67460667767565
 20
25.37752911224574
 30
0
  0
SPLINE
  5
19B
100
AcDbEntity
  8
silktop
  6
ByLayer
 62
    7
370
   -1
100
AcDbSpline
210
0
220
0
230
0
 70
    8
 71
    3
 72
    8
 73
    4
 74
    0
 42
1e-07
 43
1e-07
 40
0
 40
0
 40
0
 40
0
 40
1
 40
1
 40
1
 40
1
 10
78.67460667767565
 20
25.37752911224574
 30
0
 10
78.67460667767565
 20
24.92309116359128
 30
0
 10
79.02963638796093
 20
24.55386003678093
 30
0
 10
79.48407467207666
 20
24.55386003678093
 30
0
  0
SPLINE
  5
19C
100
AcDbEntity
  8
silktop
  6
ByLayer
 62
    7
370
   -1
100
AcDbSpline
210
0
220
0
230
0
 70
    8
 71
    3
 72
    8
 73
    4
 74
    0
 42
1e-07
 43
1e-07
 40
0
 40
0
 40
0
 40
0
 40
1
 40
1
 40
1
 40
1
 10
79.48407467207666
 20
24.55386003678093
 30
0
 10
79.93851262073112
 20
24.55386003678093
 30
0
 10
80.30774374754145
 20
24.92309116359128
 30
0
 10
80.30774374754145
 20
25.37752911224574
 30
0
  0
LWPOLYLINE
  5
19D
100
AcDbEntity
  8
silktop
  6
ByLayer
 62
    7
370
   -1
100
AcDbPolyline
 90
    1
 70
    1
 43
0
 10
80.56336521945755
 20
25.37752911224574
  0
SPLINE
  5
19E
100
AcDbEntity
  8
silktop
  6
ByLayer
 62
    7
370
   -1
100
AcDbSpline
210
0
220
0
230
0
 70
    8
 71
    3
 72
    8
 73
    4
 74
    0
 42
1e-07
 43
1e-07
 40
0
 40
0
 40
0
 40
0
 40
1
 40
1
 40
1
 40
1
 10
84.7669180895482
 20
29.6804905561668
 30
0
 10
84.7669180895482
 20
30.66037286517853
 30
0
 10
83.97165151167226
 20
31.44143836199065
 30
0
 10
82.99176920266054
 20
31.44143836199065
 30
0
  0
SPLINE
  5
19F
100
AcDbEntity
  8
silktop
  6
ByLayer
 62
    7
370
   -1
100
AcDbSpline
210
0
220
0
230
0
 70
    8
 71
    3
 72
    8
 73
    4
 74
    0
 42
1e-07
 43
1e-07
 40
0
 40
0
 40
0
 40
0
 40
1
 40
1
 40
1
 40
1
 10
82.99176920266054
 20
31.44143836199065
 30
0
 10
82.01188689364881
 20
31.44143836199065
 30
0
 10
81.23082139683669
 20
30.66037286517853
 30
0
 10
81.23082139683669
 20
29.6804905561668
 30
0
  0
SPLINE
  5
1A0
100
AcDbEntity
  8
silktop
  6
ByLayer
 62
    7
370
   -1
100
AcDbSpline
210
0
220
0
230
0
 70
    8
 71
    3
 72
    8
 73
    4
 74
    0
 42
1e-07
 43
1e-07
 40
0
 40
0
 40
0
 40
0
 40
1
 40
1
 40
1
 40
1
 10
81.23082139683669
 20
29.6804905561668
 30
0
 10
81.23082139683669
 20
28.70060824715507
 30
0
 10
82.01188689364881
 20
27.90534166927914
 30
0
 10
82.99176920266054
 20
27.90534166927914
 30
0
  0
SPLINE
  5
1A1
100
AcDbEntity
  8
silktop
  6
ByLayer
 62
    7
370
   -1
100
AcDbSpline
210
0
220
0
230
0
 70
    8
 71
    3
 72
    8
 73
    4
 74
    0
 42
1e-07
 43
1e-07
 40
0
 40
0
 40
0
 40
0
 40
1
 40
1
 40
1
 40
1
 10
82.99176920266054
 20
27.90534166927914
 30
0
 10
83.97165151167226
 20
27.90534166927914
 30
0
 10
84.7669180895482
 20
28.70060824715507
 30
0
 10
84.7669180895482
 20
29.6804905561668
 30
0
  0
LWPOLYLINE
  5
1A2
100
AcDbEntity
  8
silktop
  6
ByLayer
 62
    7
370
   -1
100
AcDbPolyline
 90
    1
 70
    1
 43
0
 10
80.30774374754145
 20
25.37752911224574
  0
SPLINE
  5
1A3
100
AcDbEntity
  8
silktop
  6
ByLayer
 62
    7
370
   -1
100
AcDbSpline
210
0
220
0
230
0
 70
    8
 71
    3
 72
    8
 73
    4
 74
    0
 42
1e-07
 43
1e-07
 40
0
 40
0
 40
0
 40
0
 40
1
 40
1
 40
1
 40
1
 10
84.25567514571598
 20
29.6804905561668
 30
0
 10
84.25567514571598
 20
30.37634889567355
 30
0
 10
83.68762754216729
 20
30.93019541815844
 30
0
 10
82.99176920266054
 20
30.93019541815844
 30
0
  0
SPLINE
  5
1A4
100
AcDbEntity
  8
silktop
  6
ByLayer
 62
    7
370
   -1
100
AcDbSpline
210
0
220
0
230
0
 70
    8
 71
    3
 72
    8
 73
    4
 74
    0
 42
1e-07
 43
1e-07
 40
0
 40
0
 40
0
 40
0
 40
1
 40
1
 40
1
 40
1
 10
82.99176920266054
 20
30.93019541815844
 30
0
 10
82.29591086315378
 20
30.93019541815844
 30
0
 10
81.74206434066889
 20
30.37634889567355
 30
0
 10
81.74206434066889
 20
29.6804905561668
 30
0
  0
SPLINE
  5
1A5
100
AcDbEntity
  8
silktop
  6
ByLayer
 62
    7
370
   -1
100
AcDbSpline
210
0
220
0
230
0
 70
    8
 71
    3
 72
    8
 73
    4
 74
    0
 42
1e-07
 43
1e-07
 40
0
 40
0
 40
0
 40
0
 40
1
 40
1
 40
1
 40
1
 10
81.74206434066889
 20
29.6804905561668
 30
0
 10
81.74206434066889
 20
28.98463221666005
 30
0
 10
82.29591086315378
 20
28.41658461311135
 30
0
 10
82.99176920266054
 20
28.41658461311135
 30
0
  0
SPLINE
  5
1A6
100
AcDbEntity
  8
silktop
  6
ByLayer
 62
    7
370
   -1
100
AcDbSpline
210
0
220
0
230
0
 70
    8
 71
    3
 72
    8
 73
    4
 74
    0
 42
1e-07
 43
1e-07
 40
0
 40
0
 40
0
 40
0
 40
1
 40
1
 40
1
 40
1
 10
82.99176920266054
 20
28.41658461311135
 30
0
 10
83.68762754216729
 20
28.41658461311135
 30
0
 10
84.25567514571598
 20
28.98463221666005
 30
0
 10
84.25567514571598
 20
29.6804905561668
 30
0
  0
LWPOLYLINE
  5
1A7
100
AcDbEntity
  8
silktop
  6
ByLayer
 62
    7
370
   -1
100
AcDbPolyline
 90
    1
 70
    1
 43
0
 10
84.7669180895482
 20
29.6804905561668
  0
LWPOLYLINE
  5
1A8
100
AcDbEntity
  8
silktop
  6
ByLayer
 62
    7
370
   -1
100
AcDbPolyline
 90
    1
 70
    1
 43
0
 10
84.25567514571598
 20
29.6804905561668
  0
SPLINE
  5
1A9
100
AcDbEntity
  8
silktop
  6
ByLayer
 62
    7
370
   -1
100
AcDbSpline
210
0
220
0
230
0
 70
    8
 71
    3
 72
    8
 73
    4
 74
    0
 42
1e-07
 43
1e-07
 40
0
 40
0
 40
0
 40
0
 40
1
 40
1
 40
1
 40
1
 10
84.7669180895482
 20
42.81659386225722
 30
0
 10
84.7669180895482
 20
43.7964758358077
 30
0
 10
83.97165151167226
 20
44.57754166808106
 30
0
 10
82.99176920266054
 20
44.57754166808106
 30
0
  0
SPLINE
  5
1AA
100
AcDbEntity
  8
silktop
  6
ByLayer
 62
    7
370
   -1
100
AcDbSpline
210
0
220
0
230
0
 70
    8
 71
    3
 72
    8
 73
    4
 74
    0
 42
1e-07
 43
1e-07
 40
0
 40
0
 40
0
 40
0
 40
1
 40
1
 40
1
 40
1
 10
82.99176920266054
 20
44.57754166808106
 30
0
 10
82.01188689364881
 20
44.57754166808106
 30
0
 10
81.23082139683669
 20
43.7964758358077
 30
0
 10
81.23082139683669
 20
42.81659386225722
 30
0
  0
SPLINE
  5
1AB
100
AcDbEntity
  8
silktop
  6
ByLayer
 62
    7
370
   -1
100
AcDbSpline
210
0
220
0
230
0
 70
    8
 71
    3
 72
    8
 73
    4
 74
    0
 42
1e-07
 43
1e-07
 40
0
 40
0
 40
0
 40
0
 40
1
 40
1
 40
1
 40
1
 10
81.23082139683669
 20
42.81659386225722
 30
0
 10
81.23082139683669
 20
41.83671155324549
 30
0
 10
82.01188689364881
 20
41.04144463990831
 30
0
 10
82.99176920266054
 20
41.04144463990831
 30
0
  0
SPLINE
  5
1AC
100
AcDbEntity
  8
silktop
  6
ByLayer
 62
    7
370
   -1
100
AcDbSpline
210
0
220
0
230
0
 70
    8
 71
    3
 72
    8
 73
    4
 74
    0
 42
1e-07
 43
1e-07
 40
0
 40
0
 40
0
 40
0
 40
1
 40
1
 40
1
 40
1
 10
82.99176920266054
 20
41.04144463990831
 30
0
 10
83.97165151167226
 20
41.04144463990831
 30
0
 10
84.7669180895482
 20
41.83671155324549
 30
0
 10
84.7669180895482
 20
42.81659386225722
 30
0
  0
SPLINE
  5
1AD
100
AcDbEntity
  8
silktop
  6
ByLayer
 62
    7
370
   -1
100
AcDbSpline
210
0
220
0
230
0
 70
    8
 71
    3
 72
    8
 73
    4
 74
    0
 42
1e-07
 43
1e-07
 40
0
 40
0
 40
0
 40
0
 40
1
 40
1
 40
1
 40
1
 10
84.25567514571598
 20
42.81659386225722
 30
0
 10
84.25567514571598
 20
43.51245220176397
 30
0
 10
83.68762754216729
 20
44.06629872424886
 30
0
 10
82.99176920266054
 20
44.06629872424886
 30
0
  0
SPLINE
  5
1AE
100
AcDbEntity
  8
silktop
  6
ByLayer
 62
    7
370
   -1
100
AcDbSpline
210
0
220
0
230
0
 70
    8
 71
    3
 72
    8
 73
    4
 74
    0
 42
1e-07
 43
1e-07
 40
0
 40
0
 40
0
 40
0
 40
1
 40
1
 40
1
 40
1
 10
82.99176920266054
 20
44.06629872424886
 30
0
 10
82.29591086315378
 20
44.06629872424886
 30
0
 10
81.74206434066889
 20
43.51245220176397
 30
0
 10
81.74206434066889
 20
42.81659386225722
 30
0
  0
SPLINE
  5
1AF
100
AcDbEntity
  8
silktop
  6
ByLayer
 62
    7
370
   -1
100
AcDbSpline
210
0
220
0
230
0
 70
    8
 71
    3
 72
    8
 73
    4
 74
    0
 42
1e-07
 43
1e-07
 40
0
 40
0
 40
0
 40
0
 40
1
 40
1
 40
1
 40
1
 10
81.74206434066889
 20
42.81659386225722
 30
0
 10
81.74206434066889
 20
42.12073518728922
 30
0
 10
82.29591086315378
 20
41.55268758374051
 30
0
 10
82.99176920266054
 20
41.55268758374051
 30
0
  0
SPLINE
  5
1B0
100
AcDbEntity
  8
silktop
  6
ByLayer
 62
    7
370
   -1
100
AcDbSpline
210
0
220
0
230
0
 70
    8
 71
    3
 72
    8
 73
    4
 74
    0
 42
1e-07
 43
1e-07
 40
0
 40
0
 40
0
 40
0
 40
1
 40
1
 40
1
 40
1
 10
82.99176920266054
 20
41.55268758374051
 30
0
 10
83.68762754216729
 20
41.55268758374051
 30
0
 10
84.25567514571598
 20
42.12073518728922
 30
0
 10
84.25567514571598
 20
42.81659386225722
 30
0
  0
LWPOLYLINE
  5
1B1
100
AcDbEntity
  8
silktop
  6
ByLayer
 62
    7
370
   -1
100
AcDbPolyline
 90
    1
 70
    1
 43
0
 10
84.7669180895482
 20
42.81659386225722
  0
SPLINE
  5
1B2
100
AcDbEntity
  8
silktop
  6
ByLayer
 62
    7
370
   -1
100
AcDbSpline
210
0
220
0
230
0
 70
    8
 71
    3
 72
    8
 73
    4
 74
    0
 42
1e-07
 43
1e-07
 40
0
 40
0
 40
0
 40
0
 40
1
 40
1
 40
1
 40
1
 10
84.7669180895482
 20
47.68760257426574
 30
0
 10
84.7669180895482
 20
48.66748488327746
 30
0
 10
83.97165151167226
 20
49.44855071555084
 30
0
 10
82.99176920266054
 20
49.44855071555084
 30
0
  0
SPLINE
  5
1B3
100
AcDbEntity
  8
silktop
  6
ByLayer
 62
    7
370
   -1
100
AcDbSpline
210
0
220
0
230
0
 70
    8
 71
    3
 72
    8
 73
    4
 74
    0
 42
1e-07
 43
1e-07
 40
0
 40
0
 40
0
 40
0
 40
1
 40
1
 40
1
 40
1
 10
82.99176920266054
 20
49.44855071555084
 30
0
 10
82.01188689364881
 20
49.44855071555084
 30
0
 10
81.23082139683669
 20
48.66748488327746
 30
0
 10
81.23082139683669
 20
47.68760257426574
 30
0
  0
SPLINE
  5
1B4
100
AcDbEntity
  8
silktop
  6
ByLayer
 62
    7
370
   -1
100
AcDbSpline
210
0
220
0
230
0
 70
    8
 71
    3
 72
    8
 73
    4
 74
    0
 42
1e-07
 43
1e-07
 40
0
 40
0
 40
0
 40
0
 40
1
 40
1
 40
1
 40
1
 10
81.23082139683669
 20
47.68760257426574
 30
0
 10
81.23082139683669
 20
46.70772060071526
 30
0
 10
82.01188689364881
 20
45.91245368737807
 30
0
 10
82.99176920266054
 20
45.91245368737807
 30
0
  0
SPLINE
  5
1B5
100
AcDbEntity
  8
silktop
  6
ByLayer
 62
    7
370
   -1
100
AcDbSpline
210
0
220
0
230
0
 70
    8
 71
    3
 72
    8
 73
    4
 74
    0
 42
1e-07
 43
1e-07
 40
0
 40
0
 40
0
 40
0
 40
1
 40
1
 40
1
 40
1
 10
82.99176920266054
 20
45.91245368737807
 30
0
 10
83.97165151167226
 20
45.91245368737807
 30
0
 10
84.7669180895482
 20
46.70772060071526
 30
0
 10
84.7669180895482
 20
47.68760257426574
 30
0
  0
LWPOLYLINE
  5
1B6
100
AcDbEntity
  8
silktop
  6
ByLayer
 62
    7
370
   -1
100
AcDbPolyline
 90
    1
 70
    1
 43
0
 10
84.25567514571598
 20
42.81659386225722
  0
SPLINE
  5
1B7
100
AcDbEntity
  8
silktop
  6
ByLayer
 62
    7
370
   -1
100
AcDbSpline
210
0
220
0
230
0
 70
    8
 71
    3
 72
    8
 73
    4
 74
    0
 42
1e-07
 43
1e-07
 40
0
 40
0
 40
0
 40
0
 40
1
 40
1
 40
1
 40
1
 10
84.25567514571598
 20
47.68760257426574
 30
0
 10
84.25567514571598
 20
48.38346124923373
 30
0
 10
83.68762754216729
 20
48.93730777171863
 30
0
 10
82.99176920266054
 20
48.93730777171863
 30
0
  0
SPLINE
  5
1B8
100
AcDbEntity
  8
silktop
  6
ByLayer
 62
    7
370
   -1
100
AcDbSpline
210
0
220
0
230
0
 70
    8
 71
    3
 72
    8
 73
    4
 74
    0
 42
1e-07
 43
1e-07
 40
0
 40
0
 40
0
 40
0
 40
1
 40
1
 40
1
 40
1
 10
82.99176920266054
 20
48.93730777171863
 30
0
 10
82.29591086315378
 20
48.93730777171863
 30
0
 10
81.74206434066889
 20
48.38346124923373
 30
0
 10
81.74206434066889
 20
47.68760257426574
 30
0
  0
SPLINE
  5
1B9
100
AcDbEntity
  8
silktop
  6
ByLayer
 62
    7
370
   -1
100
AcDbSpline
210
0
220
0
230
0
 70
    8
 71
    3
 72
    8
 73
    4
 74
    0
 42
1e-07
 43
1e-07
 40
0
 40
0
 40
0
 40
0
 40
1
 40
1
 40
1
 40
1
 10
81.74206434066889
 20
47.68760257426574
 30
0
 10
81.74206434066889
 20
46.99174423475898
 30
0
 10
82.29591086315378
 20
46.42369663121028
 30
0
 10
82.99176920266054
 20
46.42369663121028
 30
0
  0
SPLINE
  5
1BA
100
AcDbEntity
  8
silktop
  6
ByLayer
 62
    7
370
   -1
100
AcDbSpline
210
0
220
0
230
0
 70
    8
 71
    3
 72
    8
 73
    4
 74
    0
 42
1e-07
 43
1e-07
 40
0
 40
0
 40
0
 40
0
 40
1
 40
1
 40
1
 40
1
 10
82.99176920266054
 20
46.42369663121028
 30
0
 10
83.68762754216729
 20
46.42369663121028
 30
0
 10
84.25567514571598
 20
46.99174423475898
 30
0
 10
84.25567514571598
 20
47.68760257426574
 30
0
  0
LWPOLYLINE
  5
1BB
100
AcDbEntity
  8
silktop
  6
ByLayer
 62
    7
370
   -1
100
AcDbPolyline
 90
    1
 70
    1
 43
0
 10
84.7669180895482
 20
47.68760257426574
  0
LWPOLYLINE
  5
1BC
100
AcDbEntity
  8
silktop
  6
ByLayer
 62
    7
370
   -1
100
AcDbPolyline
 90
    1
 70
    1
 43
0
 10
84.25567514571598
 20
47.68760257426574
  0
SPLINE
  5
1BD
100
AcDbEntity
  8
silktop
  6
ByLayer
 62
    7
370
   -1
100
AcDbSpline
210
0
220
0
230
0
 70
    8
 71
    3
 72
    8
 73
    4
 74
    0
 42
1e-07
 43
1e-07
 40
0
 40
0
 40
0
 40
0
 40
1
 40
1
 40
1
 40
1
 10
84.7669180895482
 20
60.82370588035616
 30
0
 10
84.7669180895482
 20
61.80358818936788
 30
0
 10
83.97165151167226
 20
62.58465368618
 30
0
 10
82.99176920266054
 20
62.58465368618
 30
0
  0
SPLINE
  5
1BE
100
AcDbEntity
  8
silktop
  6
ByLayer
 62
    7
370
   -1
100
AcDbSpline
210
0
220
0
230
0
 70
    8
 71
    3
 72
    8
 73
    4
 74
    0
 42
1e-07
 43
1e-07
 40
0
 40
0
 40
0
 40
0
 40
1
 40
1
 40
1
 40
1
 10
82.99176920266054
 20
62.58465368618
 30
0
 10
82.01188689364881
 20
62.58465368618
 30
0
 10
81.23082139683669
 20
61.80358818936788
 30
0
 10
81.23082139683669
 20
60.82370588035616
 30
0
  0
SPLINE
  5
1BF
100
AcDbEntity
  8
silktop
  6
ByLayer
 62
    7
370
   -1
100
AcDbSpline
210
0
220
0
230
0
 70
    8
 71
    3
 72
    8
 73
    4
 74
    0
 42
1e-07
 43
1e-07
 40
0
 40
0
 40
0
 40
0
 40
1
 40
1
 40
1
 40
1
 10
81.23082139683669
 20
60.82370588035616
 30
0
 10
81.23082139683669
 20
59.84382357134443
 30
0
 10
82.01188689364881
 20
59.04855665800724
 30
0
 10
82.99176920266054
 20
59.04855665800724
 30
0
  0
SPLINE
  5
1C0
100
AcDbEntity
  8
silktop
  6
ByLayer
 62
    7
370
   -1
100
AcDbSpline
210
0
220
0
230
0
 70
    8
 71
    3
 72
    8
 73
    4
 74
    0
 42
1e-07
 43
1e-07
 40
0
 40
0
 40
0
 40
0
 40
1
 40
1
 40
1
 40
1
 10
82.99176920266054
 20
59.04855665800724
 30
0
 10
83.97165151167226
 20
59.04855665800724
 30
0
 10
84.7669180895482
 20
59.84382357134443
 30
0
 10
84.7669180895482
 20
60.82370588035616
 30
0
  0
SPLINE
  5
1C1
100
AcDbEntity
  8
silktop
  6
ByLayer
 62
    7
370
   -1
100
AcDbSpline
210
0
220
0
230
0
 70
    8
 71
    3
 72
    8
 73
    4
 74
    0
 42
1e-07
 43
1e-07
 40
0
 40
0
 40
0
 40
0
 40
1
 40
1
 40
1
 40
1
 10
84.25567514571598
 20
60.82370588035616
 30
0
 10
84.25567514571598
 20
61.51956421986291
 30
0
 10
83.68762754216729
 20
62.0734107423478
 30
0
 10
82.99176920266054
 20
62.0734107423478
 30
0
  0
SPLINE
  5
1C2
100
AcDbEntity
  8
silktop
  6
ByLayer
 62
    7
370
   -1
100
AcDbSpline
210
0
220
0
230
0
 70
    8
 71
    3
 72
    8
 73
    4
 74
    0
 42
1e-07
 43
1e-07
 40
0
 40
0
 40
0
 40
0
 40
1
 40
1
 40
1
 40
1
 10
82.99176920266054
 20
62.0734107423478
 30
0
 10
82.29591086315378
 20
62.0734107423478
 30
0
 10
81.74206434066889
 20
61.51956421986291
 30
0
 10
81.74206434066889
 20
60.82370588035616
 30
0
  0
SPLINE
  5
1C3
100
AcDbEntity
  8
silktop
  6
ByLayer
 62
    7
370
   -1
100
AcDbSpline
210
0
220
0
230
0
 70
    8
 71
    3
 72
    8
 73
    4
 74
    0
 42
1e-07
 43
1e-07
 40
0
 40
0
 40
0
 40
0
 40
1
 40
1
 40
1
 40
1
 10
81.74206434066889
 20
60.82370588035616
 30
0
 10
81.74206434066889
 20
60.12784754084941
 30
0
 10
82.29591086315378
 20
59.55979960183945
 30
0
 10
82.99176920266054
 20
59.55979960183945
 30
0
  0
SPLINE
  5
1C4
100
AcDbEntity
  8
silktop
  6
ByLayer
 62
    7
370
   -1
100
AcDbSpline
210
0
220
0
230
0
 70
    8
 71
    3
 72
    8
 73
    4
 74
    0
 42
1e-07
 43
1e-07
 40
0
 40
0
 40
0
 40
0
 40
1
 40
1
 40
1
 40
1
 10
82.99176920266054
 20
59.55979960183945
 30
0
 10
83.68762754216729
 20
59.55979960183945
 30
0
 10
84.25567514571598
 20
60.12784754084941
 30
0
 10
84.25567514571598
 20
60.82370588035616
 30
0
  0
LWPOLYLINE
  5
1C5
100
AcDbEntity
  8
silktop
  6
ByLayer
 62
    7
370
   -1
100
AcDbPolyline
 90
    1
 70
    1
 43
0
 10
84.7669180895482
 20
60.82370588035616
  0
LWPOLYLINE
  5
1C6
100
AcDbEntity
  8
silktop
  6
ByLayer
 62
    7
370
   -1
100
AcDbPolyline
 90
    1
 70
    1
 43
0
 10
84.25567514571598
 20
60.82370588035616
  0
SPLINE
  5
1C7
100
AcDbEntity
  8
silktop
  6
ByLayer
 62
    7
370
   -1
100
AcDbSpline
210
0
220
0
230
0
 70
    8
 71
    3
 72
    8
 73
    4
 74
    0
 42
1e-07
 43
1e-07
 40
0
 40
0
 40
0
 40
0
 40
1
 40
1
 40
1
 40
1
 10
70.77874354586535
 20
10.75030088877263
 30
0
 10
70.77874354586535
 20
12.39763937516349
 30
0
 10
69.42963011004328
 20
13.7325513944605
 30
0
 10
67.78229195911366
 20
13.7325513944605
 30
0
  0
SPLINE
  5
1C8
100
AcDbEntity
  8
silktop
  6
ByLayer
 62
    7
370
   -1
100
AcDbSpline
210
0
220
0
230
0
 70
    8
 71
    3
 72
    8
 73
    4
 74
    0
 42
1e-07
 43
1e-07
 40
0
 40
0
 40
0
 40
0
 40
1
 40
1
 40
1
 40
1
 10
67.78229195911366
 20
13.7325513944605
 30
0
 10
66.13495347272281
 20
13.7325513944605
 30
0
 10
64.80004145342581
 20
12.39763937516349
 30
0
 10
64.80004145342581
 20
10.75030088877263
 30
0
  0
SPLINE
  5
1C9
100
AcDbEntity
  8
silktop
  6
ByLayer
 62
    7
370
   -1
100
AcDbSpline
210
0
220
0
230
0
 70
    8
 71
    3
 72
    8
 73
    4
 74
    0
 42
1e-07
 43
1e-07
 40
0
 40
0
 40
0
 40
0
 40
1
 40
1
 40
1
 40
1
 10
64.80004145342581
 20
10.75030088877263
 30
0
 10
64.80004145342581
 20
9.102962737843024
 30
0
 10
66.13495347272281
 20
7.753849302020956
 30
0
 10
67.78229195911366
 20
7.753849302020956
 30
0
  0
SPLINE
  5
1CA
100
AcDbEntity
  8
silktop
  6
ByLayer
 62
    7
370
   -1
100
AcDbSpline
210
0
220
0
230
0
 70
    8
 71
    3
 72
    8
 73
    4
 74
    0
 42
1e-07
 43
1e-07
 40
0
 40
0
 40
0
 40
0
 40
1
 40
1
 40
1
 40
1
 10
67.78229195911366
 20
7.753849302020956
 30
0
 10
69.42963011004328
 20
7.753849302020956
 30
0
 10
70.77874354586535
 20
9.102962737843024
 30
0
 10
70.77874354586535
 20
10.75030088877263
 30
0
  0
SPLINE
  5
1CB
100
AcDbEntity
  8
silktop
  6
ByLayer
 62
    7
370
   -1
100
AcDbSpline
210
0
220
0
230
0
 70
    8
 71
    3
 72
    8
 73
    4
 74
    0
 42
1e-07
 43
1e-07
 40
0
 40
0
 40
0
 40
0
 40
1
 40
1
 40
1
 40
1
 10
69.15980755706336
 20
10.75030088877263
 30
0
 10
69.15980755706336
 20
11.50296422345713
 30
0
 10
68.53495529379816
 20
12.11361540565851
 30
0
 10
67.78229195911366
 20
12.11361540565851
 30
0
  0
SPLINE
  5
1CC
100
AcDbEntity
  8
silktop
  6
ByLayer
 62
    7
370
   -1
100
AcDbSpline
210
0
220
0
230
0
 70
    8
 71
    3
 72
    8
 73
    4
 74
    0
 42
1e-07
 43
1e-07
 40
0
 40
0
 40
0
 40
0
 40
1
 40
1
 40
1
 40
1
 10
67.78229195911366
 20
12.11361540565851
 30
0
 10
67.02962862442918
 20
12.11361540565851
 30
0
 10
66.41897744222778
 20
11.50296422345713
 30
0
 10
66.41897744222778
 20
10.75030088877263
 30
0
  0
SPLINE
  5
1CD
100
AcDbEntity
  8
silktop
  6
ByLayer
 62
    7
370
   -1
100
AcDbSpline
210
0
220
0
230
0
 70
    8
 71
    3
 72
    8
 73
    4
 74
    0
 42
1e-07
 43
1e-07
 40
0
 40
0
 40
0
 40
0
 40
1
 40
1
 40
1
 40
1
 10
66.41897744222778
 20
10.75030088877263
 30
0
 10
66.41897744222778
 20
9.997637889549384
 30
0
 10
67.02962862442918
 20
9.372785290822939
 30
0
 10
67.78229195911366
 20
9.372785290822939
 30
0
  0
SPLINE
  5
1CE
100
AcDbEntity
  8
silktop
  6
ByLayer
 62
    7
370
   -1
100
AcDbSpline
210
0
220
0
230
0
 70
    8
 71
    3
 72
    8
 73
    4
 74
    0
 42
1e-07
 43
1e-07
 40
0
 40
0
 40
0
 40
0
 40
1
 40
1
 40
1
 40
1
 10
67.78229195911366
 20
9.372785290822939
 30
0
 10
68.53495529379816
 20
9.372785290822939
 30
0
 10
69.15980755706336
 20
9.997637889549384
 30
0
 10
69.15980755706336
 20
10.75030088877263
 30
0
  0
LWPOLYLINE
  5
1CF
100
AcDbEntity
  8
silktop
  6
ByLayer
 62
    7
370
   -1
100
AcDbPolyline
 90
    1
 70
    1
 43
0
 10
70.77874354586535
 20
10.75030088877263
  0
LWPOLYLINE
  5
1D0
100
AcDbEntity
  8
silktop
  6
ByLayer
 62
    7
370
   -1
100
AcDbPolyline
 90
    1
 70
    1
 43
0
 10
69.15980755706336
 20
10.75030088877263
  0
SPLINE
  5
1D1
100
AcDbEntity
  8
silktop
  6
ByLayer
 62
    7
370
   -1
100
AcDbSpline
210
0
220
0
230
0
 70
    8
 71
    3
 72
    8
 73
    4
 74
    0
 42
1e-07
 43
1e-07
 40
0
 40
0
 40
0
 40
0
 40
1
 40
1
 40
1
 40
1
 10
70.77874354586535
 20
59.75861641403906
 30
0
 10
70.77874354586535
 20
61.40595456496866
 30
0
 10
69.42963011004328
 20
62.74086691972693
 30
0
 10
67.78229195911366
 20
62.74086691972693
 30
0
  0
SPLINE
  5
1D2
100
AcDbEntity
  8
silktop
  6
ByLayer
 62
    7
370
   -1
100
AcDbSpline
210
0
220
0
230
0
 70
    8
 71
    3
 72
    8
 73
    4
 74
    0
 42
1e-07
 43
1e-07
 40
0
 40
0
 40
0
 40
0
 40
1
 40
1
 40
1
 40
1
 10
67.78229195911366
 20
62.74086691972693
 30
0
 10
66.13495347272281
 20
62.74086691972693
 30
0
 10
64.80004145342581
 20
61.40595456496866
 30
0
 10
64.80004145342581
 20
59.75861641403906
 30
0
  0
SPLINE
  5
1D3
100
AcDbEntity
  8
silktop
  6
ByLayer
 62
    7
370
   -1
100
AcDbSpline
210
0
220
0
230
0
 70
    8
 71
    3
 72
    8
 73
    4
 74
    0
 42
1e-07
 43
1e-07
 40
0
 40
0
 40
0
 40
0
 40
1
 40
1
 40
1
 40
1
 10
64.80004145342581
 20
59.75861641403906
 30
0
 10
64.80004145342581
 20
58.1112779276482
 30
0
 10
66.13495347272281
 20
56.76216482728738
 30
0
 10
67.78229195911366
 20
56.76216482728738
 30
0
  0
SPLINE
  5
1D4
100
AcDbEntity
  8
silktop
  6
ByLayer
 62
    7
370
   -1
100
AcDbSpline
210
0
220
0
230
0
 70
    8
 71
    3
 72
    8
 73
    4
 74
    0
 42
1e-07
 43
1e-07
 40
0
 40
0
 40
0
 40
0
 40
1
 40
1
 40
1
 40
1
 10
67.78229195911366
 20
56.76216482728738
 30
0
 10
69.42963011004328
 20
56.76216482728738
 30
0
 10
70.77874354586535
 20
58.1112779276482
 30
0
 10
70.77874354586535
 20
59.75861641403906
 30
0
  0
SPLINE
  5
1D5
100
AcDbEntity
  8
silktop
  6
ByLayer
 62
    7
370
   -1
100
AcDbSpline
210
0
220
0
230
0
 70
    8
 71
    3
 72
    8
 73
    4
 74
    0
 42
1e-07
 43
1e-07
 40
0
 40
0
 40
0
 40
0
 40
1
 40
1
 40
1
 40
1
 10
69.15980755706336
 20
59.75861641403906
 30
0
 10
69.15980755706336
 20
60.51127974872356
 30
0
 10
68.53495529379816
 20
61.12193093092494
 30
0
 10
67.78229195911366
 20
61.12193093092494
 30
0
  0
SPLINE
  5
1D6
100
AcDbEntity
  8
silktop
  6
ByLayer
 62
    7
370
   -1
100
AcDbSpline
210
0
220
0
230
0
 70
    8
 71
    3
 72
    8
 73
    4
 74
    0
 42
1e-07
 43
1e-07
 40
0
 40
0
 40
0
 40
0
 40
1
 40
1
 40
1
 40
1
 10
67.78229195911366
 20
61.12193093092494
 30
0
 10
67.02962862442918
 20
61.12193093092494
 30
0
 10
66.41897744222778
 20
60.51127974872356
 30
0
 10
66.41897744222778
 20
59.75861641403906
 30
0
  0
SPLINE
  5
1D7
100
AcDbEntity
  8
silktop
  6
ByLayer
 62
    7
370
   -1
100
AcDbSpline
210
0
220
0
230
0
 70
    8
 71
    3
 72
    8
 73
    4
 74
    0
 42
1e-07
 43
1e-07
 40
0
 40
0
 40
0
 40
0
 40
1
 40
1
 40
1
 40
1
 10
66.41897744222778
 20
59.75861641403906
 30
0
 10
66.41897744222778
 20
59.00595307935456
 30
0
 10
67.02962862442918
 20
58.38110081608936
 30
0
 10
67.78229195911366
 20
58.38110081608936
 30
0
  0
SPLINE
  5
1D8
100
AcDbEntity
  8
silktop
  6
ByLayer
 62
    7
370
   -1
100
AcDbSpline
210
0
220
0
230
0
 70
    8
 71
    3
 72
    8
 73
    4
 74
    0
 42
1e-07
 43
1e-07
 40
0
 40
0
 40
0
 40
0
 40
1
 40
1
 40
1
 40
1
 10
67.78229195911366
 20
58.38110081608936
 30
0
 10
68.53495529379816
 20
58.38110081608936
 30
0
 10
69.15980755706336
 20
59.00595307935456
 30
0
 10
69.15980755706336
 20
59.75861641403906
 30
0
  0
LWPOLYLINE
  5
1D9
100
AcDbEntity
  8
silktop
  6
ByLayer
 62
    7
370
   -1
100
AcDbPolyline
 90
    1
 70
    1
 43
0
 10
70.77874354586535
 20
59.75861641403906
  0
LWPOLYLINE
  5
1DA
100
AcDbEntity
  8
silktop
  6
ByLayer
 62
    7
370
   -1
100
AcDbPolyline
 90
    1
 70
    1
 43
0
 10
69.15980755706336
 20
59.75861641403906
  0
SPLINE
  5
1DB
100
AcDbEntity
  8
silktop
  6
ByLayer
 62
    7
370
   -1
100
AcDbSpline
210
0
220
0
230
0
 70
    8
 71
    3
 72
    8
 73
    4
 74
    0
 42
1e-07
 43
1e-07
 40
0
 40
0
 40
0
 40
0
 40
1
 40
1
 40
1
 40
1
 10
12.78107326034389
 20
10.75030088877263
 30
0
 10
12.78107326034389
 20
12.39763937516349
 30
0
 10
11.43195982452182
 20
13.7325513944605
 30
0
 10
9.784621673592213
 20
13.7325513944605
 30
0
  0
SPLINE
  5
1DC
100
AcDbEntity
  8
silktop
  6
ByLayer
 62
    7
370
   -1
100
AcDbSpline
210
0
220
0
230
0
 70
    8
 71
    3
 72
    8
 73
    4
 74
    0
 42
1e-07
 43
1e-07
 40
0
 40
0
 40
0
 40
0
 40
1
 40
1
 40
1
 40
1
 10
9.784621673592213
 20
13.7325513944605
 30
0
 10
8.137283187201355
 20
13.7325513944605
 30
0
 10
6.802371167904346
 20
12.39763937516349
 30
0
 10
6.802371167904346
 20
10.75030088877263
 30
0
  0
SPLINE
  5
1DD
100
AcDbEntity
  8
silktop
  6
ByLayer
 62
    7
370
   -1
100
AcDbSpline
210
0
220
0
230
0
 70
    8
 71
    3
 72
    8
 73
    4
 74
    0
 42
1e-07
 43
1e-07
 40
0
 40
0
 40
0
 40
0
 40
1
 40
1
 40
1
 40
1
 10
6.802371167904346
 20
10.75030088877263
 30
0
 10
6.802371167904346
 20
9.102962737843024
 30
0
 10
8.137283187201355
 20
7.753849302020956
 30
0
 10
9.784621673592213
 20
7.753849302020956
 30
0
  0
SPLINE
  5
1DE
100
AcDbEntity
  8
silktop
  6
ByLayer
 62
    7
370
   -1
100
AcDbSpline
210
0
220
0
230
0
 70
    8
 71
    3
 72
    8
 73
    4
 74
    0
 42
1e-07
 43
1e-07
 40
0
 40
0
 40
0
 40
0
 40
1
 40
1
 40
1
 40
1
 10
9.784621673592213
 20
7.753849302020956
 30
0
 10
11.43195982452182
 20
7.753849302020956
 30
0
 10
12.78107326034389
 20
9.102962737843024
 30
0
 10
12.78107326034389
 20
10.75030088877263
 30
0
  0
SPLINE
  5
1DF
100
AcDbEntity
  8
silktop
  6
ByLayer
 62
    7
370
   -1
100
AcDbSpline
210
0
220
0
230
0
 70
    8
 71
    3
 72
    8
 73
    4
 74
    0
 42
1e-07
 43
1e-07
 40
0
 40
0
 40
0
 40
0
 40
1
 40
1
 40
1
 40
1
 10
11.16213727154191
 20
10.75030088877263
 30
0
 10
11.16213727154191
 20
11.50296422345713
 30
0
 10
10.53728500827671
 20
12.11361540565851
 30
0
 10
9.784621673592213
 20
12.11361540565851
 30
0
  0
SPLINE
  5
1E0
100
AcDbEntity
  8
silktop
  6
ByLayer
 62
    7
370
   -1
100
AcDbSpline
210
0
220
0
230
0
 70
    8
 71
    3
 72
    8
 73
    4
 74
    0
 42
1e-07
 43
1e-07
 40
0
 40
0
 40
0
 40
0
 40
1
 40
1
 40
1
 40
1
 10
9.784621673592213
 20
12.11361540565851
 30
0
 10
9.031958338907714
 20
12.11361540565851
 30
0
 10
8.42130715670633
 20
11.50296422345713
 30
0
 10
8.42130715670633
 20
10.75030088877263
 30
0
  0
SPLINE
  5
1E1
100
AcDbEntity
  8
silktop
  6
ByLayer
 62
    7
370
   -1
100
AcDbSpline
210
0
220
0
230
0
 70
    8
 71
    3
 72
    8
 73
    4
 74
    0
 42
1e-07
 43
1e-07
 40
0
 40
0
 40
0
 40
0
 40
1
 40
1
 40
1
 40
1
 10
8.42130715670633
 20
10.75030088877263
 30
0
 10
8.42130715670633
 20
9.997637889549384
 30
0
 10
9.031958338907714
 20
9.372785290822939
 30
0
 10
9.784621673592213
 20
9.372785290822939
 30
0
  0
SPLINE
  5
1E2
100
AcDbEntity
  8
silktop
  6
ByLayer
 62
    7
370
   -1
100
AcDbSpline
210
0
220
0
230
0
 70
    8
 71
    3
 72
    8
 73
    4
 74
    0
 42
1e-07
 43
1e-07
 40
0
 40
0
 40
0
 40
0
 40
1
 40
1
 40
1
 40
1
 10
9.784621673592213
 20
9.372785290822939
 30
0
 10
10.53728500827671
 20
9.372785290822939
 30
0
 10
11.16213727154191
 20
9.997637889549384
 30
0
 10
11.16213727154191
 20
10.75030088877263
 30
0
  0
LWPOLYLINE
  5
1E3
100
AcDbEntity
  8
silktop
  6
ByLayer
 62
    7
370
   -1
100
AcDbPolyline
 90
    1
 70
    1
 43
0
 10
12.78107326034389
 20
10.75030088877263
  0
LWPOLYLINE
  5
1E4
100
AcDbEntity
  8
silktop
  6
ByLayer
 62
    7
370
   -1
100
AcDbPolyline
 90
    1
 70
    1
 43
0
 10
11.16213727154191
 20
10.75030088877263
  0
LWPOLYLINE
  5
1E5
100
AcDbEntity
  8
silktop
  6
ByLayer
 62
    7
370
   -1
100
AcDbPolyline
 90
   18
 70
    1
 43
0
 10
10.55148608934052
 20
14.21539184070383
 10
8.009472451243305
 20
14.21539184070383
 10
7.810655974504946
 20
14.2437943382927
 10
7.654442740958022
 20
14.35740399318694
 10
7.540833086063783
 20
14.51361689127262
 10
7.498229507411098
 20
14.72663478453604
 10
7.540833086063783
 20
14.91125051567183
 10
7.654442740958022
 20
15.06746341375751
 10
7.810655974504946
 20
15.18107306865175
 10
8.009472451243305
 20
15.22367664730443
 10
10.55148608934052
 20
15.22367664730443
 10
10.75030290154013
 20
15.18107306865175
 10
10.9065157996258
 20
15.06746341375751
 10
11.02012545452004
 20
14.91125051567183
 10
11.06272903317273
 20
14.69823262240841
 10
11.02012545452004
 20
14.51361689127262
 10
10.9065157996258
 20
14.35740399318694
 10
10.75030290154013
 20
14.2437943382927
  0
LWPOLYLINE
  5
1E6
100
AcDbEntity
  8
silktop
  6
ByLayer
 62
    7
370
   -1
100
AcDbPolyline
 90
   14
 70
    1
 43
0
 10
10.55148608934052
 20
14.47101331261993
 10
8.009472451243305
 20
14.47101331261993
 10
7.881661715285253
 20
14.49941581020881
 10
7.796454557979884
 20
14.58462296751417
 10
7.753850979327201
 20
14.72663478453604
 10
7.796454557979884
 20
14.84024443943028
 10
7.881661715285253
 20
14.92545159673564
 10
8.009472451243305
 20
14.96805517538833
 10
10.55148608934052
 20
14.96805517538833
 10
10.67929682529857
 20
14.92545159673564
 10
10.76450398260394
 20
14.84024443943028
 10
10.80710756125662
 20
14.69823262240841
 10
10.76450398260394
 20
14.58462296751417
 10
10.67929682529857
 20
14.49941581020881
  0
LWPOLYLINE
  5
1E7
100
AcDbEntity
  8
silktop
  6
ByLayer
 62
    7
370
   -1
100
AcDbPolyline
 90
   18
 70
    1
 43
0
 10
10.55148608934052
 20
24.0142149308211
 10
8.009472451243305
 20
24.0142149308211
 10
7.810655974504946
 20
24.04261709294873
 10
7.654442740958022
 20
24.15622674784297
 10
7.540833086063783
 20
24.31243998138989
 10
7.498229507411098
 20
24.52545787465331
 10
7.540833086063783
 20
24.71007327032786
 10
7.654442740958022
 20
24.86628650387478
 10
7.810655974504946
 20
24.97989582330777
 10
8.009472451243305
 20
25.02249940196045
 10
10.55148608934052
 20
25.02249940196045
 10
10.75030290154013
 20
24.97989582330777
 10
10.9065157996258
 20
24.86628650387478
 10
11.02012545452004
 20
24.71007327032786
 10
11.06272903317273
 20
24.49705537706443
 10
11.02012545452004
 20
24.31243998138989
 10
10.9065157996258
 20
24.15622674784297
 10
10.75030290154013
 20
24.04261709294873
  0
LWPOLYLINE
  5
1E8
100
AcDbEntity
  8
silktop
  6
ByLayer
 62
    7
370
   -1
100
AcDbPolyline
 90
   14
 70
    1
 43
0
 10
10.55148608934052
 20
24.26983640273721
 10
8.009472451243305
 20
24.26983640273721
 10
7.881661715285253
 20
24.29823856486483
 10
7.796454557979884
 20
24.38344572217019
 10
7.753850979327201
 20
24.52545787465331
 10
7.796454557979884
 20
24.6390671940863
 10
7.881661715285253
 20
24.72427435139167
 10
8.009472451243305
 20
24.76687793004435
 10
10.55148608934052
 20
24.76687793004435
 10
10.67929682529857
 20
24.72427435139167
 10
10.76450398260394
 20
24.6390671940863
 10
10.80710756125662
 20
24.49705537706443
 10
10.76450398260394
 20
24.38344572217019
 10
10.67929682529857
 20
24.29823856486483
  0
SPLINE
  5
1E9
100
AcDbEntity
  8
silktop
  6
ByLayer
 62
    7
370
   -1
100
AcDbSpline
210
0
220
0
230
0
 70
    8
 71
    3
 72
    8
 73
    4
 74
    0
 42
1e-07
 43
1e-07
 40
0
 40
0
 40
0
 40
0
 40
1
 40
1
 40
1
 40
1
 10
12.78107326034389
 20
59.75861641403906
 30
0
 10
12.78107326034389
 20
61.40595456496866
 30
0
 10
11.43195982452182
 20
62.74086691972693
 30
0
 10
9.784621673592213
 20
62.74086691972693
 30
0
  0
SPLINE
  5
1EA
100
AcDbEntity
  8
silktop
  6
ByLayer
 62
    7
370
   -1
100
AcDbSpline
210
0
220
0
230
0
 70
    8
 71
    3
 72
    8
 73
    4
 74
    0
 42
1e-07
 43
1e-07
 40
0
 40
0
 40
0
 40
0
 40
1
 40
1
 40
1
 40
1
 10
9.784621673592213
 20
62.74086691972693
 30
0
 10
8.137283187201355
 20
62.74086691972693
 30
0
 10
6.802371167904346
 20
61.40595456496866
 30
0
 10
6.802371167904346
 20
59.75861641403906
 30
0
  0
SPLINE
  5
1EB
100
AcDbEntity
  8
silktop
  6
ByLayer
 62
    7
370
   -1
100
AcDbSpline
210
0
220
0
230
0
 70
    8
 71
    3
 72
    8
 73
    4
 74
    0
 42
1e-07
 43
1e-07
 40
0
 40
0
 40
0
 40
0
 40
1
 40
1
 40
1
 40
1
 10
6.802371167904346
 20
59.75861641403906
 30
0
 10
6.802371167904346
 20
58.1112779276482
 30
0
 10
8.137283187201355
 20
56.76216482728738
 30
0
 10
9.784621673592213
 20
56.76216482728738
 30
0
  0
SPLINE
  5
1EC
100
AcDbEntity
  8
silktop
  6
ByLayer
 62
    7
370
   -1
100
AcDbSpline
210
0
220
0
230
0
 70
    8
 71
    3
 72
    8
 73
    4
 74
    0
 42
1e-07
 43
1e-07
 40
0
 40
0
 40
0
 40
0
 40
1
 40
1
 40
1
 40
1
 10
9.784621673592213
 20
56.76216482728738
 30
0
 10
11.43195982452182
 20
56.76216482728738
 30
0
 10
12.78107326034389
 20
58.1112779276482
 30
0
 10
12.78107326034389
 20
59.75861641403906
 30
0
  0
SPLINE
  5
1ED
100
AcDbEntity
  8
silktop
  6
ByLayer
 62
    7
370
   -1
100
AcDbSpline
210
0
220
0
230
0
 70
    8
 71
    3
 72
    8
 73
    4
 74
    0
 42
1e-07
 43
1e-07
 40
0
 40
0
 40
0
 40
0
 40
1
 40
1
 40
1
 40
1
 10
11.16213727154191
 20
59.75861641403906
 30
0
 10
11.16213727154191
 20
60.51127974872356
 30
0
 10
10.53728500827671
 20
61.12193093092494
 30
0
 10
9.784621673592213
 20
61.12193093092494
 30
0
  0
SPLINE
  5
1EE
100
AcDbEntity
  8
silktop
  6
ByLayer
 62
    7
370
   -1
100
AcDbSpline
210
0
220
0
230
0
 70
    8
 71
    3
 72
    8
 73
    4
 74
    0
 42
1e-07
 43
1e-07
 40
0
 40
0
 40
0
 40
0
 40
1
 40
1
 40
1
 40
1
 10
9.784621673592213
 20
61.12193093092494
 30
0
 10
9.031958338907714
 20
61.12193093092494
 30
0
 10
8.42130715670633
 20
60.51127974872356
 30
0
 10
8.42130715670633
 20
59.75861641403906
 30
0
  0
SPLINE
  5
1EF
100
AcDbEntity
  8
silktop
  6
ByLayer
 62
    7
370
   -1
100
AcDbSpline
210
0
220
0
230
0
 70
    8
 71
    3
 72
    8
 73
    4
 74
    0
 42
1e-07
 43
1e-07
 40
0
 40
0
 40
0
 40
0
 40
1
 40
1
 40
1
 40
1
 10
8.42130715670633
 20
59.75861641403906
 30
0
 10
8.42130715670633
 20
59.00595307935456
 30
0
 10
9.031958338907714
 20
58.38110081608936
 30
0
 10
9.784621673592213
 20
58.38110081608936
 30
0
  0
SPLINE
  5
1F0
100
AcDbEntity
  8
silktop
  6
ByLayer
 62
    7
370
   -1
100
AcDbSpline
210
0
220
0
230
0
 70
    8
 71
    3
 72
    8
 73
    4
 74
    0
 42
1e-07
 43
1e-07
 40
0
 40
0
 40
0
 40
0
 40
1
 40
1
 40
1
 40
1
 10
9.784621673592213
 20
58.38110081608936
 30
0
 10
10.53728500827671
 20
58.38110081608936
 30
0
 10
11.16213727154191
 20
59.00595307935456
 30
0
 10
11.16213727154191
 20
59.75861641403906
 30
0
  0
LWPOLYLINE
  5
1F1
100
AcDbEntity
  8
silktop
  6
ByLayer
 62
    7
370
   -1
100
AcDbPolyline
 90
    1
 70
    1
 43
0
 10
12.78107326034389
 20
59.75861641403906
  0
LWPOLYLINE
  5
1F2
100
AcDbEntity
  8
silktop
  6
ByLayer
 62
    7
370
   -1
100
AcDbPolyline
 90
    1
 70
    1
 43
0
 10
11.16213727154191
 20
59.75861641403906
  0
LWPOLYLINE
  5
1F3
100
AcDbEntity
  8
silktop
  6
ByLayer
 62
    7
370
   -1
100
AcDbPolyline
 90
   22
 70
    1
 43
0
 10
17.5810762315721
 20
17.7088852902239
 10
16.0047438214228
 20
17.7088852902239
 10
15.79172592815938
 20
17.73728778781278
 10
15.60711053248483
 20
17.82249494511814
 10
15.46509871546297
 20
17.96450676214
 10
15.3798915581576
 20
18.14912215781455
 10
15.33728797950492
 20
18.37634146760303
 10
15.3798915581576
 20
18.57515794434139
 10
15.46509871546297
 20
18.75977367547719
 10
15.60711053248483
 20
18.90178549249905
 10
15.79172592815938
 20
18.98699264980442
 10
16.0047438214228
 20
19.0295962284571
 10
17.5810762315721
 20
19.0295962284571
 10
17.79409412483551
 20
18.98699264980442
 10
17.97870985597131
 20
18.90178549249905
 10
18.12072167299318
 20
18.75977367547719
 10
18.20592883029854
 20
18.57515794434139
 10
18.24853240895123
 20
18.34793897001416
 10
18.20592883029854
 20
18.14912215781455
 10
18.12072167299318
 20
17.96450676214
 10
17.97870985597131
 20
17.82249494511814
 10
17.79409412483551
 20
17.73728778781278
  0
LWPOLYLINE
  5
1F4
100
AcDbEntity
  8
silktop
  6
ByLayer
 62
    7
370
   -1
100
AcDbPolyline
 90
   18
 70
    1
 43
0
 10
17.5810762315721
 20
17.96450676214
 10
16.0047438214228
 20
17.96450676214
 10
15.84853092333712
 20
17.99290925972888
 10
15.72072018737907
 20
18.07811641703424
 10
15.6355130300737
 20
18.2059271529923
 10
15.59290945142102
 20
18.37634146760303
 10
15.6355130300737
 20
18.51835328462489
 10
15.72072018737907
 20
18.64616402058295
 10
15.84853092333712
 20
18.73137117788831
 10
16.0047438214228
 20
18.773974756541
 10
17.5810762315721
 20
18.773974756541
 10
17.73728946511902
 20
18.73137117788831
 10
17.86510020107707
 20
18.64616402058295
 10
17.95030735838244
 20
18.51835328462489
 10
17.99291093703512
 20
18.34793897001416
 10
17.95030735838244
 20
18.2059271529923
 10
17.86510020107707
 20
18.07811641703424
 10
17.73728946511902
 20
17.99290925972888
  0
LWPOLYLINE
  5
1F5
100
AcDbEntity
  8
silktop
  6
ByLayer
 62
    7
370
   -1
100
AcDbPolyline
 90
   22
 70
    1
 43
0
 10
17.5810762315721
 20
22.90652188585132
 10
16.0047438214228
 20
22.90652188585132
 10
15.79172592815938
 20
22.93492404797895
 10
15.60711053248483
 20
23.02013120528432
 10
15.46509871546297
 20
23.16214335776743
 10
15.3798915581576
 20
23.34675875344198
 10
15.33728797950492
 20
23.5739777277692
 10
15.3798915581576
 20
23.77279453996881
 10
15.46509871546297
 20
23.95740993564336
 10
15.60711053248483
 20
24.09942208812647
 10
15.79172592815938
 20
24.18462924543184
 10
16.0047438214228
 20
24.22723282408452
 10
17.5810762315721
 20
24.22723282408452
 10
17.79409412483551
 20
24.18462924543184
 10
17.97870985597131
 20
24.09942208812647
 10
18.12072167299318
 20
23.95740993564336
 10
18.20592883029854
 20
23.77279453996881
 10
18.24853240895123
 20
23.54557556564158
 10
18.20592883029854
 20
23.34675875344198
 10
18.12072167299318
 20
23.16214335776743
 10
17.97870985597131
 20
23.02013120528432
 10
17.79409412483551
 20
22.93492404797895
  0
LWPOLYLINE
  5
1F6
100
AcDbEntity
  8
silktop
  6
ByLayer
 62
    7
370
   -1
100
AcDbPolyline
 90
   18
 70
    1
 43
0
 10
17.5810762315721
 20
23.16214335776743
 10
16.0047438214228
 20
23.16214335776743
 10
15.84853092333712
 20
23.19054551989505
 10
15.72072018737907
 20
23.27575267720042
 10
15.6355130300737
 20
23.40356341315847
 10
15.59290945142102
 20
23.5739777277692
 10
15.6355130300737
 20
23.71598988025232
 10
15.72072018737907
 20
23.84380061621037
 10
15.84853092333712
 20
23.92900777351574
 10
16.0047438214228
 20
23.97161135216842
 10
17.5810762315721
 20
23.97161135216842
 10
17.73728946511902
 20
23.92900777351574
 10
17.86510020107707
 20
23.84380061621037
 10
17.95030735838244
 20
23.71598988025232
 10
17.99291093703512
 20
23.54557556564158
 10
17.95030735838244
 20
23.40356341315847
 10
17.86510020107707
 20
23.27575267720042
 10
17.73728946511902
 20
23.19054551989505
  0
LWPOLYLINE
  5
1F7
100
AcDbEntity
  8
silktop
  6
ByLayer
 62
    7
370
   -1
100
AcDbPolyline
 90
    4
 70
    1
 43
0
 10
20.20829702697468
 20
55.18583241713809
 10
21.10297217868104
 20
55.18583241713809
 10
21.10297217868104
 20
58.23908866360625
 10
20.20829702697468
 20
58.23908866360625
  0
LWPOLYLINE
  5
1F8
100
AcDbEntity
  8
silktop
  6
ByLayer
 62
    7
370
   -1
100
AcDbPolyline
 90
    4
 70
    1
 43
0
 10
18.20592883029854
 20
59.6876103377975
 10
19.1006039820049
 20
59.6876103377975
 10
19.1006039820049
 20
62.74086691972693
 10
18.20592883029854
 20
62.74086691972693
  0
LWPOLYLINE
  5
1F9
100
AcDbEntity
  8
silktop
  6
ByLayer
 62
    7
370
   -1
100
AcDbPolyline
 90
    4
 70
    1
 43
0
 10
26.21540128154184
 20
55.18583241713809
 10
27.11007643324821
 20
55.18583241713809
 10
27.11007643324821
 20
58.23908866360625
 10
26.21540128154184
 20
58.23908866360625
  0
LWPOLYLINE
  5
1FA
100
AcDbEntity
  8
silktop
  6
ByLayer
 62
    7
370
   -1
100
AcDbPolyline
 90
    4
 70
    1
 43
0
 10
28.21776947821798
 20
59.6876103377975
 10
29.11244462992435
 20
59.6876103377975
 10
29.11244462992435
 20
62.74086691972693
 10
28.21776947821798
 20
62.74086691972693
  0
LWPOLYLINE
  5
1FB
100
AcDbEntity
  8
silktop
  6
ByLayer
 62
    7
370
   -1
100
AcDbPolyline
 90
    4
 70
    1
 43
0
 10
38.21540904507362
 20
55.18583241713809
 10
39.11008419677998
 20
55.18583241713809
 10
39.11008419677998
 20
58.23908866360625
 10
38.21540904507362
 20
58.23908866360625
  0
LINE
  5
1FC
100
AcDbEntity
  8
0
  6
ByLayer
 62
  256
370
   -1
100
AcDbLine
 10
9.273378729760006
 20
7.256807774713811
 11
88.28881403665714
 21
7.256807774713811
  0
LINE
  5
1FD
100
AcDbEntity
  8
0
  6
ByLayer
 62
  256
370
   -1
100
AcDbLine
 10
91.2852656234088
 20
60.25565827680746
 11
91.2852656234088
 21
10.25325936146549
  0
LINE
  5
1FE
100
AcDbEntity
  8
0
  6
ByLayer
 62
  256
370
   -1
100
AcDbLine
 10
9.273378729760006
 20
63.23790844703407
 11
88.28881403665714
 21
63.23790844703407
  0
LINE
  5
1FF
100
AcDbEntity
  8
0
  6
ByLayer
 62
  256
370
   -1
100
AcDbLine
 10
6.291128224072141
 20
60.25565827680746
 11
6.291128224072141
 21
10.25325936146549
  0
ENDSEC
  0
SECTION
  2
OBJECTS
  0
DICTIONARY
  5
C
330
0
100
AcDbDictionary
281
    1
  3
ACAD_GROUP
350
D
  0
DICTIONARY
  5
D
330
C
100
AcDbDictionary
281
    1
  0
ENDSEC
  0
EOF
