999
dxfrw 0.6.3
  0
SECTION
  2
HEADER
  9
$ACADVER
  1
AC1021
  9
$DWGCODEPAGE
  3
ANSI_1252
  9
$INSBASE
 10
0
 20
0
 30
0
  9
$EXTMIN
 10
-3.493493449520072
 20
-3.493493114058819
 30
0
  9
$EXTMAX
 10
71.28994354586536
 20
63.23790844703407
 30
0
  9
$LIMMIN
 10
0
 20
0
  9
$LIMMAX
 10
420
 20
297
  9
$ORTHOMODE
 70
    0
  9
$REGENMODE
 70
    1
  9
$FILLMODE
 70
    1
  9
$QTEXTMODE
 70
    0
  9
$MIRRTEXT
 70
    0
  9
$LTSCALE
 40
1
  9
$ATTMODE
 70
    0
  9
$TEXTSIZE
 40
2.5
  9
$TRACEWID
 40
15.68
  9
$TEXTSTYLE
  7
STANDARD
  9
$CLAYER
  8
0
  9
$CELTYPE
  6
BYLAYER
  9
$CECOLOR
 62
  256
  9
$CELTSCALE
 40
1
  9
$DISPSILH
 70
    0
  9
$DIMSCALE
 40
1
  9
$DIMASZ
 40
2.5
  9
$DIMEXO
 40
0.625
  9
$DIMDLI
 40
3.75
  9
$DIMRND
 40
0
  9
$DIMDLE
 40
0
  9
$DIMEXE
 40
1.25
  9
$DIMTP
 40
0
  9
$DIMTM
 40
0
  9
$DIMTXT
 40
2.5
  9
$DIMCEN
 40
2.5
  9
$DIMTSZ
 40
0
  9
$DIMTOL
 70
    0
  9
$DIMLIM
 70
    0
  9
$DIMTIH
 70
    0
  9
$DIMTOH
 70
    0
  9
$DIMSE1
 70
    0
  9
$DIMSE2
 70
    0
  9
$DIMTAD
 70
    1
  9
$DIMZIN
 70
    8
  9
$DIMBLK
  1

  9
$DIMASO
 70
    1
  9
$DIMSHO
 70
    1
  9
$DIMPOST
  1

  9
$DIMAPOST
  1

  9
$DIMALT
 70
    0
  9
$DIMALTD
 70
    3
  9
$DIMALTF
 40
0.03937
  9
$DIMLFAC
 40
1
  9
$DIMTOFL
 70
    1
  9
$DIMTVP
 40
0
  9
$DIMTIX
 70
    0
  9
$DIMSOXD
 70
    0
  9
$DIMSAH
 70
    0
  9
$DIMBLK1
  1

  9
$DIMBLK2
  1

  9
$DIMSTYLE
  2
Standard
  9
$DIMCLRD
 70
    0
  9
$DIMCLRE
 70
    0
  9
$DIMCLRT
 70
    0
  9
$DIMTFAC
 40
1
  9
$DIMGAP
 40
0.625
  9
$DIMJUST
 70
    0
  9
$DIMSD1
 70
    0
  9
$DIMSD2
 70
    0
  9
$DIMTOLJ
 70
    0
  9
$DIMTZIN
 70
    8
  9
$DIMALTZ
 70
    0
  9
$DIMALTTZ
 70
    0
  9
$DIMUPT
 70
    0
  9
$DIMDEC
 70
    2
  9
$DIMTDEC
 70
    2
  9
$DIMALTU
 70
    2
  9
$DIMALTTD
 70
    3
  9
$DIMTXSTY
  7
STANDARD
  9
$DIMAUNIT
 70
    0
  9
$DIMADEC
 70
    0
  9
$DIMALTRND
 40
0
  9
$DIMAZIN
 70
    0
  9
$DIMDSEP
 70
   44
  9
$DIMATFIT
 70
    3
  9
$DIMFRAC
 70
    0
  9
$DIMLDRBLK
  1
STANDARD
  9
$DIMLUNIT
 70
    2
  9
$DIMLWD
 70
   -2
  9
$DIMLWE
 70
   -2
  9
$DIMTMOVE
 70
    0
  9
$DIMFXL
 40
1
  9
$DIMFXLON
 70
    0
  9
$DIMJOGANG
 40
0.7854
  9
$DIMTFILL
 70
    0
  9
$DIMTFILLCLR
 70
    0
  9
$DIMARCSYM
 70
    0
  9
$DIMLTYPE
  6

  9
$DIMLTEX1
  6

  9
$DIMLTEX2
  6

  9
$LUNITS
 70
    2
  9
$LUPREC
 70
    4
  9
$SKETCHINC
 40
1
  9
$FILLETRAD
 40
0
  9
$AUNITS
 70
    0
  9
$AUPREC
 70
    2
  9
$MENU
  1
.
  9
$ELEVATION
 40
0
  9
$PELEVATION
 40
0
  9
$THICKNESS
 40
0
  9
$LIMCHECK
 70
    0
  9
$CHAMFERA
 40
0
  9
$CHAMFERB
 40
0
  9
$CHAMFERC
 40
0
  9
$CHAMFERD
 40
0
  9
$SKPOLY
 70
    0
  9
$USRTIMER
 70
    1
  9
$ANGBASE
 50
0
  9
$ANGDIR
 70
    0
  9
$PDMODE
 70
   34
  9
$PDSIZE
 40
0
  9
$PLINEWID
 40
0
  9
$SPLFRAME
 70
    0
  9
$SPLINETYPE
 70
    2
  9
$SPLINESEGS
 70
    8
  9
$HANDSEED
  5
20000
  9
$SURFTAB1
 70
    6
  9
$SURFTAB2
 70
    6
  9
$SURFTYPE
 70
    6
  9
$SURFU
 70
    6
  9
$SURFV
 70
    6
  9
$UCSBASE
  2

  9
$UCSNAME
  2

  9
$UCSORG
 10
0
 20
0
 30
0
  9
$UCSXDIR
 10
1
 20
0
 30
0
  9
$UCSYDIR
 10
0
 20
1
 30
0
  9
$UCSORTHOREF
  2

  9
$UCSORTHOVIEW
 70
    0
  9
$UCSORGTOP
 10
0
 20
0
 30
0
  9
$UCSORGBOTTOM
 10
0
 20
0
 30
0
  9
$UCSORGLEFT
 10
0
 20
0
 30
0
  9
$UCSORGRIGHT
 10
0
 20
0
 30
0
  9
$UCSORGFRONT
 10
0
 20
0
 30
0
  9
$UCSORGBACK
 10
0
 20
0
 30
0
  9
$PUCSBASE
  2

  9
$PUCSNAME
  2

  9
$PUCSORG
 10
0
 20
0
 30
0
  9
$PUCSXDIR
 10
1
 20
0
 30
0
  9
$PUCSYDIR
 10
0
 20
1
 30
0
  9
$PUCSORTHOREF
  2

  9
$PUCSORTHOVIEW
 70
    0
  9
$PUCSORGTOP
 10
0
 20
0
 30
0
  9
$PUCSORGBOTTOM
 10
0
 20
0
 30
0
  9
$PUCSORGLEFT
 10
0
 20
0
 30
0
  9
$PUCSORGRIGHT
 10
0
 20
0
 30
0
  9
$PUCSORGFRONT
 10
0
 20
0
 30
0
  9
$PUCSORGBACK
 10
0
 20
0
 30
0
  9
$USERI1
 70
    0
  9
$USERI2
 70
    0
  9
$USERI3
 70
    0
  9
$USERI4
 70
    0
  9
$USERI5
 70
    0
  9
$USERR1
 40
0
  9
$USERR2
 40
0
  9
$USERR3
 40
0
  9
$USERR4
 40
0
  9
$USERR5
 40
0
  9
$WORLDVIEW
 70
    1
  9
$SHADEDGE
 70
    3
  9
$SHADEDIF
 70
   70
  9
$TILEMODE
 70
    1
  9
$MAXACTVP
 70
   64
  9
$PINSBASE
 10
0
 20
0
 30
0
  9
$PLIMCHECK
 70
    0
  9
$PEXTMIN
 10
0
 20
0
 30
0
  9
$PEXTMAX
 10
0
 20
0
 30
0
  9
$GRIDMODE
 70
    1
  9
$SNAPSTYLE
 70
    0
  9
$PLIMMIN
 10
0
 20
0
  9
$PLIMMAX
 10
210
 20
297
  9
$UNITMODE
 70
    0
  9
$VISRETAIN
 70
    1
  9
$PLINEGEN
 70
    0
  9
$PSLTSCALE
 70
    1
  9
$TREEDEPTH
 70
 3020
  9
$CMLSTYLE
  2
Standard
  9
$CMLJUST
 70
    0
  9
$CMLSCALE
 40
20
  9
$PROXYGRAPHICS
 70
    1
  9
$MEASUREMENT
 70
    1
  9
$CELWEIGHT
370
   -1
  9
$ENDCAPS
280
    0
  9
$JOINSTYLE
280
    0
  9
$LWDISPLAY
290
    0
  9
$INSUNITS
 70
    4
  9
$HYPERLINKBASE
  1

  9
$STYLESHEET
  1

  9
$XEDIT
290
    1
  9
$CEPSNTYPE
380
    0
  9
$PSTYLEMODE
290
    1
  9
$EXTNAMES
290
    1
  9
$PSVPSCALE
 40
1
  9
$OLESTARTUP
290
    0
  9
$SORTENTS
280
  127
  9
$INDEXCTL
280
    0
  9
$HIDETEXT
280
    1
  9
$XCLIPFRAME
290
    0
  9
$HALOGAP
280
    0
  9
$OBSCOLOR
 70
  257
  9
$OBSLTYPE
280
    0
  9
$INTERSECTIONDISPLAY
280
    0
  9
$INTERSECTIONCOLOR
 70
  257
  9
$DIMASSOC
280
    1
  9
$PROJECTNAME
  1

  9
$CAMERADISPLAY
290
    0
  9
$LENSLENGTH
 40
50
  9
$CAMERAHEIGHT
 40
0
  9
$STEPSPERSEC
 40
2
  9
$STEPSIZE
 40
50
  9
$3DDWFPREC
 40
2
  9
$PSOLWIDTH
 40
5
  9
$PSOLHEIGHT
 40
80
  9
$LOFTANG1
 40
1.570796326794897
  9
$LOFTANG2
 40
1.570796326794897
  9
$LOFTMAG1
 40
0
  9
$LOFTMAG2
 40
0
  9
$LOFTPARAM
 70
    7
  9
$LOFTNORMALS
280
    1
  9
$LATITUDE
 40
1
  9
$LONGITUDE
 40
1
  9
$NORTHDIRECTION
 40
0
  9
$TIMEZONE
 70
-8000
  9
$LIGHTGLYPHDISPLAY
280
    1
  9
$TILEMODELIGHTSYNCH
280
    1
  9
$SOLIDHIST
280
    1
  9
$SHOWHIST
280
    1
  9
$DWFFRAME
280
    2
  9
$DGNFRAME
280
    0
  9
$REALWORLDSCALE
290
    1
  9
$INTERFERECOLOR
 62
    1
  9
$CSHADOW
280
    0
  9
$SHADOWPLANELOCATION
 40
0
  0
ENDSEC
  0
SECTION
  2
CLASSES
  0
ENDSEC
  0
SECTION
  2
TABLES
  0
TABLE
  2
VPORT
  5
8
330
0
100
AcDbSymbolTable
 70
    1
  0
VPORT
  5
31
330
2
100
AcDbSymbolTableRecord
100
AcDbViewportTableRecord
  2
*ACTIVE
 70
    0
 10
0
 20
0
 11
1
 21
1
 12
19.02603145476331
 22
9.805107119372304
 13
0
 23
0
 14
10
 24
10
 15
10
 25
10
 16
0
 26
0
 36
1
 17
0
 27
0
 37
0
 40
43.34407165853364
 41
1.794397463002114
 42
50
 43
0
 44
0
 50
0
 51
0
 71
    0
 72
  100
 73
    1
 74
    3
 75
    0
 76
    1
 77
    0
 78
    0
281
    0
 65
    1
110
0
120
0
130
0
111
1
121
0
131
0
112
0
122
1
132
0
 79
    0
146
0
348
10020
 60
    7
 61
    5
292
1
282
    1
141
0
142
0
 63
  250
421
3358443
  0
ENDTAB
  0
TABLE
  2
LTYPE
  5
5
330
0
100
AcDbSymbolTable
 70
    4
  0
LTYPE
  5
14
330
5
100
AcDbSymbolTableRecord
100
AcDbLinetypeTableRecord
  2
ByBlock
 70
    0
  3

 72
   65
 73
    0
 40
0
  0
LTYPE
  5
15
330
5
100
AcDbSymbolTableRecord
100
AcDbLinetypeTableRecord
  2
ByLayer
 70
    0
  3

 72
   65
 73
    0
 40
0
  0
LTYPE
  5
16
330
5
100
AcDbSymbolTableRecord
100
AcDbLinetypeTableRecord
  2
Continuous
 70
    0
  3
Solid line
 72
   65
 73
    0
 40
0
  0
LTYPE
  5
32
330
5
100
AcDbSymbolTableRecord
100
AcDbLinetypeTableRecord
  2
DOT
 70
    0
  3
Dot . . . . . . . . . . . . . . . . . . . . . .
 72
   65
 73
    2
 40
6.35
 49
0
 74
    0
 49
-6.35
 74
    0
  0
LTYPE
  5
33
330
5
100
AcDbSymbolTableRecord
100
AcDbLinetypeTableRecord
  2
DOTTINY
 70
    0
  3
Dot (.15x) .....................................
 72
   65
 73
    2
 40
0.9525
 49
0
 74
    0
 49
-0.9525
 74
    0
  0
LTYPE
  5
34
330
5
100
AcDbSymbolTableRecord
100
AcDbLinetypeTableRecord
  2
DOT2
 70
    0
  3
Dot (.5x) .....................................
 72
   65
 73
    2
 40
3.175
 49
0
 74
    0
 49
-3.175
 74
    0
  0
LTYPE
  5
35
330
5
100
AcDbSymbolTableRecord
100
AcDbLinetypeTableRecord
  2
DOTX2
 70
    0
  3
Dot (2x) .  .  .  .  .  .  .  .  .  .  .  .  .
 72
   65
 73
    2
 40
12.7
 49
0
 74
    0
 49
-12.7
 74
    0
  0
LTYPE
  5
36
330
5
100
AcDbSymbolTableRecord
100
AcDbLinetypeTableRecord
  2
DASHED
 70
    0
  3
Dashed _ _ _ _ _ _ _ _ _ _ _ _ _ _ _ _ _
 72
   65
 73
    2
 40
19.05
 49
12.7
 74
    0
 49
-6.35
 74
    0
  0
LTYPE
  5
37
330
5
100
AcDbSymbolTableRecord
100
AcDbLinetypeTableRecord
  2
DASHEDTINY
 70
    0
  3
Dashed (.15x) _ _ _ _ _ _ _ _ _ _ _ _ _ _ _ _ _
 72
   65
 73
    2
 40
2.8575
 49
1.905
 74
    0
 49
-0.9525
 74
    0
  0
LTYPE
  5
38
330
5
100
AcDbSymbolTableRecord
100
AcDbLinetypeTableRecord
  2
DASHED2
 70
    0
  3
Dashed (.5x) _ _ _ _ _ _ _ _ _ _ _ _ _ _ _ _ _
 72
   65
 73
    2
 40
9.524999999999999
 49
6.35
 74
    0
 49
-3.175
 74
    0
  0
LTYPE
  5
39
330
5
100
AcDbSymbolTableRecord
100
AcDbLinetypeTableRecord
  2
DASHEDX2
 70
    0
  3
Dashed (2x) ____  ____  ____  ____  ____  ___
 72
   65
 73
    2
 40
38.09999999999999
 49
25.4
 74
    0
 49
-12.7
 74
    0
  0
LTYPE
  5
3A
330
5
100
AcDbSymbolTableRecord
100
AcDbLinetypeTableRecord
  2
DASHDOT
 70
    0
  3
Dash dot __ . __ . __ . __ . __ . __ . __ . __
 72
   65
 73
    4
 40
25.4
 49
12.7
 74
    0
 49
-6.35
 74
    0
 49
0
 74
    0
 49
-6.35
 74
    0
  0
LTYPE
  5
3B
330
5
100
AcDbSymbolTableRecord
100
AcDbLinetypeTableRecord
  2
DASHDOTTINY
 70
    0
  3
Dash dot (.15x) _._._._._._._._._._._._._._._.
 72
   65
 73
    4
 40
3.81
 49
1.905
 74
    0
 49
-0.9525
 74
    0
 49
0
 74
    0
 49
-0.9525
 74
    0
  0
LTYPE
  5
3C
330
5
100
AcDbSymbolTableRecord
100
AcDbLinetypeTableRecord
  2
DASHDOT2
 70
    0
  3
Dash dot (.5x) _._._._._._._._._._._._._._._.
 72
   65
 73
    4
 40
12.7
 49
6.35
 74
    0
 49
-3.175
 74
    0
 49
0
 74
    0
 49
-3.175
 74
    0
  0
LTYPE
  5
3D
330
5
100
AcDbSymbolTableRecord
100
AcDbLinetypeTableRecord
  2
DASHDOTX2
 70
    0
  3
Dash dot (2x) ____  .  ____  .  ____  .  ___
 72
   65
 73
    4
 40
50.8
 49
25.4
 74
    0
 49
-12.7
 74
    0
 49
0
 74
    0
 49
-12.7
 74
    0
  0
LTYPE
  5
3E
330
5
100
AcDbSymbolTableRecord
100
AcDbLinetypeTableRecord
  2
DIVIDE
 70
    0
  3
Divide ____ . . ____ . . ____ . . ____ . . ____
 72
   65
 73
    6
 40
31.75
 49
12.7
 74
    0
 49
-6.35
 74
    0
 49
0
 74
    0
 49
-6.35
 74
    0
 49
0
 74
    0
 49
-6.35
 74
    0
  0
LTYPE
  5
3F
330
5
100
AcDbSymbolTableRecord
100
AcDbLinetypeTableRecord
  2
DIVIDETINY
 70
    0
  3
Divide (.15x) __..__..__..__..__..__..__..__.._
 72
   65
 73
    6
 40
4.7625
 49
1.905
 74
    0
 49
-0.9525
 74
    0
 49
0
 74
    0
 49
-0.9525
 74
    0
 49
0
 74
    0
 49
-0.9525
 74
    0
  0
LTYPE
  5
40
330
5
100
AcDbSymbolTableRecord
100
AcDbLinetypeTableRecord
  2
DIVIDE2
 70
    0
  3
Divide (.5x) __..__..__..__..__..__..__..__.._
 72
   65
 73
    6
 40
15.875
 49
6.35
 74
    0
 49
-3.175
 74
    0
 49
0
 74
    0
 49
-3.175
 74
    0
 49
0
 74
    0
 49
-3.175
 74
    0
  0
LTYPE
  5
41
330
5
100
AcDbSymbolTableRecord
100
AcDbLinetypeTableRecord
  2
DIVIDEX2
 70
    0
  3
Divide (2x) ________  .  .  ________  .  .  _
 72
   65
 73
    6
 40
63.5
 49
25.4
 74
    0
 49
-12.7
 74
    0
 49
0
 74
    0
 49
-12.7
 74
    0
 49
0
 74
    0
 49
-12.7
 74
    0
  0
LTYPE
  5
42
330
5
100
AcDbSymbolTableRecord
100
AcDbLinetypeTableRecord
  2
BORDER
 70
    0
  3
Border __ __ . __ __ . __ __ . __ __ . __ __ .
 72
   65
 73
    6
 40
44.45
 49
12.7
 74
    0
 49
-6.35
 74
    0
 49
12.7
 74
    0
 49
-6.35
 74
    0
 49
0
 74
    0
 49
-6.35
 74
    0
  0
LTYPE
  5
43
330
5
100
AcDbSymbolTableRecord
100
AcDbLinetypeTableRecord
  2
BORDERTINY
 70
    0
  3
Border (.15x) __.__.__.__.__.__.__.__.__.__.__.
 72
   65
 73
    6
 40
6.6675
 49
1.905
 74
    0
 49
-0.9525
 74
    0
 49
1.905
 74
    0
 49
-0.9525
 74
    0
 49
0
 74
    0
 49
-0.9525
 74
    0
  0
LTYPE
  5
44
330
5
100
AcDbSymbolTableRecord
100
AcDbLinetypeTableRecord
  2
BORDER2
 70
    0
  3
Border (.5x) __.__.__.__.__.__.__.__.__.__.__.
 72
   65
 73
    6
 40
22.225
 49
6.35
 74
    0
 49
-3.175
 74
    0
 49
6.35
 74
    0
 49
-3.175
 74
    0
 49
0
 74
    0
 49
-3.175
 74
    0
  0
LTYPE
  5
45
330
5
100
AcDbSymbolTableRecord
100
AcDbLinetypeTableRecord
  2
BORDERX2
 70
    0
  3
Border (2x) ____  ____  .  ____  ____  .  ___
 72
   65
 73
    6
 40
88.89999999999999
 49
25.4
 74
    0
 49
-12.7
 74
    0
 49
25.4
 74
    0
 49
-12.7
 74
    0
 49
0
 74
    0
 49
-12.7
 74
    0
  0
LTYPE
  5
46
330
5
100
AcDbSymbolTableRecord
100
AcDbLinetypeTableRecord
  2
CENTER
 70
    0
  3
Center ____ _ ____ _ ____ _ ____ _ ____ _ ____
 72
   65
 73
    4
 40
50.8
 49
31.75
 74
    0
 49
-6.35
 74
    0
 49
6.35
 74
    0
 49
-6.35
 74
    0
  0
LTYPE
  5
47
330
5
100
AcDbSymbolTableRecord
100
AcDbLinetypeTableRecord
  2
CENTERTINY
 70
    0
  3
Center (.15x) ___ _ ___ _ ___ _ ___ _ ___ _ ___
 72
   65
 73
    4
 40
7.619999999999999
 49
4.7625
 74
    0
 49
-0.9525
 74
    0
 49
0.9525
 74
    0
 49
-0.9525
 74
    0
  0
LTYPE
  5
48
330
5
100
AcDbSymbolTableRecord
100
AcDbLinetypeTableRecord
  2
CENTER2
 70
    0
  3
Center (.5x) ___ _ ___ _ ___ _ ___ _ ___ _ ___
 72
   65
 73
    4
 40
28.575
 49
19.05
 74
    0
 49
-3.175
 74
    0
 49
3.175
 74
    0
 49
-3.175
 74
    0
  0
LTYPE
  5
49
330
5
100
AcDbSymbolTableRecord
100
AcDbLinetypeTableRecord
  2
CENTERX2
 70
    0
  3
Center (2x) ________  __  ________  __  _____
 72
   65
 73
    4
 40
101.6
 49
63.5
 74
    0
 49
-12.7
 74
    0
 49
12.7
 74
    0
 49
-12.7
 74
    0
  0
ENDTAB
  0
TABLE
  2
LAYER
  5
2
330
0
100
AcDbSymbolTable
 70
    1
  0
LAYER
  5
10
330
2
100
AcDbSymbolTableRecord
100
AcDbLayerTableRecord
  2
0
 70
    0
 62
    7
  6
CONTINUOUS
370
   -3
390
F
  0
LAYER
  5
4A
330
2
100
AcDbSymbolTableRecord
100
AcDbLayerTableRecord
  2
silktop
 70
    0
 62
    7
  6
CONTINUOUS
370
   -3
390
F
  0
ENDTAB
  0
TABLE
  2
STYLE
  5
3
330
0
100
AcDbSymbolTable
 70
    3
  0
STYLE
  5
4B
330
2
100
AcDbSymbolTableRecord
100
AcDbTextStyleTableRecord
  2
Standard
 70
    0
 40
0
 41
1
 50
0
 71
    0
 42
1
  3
txt
  4

  0
ENDTAB
  0
TABLE
  2
VIEW
  5
6
330
0
100
AcDbSymbolTable
 70
    0
  0
ENDTAB
  0
TABLE
  2
UCS
  5
7
330
0
100
AcDbSymbolTable
 70
    0
  0
ENDTAB
  0
TABLE
  2
APPID
  5
9
330
0
100
AcDbSymbolTable
 70
    1
  0
APPID
  5
12
330
9
100
AcDbSymbolTableRecord
100
AcDbRegAppTableRecord
  2
ACAD
 70
    0
  0
APPID
  5
4C
330
9
100
AcDbSymbolTableRecord
100
AcDbRegAppTableRecord
  2
LibreCad
 70
    0
  0
ENDTAB
  0
TABLE
  2
DIMSTYLE
  5
A
330
0
100
AcDbSymbolTable
 70
    1
100
AcDbDimStyleTable
 71
    1
  0
DIMSTYLE
105
4D
330
A
100
AcDbSymbolTableRecord
100
AcDbDimStyleTableRecord
  2
Standard
 70
    0
 40
1
 41
2.5
 42
0.625
 43
0.38
 44
1.25
 45
0
 46
0
 47
0
 48
0
 49
1
140
2.5
141
0.09
142
0
143
25.4
144
1
145
0
146
1
147
0.625
148
0
 71
    0
 72
    0
 73
    0
 74
    1
 75
    0
 76
    0
 77
    0
 78
    8
 79
    0
170
    0
171
    2
172
    0
173
    0
174
    0
175
    0
176
    0
177
    0
178
    0
179
    0
271
    2
272
    4
273
    2
274
    2
275
    0
276
    0
277
    2
278
   44
279
    0
280
    0
281
    0
282
    0
283
    1
284
    0
285
    0
286
    0
288
    0
289
    3
340
STANDARD
341

371
   -2
372
   -2
  0
ENDTAB
  0
TABLE
  2
BLOCK_RECORD
  5
1
330
0
100
AcDbSymbolTable
 70
    2
  0
BLOCK_RECORD
  5
1F
330
1
100
AcDbSymbolTableRecord
100
AcDbBlockTableRecord
  2
*Model_Space
 70
    0
280
    1
281
    0
  0
BLOCK_RECORD
  5
1E
330
1
100
AcDbSymbolTableRecord
100
AcDbBlockTableRecord
  2
*Paper_Space
 70
    0
280
    1
281
    0
  0
ENDTAB
  0
ENDSEC
  0
SECTION
  2
BLOCKS
  0
BLOCK
  5
20
330
1F
100
AcDbEntity
  8
0
100
AcDbBlockBegin
  2
*Model_Space
 70
    0
 10
0
 20
0
 30
0
  3
*Model_Space
  1

  0
ENDBLK
  5
21
330
1F
100
AcDbEntity
  8
0
100
AcDbBlockEnd
  0
BLOCK
  5
1C
330
1B
100
AcDbEntity
  8
0
100
AcDbBlockBegin
  2
*Paper_Space
 70
    0
 10
0
 20
0
 30
0
  3
*Paper_Space
  1

  0
ENDBLK
  5
1D
330
1F
100
AcDbEntity
  8
0
100
AcDbBlockEnd
  0
ENDSEC
  0
SECTION
  2
ENTITIES
  0
LWPOLYLINE
  5
4E
100
AcDbEntity
  8
silktop
  6
ByLayer
 62
    7
370
   -1
100
AcDbPolyline
 90
    9
 70
    0
 43
0
 10
30.20593659383031
 20
49.0367180228553
 10
30.248540172483
 20
48.97991302767756
 10
30.29114375113568
 20
48.93730944902487
 10
30.33374732978836
 20
48.90890728689724
 10
30.39055198950486
 20
48.93730944902487
 10
30.43315556815754
 20
48.97991302767756
 10
30.46155806574641
 20
49.0367180228553
 10
30.47575914681023
 20
49.12192518016067
 10
30.47575914681023
 20
49.5479609666875
  0
LWPOLYLINE
  5
4F
100
AcDbEntity
  8
silktop
  6
ByLayer
 62
    7
370
   -1
100
AcDbPolyline
 90
    3
 70
    0
 43
0
 10
30.90179493333707
 20
48.90890728689724
 10
30.90179493333707
 20
49.5479609666875
 10
30.8165877760317
 20
49.42015023072945
  0
LWPOLYLINE
  5
50
100
AcDbEntity
  8
silktop
  6
ByLayer
 62
    7
370
   -1
100
AcDbPolyline
 90
    2
 70
    0
 43
0
 10
30.8165877760317
 20
48.90890728689724
 10
30.98700209064243
 20
48.90890728689724
  0
LWPOLYLINE
  5
51
100
AcDbEntity
  8
silktop
  6
ByLayer
 62
    7
370
   -1
100
AcDbPolyline
 90
   23
 70
    0
 43
0
 10
31.3278307198639
 20
49.17872983987717
 10
31.38463537958039
 20
49.24973591611872
 10
31.42723895823309
 20
49.2923394947714
 10
31.46984253688576
 20
49.32074165689902
 10
31.52664753206351
 20
49.2923394947714
 10
31.55504969419114
 20
49.24973591611872
 10
31.58345219178
 20
49.19293092094097
 10
31.59765327284381
 20
49.12192518016067
 10
31.58345219178
 20
49.05091910391911
 10
31.55504969419114
 20
48.99411444420262
 10
31.51244611553845
 20
48.93730944902487
 10
31.46984253688576
 20
48.90890728689724
 10
31.41303787716928
 20
48.93730944902487
 10
31.37043429851659
 20
48.99411444420262
 10
31.34203180092771
 20
49.0935226825718
 10
31.3278307198639
 20
49.20713233746604
 10
31.34203180092771
 20
49.33494307342409
 10
31.37043429851659
 20
49.4059488142044
 10
31.39883679610546
 20
49.49115597150976
 10
31.45564145582195
 20
49.53375955016245
 10
31.49824503447464
 20
49.5479609666875
 10
31.54084861312733
 20
49.53375955016245
 10
31.58345219178
 20
49.47695489044594
  0
LWPOLYLINE
  5
52
100
AcDbEntity
  8
silktop
  6
ByLayer
 62
    7
370
   -1
100
AcDbPolyline
 90
    2
 70
    0
 43
0
 10
21.51480654868282
 20
46.16807683660043
 10
22.28167096443111
 20
46.16807683660043
  0
LWPOLYLINE
  5
53
100
AcDbEntity
  8
silktop
  6
ByLayer
 62
    7
370
   -1
100
AcDbPolyline
 90
    2
 70
    0
 43
0
 10
23.51717474535896
 20
46.16807683660043
 10
24.28403916110727
 20
46.16807683660043
  0
LWPOLYLINE
  5
54
100
AcDbEntity
  8
silktop
  6
ByLayer
 62
    7
370
   -1
100
AcDbPolyline
 90
    2
 70
    0
 43
0
 10
22.28167096443111
 20
50.2296178896692
 10
21.51480654868282
 20
50.2296178896692
  0
LWPOLYLINE
  5
55
100
AcDbEntity
  8
silktop
  6
ByLayer
 62
    7
370
   -1
100
AcDbPolyline
 90
    2
 70
    0
 43
0
 10
24.28403916110727
 20
50.2296178896692
 10
23.51717474535896
 20
50.2296178896692
  0
LWPOLYLINE
  5
56
100
AcDbEntity
  8
silktop
  6
ByLayer
 62
    7
370
   -1
100
AcDbPolyline
 90
    2
 70
    0
 43
0
 10
25.51954294203509
 20
46.16807683660043
 10
26.27220627671959
 20
46.16807683660043
  0
LWPOLYLINE
  5
57
100
AcDbEntity
  8
silktop
  6
ByLayer
 62
    7
370
   -1
100
AcDbPolyline
 90
    2
 70
    0
 43
0
 10
27.52191113871122
 20
46.16807683660043
 10
28.27457413793448
 20
46.16807683660043
  0
LWPOLYLINE
  5
58
100
AcDbEntity
  8
silktop
  6
ByLayer
 62
    7
370
   -1
100
AcDbPolyline
 90
    2
 70
    0
 43
0
 10
26.27220627671959
 20
50.2296178896692
 10
25.51954294203509
 20
50.2296178896692
  0
LWPOLYLINE
  5
59
100
AcDbEntity
  8
silktop
  6
ByLayer
 62
    7
370
   -1
100
AcDbPolyline
 90
    2
 70
    0
 43
0
 10
28.27457413793448
 20
50.2296178896692
 10
27.52191113871122
 20
50.2296178896692
  0
LWPOLYLINE
  5
5A
100
AcDbEntity
  8
silktop
  6
ByLayer
 62
    7
370
   -1
100
AcDbPolyline
 90
   14
 70
    0
 43
0
 10
29.70889473106192
 20
45.27340202035531
 10
29.7514983097146
 20
45.34440776113563
 10
29.79410188836729
 20
45.37281025872449
 10
29.85090654808378
 20
45.38701133978831
 10
29.92191262432534
 20
45.35860917766069
 10
29.96451620297802
 20
45.316005599008
 10
29.97871728404184
 20
45.24499952276644
 10
29.97871728404184
 20
45.18819486304995
 10
29.95031512191421
 20
45.13138986787222
 10
29.8083029694311
 20
45.01778054843921
 10
29.7514983097146
 20
44.94677447219766
 10
29.70889473106192
 20
44.84736623382848
 10
29.6946936499981
 20
44.74795765999805
 10
29.97871728404184
 20
44.74795765999805
  0
LWPOLYLINE
  5
5B
100
AcDbEntity
  8
silktop
  6
ByLayer
 62
    7
370
   -1
100
AcDbPolyline
 90
   16
 70
    0
 43
0
 10
30.248540172483
 20
44.84736623382848
 10
30.29114375113568
 20
44.79056123865073
 10
30.33374732978836
 20
44.76215907652311
 10
30.39055198950486
 20
44.74795765999805
 10
30.46155806574641
 20
44.77636015758692
 10
30.5041616443991
 20
44.81896373623961
 10
30.53256380652672
 20
44.88996981248116
 10
30.54676522305178
 20
44.97517696978653
 10
30.53256380652672
 20
45.0603841270919
 10
30.5041616443991
 20
45.10298770574459
 10
30.44735664922135
 20
45.14559128439726
 10
30.40475307056867
 20
45.15979236546108
 10
30.36214949191599
 20
45.14559128439726
 10
30.29114375113568
 20
45.10298770574459
 10
30.3195459132633
 20
45.38701133978831
 10
30.5041616443991
 20
45.38701133978831
  0
LWPOLYLINE
  5
5C
100
AcDbEntity
  8
silktop
  6
ByLayer
 62
    7
370
   -1
100
AcDbPolyline
 90
    2
 70
    0
 43
0
 10
29.93611370538915
 20
46.16807683660043
 10
29.93611370538915
 20
50.2296178896692
  0
LWPOLYLINE
  5
5D
100
AcDbEntity
  8
silktop
  6
ByLayer
 62
    7
370
   -1
100
AcDbPolyline
 90
    2
 70
    0
 43
0
 10
29.42487076155694
 20
46.16807683660043
 10
29.93611370538915
 20
46.16807683660043
  0
LWPOLYLINE
  5
5E
100
AcDbEntity
  8
silktop
  6
ByLayer
 62
    7
370
   -1
100
AcDbPolyline
 90
   14
 70
    0
 43
0
 10
29.70889473106192
 20
51.28050627492249
 10
29.7514983097146
 20
51.33731093463899
 10
29.79410188836729
 20
51.36571343222785
 10
29.85090654808378
 20
51.37991451329166
 10
29.92191262432534
 20
51.35151235116404
 10
29.96451620297802
 20
51.30890877251136
 10
29.97871728404184
 20
51.2379026962698
 10
29.97871728404184
 20
51.1810980365533
 10
29.95031512191421
 20
51.12429304137556
 10
29.8083029694311
 20
51.02488480300638
 10
29.7514983097146
 20
50.93967764570102
 10
29.70889473106192
 20
50.84026940733184
 10
29.6946936499981
 20
50.74086083350142
 10
29.97871728404184
 20
50.74086083350142
  0
LWPOLYLINE
  5
5F
100
AcDbEntity
  8
silktop
  6
ByLayer
 62
    7
370
   -1
100
AcDbPolyline
 90
   22
 70
    0
 43
0
 10
30.26274125354681
 20
51.01068372194256
 10
30.3195459132633
 20
51.08168946272288
 10
30.36214949191599
 20
51.12429304137556
 10
30.40475307056867
 20
51.15269553896443
 10
30.46155806574641
 20
51.12429304137556
 10
30.48996022787404
 20
51.08168946272288
 10
30.51836272546291
 20
51.02488480300638
 10
30.51836272546291
 20
50.88287298598451
 10
30.48996022787404
 20
50.81186690974297
 10
30.44735664922135
 20
50.76926333109028
 10
30.40475307056867
 20
50.74086083350142
 10
30.34794841085217
 20
50.76926333109028
 10
30.30534483219949
 20
50.82606799080677
 10
30.27694233461062
 20
50.9254765646372
 10
30.26274125354681
 20
51.02488480300638
 10
30.27694233461062
 20
51.16689662002824
 10
30.30534483219949
 20
51.2379026962698
 10
30.33374732978836
 20
51.30890877251136
 10
30.37635090844105
 20
51.36571343222785
 10
30.43315556815754
 20
51.37991451329166
 10
30.47575914681023
 20
51.35151235116404
 10
30.5041616443991
 20
51.30890877251136
  0
LWPOLYLINE
  5
60
100
AcDbEntity
  8
silktop
  6
ByLayer
 62
    7
370
   -1
100
AcDbPolyline
 90
    2
 70
    0
 43
0
 10
29.93611370538915
 20
50.2296178896692
 10
29.42487076155694
 20
50.2296178896692
  0
LWPOLYLINE
  5
61
100
AcDbEntity
  8
silktop
  6
ByLayer
 62
    7
370
   -1
100
AcDbPolyline
 90
    2
 70
    0
 43
0
 10
-3.493493449520072
 20
3.86272457633042
 10
-3.493493449520072
 20
13.86036414318604
  0
LWPOLYLINE
  5
62
100
AcDbEntity
  8
silktop
  6
ByLayer
 62
    7
370
   -1
100
AcDbPolyline
 90
    2
 70
    0
 43
0
 10
-2.783433693488259
 20
3.86272457633042
 10
-3.493493449520072
 20
3.86272457633042
  0
LWPOLYLINE
  5
63
100
AcDbEntity
  8
silktop
  6
ByLayer
 62
    7
370
   -1
100
AcDbPolyline
 90
    2
 70
    0
 43
0
 10
-3.493493449520072
 20
13.86036414318604
 10
-2.783433693488259
 20
13.86036414318604
  0
LWPOLYLINE
  5
64
100
AcDbEntity
  8
silktop
  6
ByLayer
 62
    7
370
   -1
100
AcDbPolyline
 90
    1
 70
    1
 43
0
 10
-3.379883794625833
 20
26.25800519565578
  0
LWPOLYLINE
  5
65
100
AcDbEntity
  8
silktop
  6
ByLayer
 62
    7
370
   -1
100
AcDbPolyline
 90
    2
 70
    0
 43
0
 10
3.663907764130807
 20
-2.059172856392632
 10
9.671012018697969
 20
-2.059172856392632
  0
LWPOLYLINE
  5
66
100
AcDbEntity
  8
silktop
  6
ByLayer
 62
    7
370
   -1
100
AcDbPolyline
 90
    2
 70
    0
 43
0
 10
3.663907764130807
 20
2.641421876466399
 10
3.663907764130807
 20
-2.059172856392632
  0
LWPOLYLINE
  5
67
100
AcDbEntity
  8
silktop
  6
ByLayer
 62
    7
370
   -1
100
AcDbPolyline
 90
    2
 70
    0
 43
0
 10
9.671012018697969
 20
2.641421876466399
 10
3.663907764130807
 20
2.641421876466399
  0
LWPOLYLINE
  5
68
100
AcDbEntity
  8
silktop
  6
ByLayer
 62
    7
370
   -1
100
AcDbPolyline
 90
    2
 70
    0
 43
0
 10
5.311245915060418
 20
3.86272457633042
 10
1.505326333907748
 20
3.86272457633042
  0
LWPOLYLINE
  5
69
100
AcDbEntity
  8
silktop
  6
ByLayer
 62
    7
370
   -1
100
AcDbPolyline
 90
    2
 70
    0
 43
0
 10
1.505326333907748
 20
13.86036414318604
 10
7.810655974504947
 20
13.86036414318604
  0
LWPOLYLINE
  5
6A
100
AcDbEntity
  8
silktop
  6
ByLayer
 62
    7
370
   -1
100
AcDbPolyline
 90
    3
 70
    0
 43
0
 10
3.720712423847298
 20
44.94677447219766
 10
3.720712423847298
 20
45.58582815198792
 10
3.635505266541927
 20
45.45801741602988
  0
LWPOLYLINE
  5
6B
100
AcDbEntity
  8
silktop
  6
ByLayer
 62
    7
370
   -1
100
AcDbPolyline
 90
    2
 70
    0
 43
0
 10
3.635505266541927
 20
44.94677447219766
 10
3.805919581152667
 20
44.94677447219766
  0
LWPOLYLINE
  5
6C
100
AcDbEntity
  8
silktop
  6
ByLayer
 62
    7
370
   -1
100
AcDbPolyline
 90
    2
 70
    0
 43
0
 10
3.223670561078908
 20
45.99766252198969
 10
3.067457662993238
 20
45.99766252198969
  0
LWPOLYLINE
  5
6D
100
AcDbEntity
  8
silktop
  6
ByLayer
 62
    7
370
   -1
100
AcDbPolyline
 90
    2
 70
    0
 43
0
 10
3.024854084340546
 20
45.84144962390402
 10
3.223670561078908
 20
45.99766252198969
  0
LWPOLYLINE
  5
6E
100
AcDbEntity
  8
silktop
  6
ByLayer
 62
    7
370
   -1
100
AcDbPolyline
 90
    2
 70
    0
 43
0
 10
3.024854084340546
 20
46.09707109582012
 10
3.024854084340546
 20
45.84144962390402
  0
LWPOLYLINE
  5
6F
100
AcDbEntity
  8
silktop
  6
ByLayer
 62
    7
370
   -1
100
AcDbPolyline
 90
    2
 70
    0
 43
0
 10
3.521895611647697
 20
45.99766252198969
 10
3.024854084340546
 20
46.09707109582012
  0
LWPOLYLINE
  5
70
100
AcDbEntity
  8
silktop
  6
ByLayer
 62
    7
370
   -1
100
AcDbPolyline
 90
    2
 70
    0
 43
0
 10
2.925445510510118
 20
45.74204105007359
 10
3.521895611647697
 20
45.99766252198969
  0
LWPOLYLINE
  5
71
100
AcDbEntity
  8
silktop
  6
ByLayer
 62
    7
370
   -1
100
AcDbPolyline
 90
    2
 70
    0
 43
0
 10
2.925445510510118
 20
46.23908291284198
 10
2.925445510510118
 20
45.74204105007359
  0
LWPOLYLINE
  5
72
100
AcDbEntity
  8
silktop
  6
ByLayer
 62
    7
370
   -1
100
AcDbPolyline
 90
    2
 70
    0
 43
0
 10
3.521895611647697
 20
45.99766252198969
 10
2.925445510510118
 20
46.23908291284198
  0
LWPOLYLINE
  5
73
100
AcDbEntity
  8
silktop
  6
ByLayer
 62
    7
370
   -1
100
AcDbPolyline
 90
   14
 70
    0
 43
0
 10
3.592901687889247
 20
51.06748838165908
 10
3.635505266541927
 20
51.13849445790062
 10
3.678108845194616
 20
51.16689662002824
 10
3.734913504911118
 20
51.1810980365533
 10
3.805919581152667
 20
51.15269553896443
 10
3.848523159805357
 20
51.09589087924794
 10
3.862724240869166
 20
51.03908588407019
 10
3.862724240869166
 20
50.96808014328989
 10
3.834322078741538
 20
50.9254765646372
 10
3.692309926258428
 20
50.81186690974297
 10
3.635505266541927
 20
50.74086083350142
 10
3.592901687889247
 20
50.64145259513223
 10
3.578700606825437
 20
50.54204435676305
 10
3.862724240869166
 20
50.54204435676305
  0
LWPOLYLINE
  5
74
100
AcDbEntity
  8
silktop
  6
ByLayer
 62
    7
370
   -1
100
AcDbPolyline
 90
    2
 70
    0
 43
0
 10
3.834322078741538
 20
46.16807683660043
 10
4.345565022573748
 20
46.16807683660043
  0
LWPOLYLINE
  5
75
100
AcDbEntity
  8
silktop
  6
ByLayer
 62
    7
370
   -1
100
AcDbPolyline
 90
    2
 70
    0
 43
0
 10
3.834322078741538
 20
50.2296178896692
 10
3.834322078741538
 20
46.16807683660043
  0
LWPOLYLINE
  5
76
100
AcDbEntity
  8
silktop
  6
ByLayer
 62
    7
370
   -1
100
AcDbPolyline
 90
    2
 70
    0
 43
0
 10
5.481660229671148
 20
46.16807683660043
 10
6.248524645419458
 20
46.16807683660043
  0
LWPOLYLINE
  5
77
100
AcDbEntity
  8
silktop
  6
ByLayer
 62
    7
370
   -1
100
AcDbPolyline
 90
    2
 70
    0
 43
0
 10
7.512430923936158
 20
46.16807683660043
 10
8.279295339684467
 20
46.16807683660043
  0
LWPOLYLINE
  5
78
100
AcDbEntity
  8
silktop
  6
ByLayer
 62
    7
370
   -1
100
AcDbPolyline
 90
    2
 70
    0
 43
0
 10
4.345565022573748
 20
50.2296178896692
 10
3.834322078741538
 20
50.2296178896692
  0
LWPOLYLINE
  5
79
100
AcDbEntity
  8
silktop
  6
ByLayer
 62
    7
370
   -1
100
AcDbPolyline
 90
    2
 70
    0
 43
0
 10
8.279295339684467
 20
50.2296178896692
 10
7.512430923936158
 20
50.2296178896692
  0
LWPOLYLINE
  5
7A
100
AcDbEntity
  8
silktop
  6
ByLayer
 62
    7
370
   -1
100
AcDbPolyline
 90
    2
 70
    0
 43
0
 10
6.248524645419458
 20
50.2296178896692
 10
5.481660229671148
 20
50.2296178896692
  0
LWPOLYLINE
  5
7B
100
AcDbEntity
  8
silktop
  6
ByLayer
 62
    7
370
   -1
100
AcDbPolyline
 90
    2
 70
    0
 43
0
 10
9.671012018697969
 20
-2.059172856392632
 10
9.671012018697969
 20
2.641421876466399
  0
LWPOLYLINE
  5
7C
100
AcDbEntity
  8
silktop
  6
ByLayer
 62
    7
370
   -1
100
AcDbPolyline
 90
    2
 70
    0
 43
0
 10
7.810655974504947
 20
6.660359350882489
 10
7.810655974504947
 20
5.155033016974739
  0
LWPOLYLINE
  5
7D
100
AcDbEntity
  8
silktop
  6
ByLayer
 62
    7
370
   -1
100
AcDbPolyline
 90
    2
 70
    0
 43
0
 10
7.810655974504947
 20
11.85799594650991
 10
7.810655974504947
 20
8.46391073535902
  0
LWPOLYLINE
  5
7E
100
AcDbEntity
  8
silktop
  6
ByLayer
 62
    7
370
   -1
100
AcDbPolyline
 90
    2
 70
    0
 43
0
 10
7.810655974504947
 20
13.86036414318604
 10
7.810655974504947
 20
13.66154733098644
  0
LWPOLYLINE
  5
7F
100
AcDbEntity
  8
silktop
  6
ByLayer
 62
    7
370
   -1
100
AcDbPolyline
 90
    2
 70
    0
 43
0
 10
9.514799120612299
 20
46.16807683660043
 10
10.28166353636061
 20
46.16807683660043
  0
LWPOLYLINE
  5
80
100
AcDbEntity
  8
silktop
  6
ByLayer
 62
    7
370
   -1
100
AcDbPolyline
 90
    2
 70
    0
 43
0
 10
11.51716698182719
 20
46.16807683660043
 10
12.2840313975755
 20
46.16807683660043
  0
LWPOLYLINE
  5
81
100
AcDbEntity
  8
silktop
  6
ByLayer
 62
    7
370
   -1
100
AcDbPolyline
 90
    2
 70
    0
 43
0
 10
10.28166353636061
 20
50.2296178896692
 10
9.514799120612299
 20
50.2296178896692
  0
LWPOLYLINE
  5
82
100
AcDbEntity
  8
silktop
  6
ByLayer
 62
    7
370
   -1
100
AcDbPolyline
 90
    2
 70
    0
 43
0
 10
12.2840313975755
 20
50.2296178896692
 10
11.51716698182719
 20
50.2296178896692
  0
LWPOLYLINE
  5
83
100
AcDbEntity
  8
silktop
  6
ByLayer
 62
    7
370
   -1
100
AcDbPolyline
 90
    2
 70
    0
 43
0
 10
13.51953517850333
 20
46.16807683660043
 10
14.27219851318782
 20
46.16807683660043
  0
LWPOLYLINE
  5
84
100
AcDbEntity
  8
silktop
  6
ByLayer
 62
    7
370
   -1
100
AcDbPolyline
 90
    2
 70
    0
 43
0
 10
15.52190337517946
 20
46.16807683660043
 10
16.27456670986396
 20
46.16807683660043
  0
LWPOLYLINE
  5
85
100
AcDbEntity
  8
silktop
  6
ByLayer
 62
    7
370
   -1
100
AcDbPolyline
 90
    2
 70
    0
 43
0
 10
14.27219851318782
 20
50.2296178896692
 10
13.51953517850333
 20
50.2296178896692
  0
LWPOLYLINE
  5
86
100
AcDbEntity
  8
silktop
  6
ByLayer
 62
    7
370
   -1
100
AcDbPolyline
 90
    2
 70
    0
 43
0
 10
16.27456670986396
 20
50.2296178896692
 10
15.52190337517946
 20
50.2296178896692
  0
LWPOLYLINE
  5
87
100
AcDbEntity
  8
silktop
  6
ByLayer
 62
    7
370
   -1
100
AcDbPolyline
 90
    2
 70
    0
 43
0
 10
17.51007049079179
 20
46.16807683660043
 10
18.2769349065401
 20
46.16807683660043
  0
LWPOLYLINE
  5
88
100
AcDbEntity
  8
silktop
  6
ByLayer
 62
    7
370
   -1
100
AcDbPolyline
 90
    2
 70
    0
 43
0
 10
19.51243835200668
 20
46.16807683660043
 10
20.27930276775499
 20
46.16807683660043
  0
LWPOLYLINE
  5
89
100
AcDbEntity
  8
silktop
  6
ByLayer
 62
    7
370
   -1
100
AcDbPolyline
 90
    2
 70
    0
 43
0
 10
18.2769349065401
 20
50.2296178896692
 10
17.51007049079179
 20
50.2296178896692
  0
LWPOLYLINE
  5
8A
100
AcDbEntity
  8
silktop
  6
ByLayer
 62
    7
370
   -1
100
AcDbPolyline
 90
    2
 70
    0
 43
0
 10
20.27930276775499
 20
50.2296178896692
 10
19.51243835200668
 20
50.2296178896692
  0
LWPOLYLINE
  5
8B
100
AcDbEntity
  8
silktop
  6
ByLayer
 62
    7
370
   -1
100
AcDbPolyline
 90
    2
 70
    0
 43
0
 10
3.749114921436167
 20
41.95032288544598
 10
3.749114921436167
 20
44.23671471616585
  0
LWPOLYLINE
  5
8C
100
AcDbEntity
  8
silktop
  6
ByLayer
 62
    7
370
   -1
100
AcDbPolyline
 90
    2
 70
    0
 43
0
 10
29.77990080730347
 20
41.95032288544598
 10
3.749114921436167
 20
41.95032288544598
  0
LWPOLYLINE
  5
8D
100
AcDbEntity
  8
silktop
  6
ByLayer
 62
    7
370
   -1
100
AcDbPolyline
 90
    2
 70
    0
 43
0
 10
3.749114921436167
 20
43.10061950906844
 10
29.77990080730347
 20
43.10061950906844
  0
LWPOLYLINE
  5
8E
100
AcDbEntity
  8
silktop
  6
ByLayer
 62
    7
370
   -1
100
AcDbPolyline
 90
    2
 70
    0
 43
0
 10
3.749114921436167
 20
44.23671471616585
 10
5.907696016197987
 20
44.23671471616585
  0
LWPOLYLINE
  5
8F
100
AcDbEntity
  8
silktop
  6
ByLayer
 62
    7
370
   -1
100
AcDbPolyline
 90
    9
 70
    0
 43
0
 10
4.189351789026828
 20
43.98109324424974
 10
4.189351789026828
 20
43.52665529559528
 10
4.217754286615698
 20
43.44144813828991
 10
4.260357865268377
 20
43.37044206204836
 10
4.331363606048688
 20
43.35624098098454
 10
4.402369682290237
 20
43.37044206204836
 10
4.459174342006737
 20
43.44144813828991
 10
4.487576839595608
 20
43.52665529559528
 10
4.487576839595608
 20
43.98109324424974
  0
LWPOLYLINE
  5
90
100
AcDbEntity
  8
silktop
  6
ByLayer
 62
    7
370
   -1
100
AcDbPolyline
 90
   10
 70
    0
 43
0
 10
4.757399392575516
 20
43.35624098098454
 10
4.757399392575516
 20
43.98109324424974
 10
4.927813707186257
 20
43.98109324424974
 10
4.984618702364008
 20
43.95269108212212
 10
5.013020864491628
 20
43.91008750346943
 10
5.027222281016687
 20
43.82488034616407
 10
5.013020864491628
 20
43.73967318885869
 10
4.970417285838947
 20
43.69706961020602
 10
4.927813707186257
 20
43.65446603155333
 10
4.757399392575516
 20
43.65446603155333
  0
LWPOLYLINE
  5
91
100
AcDbEntity
  8
silktop
  6
ByLayer
 62
    7
370
   -1
100
AcDbPolyline
 90
    2
 70
    0
 43
0
 10
4.927813707186257
 20
43.65446603155333
 10
5.027222281016687
 20
43.35624098098454
  0
LWPOLYLINE
  5
92
100
AcDbEntity
  8
silktop
  6
ByLayer
 62
    7
370
   -1
100
AcDbPolyline
 90
    2
 70
    0
 43
0
 10
5.311245915060418
 20
43.35624098098454
 10
5.595269884565388
 20
43.98109324424974
  0
LWPOLYLINE
  5
93
100
AcDbEntity
  8
silktop
  6
ByLayer
 62
    7
370
   -1
100
AcDbPolyline
 90
    2
 70
    0
 43
0
 10
5.311245915060418
 20
43.98109324424974
 10
5.595269884565388
 20
43.35624098098454
  0
LWPOLYLINE
  5
94
100
AcDbEntity
  8
silktop
  6
ByLayer
 62
    7
370
   -1
100
AcDbPolyline
 90
    9
 70
    0
 43
0
 10
6.177518569177897
 20
43.98109324424974
 10
6.177518569177897
 20
43.52665529559528
 10
6.205921066766777
 20
43.44144813828991
 10
6.262725726483268
 20
43.37044206204836
 10
6.333731802724827
 20
43.35624098098454
 10
6.404737878966376
 20
43.37044206204836
 10
6.461542538682878
 20
43.44144813828991
 10
6.475743619746687
 20
43.52665529559528
 10
6.475743619746687
 20
43.98109324424974
  0
LWPOLYLINE
  5
95
100
AcDbEntity
  8
silktop
  6
ByLayer
 62
    7
370
   -1
100
AcDbPolyline
 90
    2
 70
    0
 43
0
 10
6.887578325209716
 20
43.98109324424974
 10
6.887578325209716
 20
43.35624098098454
  0
LWPOLYLINE
  5
96
100
AcDbEntity
  8
silktop
  6
ByLayer
 62
    7
370
   -1
100
AcDbPolyline
 90
    2
 70
    0
 43
0
 10
6.731365091662788
 20
43.98109324424974
 10
7.043791558756638
 20
43.98109324424974
  0
LWPOLYLINE
  5
97
100
AcDbEntity
  8
silktop
  6
ByLayer
 62
    7
370
   -1
100
AcDbPolyline
 90
    2
 70
    0
 43
0
 10
7.313614111736548
 20
43.35624098098454
 10
7.597638081241527
 20
43.98109324424974
  0
LWPOLYLINE
  5
98
100
AcDbEntity
  8
silktop
  6
ByLayer
 62
    7
370
   -1
100
AcDbPolyline
 90
    2
 70
    0
 43
0
 10
7.313614111736548
 20
43.98109324424974
 10
7.597638081241527
 20
43.35624098098454
  0
LWPOLYLINE
  5
99
100
AcDbEntity
  8
silktop
  6
ByLayer
 62
    7
370
   -1
100
AcDbPolyline
 90
    2
 70
    0
 43
0
 10
6.248524645419458
 20
42.87340019927997
 10
6.418938960030196
 20
42.87340019927997
  0
LWPOLYLINE
  5
9A
100
AcDbEntity
  8
silktop
  6
ByLayer
 62
    7
370
   -1
100
AcDbPolyline
 90
    2
 70
    0
 43
0
 10
6.333731802724827
 20
42.87340019927997
 10
6.333731802724827
 20
42.23434651948971
  0
LWPOLYLINE
  5
9B
100
AcDbEntity
  8
silktop
  6
ByLayer
 62
    7
370
   -1
100
AcDbPolyline
 90
    2
 70
    0
 43
0
 10
6.248524645419458
 20
42.23434651948971
 10
6.418938960030196
 20
42.23434651948971
  0
LWPOLYLINE
  5
9C
100
AcDbEntity
  8
silktop
  6
ByLayer
 62
    7
370
   -1
100
AcDbPolyline
 90
   22
 70
    1
 43
0
 10
6.887578325209716
 20
42.23434651948971
 10
6.844974746557028
 20
42.24854793601476
 10
6.788170086840537
 20
42.29115151466745
 10
6.745566508187846
 20
42.34795617438394
 10
6.717164010598978
 20
42.4189622506255
 10
6.702962929535168
 20
42.50416940793087
 10
6.702962929535168
 20
42.58937656523624
 10
6.717164010598978
 20
42.67458372254161
 10
6.745566508187846
 20
42.75979087984697
 10
6.788170086840537
 20
42.81659553956347
 10
6.844974746557028
 20
42.85919911821615
 10
6.887578325209716
 20
42.87340019927997
 10
6.944382984926207
 20
42.85919911821615
 10
6.986986563578888
 20
42.81659553956347
 10
7.029590142231577
 20
42.75979087984697
 10
7.057992639820448
 20
42.67458372254161
 10
7.072193720884258
 20
42.58937656523624
 10
7.072193720884258
 20
42.50416940793087
 10
7.057992639820448
 20
42.4189622506255
 10
7.029590142231577
 20
42.34795617438394
 10
6.986986563578888
 20
42.29115151466745
 10
6.944382984926207
 20
42.24854793601476
  0
LWPOLYLINE
  5
9D
100
AcDbEntity
  8
silktop
  6
ByLayer
 62
    7
370
   -1
100
AcDbPolyline
 90
   19
 70
    1
 43
0
 10
7.455625928758419
 20
42.87340019927997
 10
7.398821269041918
 20
42.84499803715234
 10
7.356217690389236
 20
42.80239445849966
 10
7.327815192800358
 20
42.7313883822581
 10
7.313614111736548
 20
42.64618122495273
 10
7.299413030672739
 20
42.54677298658356
 10
7.313614111736548
 20
42.46156582927819
 10
7.327815192800358
 20
42.37635867197281
 10
7.356217690389236
 20
42.30535259573126
 10
7.398821269041918
 20
42.26274901707858
 10
7.455625928758419
 20
42.23434651948971
 10
7.512430923936158
 20
42.26274901707858
 10
7.540833086063778
 20
42.30535259573126
 10
7.569235583652656
 20
42.37635867197281
 10
7.597638081241527
 20
42.46156582927819
 10
7.597638081241527
 20
42.64618122495273
 10
7.569235583652656
 20
42.7313883822581
 10
7.540833086063778
 20
42.80239445849966
 10
7.512430923936158
 20
42.84499803715234
  0
LWPOLYLINE
  5
9E
100
AcDbEntity
  8
silktop
  6
ByLayer
 62
    7
370
   -1
100
AcDbPolyline
 90
   12
 70
    0
 43
0
 10
4.189351789026828
 20
42.36215725544776
 10
4.231955367679507
 20
42.29115151466745
 10
4.274558946332187
 20
42.24854793601476
 10
4.345565022573748
 20
42.23434651948971
 10
4.388168601226427
 20
42.24854793601476
 10
4.444973260942927
 20
42.29115151466745
 10
4.487576839595608
 20
42.36215725544776
 10
4.487576839595608
 20
42.4189622506255
 10
4.473375758531798
 20
42.50416940793087
 10
4.430772179879117
 20
42.54677298658356
 10
4.373967184701367
 20
42.57517514871118
 10
4.317162524984877
 20
42.57517514871118
  0
LWPOLYLINE
  5
9F
100
AcDbEntity
  8
silktop
  6
ByLayer
 62
    7
370
   -1
100
AcDbPolyline
 90
    9
 70
    0
 43
0
 10
4.373967184701367
 20
42.57517514871118
 10
4.416570763354047
 20
42.60357764630005
 10
4.459174342006737
 20
42.66038230601654
 10
4.473375758531798
 20
42.71718730119429
 10
4.459174342006737
 20
42.78819304197459
 10
4.416570763354047
 20
42.83079662062728
 10
4.359766103637558
 20
42.87340019927997
 10
4.302961443921067
 20
42.85919911821615
 10
4.231955367679507
 20
42.81659553956347
  0
LWPOLYLINE
  5
A0
100
AcDbEntity
  8
silktop
  6
ByLayer
 62
    7
370
   -1
100
AcDbPolyline
 90
    3
 70
    0
 43
0
 10
4.728997230447897
 20
42.87340019927997
 10
4.885210128533577
 20
42.23434651948971
 10
5.055624443144307
 20
42.87340019927997
  0
LWPOLYLINE
  5
A1
100
AcDbEntity
  8
silktop
  6
ByLayer
 62
    7
370
   -1
100
AcDbPolyline
 90
   12
 70
    0
 43
0
 10
5.297044833996598
 20
42.36215725544776
 10
5.339648412649288
 20
42.29115151466745
 10
5.396453072365777
 20
42.24854793601476
 10
5.453258067543528
 20
42.23434651948971
 10
5.510062727260017
 20
42.24854793601476
 10
5.566867386976517
 20
42.29115151466745
 10
5.595269884565388
 20
42.36215725544776
 10
5.609470965629198
 20
42.4189622506255
 10
5.595269884565388
 20
42.50416940793087
 10
5.552666305912707
 20
42.54677298658356
 10
5.495861646196207
 20
42.57517514871118
 10
5.439056651018467
 20
42.57517514871118
  0
LWPOLYLINE
  5
A2
100
AcDbEntity
  8
silktop
  6
ByLayer
 62
    7
370
   -1
100
AcDbPolyline
 90
    9
 70
    0
 43
0
 10
5.495861646196207
 20
42.57517514871118
 10
5.538465224848897
 20
42.60357764630005
 10
5.566867386976517
 20
42.66038230601654
 10
5.581068803501577
 20
42.71718730119429
 10
5.566867386976517
 20
42.78819304197459
 10
5.538465224848897
 20
42.83079662062728
 10
5.481660229671148
 20
42.87340019927997
 10
5.410654488890838
 20
42.85919911821615
 10
5.353849493713097
 20
42.81659553956347
  0
LWPOLYLINE
  5
A3
100
AcDbEntity
  8
silktop
  6
ByLayer
 62
    7
370
   -1
100
AcDbPolyline
 90
    2
 70
    0
 43
0
 10
5.907696016197987
 20
41.95032288544598
 10
7.938466710462997
 20
41.95032288544598
  0
LWPOLYLINE
  5
A4
100
AcDbEntity
  8
silktop
  6
ByLayer
 62
    7
370
   -1
100
AcDbPolyline
 90
    2
 70
    0
 43
0
 10
5.907696016197987
 20
44.23671471616585
 10
5.907696016197987
 20
41.95032288544598
  0
LWPOLYLINE
  5
A5
100
AcDbEntity
  8
silktop
  6
ByLayer
 62
    7
370
   -1
100
AcDbPolyline
 90
    2
 70
    0
 43
0
 10
3.876925657394228
 20
44.23671471616585
 10
29.77990080730347
 20
44.23671471616585
  0
LWPOLYLINE
  5
A6
100
AcDbEntity
  8
silktop
  6
ByLayer
 62
    7
370
   -1
100
AcDbPolyline
 90
   20
 70
    0
 43
0
 10
8.378703578053646
 20
43.66866711261715
 10
8.506514314011696
 20
43.66866711261715
 10
8.506514314011696
 20
43.4840517169426
 10
8.463910735359018
 20
43.41304564070104
 10
8.421307156706327
 20
43.37044206204836
 10
8.350301080464778
 20
43.35624098098454
 10
8.279295339684467
 20
43.37044206204836
 10
8.236691761031778
 20
43.41304564070104
 10
8.194088182379097
 20
43.4840517169426
 10
8.165685684790226
 20
43.5550574577229
 10
8.151484603726416
 20
43.64026461502828
 10
8.151484603726416
 20
43.71127069126982
 10
8.165685684790226
 20
43.78227676751138
 10
8.194088182379097
 20
43.85328250829169
 10
8.236691761031778
 20
43.91008750346943
 10
8.279295339684467
 20
43.95269108212212
 10
8.336099999400968
 20
43.98109324424974
 10
8.378703578053646
 20
43.98109324424974
 10
8.435508237770136
 20
43.96689216318593
 10
8.478111816422828
 20
43.92428858453325
  0
LWPOLYLINE
  5
A7
100
AcDbEntity
  8
silktop
  6
ByLayer
 62
    7
370
   -1
100
AcDbPolyline
 90
    4
 70
    0
 43
0
 10
8.733733288338929
 20
43.35624098098454
 10
8.733733288338929
 20
43.98109324424974
 10
9.046159755432779
 20
43.35624098098454
 10
9.046159755432779
 20
43.98109324424974
  0
LWPOLYLINE
  5
A8
100
AcDbEntity
  8
silktop
  6
ByLayer
 62
    7
370
   -1
100
AcDbPolyline
 90
   12
 70
    1
 43
0
 10
9.301781227348876
 20
43.35624098098454
 10
9.301781227348876
 20
43.98109324424974
 10
9.443793044370747
 20
43.98109324424974
 10
9.486396623023428
 20
43.95269108212212
 10
9.529000201676109
 20
43.91008750346943
 10
9.571603780328797
 20
43.85328250829169
 10
9.600006277917668
 20
43.78227676751138
 10
9.600006277917668
 20
43.56925887424797
 10
9.571603780328797
 20
43.4840517169426
 10
9.529000201676109
 20
43.42724672176485
 10
9.486396623023428
 20
43.38464314311217
 10
9.443793044370747
 20
43.35624098098454
  0
LWPOLYLINE
  5
A9
100
AcDbEntity
  8
silktop
  6
ByLayer
 62
    7
370
   -1
100
AcDbPolyline
 90
    2
 70
    0
 43
0
 10
10.25326103877174
 20
43.98109324424974
 10
10.40947393685741
 20
43.98109324424974
  0
LWPOLYLINE
  5
AA
100
AcDbEntity
  8
silktop
  6
ByLayer
 62
    7
370
   -1
100
AcDbPolyline
 90
    2
 70
    0
 43
0
 10
10.3384681960771
 20
43.98109324424974
 10
10.3384681960771
 20
43.35624098098454
  0
LWPOLYLINE
  5
AB
100
AcDbEntity
  8
silktop
  6
ByLayer
 62
    7
370
   -1
100
AcDbPolyline
 90
    2
 70
    0
 43
0
 10
10.25326103877174
 20
43.35624098098454
 10
10.40947393685741
 20
43.35624098098454
  0
LWPOLYLINE
  5
AC
100
AcDbEntity
  8
silktop
  6
ByLayer
 62
    7
370
   -1
100
AcDbPolyline
 90
   21
 70
    1
 43
0
 10
10.89231471856199
 20
43.35624098098454
 10
10.83550972338425
 20
43.35624098098454
 10
10.79290614473156
 20
43.39884455963723
 10
10.75030256607888
 20
43.46985030041754
 10
10.72190040395126
 20
43.5408563766591
 10
10.7076989874262
 20
43.62606353396446
 10
10.7076989874262
 20
43.71127069126982
 10
10.72190040395126
 20
43.7964778485752
 10
10.75030256607888
 20
43.86748392481674
 10
10.79290614473156
 20
43.93848966559706
 10
10.83550972338425
 20
43.98109324424974
 10
10.94911937827849
 20
43.98109324424974
 10
10.99172295693117
 20
43.93848966559706
 10
11.03432653558385
 20
43.86748392481674
 10
11.06272903317273
 20
43.7964778485752
 10
11.07693011423654
 20
43.71127069126982
 10
11.07693011423654
 20
43.62606353396446
 10
11.06272903317273
 20
43.5408563766591
 10
11.03432653558385
 20
43.46985030041754
 10
10.99172295693117
 20
43.39884455963723
 10
10.94911937827849
 20
43.35624098098454
  0
LWPOLYLINE
  5
AD
100
AcDbEntity
  8
silktop
  6
ByLayer
 62
    7
370
   -1
100
AcDbPolyline
 90
   14
 70
    0
 43
0
 10
11.31835050508883
 20
43.88168500588056
 10
11.36095408374151
 20
43.93848966559706
 10
11.41775874345801
 20
43.98109324424974
 10
11.46036232211069
 20
43.98109324424974
 10
11.53136839835225
 20
43.96689216318593
 10
11.57397197700493
 20
43.91008750346943
 10
11.58817305806875
 20
43.85328250829169
 10
11.58817305806875
 20
43.78227676751138
 10
11.55977056047987
 20
43.73967318885869
 10
11.41775874345801
 20
43.62606353396446
 10
11.36095408374151
 20
43.5550574577229
 10
11.31835050508883
 20
43.44144813828991
 10
11.30414908856377
 20
43.35624098098454
 10
11.58817305806875
 20
43.35624098098454
  0
LWPOLYLINE
  5
AE
100
AcDbEntity
  8
silktop
  6
ByLayer
 62
    7
370
   -1
100
AcDbPolyline
 90
   20
 70
    0
 43
0
 10
10.38107177472979
 20
42.54677298658356
 10
10.50888251068784
 20
42.54677298658356
 10
10.50888251068784
 20
42.36215725544776
 10
10.46627893203515
 20
42.29115151466745
 10
10.42367535338247
 20
42.26274901707858
 10
10.35266927714091
 20
42.23434651948971
 10
10.28166353636061
 20
42.26274901707858
 10
10.23905995770793
 20
42.29115151466745
 10
10.19645637905524
 20
42.36215725544776
 10
10.16805388146637
 20
42.43316333168931
 10
10.15385280040256
 20
42.51837048899468
 10
10.15385280040256
 20
42.58937656523624
 10
10.16805388146637
 20
42.66038230601654
 10
10.19645637905524
 20
42.7313883822581
 10
10.23905995770793
 20
42.80239445849966
 10
10.28166353636061
 20
42.83079662062728
 10
10.3384681960771
 20
42.87340019927997
 10
10.38107177472979
 20
42.87340019927997
 10
10.43787643444628
 20
42.84499803715234
 10
10.48048001309896
 20
42.80239445849966
  0
LWPOLYLINE
  5
AF
100
AcDbEntity
  8
silktop
  6
ByLayer
 62
    7
370
   -1
100
AcDbPolyline
 90
    4
 70
    0
 43
0
 10
10.73610148501507
 20
42.23434651948971
 10
10.73610148501507
 20
42.87340019927997
 10
11.04852761664767
 20
42.23434651948971
 10
11.04852761664767
 20
42.87340019927997
  0
LWPOLYLINE
  5
B0
100
AcDbEntity
  8
silktop
  6
ByLayer
 62
    7
370
   -1
100
AcDbPolyline
 90
   13
 70
    1
 43
0
 10
11.30414908856377
 20
42.23434651948971
 10
11.30414908856377
 20
42.87340019927997
 10
11.43195982452182
 20
42.87340019927997
 10
11.48876481969956
 20
42.83079662062728
 10
11.53136839835225
 20
42.80239445849966
 10
11.55977056047987
 20
42.7313883822581
 10
11.58817305806875
 20
42.66038230601654
 10
11.60237413913256
 20
42.54677298658356
 10
11.58817305806875
 20
42.44736441275312
 10
11.55977056047987
 20
42.37635867197281
 10
11.53136839835225
 20
42.30535259573126
 10
11.48876481969956
 20
42.26274901707858
 10
11.43195982452182
 20
42.23434651948971
  0
LWPOLYLINE
  5
B1
100
AcDbEntity
  8
silktop
  6
ByLayer
 62
    7
370
   -1
100
AcDbPolyline
 90
    2
 70
    0
 43
0
 10
8.250892842095599
 20
42.87340019927997
 10
8.421307156706327
 20
42.87340019927997
  0
LWPOLYLINE
  5
B2
100
AcDbEntity
  8
silktop
  6
ByLayer
 62
    7
370
   -1
100
AcDbPolyline
 90
    2
 70
    0
 43
0
 10
8.336099999400968
 20
42.87340019927997
 10
8.336099999400968
 20
42.23434651948971
  0
LWPOLYLINE
  5
B3
100
AcDbEntity
  8
silktop
  6
ByLayer
 62
    7
370
   -1
100
AcDbPolyline
 90
    2
 70
    0
 43
0
 10
8.250892842095599
 20
42.23434651948971
 10
8.421307156706327
 20
42.23434651948971
  0
LWPOLYLINE
  5
B4
100
AcDbEntity
  8
silktop
  6
ByLayer
 62
    7
370
   -1
100
AcDbPolyline
 90
   22
 70
    1
 43
0
 10
8.889946521885847
 20
42.23434651948971
 10
8.833141862169356
 20
42.24854793601476
 10
8.790538283516678
 20
42.29115151466745
 10
8.747934704863987
 20
42.34795617438394
 10
8.719532207275119
 20
42.4189622506255
 10
8.705331126211306
 20
42.50416940793087
 10
8.705331126211306
 20
42.58937656523624
 10
8.719532207275119
 20
42.67458372254161
 10
8.747934704863987
 20
42.75979087984697
 10
8.790538283516678
 20
42.81659553956347
 10
8.833141862169356
 20
42.85919911821615
 10
8.889946521885847
 20
42.87340019927997
 10
8.946751181602348
 20
42.85919911821615
 10
8.989354760255026
 20
42.81659553956347
 10
9.031958338907717
 20
42.75979087984697
 10
9.060360836496589
 20
42.67458372254161
 10
9.074561917560398
 20
42.58937656523624
 10
9.074561917560398
 20
42.50416940793087
 10
9.060360836496589
 20
42.4189622506255
 10
9.031958338907717
 20
42.34795617438394
 10
8.989354760255026
 20
42.29115151466745
 10
8.946751181602348
 20
42.24854793601476
  0
LWPOLYLINE
  5
B5
100
AcDbEntity
  8
silktop
  6
ByLayer
 62
    7
370
   -1
100
AcDbPolyline
 90
    3
 70
    0
 43
0
 10
9.457994125434556
 20
42.23434651948971
 10
9.457994125434556
 20
42.87340019927997
 10
9.372786968129187
 20
42.74558946332192
  0
LWPOLYLINE
  5
B6
100
AcDbEntity
  8
silktop
  6
ByLayer
 62
    7
370
   -1
100
AcDbPolyline
 90
    2
 70
    0
 43
0
 10
9.372786968129187
 20
42.23434651948971
 10
9.529000201676109
 20
42.23434651948971
  0
LWPOLYLINE
  5
B7
100
AcDbEntity
  8
silktop
  6
ByLayer
 62
    7
370
   -1
100
AcDbPolyline
 90
    2
 70
    0
 43
0
 10
9.841426333308707
 20
41.95032288544598
 10
11.87219702757372
 20
41.95032288544598
  0
LWPOLYLINE
  5
B8
100
AcDbEntity
  8
silktop
  6
ByLayer
 62
    7
370
   -1
100
AcDbPolyline
 90
    2
 70
    0
 43
0
 10
9.841426333308707
 20
44.23671471616585
 10
9.841426333308707
 20
41.95032288544598
  0
LWPOLYLINE
  5
B9
100
AcDbEntity
  8
silktop
  6
ByLayer
 62
    7
370
   -1
100
AcDbPolyline
 90
    3
 70
    0
 43
0
 10
7.938466710462997
 20
41.95032288544598
 10
7.938466710462997
 20
44.23671471616585
 10
9.841426333308707
 20
44.23671471616585
  0
LWPOLYLINE
  5
BA
100
AcDbEntity
  8
silktop
  6
ByLayer
 62
    7
370
   -1
100
AcDbPolyline
 90
    2
 70
    0
 43
0
 10
12.25562923544787
 20
43.98109324424974
 10
12.41184213353355
 20
43.98109324424974
  0
LWPOLYLINE
  5
BB
100
AcDbEntity
  8
silktop
  6
ByLayer
 62
    7
370
   -1
100
AcDbPolyline
 90
    2
 70
    0
 43
0
 10
12.34083639275324
 20
43.98109324424974
 10
12.34083639275324
 20
43.35624098098454
  0
LWPOLYLINE
  5
BC
100
AcDbEntity
  8
silktop
  6
ByLayer
 62
    7
370
   -1
100
AcDbPolyline
 90
    2
 70
    0
 43
0
 10
12.25562923544787
 20
43.35624098098454
 10
12.41184213353355
 20
43.35624098098454
  0
LWPOLYLINE
  5
BD
100
AcDbEntity
  8
silktop
  6
ByLayer
 62
    7
370
   -1
100
AcDbPolyline
 90
   21
 70
    1
 43
0
 10
12.89468291523813
 20
43.35624098098454
 10
12.83787792006039
 20
43.35624098098454
 10
12.7952743414077
 20
43.39884455963723
 10
12.75267076275502
 20
43.46985030041754
 10
12.7242686006274
 20
43.5408563766591
 10
12.71006718410233
 20
43.62606353396446
 10
12.71006718410233
 20
43.71127069126982
 10
12.7242686006274
 20
43.7964778485752
 10
12.75267076275502
 20
43.86748392481674
 10
12.7952743414077
 20
43.93848966559706
 10
12.83787792006039
 20
43.98109324424974
 10
12.95148757495463
 20
43.98109324424974
 10
12.99409115360731
 20
43.93848966559706
 10
13.03669473225999
 20
43.86748392481674
 10
13.06509722984887
 20
43.7964778485752
 10
13.07929831091268
 20
43.71127069126982
 10
13.07929831091268
 20
43.62606353396446
 10
13.06509722984887
 20
43.5408563766591
 10
13.03669473225999
 20
43.46985030041754
 10
12.99409115360731
 20
43.39884455963723
 10
12.95148757495463
 20
43.35624098098454
  0
LWPOLYLINE
  5
BE
100
AcDbEntity
  8
silktop
  6
ByLayer
 62
    7
370
   -1
100
AcDbPolyline
 90
   11
 70
    0
 43
0
 10
13.3065172852399
 20
43.4840517169426
 10
13.34912086389259
 20
43.39884455963723
 10
13.39172444254527
 20
43.35624098098454
 10
13.51953517850333
 20
43.35624098098454
 10
13.56213875715601
 20
43.41304564070104
 10
13.6047423358087
 20
43.4840517169426
 10
13.6047423358087
 20
43.5408563766591
 10
13.59054125474488
 20
43.61186245290065
 10
13.5479376760922
 20
43.66866711261715
 10
13.50533409743951
 20
43.69706961020602
 10
13.43432802119796
 20
43.69706961020602
  0
LWPOLYLINE
  5
BF
100
AcDbEntity
  8
silktop
  6
ByLayer
 62
    7
370
   -1
100
AcDbPolyline
 90
    9
 70
    0
 43
0
 10
13.50533409743951
 20
43.69706961020602
 10
13.53373659502839
 20
43.72547177233364
 10
13.57634017368107
 20
43.78227676751138
 10
13.59054125474488
 20
43.83908142722787
 10
13.57634017368107
 20
43.89588608694437
 10
13.53373659502839
 20
43.95269108212212
 10
13.47693159985064
 20
43.98109324424974
 10
13.42012694013415
 20
43.98109324424974
 10
13.36332228041765
 20
43.93848966559706
  0
LWPOLYLINE
  5
C0
100
AcDbEntity
  8
silktop
  6
ByLayer
 62
    7
370
   -1
100
AcDbPolyline
 90
    3
 70
    0
 43
0
 10
14.32900317290432
 20
43.35624098098454
 10
14.32900317290432
 20
43.98109324424974
 10
14.25799743212401
 20
43.85328250829169
  0
LWPOLYLINE
  5
C1
100
AcDbEntity
  8
silktop
  6
ByLayer
 62
    7
370
   -1
100
AcDbPolyline
 90
    2
 70
    0
 43
0
 10
14.25799743212401
 20
43.35624098098454
 10
14.41421033020969
 20
43.35624098098454
  0
LWPOLYLINE
  5
C2
100
AcDbEntity
  8
silktop
  6
ByLayer
 62
    7
370
   -1
100
AcDbPolyline
 90
   14
 70
    0
 43
0
 10
14.76924037595622
 20
43.88168500588056
 10
14.8118439546089
 20
43.93848966559706
 10
14.85444719780034
 20
43.98109324424974
 10
14.91125219297808
 20
43.98109324424974
 10
14.96805685269458
 20
43.96689216318593
 10
15.02486151241107
 20
43.91008750346943
 10
15.03906292893613
 20
43.85328250829169
 10
15.02486151241107
 20
43.78227676751138
 10
14.99645935028345
 20
43.73967318885869
 10
14.8686486143254
 20
43.62606353396446
 10
14.8118439546089
 20
43.5550574577229
 10
14.76924037595622
 20
43.44144813828991
 10
14.75503895943116
 20
43.35624098098454
 10
15.03906292893613
 20
43.35624098098454
  0
LWPOLYLINE
  5
C3
100
AcDbEntity
  8
silktop
  6
ByLayer
 62
    7
370
   -1
100
AcDbPolyline
 90
    3
 70
    0
 43
0
 10
15.28048298432717
 20
43.98109324424974
 10
15.45089729893791
 20
43.35624098098454
 10
15.62131161354864
 20
43.98109324424974
  0
LWPOLYLINE
  5
C4
100
AcDbEntity
  8
silktop
  6
ByLayer
 62
    7
370
   -1
100
AcDbPolyline
 90
    2
 70
    0
 43
0
 10
14.25799743212401
 20
42.87340019927997
 10
14.41421033020969
 20
42.87340019927997
  0
LWPOLYLINE
  5
C5
100
AcDbEntity
  8
silktop
  6
ByLayer
 62
    7
370
   -1
100
AcDbPolyline
 90
    2
 70
    0
 43
0
 10
14.32900317290432
 20
42.87340019927997
 10
14.32900317290432
 20
42.23434651948971
  0
LWPOLYLINE
  5
C6
100
AcDbEntity
  8
silktop
  6
ByLayer
 62
    7
370
   -1
100
AcDbPolyline
 90
    2
 70
    0
 43
0
 10
14.25799743212401
 20
42.23434651948971
 10
14.41421033020969
 20
42.23434651948971
  0
LWPOLYLINE
  5
C7
100
AcDbEntity
  8
silktop
  6
ByLayer
 62
    7
370
   -1
100
AcDbPolyline
 90
   22
 70
    1
 43
0
 10
14.89705077645302
 20
42.23434651948971
 10
14.84024611673652
 20
42.24854793601476
 10
14.79764253808384
 20
42.29115151466745
 10
14.75503895943116
 20
42.34795617438394
 10
14.72663679730353
 20
42.4189622506255
 10
14.71243538077847
 20
42.50416940793087
 10
14.71243538077847
 20
42.58937656523624
 10
14.72663679730353
 20
42.67458372254161
 10
14.75503895943116
 20
42.75979087984697
 10
14.79764253808384
 20
42.81659553956347
 10
14.84024611673652
 20
42.85919911821615
 10
14.89705077645302
 20
42.87340019927997
 10
14.95385577163076
 20
42.85919911821615
 10
14.99645935028345
 20
42.81659553956347
 10
15.03906292893613
 20
42.75979087984697
 10
15.06746509106376
 20
42.67458372254161
 10
15.08166650758882
 20
42.58937656523624
 10
15.08166650758882
 20
42.50416940793087
 10
15.06746509106376
 20
42.4189622506255
 10
15.03906292893613
 20
42.34795617438394
 10
14.99645935028345
 20
42.29115151466745
 10
14.95385577163076
 20
42.24854793601476
  0
LWPOLYLINE
  5
C8
100
AcDbEntity
  8
silktop
  6
ByLayer
 62
    7
370
   -1
100
AcDbPolyline
 90
    4
 70
    0
 43
0
 10
15.53610445624328
 20
42.23434651948971
 10
15.53610445624328
 20
42.87340019927997
 10
15.28048298432717
 20
42.4189622506255
 10
15.62131161354864
 20
42.4189622506255
  0
LWPOLYLINE
  5
C9
100
AcDbEntity
  8
silktop
  6
ByLayer
 62
    7
370
   -1
100
AcDbPolyline
 90
    3
 70
    0
 43
0
 10
12.34083639275324
 20
42.23434651948971
 10
12.34083639275324
 20
42.87340019927997
 10
12.25562923544787
 20
42.74558946332192
  0
LWPOLYLINE
  5
CA
100
AcDbEntity
  8
silktop
  6
ByLayer
 62
    7
370
   -1
100
AcDbPolyline
 90
    2
 70
    0
 43
0
 10
12.25562923544787
 20
42.23434651948971
 10
12.41184213353355
 20
42.23434651948971
  0
LWPOLYLINE
  5
CB
100
AcDbEntity
  8
silktop
  6
ByLayer
 62
    7
370
   -1
100
AcDbPolyline
 90
    3
 70
    0
 43
0
 10
12.7242686006274
 20
42.87340019927997
 10
12.89468291523813
 20
42.23434651948971
 10
13.06509722984887
 20
42.87340019927997
  0
LWPOLYLINE
  5
CC
100
AcDbEntity
  8
silktop
  6
ByLayer
 62
    7
370
   -1
100
AcDbPolyline
 90
   28
 70
    1
 43
0
 10
13.44852943772302
 20
42.23434651948971
 10
13.50533409743951
 20
42.24854793601476
 10
13.5479376760922
 20
42.27695009814238
 10
13.59054125474488
 20
42.33375509332014
 10
13.6047423358087
 20
42.40476083410044
 10
13.59054125474488
 20
42.47576691034199
 10
13.5479376760922
 20
42.54677298658356
 10
13.4911330163757
 20
42.57517514871118
 10
13.42012694013415
 20
42.57517514871118
 10
13.37752336148146
 20
42.58937656523624
 10
13.34912086389259
 20
42.64618122495273
 10
13.33491978282878
 20
42.71718730119429
 10
13.34912086389259
 20
42.80239445849966
 10
13.39172444254527
 20
42.84499803715234
 10
13.44852943772302
 20
42.87340019927997
 10
13.50533409743951
 20
42.84499803715234
 10
13.5479376760922
 20
42.80239445849966
 10
13.57634017368107
 20
42.71718730119429
 10
13.56213875715601
 20
42.64618122495273
 10
13.51953517850333
 20
42.58937656523624
 10
13.4911330163757
 20
42.57517514871118
 10
13.42012694013415
 20
42.57517514871118
 10
13.36332228041765
 20
42.54677298658356
 10
13.32071870176497
 20
42.47576691034199
 10
13.3065172852399
 20
42.40476083410044
 10
13.32071870176497
 20
42.33375509332014
 10
13.34912086389259
 20
42.27695009814238
 10
13.40592585907034
 20
42.24854793601476
  0
LWPOLYLINE
  5
CD
100
AcDbEntity
  8
silktop
  6
ByLayer
 62
    7
370
   -1
100
AcDbPolyline
 90
    2
 70
    0
 43
0
 10
13.90296738637748
 20
41.95032288544598
 10
15.9479391617063
 20
41.95032288544598
  0
LWPOLYLINE
  5
CE
100
AcDbEntity
  8
silktop
  6
ByLayer
 62
    7
370
   -1
100
AcDbPolyline
 90
    2
 70
    0
 43
0
 10
13.90296738637748
 20
44.23671471616585
 10
13.90296738637748
 20
41.95032288544598
  0
LWPOLYLINE
  5
CF
100
AcDbEntity
  8
silktop
  6
ByLayer
 62
    7
370
   -1
100
AcDbPolyline
 90
    3
 70
    0
 43
0
 10
11.87219702757372
 20
41.95032288544598
 10
11.87219702757372
 20
44.23671471616585
 10
13.90296738637748
 20
44.23671471616585
  0
LWPOLYLINE
  5
D0
100
AcDbEntity
  8
silktop
  6
ByLayer
 62
    7
370
   -1
100
AcDbPolyline
 90
    3
 70
    0
 43
0
 10
16.33137136958046
 20
43.35624098098454
 10
16.33137136958046
 20
43.98109324424974
 10
16.24616421227509
 20
43.85328250829169
  0
LWPOLYLINE
  5
D1
100
AcDbEntity
  8
silktop
  6
ByLayer
 62
    7
370
   -1
100
AcDbPolyline
 90
    2
 70
    0
 43
0
 10
16.24616421227509
 20
43.35624098098454
 10
16.41657852688582
 20
43.35624098098454
  0
LWPOLYLINE
  5
D2
100
AcDbEntity
  8
silktop
  6
ByLayer
 62
    7
370
   -1
100
AcDbPolyline
 90
   14
 70
    0
 43
0
 10
16.75740715610729
 20
43.88168500588056
 10
16.80001073475998
 20
43.93848966559706
 10
16.85681539447648
 20
43.98109324424974
 10
16.91362038965422
 20
43.98109324424974
 10
16.97042504937072
 20
43.96689216318593
 10
17.02722970908721
 20
43.91008750346943
 10
17.04143112561227
 20
43.85328250829169
 10
17.02722970908721
 20
43.78227676751138
 10
16.99882754695959
 20
43.73967318885869
 10
16.87101681100153
 20
43.62606353396446
 10
16.80001073475998
 20
43.5550574577229
 10
16.75740715610729
 20
43.44144813828991
 10
16.75740715610729
 20
43.35624098098454
 10
17.04143112561227
 20
43.35624098098454
  0
LWPOLYLINE
  5
D3
100
AcDbEntity
  8
silktop
  6
ByLayer
 62
    7
370
   -1
100
AcDbPolyline
 90
    3
 70
    0
 43
0
 10
17.28285118100331
 20
43.98109324424974
 10
17.45326549561405
 20
43.35624098098454
 10
17.62367981022479
 20
43.98109324424974
  0
LWPOLYLINE
  5
D4
100
AcDbEntity
  8
silktop
  6
ByLayer
 62
    7
370
   -1
100
AcDbPolyline
 90
   20
 70
    0
 43
0
 10
18.37634314490928
 20
43.66866711261715
 10
18.50415388086733
 20
43.66866711261715
 10
18.50415388086733
 20
43.4840517169426
 10
18.47575138327846
 20
43.41304564070104
 10
18.41894672356197
 20
43.37044206204836
 10
18.34794064732041
 20
43.35624098098454
 10
18.29113598760391
 20
43.37044206204836
 10
18.23433132788741
 20
43.41304564070104
 10
18.20592883029854
 20
43.4840517169426
 10
18.17752633270967
 20
43.5550574577229
 10
18.16332525164586
 20
43.64026461502828
 10
18.16332525164586
 20
43.71127069126982
 10
18.17752633270967
 20
43.78227676751138
 10
18.20592883029854
 20
43.85328250829169
 10
18.23433132788741
 20
43.91008750346943
 10
18.2769349065401
 20
43.95269108212212
 10
18.3337395662566
 20
43.98109324424974
 10
18.37634314490928
 20
43.98109324424974
 10
18.43314780462577
 20
43.96689216318593
 10
18.47575138327846
 20
43.92428858453325
  0
LWPOLYLINE
  5
D5
100
AcDbEntity
  8
silktop
  6
ByLayer
 62
    7
370
   -1
100
AcDbPolyline
 90
    4
 70
    0
 43
0
 10
18.73137285519456
 20
43.35624098098454
 10
18.73137285519456
 20
43.98109324424974
 10
19.04379932228841
 20
43.35624098098454
 10
19.04379932228841
 20
43.98109324424974
  0
LWPOLYLINE
  5
D6
100
AcDbEntity
  8
silktop
  6
ByLayer
 62
    7
370
   -1
100
AcDbPolyline
 90
   12
 70
    1
 43
0
 10
19.29942045874326
 20
43.35624098098454
 10
19.29942045874326
 20
43.98109324424974
 10
19.44143261122637
 20
43.98109324424974
 10
19.49823727094287
 20
43.95269108212212
 10
19.52663976853174
 20
43.91008750346943
 10
19.56924334718443
 20
43.85328250829169
 10
19.59764550931205
 20
43.78227676751138
 10
19.59764550931205
 20
43.56925887424797
 10
19.56924334718443
 20
43.4840517169426
 10
19.52663976853174
 20
43.42724672176485
 10
19.49823727094287
 20
43.38464314311217
 10
19.44143261122637
 20
43.35624098098454
  0
LWPOLYLINE
  5
D7
100
AcDbEntity
  8
silktop
  6
ByLayer
 62
    7
370
   -1
100
AcDbPolyline
 90
    2
 70
    0
 43
0
 10
18.24853240895123
 20
42.87340019927997
 10
18.41894672356197
 20
42.87340019927997
  0
LWPOLYLINE
  5
D8
100
AcDbEntity
  8
silktop
  6
ByLayer
 62
    7
370
   -1
100
AcDbPolyline
 90
    2
 70
    0
 43
0
 10
18.3337395662566
 20
42.87340019927997
 10
18.3337395662566
 20
42.23434651948971
  0
LWPOLYLINE
  5
D9
100
AcDbEntity
  8
silktop
  6
ByLayer
 62
    7
370
   -1
100
AcDbPolyline
 90
    2
 70
    0
 43
0
 10
18.24853240895123
 20
42.23434651948971
 10
18.41894672356197
 20
42.23434651948971
  0
LWPOLYLINE
  5
DA
100
AcDbEntity
  8
silktop
  6
ByLayer
 62
    7
370
   -1
100
AcDbPolyline
 90
   20
 70
    1
 43
0
 10
18.88758608874148
 20
42.23434651948971
 10
18.8449825100888
 20
42.24854793601476
 10
18.78817785037231
 20
42.29115151466745
 10
18.74557427171962
 20
42.34795617438394
 10
18.71717177413075
 20
42.4189622506255
 10
18.71717177413075
 20
42.67458372254161
 10
18.74557427171962
 20
42.75979087984697
 10
18.78817785037231
 20
42.81659553956347
 10
18.8449825100888
 20
42.85919911821615
 10
18.88758608874148
 20
42.87340019927997
 10
18.94439074845798
 20
42.85919911821615
 10
19.00119574363572
 20
42.81659553956347
 10
19.02959790576335
 20
42.75979087984697
 10
19.05800040335222
 20
42.67458372254161
 10
19.07220148441603
 20
42.58937656523624
 10
19.07220148441603
 20
42.50416940793087
 10
19.05800040335222
 20
42.4189622506255
 10
19.02959790576335
 20
42.34795617438394
 10
19.00119574363572
 20
42.29115151466745
 10
18.94439074845798
 20
42.24854793601476
  0
LWPOLYLINE
  5
DB
100
AcDbEntity
  8
silktop
  6
ByLayer
 62
    7
370
   -1
100
AcDbPolyline
 90
   16
 70
    0
 43
0
 10
19.29942045874326
 20
42.33375509332014
 10
19.34202403739595
 20
42.27695009814238
 10
19.38462761604863
 20
42.24854793601476
 10
19.45563369229019
 20
42.23434651948971
 10
19.51243835200668
 20
42.26274901707858
 10
19.55504193065936
 20
42.29115151466745
 10
19.59764550931205
 20
42.37635867197281
 10
19.59764550931205
 20
42.46156582927819
 10
19.58344442824824
 20
42.54677298658356
 10
19.55504193065936
 20
42.58937656523624
 10
19.51243835200668
 20
42.63198014388892
 10
19.45563369229019
 20
42.64618122495273
 10
19.4130301136375
 20
42.63198014388892
 10
19.35622545392101
 20
42.58937656523624
 10
19.37042653498482
 20
42.87340019927997
 10
19.55504193065936
 20
42.87340019927997
  0
LWPOLYLINE
  5
DC
100
AcDbEntity
  8
silktop
  6
ByLayer
 62
    7
370
   -1
100
AcDbPolyline
 90
   20
 70
    0
 43
0
 10
16.37397494823314
 20
42.54677298658356
 10
16.515986765255
 20
42.54677298658356
 10
16.515986765255
 20
42.36215725544776
 10
16.47338318660232
 20
42.29115151466745
 10
16.41657852688582
 20
42.26274901707858
 10
16.35977386716933
 20
42.23434651948971
 10
16.28876779092777
 20
42.26274901707858
 10
16.24616421227509
 20
42.29115151466745
 10
16.20356063362241
 20
42.36215725544776
 10
16.17515813603353
 20
42.43316333168931
 10
16.16095705496972
 20
42.51837048899468
 10
16.16095705496972
 20
42.58937656523624
 10
16.17515813603353
 20
42.66038230601654
 10
16.20356063362241
 20
42.7313883822581
 10
16.24616421227509
 20
42.80239445849966
 10
16.27456670986396
 20
42.83079662062728
 10
16.33137136958046
 20
42.87340019927997
 10
16.38817602929695
 20
42.87340019927997
 10
16.43077960794963
 20
42.84499803715234
 10
16.47338318660232
 20
42.80239445849966
  0
LWPOLYLINE
  5
DD
100
AcDbEntity
  8
silktop
  6
ByLayer
 62
    7
370
   -1
100
AcDbPolyline
 90
    4
 70
    0
 43
0
 10
16.74320607504348
 20
42.23434651948971
 10
16.74320607504348
 20
42.87340019927997
 10
17.05563220667608
 20
42.23434651948971
 10
17.05563220667608
 20
42.87340019927997
  0
LWPOLYLINE
  5
DE
100
AcDbEntity
  8
silktop
  6
ByLayer
 62
    7
370
   -1
100
AcDbPolyline
 90
   12
 70
    1
 43
0
 10
17.29705259752837
 20
42.23434651948971
 10
17.29705259752837
 20
42.87340019927997
 10
17.43906441455023
 20
42.87340019927997
 10
17.49586907426673
 20
42.83079662062728
 10
17.53847265291942
 20
42.80239445849966
 10
17.56687515050829
 20
42.7313883822581
 10
17.59527764809716
 20
42.66038230601654
 10
17.59527764809716
 20
42.44736441275312
 10
17.56687515050829
 20
42.37635867197281
 10
17.53847265291942
 20
42.30535259573126
 10
17.49586907426673
 20
42.26274901707858
 10
17.43906441455023
 20
42.23434651948971
  0
LWPOLYLINE
  5
DF
100
AcDbEntity
  8
silktop
  6
ByLayer
 62
    7
370
   -1
100
AcDbPolyline
 90
    2
 70
    0
 43
0
 10
17.85089912001326
 20
41.95032288544598
 10
19.88166947881702
 20
41.95032288544598
  0
LWPOLYLINE
  5
E0
100
AcDbEntity
  8
silktop
  6
ByLayer
 62
    7
370
   -1
100
AcDbPolyline
 90
    2
 70
    0
 43
0
 10
17.85089912001326
 20
44.23671471616585
 10
17.85089912001326
 20
41.95032288544598
  0
LWPOLYLINE
  5
E1
100
AcDbEntity
  8
silktop
  6
ByLayer
 62
    7
370
   -1
100
AcDbPolyline
 90
    3
 70
    0
 43
0
 10
15.9479391617063
 20
41.95032288544598
 10
15.9479391617063
 20
44.23671471616585
 10
17.85089912001326
 20
44.23671471616585
  0
LWPOLYLINE
  5
E2
100
AcDbEntity
  8
silktop
  6
ByLayer
 62
    7
370
   -1
100
AcDbPolyline
 90
    2
 70
    0
 43
0
 10
20.25090060562737
 20
43.98109324424974
 10
20.4213149202381
 20
43.98109324424974
  0
LWPOLYLINE
  5
E3
100
AcDbEntity
  8
silktop
  6
ByLayer
 62
    7
370
   -1
100
AcDbPolyline
 90
    2
 70
    0
 43
0
 10
20.33610776293274
 20
43.98109324424974
 10
20.33610776293274
 20
43.35624098098454
  0
LWPOLYLINE
  5
E4
100
AcDbEntity
  8
silktop
  6
ByLayer
 62
    7
370
   -1
100
AcDbPolyline
 90
    2
 70
    0
 43
0
 10
20.25090060562737
 20
43.35624098098454
 10
20.4213149202381
 20
43.35624098098454
  0
LWPOLYLINE
  5
E5
100
AcDbEntity
  8
silktop
  6
ByLayer
 62
    7
370
   -1
100
AcDbPolyline
 90
   21
 70
    1
 43
0
 10
20.88995428541763
 20
43.35624098098454
 10
20.83314929023988
 20
43.35624098098454
 10
20.7905457115872
 20
43.39884455963723
 10
20.74794213293451
 20
43.46985030041754
 10
20.71953997080689
 20
43.5408563766591
 10
20.70533855428183
 20
43.62606353396446
 10
20.70533855428183
 20
43.71127069126982
 10
20.71953997080689
 20
43.7964778485752
 10
20.74794213293451
 20
43.86748392481674
 10
20.7905457115872
 20
43.93848966559706
 10
20.83314929023988
 20
43.98109324424974
 10
20.94675894513412
 20
43.98109324424974
 10
20.9893625237868
 20
43.93848966559706
 10
21.03196610243949
 20
43.86748392481674
 10
21.06036860002836
 20
43.7964778485752
 10
21.07456968109217
 20
43.71127069126982
 10
21.07456968109217
 20
43.62606353396446
 10
21.06036860002836
 20
43.5408563766591
 10
21.03196610243949
 20
43.46985030041754
 10
20.9893625237868
 20
43.39884455963723
 10
20.94675894513412
 20
43.35624098098454
  0
LWPOLYLINE
  5
E6
100
AcDbEntity
  8
silktop
  6
ByLayer
 62
    7
370
   -1
100
AcDbPolyline
 90
    7
 70
    0
 43
0
 10
21.44380080790251
 20
43.35624098098454
 10
21.45800188896632
 20
43.4840517169426
 10
21.47220297003013
 20
43.61186245290065
 10
21.50060546761901
 20
43.71127069126982
 10
21.52900796520788
 20
43.82488034616407
 10
21.58581262492438
 20
43.98109324424974
 10
21.31599007194446
 20
43.98109324424974
  0
LWPOLYLINE
  5
E7
100
AcDbEntity
  8
silktop
  6
ByLayer
 62
    7
370
   -1
100
AcDbPolyline
 90
    2
 70
    0
 43
0
 10
22.2532688023035
 20
43.98109324424974
 10
22.40948170038916
 20
43.98109324424974
  0
LWPOLYLINE
  5
E8
100
AcDbEntity
  8
silktop
  6
ByLayer
 62
    7
370
   -1
100
AcDbPolyline
 90
    2
 70
    0
 43
0
 10
22.33847595960886
 20
43.98109324424974
 10
22.33847595960886
 20
43.35624098098454
  0
LWPOLYLINE
  5
E9
100
AcDbEntity
  8
silktop
  6
ByLayer
 62
    7
370
   -1
100
AcDbPolyline
 90
    2
 70
    0
 43
0
 10
22.2532688023035
 20
43.35624098098454
 10
22.40948170038916
 20
43.35624098098454
  0
LWPOLYLINE
  5
EA
100
AcDbEntity
  8
silktop
  6
ByLayer
 62
    7
370
   -1
100
AcDbPolyline
 90
   21
 70
    1
 43
0
 10
22.89232248209376
 20
43.35624098098454
 10
22.83551748691602
 20
43.35624098098454
 10
22.79291390826333
 20
43.39884455963723
 10
22.75031032961065
 20
43.46985030041754
 10
22.72190816748302
 20
43.5408563766591
 10
22.70770675095797
 20
43.62606353396446
 10
22.70770675095797
 20
43.71127069126982
 10
22.72190816748302
 20
43.7964778485752
 10
22.75031032961065
 20
43.86748392481674
 10
22.79291390826333
 20
43.93848966559706
 10
22.83551748691602
 20
43.98109324424974
 10
22.94912714181026
 20
43.98109324424974
 10
22.99173072046294
 20
43.93848966559706
 10
23.03433429911562
 20
43.86748392481674
 10
23.0627367967045
 20
43.7964778485752
 10
23.07693787776831
 20
43.71127069126982
 10
23.07693787776831
 20
43.62606353396446
 10
23.0627367967045
 20
43.5408563766591
 10
23.03433429911562
 20
43.46985030041754
 10
22.99173072046294
 20
43.39884455963723
 10
22.94912714181026
 20
43.35624098098454
  0
LWPOLYLINE
  5
EB
100
AcDbEntity
  8
silktop
  6
ByLayer
 62
    7
370
   -1
100
AcDbPolyline
 90
   23
 70
    0
 43
0
 10
23.33255934968441
 20
43.42724672176485
 10
23.38936400940091
 20
43.37044206204836
 10
23.43196758805359
 20
43.35624098098454
 10
23.48877258323133
 20
43.37044206204836
 10
23.54557724294783
 20
43.44144813828991
 10
23.5739797405367
 20
43.52665529559528
 10
23.58818082160052
 20
43.62606353396446
 10
23.58818082160052
 20
43.73967318885869
 10
23.5739797405367
 20
43.83908142722787
 10
23.54557724294783
 20
43.92428858453325
 10
23.50297366429515
 20
43.96689216318593
 10
23.44616900457865
 20
43.98109324424974
 10
23.40356542592595
 20
43.96689216318593
 10
23.36096184727328
 20
43.92428858453325
 10
23.33255934968441
 20
43.85328250829169
 10
23.3183582686206
 20
43.78227676751138
 10
23.33255934968441
 20
43.69706961020602
 10
23.36096184727328
 20
43.62606353396446
 10
23.40356542592595
 20
43.58345995531177
 10
23.44616900457865
 20
43.56925887424797
 10
23.50297366429515
 20
43.59766103637559
 10
23.54557724294783
 20
43.65446603155333
 10
23.58818082160052
 20
43.73967318885869
  0
LWPOLYLINE
  5
EC
100
AcDbEntity
  8
silktop
  6
ByLayer
 62
    7
370
   -1
100
AcDbPolyline
 90
    2
 70
    0
 43
0
 10
22.2532688023035
 20
42.87340019927997
 10
22.40948170038916
 20
42.87340019927997
  0
LWPOLYLINE
  5
ED
100
AcDbEntity
  8
silktop
  6
ByLayer
 62
    7
370
   -1
100
AcDbPolyline
 90
    2
 70
    0
 43
0
 10
22.33847595960886
 20
42.87340019927997
 10
22.33847595960886
 20
42.23434651948971
  0
LWPOLYLINE
  5
EE
100
AcDbEntity
  8
silktop
  6
ByLayer
 62
    7
370
   -1
100
AcDbPolyline
 90
    2
 70
    0
 43
0
 10
22.2532688023035
 20
42.23434651948971
 10
22.40948170038916
 20
42.23434651948971
  0
LWPOLYLINE
  5
EF
100
AcDbEntity
  8
silktop
  6
ByLayer
 62
    7
370
   -1
100
AcDbPolyline
 90
   22
 70
    1
 43
0
 10
22.89232248209376
 20
42.23434651948971
 10
22.83551748691602
 20
42.24854793601476
 10
22.79291390826333
 20
42.29115151466745
 10
22.75031032961065
 20
42.34795617438394
 10
22.72190816748302
 20
42.4189622506255
 10
22.70770675095797
 20
42.50416940793087
 10
22.70770675095797
 20
42.58937656523624
 10
22.72190816748302
 20
42.67458372254161
 10
22.75031032961065
 20
42.75979087984697
 10
22.79291390826333
 20
42.81659553956347
 10
22.83551748691602
 20
42.85919911821615
 10
22.89232248209376
 20
42.87340019927997
 10
22.94912714181026
 20
42.85919911821615
 10
22.99173072046294
 20
42.81659553956347
 10
23.03433429911562
 20
42.75979087984697
 10
23.0627367967045
 20
42.67458372254161
 10
23.07693787776831
 20
42.58937656523624
 10
23.07693787776831
 20
42.50416940793087
 10
23.0627367967045
 20
42.4189622506255
 10
23.03433429911562
 20
42.34795617438394
 10
22.99173072046294
 20
42.29115151466745
 10
22.94912714181026
 20
42.24854793601476
  0
LWPOLYLINE
  5
F0
100
AcDbEntity
  8
silktop
  6
ByLayer
 62
    7
370
   -1
100
AcDbPolyline
 90
   28
 70
    1
 43
0
 10
23.44616900457865
 20
42.23434651948971
 10
23.50297366429515
 20
42.24854793601476
 10
23.55977832401164
 20
42.27695009814238
 10
23.58818082160052
 20
42.33375509332014
 10
23.60238190266433
 20
42.40476083410044
 10
23.58818082160052
 20
42.47576691034199
 10
23.54557724294783
 20
42.54677298658356
 10
23.48877258323133
 20
42.57517514871118
 10
23.41776650698978
 20
42.57517514871118
 10
23.37516292833709
 20
42.58937656523624
 10
23.34676043074822
 20
42.64618122495273
 10
23.33255934968441
 20
42.71718730119429
 10
23.34676043074822
 20
42.80239445849966
 10
23.40356542592595
 20
42.84499803715234
 10
23.44616900457865
 20
42.87340019927997
 10
23.50297366429515
 20
42.84499803715234
 10
23.55977832401164
 20
42.80239445849966
 10
23.5739797405367
 20
42.71718730119429
 10
23.55977832401164
 20
42.64618122495273
 10
23.531376161884
 20
42.58937656523624
 10
23.48877258323133
 20
42.57517514871118
 10
23.41776650698978
 20
42.57517514871118
 10
23.36096184727328
 20
42.54677298658356
 10
23.3183582686206
 20
42.47576691034199
 10
23.30415685209554
 20
42.40476083410044
 10
23.3183582686206
 20
42.33375509332014
 10
23.34676043074822
 20
42.27695009814238
 10
23.40356542592595
 20
42.24854793601476
  0
LWPOLYLINE
  5
F1
100
AcDbEntity
  8
silktop
  6
ByLayer
 62
    7
370
   -1
100
AcDbPolyline
 90
    2
 70
    0
 43
0
 10
20.25090060562737
 20
42.87340019927997
 10
20.4213149202381
 20
42.87340019927997
  0
LWPOLYLINE
  5
F2
100
AcDbEntity
  8
silktop
  6
ByLayer
 62
    7
370
   -1
100
AcDbPolyline
 90
    2
 70
    0
 43
0
 10
20.33610776293274
 20
42.87340019927997
 10
20.33610776293274
 20
42.23434651948971
  0
LWPOLYLINE
  5
F3
100
AcDbEntity
  8
silktop
  6
ByLayer
 62
    7
370
   -1
100
AcDbPolyline
 90
    2
 70
    0
 43
0
 10
20.25090060562737
 20
42.23434651948971
 10
20.4213149202381
 20
42.23434651948971
  0
LWPOLYLINE
  5
F4
100
AcDbEntity
  8
silktop
  6
ByLayer
 62
    7
370
   -1
100
AcDbPolyline
 90
   22
 70
    1
 43
0
 10
20.88995428541763
 20
42.23434651948971
 10
20.83314929023988
 20
42.24854793601476
 10
20.7905457115872
 20
42.29115151466745
 10
20.74794213293451
 20
42.34795617438394
 10
20.71953997080689
 20
42.4189622506255
 10
20.70533855428183
 20
42.50416940793087
 10
20.70533855428183
 20
42.58937656523624
 10
20.71953997080689
 20
42.67458372254161
 10
20.74794213293451
 20
42.75979087984697
 10
20.7905457115872
 20
42.81659553956347
 10
20.83314929023988
 20
42.85919911821615
 10
20.88995428541763
 20
42.87340019927997
 10
20.94675894513412
 20
42.85919911821615
 10
20.9893625237868
 20
42.81659553956347
 10
21.03196610243949
 20
42.75979087984697
 10
21.06036860002836
 20
42.67458372254161
 10
21.07456968109217
 20
42.58937656523624
 10
21.07456968109217
 20
42.50416940793087
 10
21.06036860002836
 20
42.4189622506255
 10
21.03196610243949
 20
42.34795617438394
 10
20.9893625237868
 20
42.29115151466745
 10
20.94675894513412
 20
42.24854793601476
  0
LWPOLYLINE
  5
F5
100
AcDbEntity
  8
silktop
  6
ByLayer
 62
    7
370
   -1
100
AcDbPolyline
 90
   22
 70
    0
 43
0
 10
21.33019115300827
 20
42.50416940793087
 10
21.37279473166096
 20
42.57517514871118
 10
21.41539831031364
 20
42.61777872736386
 10
21.47220297003013
 20
42.63198014388892
 10
21.51480654868282
 20
42.61777872736386
 10
21.54320904627169
 20
42.57517514871118
 10
21.57161154386057
 20
42.50416940793087
 10
21.58581262492438
 20
42.43316333168931
 10
21.57161154386057
 20
42.37635867197281
 10
21.54320904627169
 20
42.30535259573126
 10
21.50060546761901
 20
42.26274901707858
 10
21.45800188896632
 20
42.23434651948971
 10
21.40119722924983
 20
42.26274901707858
 10
21.35859365059714
 20
42.31955367679507
 10
21.33019115300827
 20
42.4189622506255
 10
21.33019115300827
 20
42.66038230601654
 10
21.35859365059714
 20
42.7313883822581
 10
21.38699581272477
 20
42.80239445849966
 10
21.44380080790251
 20
42.85919911821615
 10
21.4864043865552
 20
42.87340019927997
 10
21.52900796520788
 20
42.84499803715234
 10
21.57161154386057
 20
42.80239445849966
  0
LWPOLYLINE
  5
F6
100
AcDbEntity
  8
silktop
  6
ByLayer
 62
    7
370
   -1
100
AcDbPolyline
 90
    2
 70
    0
 43
0
 10
21.91244017308204
 20
41.95032288544598
 10
23.94321053188579
 20
41.95032288544598
  0
LWPOLYLINE
  5
F7
100
AcDbEntity
  8
silktop
  6
ByLayer
 62
    7
370
   -1
100
AcDbPolyline
 90
    2
 70
    0
 43
0
 10
21.91244017308204
 20
44.23671471616585
 10
21.91244017308204
 20
41.95032288544598
  0
LWPOLYLINE
  5
F8
100
AcDbEntity
  8
silktop
  6
ByLayer
 62
    7
370
   -1
100
AcDbPolyline
 90
    3
 70
    0
 43
0
 10
19.88166947881702
 20
41.95032288544598
 10
19.88166947881702
 20
44.23671471616585
 10
21.91244017308204
 20
44.23671471616585
  0
LWPOLYLINE
  5
F9
100
AcDbEntity
  8
silktop
  6
ByLayer
 62
    7
370
   -1
100
AcDbPolyline
 90
    2
 70
    0
 43
0
 10
24.25563666351839
 20
43.98109324424974
 10
24.41184989706532
 20
43.98109324424974
  0
LWPOLYLINE
  5
FA
100
AcDbEntity
  8
silktop
  6
ByLayer
 62
    7
370
   -1
100
AcDbPolyline
 90
    2
 70
    0
 43
0
 10
24.34084382082376
 20
43.98109324424974
 10
24.34084382082376
 20
43.35624098098454
  0
LWPOLYLINE
  5
FB
100
AcDbEntity
  8
silktop
  6
ByLayer
 62
    7
370
   -1
100
AcDbPolyline
 90
    2
 70
    0
 43
0
 10
24.25563666351839
 20
43.35624098098454
 10
24.41184989706532
 20
43.35624098098454
  0
LWPOLYLINE
  5
FC
100
AcDbEntity
  8
silktop
  6
ByLayer
 62
    7
370
   -1
100
AcDbPolyline
 90
   21
 70
    1
 43
0
 10
24.89469034330865
 20
43.35624098098454
 10
24.83788568359216
 20
43.35624098098454
 10
24.79528210493947
 20
43.39884455963723
 10
24.75267852628679
 20
43.46985030041754
 10
24.72427602869791
 20
43.5408563766591
 10
24.7100749476341
 20
43.62606353396446
 10
24.7100749476341
 20
43.71127069126982
 10
24.72427602869791
 20
43.7964778485752
 10
24.75267852628679
 20
43.86748392481674
 10
24.79528210493947
 20
43.93848966559706
 10
24.83788568359216
 20
43.98109324424974
 10
24.9514953384864
 20
43.98109324424974
 10
24.99409891713908
 20
43.93848966559706
 10
25.03670249579176
 20
43.86748392481674
 10
25.06510465791938
 20
43.7964778485752
 10
25.07930607444445
 20
43.71127069126982
 10
25.07930607444445
 20
43.62606353396446
 10
25.06510465791938
 20
43.5408563766591
 10
25.03670249579176
 20
43.46985030041754
 10
24.99409891713908
 20
43.39884455963723
 10
24.9514953384864
 20
43.35624098098454
  0
LWPOLYLINE
  5
FD
100
AcDbEntity
  8
silktop
  6
ByLayer
 62
    7
370
   -1
100
AcDbPolyline
 90
   17
 70
    0
 43
0
 10
25.50534186097128
 20
43.69706961020602
 10
25.5337440230989
 20
43.72547177233364
 10
25.54794543962397
 20
43.78227676751138
 10
25.56214652068778
 20
43.85328250829169
 10
25.54794543962397
 20
43.91008750346943
 10
25.5337440230989
 20
43.95269108212212
 10
25.47693936338241
 20
43.98109324424974
 10
25.29232396770787
 20
43.98109324424974
 10
25.29232396770787
 20
43.35624098098454
 10
25.51954294203509
 20
43.35624098098454
 10
25.56214652068778
 20
43.39884455963723
 10
25.59054901827665
 20
43.45564921935372
 10
25.60475009934046
 20
43.52665529559528
 10
25.59054901827665
 20
43.61186245290065
 10
25.54794543962397
 20
43.66866711261715
 10
25.50534186097128
 20
43.69706961020602
 10
25.29232396770787
 20
43.69706961020602
  0
LWPOLYLINE
  5
FE
100
AcDbEntity
  8
silktop
  6
ByLayer
 62
    7
370
   -1
100
AcDbPolyline
 90
    2
 70
    0
 43
0
 10
26.25800486019453
 20
43.98109324424974
 10
26.41421809374146
 20
43.98109324424974
  0
LWPOLYLINE
  5
FF
100
AcDbEntity
  8
silktop
  6
ByLayer
 62
    7
370
   -1
100
AcDbPolyline
 90
    2
 70
    0
 43
0
 10
26.32901093643608
 20
43.98109324424974
 10
26.32901093643608
 20
43.35624098098454
  0
LWPOLYLINE
  5
100
100
AcDbEntity
  8
silktop
  6
ByLayer
 62
    7
370
   -1
100
AcDbPolyline
 90
    2
 70
    0
 43
0
 10
26.25800486019453
 20
43.35624098098454
 10
26.41421809374146
 20
43.35624098098454
  0
LWPOLYLINE
  5
101
100
AcDbEntity
  8
silktop
  6
ByLayer
 62
    7
370
   -1
100
AcDbPolyline
 90
   21
 70
    1
 43
0
 10
26.89705853998479
 20
43.35624098098454
 10
26.84025388026829
 20
43.35624098098454
 10
26.7976503016156
 20
43.39884455963723
 10
26.75504672296293
 20
43.46985030041754
 10
26.72664422537405
 20
43.5408563766591
 10
26.71244314431025
 20
43.62606353396446
 10
26.71244314431025
 20
43.71127069126982
 10
26.72664422537405
 20
43.7964778485752
 10
26.75504672296293
 20
43.86748392481674
 10
26.7976503016156
 20
43.93848966559706
 10
26.84025388026829
 20
43.98109324424974
 10
26.95386353516253
 20
43.98109324424974
 10
26.99646711381521
 20
43.93848966559706
 10
27.0390706924679
 20
43.86748392481674
 10
27.06747285459551
 20
43.7964778485752
 10
27.08167427112059
 20
43.71127069126982
 10
27.08167427112059
 20
43.62606353396446
 10
27.06747285459551
 20
43.5408563766591
 10
27.0390706924679
 20
43.46985030041754
 10
26.99646711381521
 20
43.39884455963723
 10
26.95386353516253
 20
43.35624098098454
  0
LWPOLYLINE
  5
102
100
AcDbEntity
  8
silktop
  6
ByLayer
 62
    7
370
   -1
100
AcDbPolyline
 90
   13
 70
    1
 43
0
 10
27.30889324544782
 20
43.35624098098454
 10
27.30889324544782
 20
43.98109324424974
 10
27.43670398140587
 20
43.98109324424974
 10
27.49350864112236
 20
43.95269108212212
 10
27.53611221977503
 20
43.91008750346943
 10
27.56451471736392
 20
43.85328250829169
 10
27.59291721495278
 20
43.78227676751138
 10
27.60711829601659
 20
43.66866711261715
 10
27.59291721495278
 20
43.56925887424797
 10
27.56451471736392
 20
43.4840517169426
 10
27.53611221977503
 20
43.42724672176485
 10
27.49350864112236
 20
43.38464314311217
 10
27.43670398140587
 20
43.35624098098454
  0
LWPOLYLINE
  5
103
100
AcDbEntity
  8
silktop
  6
ByLayer
 62
    7
370
   -1
100
AcDbPolyline
 90
    2
 70
    0
 43
0
 10
26.25800486019453
 20
42.87340019927997
 10
26.41421809374146
 20
42.87340019927997
  0
LWPOLYLINE
  5
104
100
AcDbEntity
  8
silktop
  6
ByLayer
 62
    7
370
   -1
100
AcDbPolyline
 90
    2
 70
    0
 43
0
 10
26.32901093643608
 20
42.87340019927997
 10
26.32901093643608
 20
42.23434651948971
  0
LWPOLYLINE
  5
105
100
AcDbEntity
  8
silktop
  6
ByLayer
 62
    7
370
   -1
100
AcDbPolyline
 90
    2
 70
    0
 43
0
 10
26.25800486019453
 20
42.23434651948971
 10
26.41421809374146
 20
42.23434651948971
  0
LWPOLYLINE
  5
106
100
AcDbEntity
  8
silktop
  6
ByLayer
 62
    7
370
   -1
100
AcDbPolyline
 90
   22
 70
    1
 43
0
 10
26.89705853998479
 20
42.23434651948971
 10
26.84025388026829
 20
42.24854793601476
 10
26.7976503016156
 20
42.29115151466745
 10
26.75504672296293
 20
42.34795617438394
 10
26.72664422537405
 20
42.4189622506255
 10
26.71244314431025
 20
42.50416940793087
 10
26.71244314431025
 20
42.58937656523624
 10
26.72664422537405
 20
42.67458372254161
 10
26.75504672296293
 20
42.75979087984697
 10
26.7976503016156
 20
42.81659553956347
 10
26.84025388026829
 20
42.85919911821615
 10
26.89705853998479
 20
42.87340019927997
 10
26.95386353516253
 20
42.85919911821615
 10
26.99646711381521
 20
42.81659553956347
 10
27.0390706924679
 20
42.75979087984697
 10
27.06747285459551
 20
42.67458372254161
 10
27.08167427112059
 20
42.58937656523624
 10
27.08167427112059
 20
42.50416940793087
 10
27.06747285459551
 20
42.4189622506255
 10
27.0390706924679
 20
42.34795617438394
 10
26.99646711381521
 20
42.29115151466745
 10
26.95386353516253
 20
42.24854793601476
  0
LWPOLYLINE
  5
107
100
AcDbEntity
  8
silktop
  6
ByLayer
 62
    7
370
   -1
100
AcDbPolyline
 90
   18
 70
    0
 43
0
 10
27.60711829601659
 20
42.81659553956347
 10
27.56451471736392
 20
42.84499803715234
 10
27.50771005764742
 20
42.87340019927997
 10
27.46510647899473
 20
42.87340019927997
 10
27.39410040275317
 20
42.83079662062728
 10
27.3514968241005
 20
42.78819304197459
 10
27.32309432651163
 20
42.71718730119429
 10
27.29469216438401
 20
42.61777872736386
 10
27.28049074785893
 20
42.51837048899468
 10
27.29469216438401
 20
42.4189622506255
 10
27.32309432651163
 20
42.36215725544776
 10
27.3514968241005
 20
42.29115151466745
 10
27.40830148381698
 20
42.26274901707858
 10
27.45090506246968
 20
42.23434651948971
 10
27.49350864112236
 20
42.23434651948971
 10
27.55031363630011
 20
42.26274901707858
 10
27.59291721495278
 20
42.29115151466745
 10
27.6213193770804
 20
42.33375509332014
  0
LWPOLYLINE
  5
108
100
AcDbEntity
  8
silktop
  6
ByLayer
 62
    7
370
   -1
100
AcDbPolyline
 90
    2
 70
    0
 43
0
 10
24.25563666351839
 20
42.87340019927997
 10
24.41184989706532
 20
42.87340019927997
  0
LWPOLYLINE
  5
109
100
AcDbEntity
  8
silktop
  6
ByLayer
 62
    7
370
   -1
100
AcDbPolyline
 90
    2
 70
    0
 43
0
 10
24.34084382082376
 20
42.87340019927997
 10
24.34084382082376
 20
42.23434651948971
  0
LWPOLYLINE
  5
10A
100
AcDbEntity
  8
silktop
  6
ByLayer
 62
    7
370
   -1
100
AcDbPolyline
 90
    2
 70
    0
 43
0
 10
24.25563666351839
 20
42.23434651948971
 10
24.41184989706532
 20
42.23434651948971
  0
LWPOLYLINE
  5
10B
100
AcDbEntity
  8
silktop
  6
ByLayer
 62
    7
370
   -1
100
AcDbPolyline
 90
   22
 70
    1
 43
0
 10
24.89469034330865
 20
42.23434651948971
 10
24.83788568359216
 20
42.24854793601476
 10
24.79528210493947
 20
42.29115151466745
 10
24.75267852628679
 20
42.34795617438394
 10
24.72427602869791
 20
42.4189622506255
 10
24.7100749476341
 20
42.50416940793087
 10
24.7100749476341
 20
42.58937656523624
 10
24.72427602869791
 20
42.67458372254161
 10
24.75267852628679
 20
42.75979087984697
 10
24.79528210493947
 20
42.81659553956347
 10
24.83788568359216
 20
42.85919911821615
 10
24.89469034330865
 20
42.87340019927997
 10
24.9514953384864
 20
42.85919911821615
 10
24.99409891713908
 20
42.81659553956347
 10
25.03670249579176
 20
42.75979087984697
 10
25.06510465791938
 20
42.67458372254161
 10
25.07930607444445
 20
42.58937656523624
 10
25.07930607444445
 20
42.50416940793087
 10
25.06510465791938
 20
42.4189622506255
 10
25.03670249579176
 20
42.34795617438394
 10
24.99409891713908
 20
42.29115151466745
 10
24.9514953384864
 20
42.24854793601476
  0
LWPOLYLINE
  5
10C
100
AcDbEntity
  8
silktop
  6
ByLayer
 62
    7
370
   -1
100
AcDbPolyline
 90
    3
 70
    0
 43
0
 10
25.2781225511828
 20
42.23434651948971
 10
25.44853686579354
 20
42.87340019927997
 10
25.61895118040427
 20
42.23434651948971
  0
LWPOLYLINE
  5
10D
100
AcDbEntity
  8
silktop
  6
ByLayer
 62
    7
370
   -1
100
AcDbPolyline
 90
    2
 70
    0
 43
0
 10
25.56214652068778
 20
42.46156582927819
 10
25.34912862742436
 20
42.46156582927819
  0
LWPOLYLINE
  5
10E
100
AcDbEntity
  8
silktop
  6
ByLayer
 62
    7
370
   -1
100
AcDbPolyline
 90
    2
 70
    0
 43
0
 10
25.84617049019275
 20
41.95032288544598
 10
27.8769408489965
 20
41.95032288544598
  0
LWPOLYLINE
  5
10F
100
AcDbEntity
  8
silktop
  6
ByLayer
 62
    7
370
   -1
100
AcDbPolyline
 90
    2
 70
    0
 43
0
 10
25.84617049019275
 20
44.23671471616585
 10
25.84617049019275
 20
41.95032288544598
  0
LWPOLYLINE
  5
110
100
AcDbEntity
  8
silktop
  6
ByLayer
 62
    7
370
   -1
100
AcDbPolyline
 90
    3
 70
    0
 43
0
 10
23.94321053188579
 20
41.95032288544598
 10
23.94321053188579
 20
44.23671471616585
 10
25.84617049019275
 20
44.23671471616585
  0
LWPOLYLINE
  5
111
100
AcDbEntity
  8
silktop
  6
ByLayer
 62
    7
370
   -1
100
AcDbPolyline
 90
    2
 70
    0
 43
0
 10
28.26037305687067
 20
43.98109324424974
 10
28.41658629041758
 20
43.98109324424974
  0
LWPOLYLINE
  5
112
100
AcDbEntity
  8
silktop
  6
ByLayer
 62
    7
370
   -1
100
AcDbPolyline
 90
    2
 70
    0
 43
0
 10
28.33137913311221
 20
43.98109324424974
 10
28.33137913311221
 20
43.35624098098454
  0
LWPOLYLINE
  5
113
100
AcDbEntity
  8
silktop
  6
ByLayer
 62
    7
370
   -1
100
AcDbPolyline
 90
    2
 70
    0
 43
0
 10
28.26037305687067
 20
43.35624098098454
 10
28.41658629041758
 20
43.35624098098454
  0
LWPOLYLINE
  5
114
100
AcDbEntity
  8
silktop
  6
ByLayer
 62
    7
370
   -1
100
AcDbPolyline
 90
   21
 70
    1
 43
0
 10
28.89942673666092
 20
43.35624098098454
 10
28.84262207694443
 20
43.35624098098454
 10
28.78581708176668
 20
43.39884455963723
 10
28.75741491963906
 20
43.46985030041754
 10
28.72901242205019
 20
43.5408563766591
 10
28.71481134098638
 20
43.62606353396446
 10
28.71481134098638
 20
43.71127069126982
 10
28.72901242205019
 20
43.7964778485752
 10
28.75741491963906
 20
43.86748392481674
 10
28.78581708176668
 20
43.93848966559706
 10
28.84262207694443
 20
43.98109324424974
 10
28.94203031531361
 20
43.98109324424974
 10
28.99883497503011
 20
43.93848966559706
 10
29.04143855368279
 20
43.86748392481674
 10
29.06984105127166
 20
43.7964778485752
 10
29.08404213233548
 20
43.71127069126982
 10
29.08404213233548
 20
43.62606353396446
 10
29.06984105127166
 20
43.5408563766591
 10
29.04143855368279
 20
43.46985030041754
 10
28.99883497503011
 20
43.39884455963723
 10
28.94203031531361
 20
43.35624098098454
  0
LWPOLYLINE
  5
115
100
AcDbEntity
  8
silktop
  6
ByLayer
 62
    7
370
   -1
100
AcDbPolyline
 90
    4
 70
    0
 43
0
 10
29.59528507616768
 20
43.35624098098454
 10
29.31126144212395
 20
43.35624098098454
 10
29.31126144212395
 20
43.98109324424974
 10
29.59528507616768
 20
43.98109324424974
  0
LWPOLYLINE
  5
116
100
AcDbEntity
  8
silktop
  6
ByLayer
 62
    7
370
   -1
100
AcDbPolyline
 90
    2
 70
    0
 43
0
 10
29.48167575673469
 20
43.68286819368095
 10
29.31126144212395
 20
43.68286819368095
  0
LWPOLYLINE
  5
117
100
AcDbEntity
  8
silktop
  6
ByLayer
 62
    7
370
   -1
100
AcDbPolyline
 90
   20
 70
    0
 43
0
 10
28.37398271176491
 20
42.54677298658356
 10
28.51599452878677
 20
42.54677298658356
 10
28.51599452878677
 20
42.36215725544776
 10
28.47339095013409
 20
42.29115151466745
 10
28.41658629041758
 20
42.26274901707858
 10
28.35978129523985
 20
42.23434651948971
 10
28.28877555445954
 20
42.26274901707858
 10
28.24617197580686
 20
42.29115151466745
 10
28.20356839715416
 20
42.36215725544776
 10
28.1751658995653
 20
42.43316333168931
 10
28.16096481850149
 20
42.51837048899468
 10
28.16096481850149
 20
42.58937656523624
 10
28.1751658995653
 20
42.66038230601654
 10
28.20356839715416
 20
42.7313883822581
 10
28.24617197580686
 20
42.80239445849966
 10
28.27457413793448
 20
42.83079662062728
 10
28.33137913311221
 20
42.87340019927997
 10
28.38818379282872
 20
42.87340019927997
 10
28.43078737148141
 20
42.84499803715234
 10
28.47339095013409
 20
42.80239445849966
  0
LWPOLYLINE
  5
118
100
AcDbEntity
  8
silktop
  6
ByLayer
 62
    7
370
   -1
100
AcDbPolyline
 90
    4
 70
    0
 43
0
 10
28.743213503114
 20
42.23434651948971
 10
28.743213503114
 20
42.87340019927997
 10
29.05563997020785
 20
42.23434651948971
 10
29.05563997020785
 20
42.87340019927997
  0
LWPOLYLINE
  5
119
100
AcDbEntity
  8
silktop
  6
ByLayer
 62
    7
370
   -1
100
AcDbPolyline
 90
   12
 70
    1
 43
0
 10
29.29706002559889
 20
42.23434651948971
 10
29.29706002559889
 20
42.87340019927997
 10
29.43907217808201
 20
42.87340019927997
 10
29.4958768377985
 20
42.83079662062728
 10
29.53848041645118
 20
42.80239445849966
 10
29.56688291404005
 20
42.7313883822581
 10
29.59528507616768
 20
42.66038230601654
 10
29.59528507616768
 20
42.44736441275312
 10
29.56688291404005
 20
42.37635867197281
 10
29.53848041645118
 20
42.30535259573126
 10
29.4958768377985
 20
42.26274901707858
 10
29.43907217808201
 20
42.23434651948971
  0
LWPOLYLINE
  5
11A
100
AcDbEntity
  8
silktop
  6
ByLayer
 62
    7
370
   -1
100
AcDbPolyline
 90
    2
 70
    0
 43
0
 10
27.8769408489965
 20
41.95032288544598
 10
27.8769408489965
 20
44.23671471616585
  0
LWPOLYLINE
  5
11B
100
AcDbEntity
  8
silktop
  6
ByLayer
 62
    7
370
   -1
100
AcDbPolyline
 90
    2
 70
    0
 43
0
 10
29.77990080730347
 20
44.23671471616585
 10
29.77990080730347
 20
41.95032288544598
  0
LWPOLYLINE
  5
11C
100
AcDbEntity
  8
silktop
  6
ByLayer
 62
    7
370
   -1
100
AcDbPolyline
 90
    2
 70
    0
 43
0
 10
29.77990080730347
 20
43.10061950906844
 10
29.77990080730347
 20
43.12902167119607
  0
LWPOLYLINE
  5
11D
100
AcDbEntity
  8
silktop
  6
ByLayer
 62
    7
370
   -1
100
AcDbPolyline
 90
    2
 70
    0
 43
0
 10
27.8769408489965
 20
44.23671471616585
 10
27.74913011303845
 20
44.23671471616585
  0
SPLINE
  5
11E
100
AcDbEntity
  8
silktop
  6
ByLayer
 62
    7
370
   -1
100
AcDbSpline
210
0
220
0
230
0
 70
    8
 71
    3
 72
    8
 73
    4
 74
    0
 42
1e-07
 43
1e-07
 40
0
 40
0
 40
0
 40
0
 40
1
 40
1
 40
1
 40
1
 10
-3.493493449520072
 20
-0.4970415273071396
 30
0
 10
-3.493493449520072
 20
-2.144380013697999
 30
0
 10
-2.158581430223063
 20
-3.493493114058819
 30
0
 10
-0.5112429438322064
 20
-3.493493114058819
 30
0
  0
LWPOLYLINE
  5
11F
100
AcDbEntity
  8
silktop
  6
ByLayer
 62
    7
370
   -1
100
AcDbPolyline
 90
    1
 70
    1
 43
0
 10
-3.493493449520072
 20
-0.4970415273071396
  0
LWPOLYLINE
  5
120
100
AcDbEntity
  8
silktop
  6
ByLayer
 62
    7
370
   -1
100
AcDbPolyline
 90
    1
 70
    1
 43
0
 10
-0.5112429438322064
 20
-3.493493114058819
  0
SPLINE
  5
121
100
AcDbEntity
  8
silktop
  6
ByLayer
 62
    7
370
   -1
100
AcDbSpline
210
0
220
0
230
0
 70
    8
 71
    3
 72
    8
 73
    4
 74
    0
 42
1e-07
 43
1e-07
 40
0
 40
0
 40
0
 40
0
 40
1
 40
1
 40
1
 40
1
 10
-0.5112429438322064
 20
52.48760755826144
 30
0
 10
-2.158581430223063
 20
52.48760755826144
 30
0
 10
-3.493493449520072
 20
51.15269553896443
 30
0
 10
-3.493493449520072
 20
49.50535738803483
 30
0
  0
LWPOLYLINE
  5
122
100
AcDbEntity
  8
silktop
  6
ByLayer
 62
    7
370
   -1
100
AcDbPolyline
 90
   22
 70
    1
 43
0
 10
7.796454557979889
 20
3.564499525761629
 10
6.220122147830587
 20
3.564499525761629
 10
6.007104254567167
 20
3.592901687889251
 10
5.822488858892617
 20
3.67810884519462
 10
5.680477041870757
 20
3.82012099767773
 10
5.595269884565388
 20
4.00473639335228
 10
5.552666305912707
 20
4.231955367679511
 10
5.595269884565388
 20
4.430772179879121
 10
5.680477041870757
 20
4.61538757555366
 10
5.822488858892617
 20
4.757399728036781
 10
6.007104254567167
 20
4.842606885342141
 10
6.220122147830587
 20
4.885210463994831
 10
7.796454557979889
 20
4.885210463994831
 10
8.009472451243298
 20
4.842606885342141
 10
8.194088182379097
 20
4.757399728036781
 10
8.336099999400968
 20
4.61538757555366
 10
8.421307156706327
 20
4.430772179879121
 10
8.463910735359018
 20
4.20355320555189
 10
8.421307156706327
 20
4.00473639335228
 10
8.336099999400968
 20
3.82012099767773
 10
8.194088182379097
 20
3.67810884519462
 10
8.009472451243298
 20
3.592901687889251
  0
LWPOLYLINE
  5
123
100
AcDbEntity
  8
silktop
  6
ByLayer
 62
    7
370
   -1
100
AcDbPolyline
 90
   18
 70
    1
 43
0
 10
7.796454557979889
 20
3.82012099767773
 10
6.220122147830587
 20
3.82012099767773
 10
6.063909249744908
 20
3.84852315980535
 10
5.936098513786858
 20
3.933730317110721
 10
5.850891356481487
 20
4.061541053068771
 10
5.808287777828808
 20
4.231955367679511
 10
5.850891356481487
 20
4.373967520162621
 10
5.936098513786858
 20
4.501778256120669
 10
6.063909249744908
 20
4.58698541342604
 10
6.220122147830587
 20
4.62958899207872
 10
7.796454557979889
 20
4.62958899207872
 10
7.952667791526807
 20
4.58698541342604
 10
8.080478527484857
 20
4.501778256120669
 10
8.165685684790226
 20
4.373967520162621
 10
8.208289263442907
 20
4.20355320555189
 10
8.165685684790226
 20
4.061541053068771
 10
8.080478527484857
 20
3.933730317110721
 10
7.952667791526807
 20
3.84852315980535
  0
LWPOLYLINE
  5
124
100
AcDbEntity
  8
silktop
  6
ByLayer
 62
    7
370
   -1
100
AcDbPolyline
 90
    4
 70
    1
 43
0
 10
4.430772179879117
 20
44.43553152836546
 10
5.325447331585478
 20
44.43553152836546
 10
5.325447331585478
 20
47.48878777483363
 10
4.430772179879117
 20
47.48878777483363
  0
LWPOLYLINE
  5
125
100
AcDbEntity
  8
silktop
  6
ByLayer
 62
    7
370
   -1
100
AcDbPolyline
 90
    4
 70
    1
 43
0
 10
6.418938960030196
 20
44.43553152836546
 10
7.313614111736548
 20
44.43553152836546
 10
7.313614111736548
 20
47.48878777483363
 10
6.418938960030196
 20
47.48878777483363
  0
LWPOLYLINE
  5
126
100
AcDbEntity
  8
silktop
  6
ByLayer
 62
    7
370
   -1
100
AcDbPolyline
 90
    4
 70
    1
 43
0
 10
4.430772179879117
 20
48.93730944902487
 10
5.325447331585478
 20
48.93730944902487
 10
5.325447331585478
 20
51.99056603095431
 10
4.430772179879117
 20
51.99056603095431
  0
LWPOLYLINE
  5
127
100
AcDbEntity
  8
silktop
  6
ByLayer
 62
    7
370
   -1
100
AcDbPolyline
 90
    4
 70
    1
 43
0
 10
6.418938960030196
 20
48.93730944902487
 10
7.313614111736548
 20
48.93730944902487
 10
7.313614111736548
 20
51.99056603095431
 10
6.418938960030196
 20
51.99056603095431
  0
LWPOLYLINE
  5
128
100
AcDbEntity
  8
silktop
  6
ByLayer
 62
    7
370
   -1
100
AcDbPolyline
 90
    4
 70
    1
 43
0
 10
8.421307156706327
 20
44.43553152836546
 10
9.315982308412686
 20
44.43553152836546
 10
9.315982308412686
 20
47.48878777483363
 10
8.421307156706327
 20
47.48878777483363
  0
LWPOLYLINE
  5
129
100
AcDbEntity
  8
silktop
  6
ByLayer
 62
    7
370
   -1
100
AcDbPolyline
 90
    4
 70
    1
 43
0
 10
10.42367535338247
 20
48.93730944902487
 10
11.31835050508883
 20
48.93730944902487
 10
11.31835050508883
 20
51.99056603095431
 10
10.42367535338247
 20
51.99056603095431
  0
LWPOLYLINE
  5
12A
100
AcDbEntity
  8
silktop
  6
ByLayer
 62
    7
370
   -1
100
AcDbPolyline
 90
    4
 70
    1
 43
0
 10
12.42604355005861
 20
44.43553152836546
 10
13.32071870176497
 20
44.43553152836546
 10
13.32071870176497
 20
47.48878777483363
 10
12.42604355005861
 20
47.48878777483363
  0
LWPOLYLINE
  5
12B
100
AcDbEntity
  8
silktop
  6
ByLayer
 62
    7
370
   -1
100
AcDbPolyline
 90
    4
 70
    1
 43
0
 10
14.42841174673474
 20
44.43553152836546
 10
15.32308656297986
 20
44.43553152836546
 10
15.32308656297986
 20
47.48878777483363
 10
14.42841174673474
 20
47.48878777483363
  0
LWPOLYLINE
  5
12C
100
AcDbEntity
  8
silktop
  6
ByLayer
 62
    7
370
   -1
100
AcDbPolyline
 90
    4
 70
    1
 43
0
 10
12.42604355005861
 20
48.93730944902487
 10
13.32071870176497
 20
48.93730944902487
 10
13.32071870176497
 20
51.99056603095431
 10
12.42604355005861
 20
51.99056603095431
  0
LWPOLYLINE
  5
12D
100
AcDbEntity
  8
silktop
  6
ByLayer
 62
    7
370
   -1
100
AcDbPolyline
 90
    4
 70
    1
 43
0
 10
14.42841174673474
 20
48.93730944902487
 10
15.32308656297986
 20
48.93730944902487
 10
15.32308656297986
 20
51.99056603095431
 10
14.42841174673474
 20
51.99056603095431
  0
LWPOLYLINE
  5
12E
100
AcDbEntity
  8
silktop
  6
ByLayer
 62
    7
370
   -1
100
AcDbPolyline
 90
    4
 70
    1
 43
0
 10
18.43314780462577
 20
44.43553152836546
 10
19.32782295633214
 20
44.43553152836546
 10
19.32782295633214
 20
47.48878777483363
 10
18.43314780462577
 20
47.48878777483363
  0
LWPOLYLINE
  5
12F
100
AcDbEntity
  8
silktop
  6
ByLayer
 62
    7
370
   -1
100
AcDbPolyline
 90
    4
 70
    1
 43
0
 10
16.43077960794963
 20
48.93730944902487
 10
17.325454759656
 20
48.93730944902487
 10
17.325454759656
 20
51.99056603095431
 10
16.43077960794963
 20
51.99056603095431
  0
LWPOLYLINE
  5
130
100
AcDbEntity
  8
silktop
  6
ByLayer
 62
    7
370
   -1
100
AcDbPolyline
 90
    4
 70
    1
 43
0
 10
20.4213149202381
 20
44.43553152836546
 10
21.31599007194446
 20
44.43553152836546
 10
21.31599007194446
 20
47.48878777483363
 10
20.4213149202381
 20
47.48878777483363
  0
LWPOLYLINE
  5
131
100
AcDbEntity
  8
silktop
  6
ByLayer
 62
    7
370
   -1
100
AcDbPolyline
 90
    4
 70
    1
 43
0
 10
22.42368311691424
 20
44.43553152836546
 10
23.3183582686206
 20
44.43553152836546
 10
23.3183582686206
 20
47.48878777483363
 10
22.42368311691424
 20
47.48878777483363
  0
LWPOLYLINE
  5
132
100
AcDbEntity
  8
silktop
  6
ByLayer
 62
    7
370
   -1
100
AcDbPolyline
 90
    4
 70
    1
 43
0
 10
20.4213149202381
 20
48.93730944902487
 10
21.31599007194446
 20
48.93730944902487
 10
21.31599007194446
 20
51.99056603095431
 10
20.4213149202381
 20
51.99056603095431
  0
LWPOLYLINE
  5
133
100
AcDbEntity
  8
silktop
  6
ByLayer
 62
    7
370
   -1
100
AcDbPolyline
 90
    4
 70
    1
 43
0
 10
22.42368311691424
 20
48.93730944902487
 10
23.3183582686206
 20
48.93730944902487
 10
23.3183582686206
 20
51.99056603095431
 10
22.42368311691424
 20
51.99056603095431
  0
LWPOLYLINE
  5
134
100
AcDbEntity
  8
silktop
  6
ByLayer
 62
    7
370
   -1
100
AcDbPolyline
 90
    4
 70
    1
 43
0
 10
24.42605097812913
 20
44.43553152836546
 10
25.32072612983549
 20
44.43553152836546
 10
25.32072612983549
 20
47.48878777483363
 10
24.42605097812913
 20
47.48878777483363
  0
LWPOLYLINE
  5
135
100
AcDbEntity
  8
silktop
  6
ByLayer
 62
    7
370
   -1
100
AcDbPolyline
 90
    4
 70
    1
 43
0
 10
26.42841917480527
 20
44.43553152836546
 10
27.32309432651163
 20
44.43553152836546
 10
27.32309432651163
 20
47.48878777483363
 10
26.42841917480527
 20
47.48878777483363
  0
LWPOLYLINE
  5
136
100
AcDbEntity
  8
silktop
  6
ByLayer
 62
    7
370
   -1
100
AcDbPolyline
 90
    4
 70
    1
 43
0
 10
24.42605097812913
 20
48.93730944902487
 10
25.32072612983549
 20
48.93730944902487
 10
25.32072612983549
 20
51.99056603095431
 10
24.42605097812913
 20
51.99056603095431
  0
LWPOLYLINE
  5
137
100
AcDbEntity
  8
silktop
  6
ByLayer
 62
    7
370
   -1
100
AcDbPolyline
 90
    4
 70
    1
 43
0
 10
26.42841917480527
 20
48.93730944902487
 10
27.32309432651163
 20
48.93730944902487
 10
27.32309432651163
 20
51.99056603095431
 10
26.42841917480527
 20
51.99056603095431
  0
LWPOLYLINE
  5
138
100
AcDbEntity
  8
silktop
  6
ByLayer
 62
    7
370
   -1
100
AcDbPolyline
 90
    4
 70
    1
 43
0
 10
28.43078737148141
 20
48.93730944902487
 10
29.32546252318777
 20
48.93730944902487
 10
29.32546252318777
 20
51.99056603095431
 10
28.43078737148141
 20
51.99056603095431
  0
SPLINE
  5
139
100
AcDbEntity
  8
silktop
  6
ByLayer
 62
    7
370
   -1
100
AcDbSpline
210
0
220
0
230
0
 70
    8
 71
    3
 72
    8
 73
    4
 74
    0
 42
1e-07
 43
1e-07
 40
0
 40
0
 40
0
 40
0
 40
1
 40
1
 40
1
 40
1
 10
60.99412187227314
 20
0
 30
0
 10
60.99412187227314
 20
1.64733848639086
 30
0
 10
59.64500843645106
 20
2.982250505687871
 30
0
 10
57.99767028552145
 20
2.982250505687871
 30
0
  0
SPLINE
  5
13A
100
AcDbEntity
  8
silktop
  6
ByLayer
 62
    7
370
   -1
100
AcDbSpline
210
0
220
0
230
0
 70
    8
 71
    3
 72
    8
 73
    4
 74
    0
 42
1e-07
 43
1e-07
 40
0
 40
0
 40
0
 40
0
 40
1
 40
1
 40
1
 40
1
 10
57.99767028552145
 20
2.982250505687871
 30
0
 10
56.3503317991306
 20
2.982250505687871
 30
0
 10
55.01541977983359
 20
1.64733848639086
 30
0
 10
55.01541977983359
 20
0
 30
0
  0
SPLINE
  5
13B
100
AcDbEntity
  8
silktop
  6
ByLayer
 62
    7
370
   -1
100
AcDbSpline
210
0
220
0
230
0
 70
    8
 71
    3
 72
    8
 73
    4
 74
    0
 42
1e-07
 43
1e-07
 40
0
 40
0
 40
0
 40
0
 40
1
 40
1
 40
1
 40
1
 10
55.01541977983359
 20
0
 30
0
 10
55.01541977983359
 20
-1.647338150929606
 30
0
 10
56.3503317991306
 20
-2.996451586751674
 30
0
 10
57.99767028552145
 20
-2.996451586751674
 30
0
  0
SPLINE
  5
13C
100
AcDbEntity
  8
silktop
  6
ByLayer
 62
    7
370
   -1
100
AcDbSpline
210
0
220
0
230
0
 70
    8
 71
    3
 72
    8
 73
    4
 74
    0
 42
1e-07
 43
1e-07
 40
0
 40
0
 40
0
 40
0
 40
1
 40
1
 40
1
 40
1
 10
57.99767028552145
 20
-2.996451586751674
 30
0
 10
59.64500843645106
 20
-2.996451586751674
 30
0
 10
60.99412187227314
 20
-1.647338150929606
 30
0
 10
60.99412187227314
 20
0
 30
0
  0
SPLINE
  5
13D
100
AcDbEntity
  8
silktop
  6
ByLayer
 62
    7
370
   -1
100
AcDbSpline
210
0
220
0
230
0
 70
    8
 71
    3
 72
    8
 73
    4
 74
    0
 42
1e-07
 43
1e-07
 40
0
 40
0
 40
0
 40
0
 40
1
 40
1
 40
1
 40
1
 10
59.37518588347115
 20
0
 30
0
 10
59.37518588347115
 20
0.7526633346845006
 30
0
 10
58.75033362020595
 20
1.363314516885881
 30
0
 10
57.99767028552145
 20
1.363314516885881
 30
0
  0
SPLINE
  5
13E
100
AcDbEntity
  8
silktop
  6
ByLayer
 62
    7
370
   -1
100
AcDbSpline
210
0
220
0
230
0
 70
    8
 71
    3
 72
    8
 73
    4
 74
    0
 42
1e-07
 43
1e-07
 40
0
 40
0
 40
0
 40
0
 40
1
 40
1
 40
1
 40
1
 10
57.99767028552145
 20
1.363314516885881
 30
0
 10
57.24500695083697
 20
1.363314516885881
 30
0
 10
56.63435576863557
 20
0.7526633346845006
 30
0
 10
56.63435576863557
 20
0
 30
0
  0
SPLINE
  5
13F
100
AcDbEntity
  8
silktop
  6
ByLayer
 62
    7
370
   -1
100
AcDbSpline
210
0
220
0
230
0
 70
    8
 71
    3
 72
    8
 73
    4
 74
    0
 42
1e-07
 43
1e-07
 40
0
 40
0
 40
0
 40
0
 40
1
 40
1
 40
1
 40
1
 10
56.63435576863557
 20
0
 30
0
 10
56.63435576863557
 20
-0.7526629992232454
 30
0
 10
57.24500695083697
 20
-1.37751559794969
 30
0
 10
57.99767028552145
 20
-1.37751559794969
 30
0
  0
SPLINE
  5
140
100
AcDbEntity
  8
silktop
  6
ByLayer
 62
    7
370
   -1
100
AcDbSpline
210
0
220
0
230
0
 70
    8
 71
    3
 72
    8
 73
    4
 74
    0
 42
1e-07
 43
1e-07
 40
0
 40
0
 40
0
 40
0
 40
1
 40
1
 40
1
 40
1
 10
57.99767028552145
 20
-1.37751559794969
 30
0
 10
58.75033362020595
 20
-1.37751559794969
 30
0
 10
59.37518588347115
 20
-0.7526629992232454
 30
0
 10
59.37518588347115
 20
0
 30
0
  0
LWPOLYLINE
  5
141
100
AcDbEntity
  8
silktop
  6
ByLayer
 62
    7
370
   -1
100
AcDbPolyline
 90
    1
 70
    1
 43
0
 10
60.99412187227314
 20
0
  0
LWPOLYLINE
  5
142
100
AcDbEntity
  8
silktop
  6
ByLayer
 62
    7
370
   -1
100
AcDbPolyline
 90
    1
 70
    1
 43
0
 10
59.37518588347115
 20
0
  0
SPLINE
  5
143
100
AcDbEntity
  8
silktop
  6
ByLayer
 62
    7
370
   -1
100
AcDbSpline
210
0
220
0
230
0
 70
    8
 71
    3
 72
    8
 73
    4
 74
    0
 42
1e-07
 43
1e-07
 40
0
 40
0
 40
0
 40
0
 40
1
 40
1
 40
1
 40
1
 10
60.99412187227314
 20
49.00831552526643
 30
0
 10
60.99412187227314
 20
50.65565367619603
 30
0
 10
59.64500843645106
 20
51.99056603095431
 30
0
 10
57.99767028552145
 20
51.99056603095431
 30
0
  0
SPLINE
  5
144
100
AcDbEntity
  8
silktop
  6
ByLayer
 62
    7
370
   -1
100
AcDbSpline
210
0
220
0
230
0
 70
    8
 71
    3
 72
    8
 73
    4
 74
    0
 42
1e-07
 43
1e-07
 40
0
 40
0
 40
0
 40
0
 40
1
 40
1
 40
1
 40
1
 10
57.99767028552145
 20
51.99056603095431
 30
0
 10
56.3503317991306
 20
51.99056603095431
 30
0
 10
55.01541977983359
 20
50.65565367619603
 30
0
 10
55.01541977983359
 20
49.00831552526643
 30
0
  0
SPLINE
  5
145
100
AcDbEntity
  8
silktop
  6
ByLayer
 62
    7
370
   -1
100
AcDbSpline
210
0
220
0
230
0
 70
    8
 71
    3
 72
    8
 73
    4
 74
    0
 42
1e-07
 43
1e-07
 40
0
 40
0
 40
0
 40
0
 40
1
 40
1
 40
1
 40
1
 10
55.01541977983359
 20
49.00831552526643
 30
0
 10
55.01541977983359
 20
47.36097703887557
 30
0
 10
56.3503317991306
 20
46.01186393851475
 30
0
 10
57.99767028552145
 20
46.01186393851475
 30
0
  0
SPLINE
  5
146
100
AcDbEntity
  8
silktop
  6
ByLayer
 62
    7
370
   -1
100
AcDbSpline
210
0
220
0
230
0
 70
    8
 71
    3
 72
    8
 73
    4
 74
    0
 42
1e-07
 43
1e-07
 40
0
 40
0
 40
0
 40
0
 40
1
 40
1
 40
1
 40
1
 10
57.99767028552145
 20
46.01186393851475
 30
0
 10
59.64500843645106
 20
46.01186393851475
 30
0
 10
60.99412187227314
 20
47.36097703887557
 30
0
 10
60.99412187227314
 20
49.00831552526643
 30
0
  0
SPLINE
  5
147
100
AcDbEntity
  8
silktop
  6
ByLayer
 62
    7
370
   -1
100
AcDbSpline
210
0
220
0
230
0
 70
    8
 71
    3
 72
    8
 73
    4
 74
    0
 42
1e-07
 43
1e-07
 40
0
 40
0
 40
0
 40
0
 40
1
 40
1
 40
1
 40
1
 10
59.37518588347115
 20
49.00831552526643
 30
0
 10
59.37518588347115
 20
49.76097885995093
 30
0
 10
58.75033362020595
 20
50.37163004215231
 30
0
 10
57.99767028552145
 20
50.37163004215231
 30
0
  0
SPLINE
  5
148
100
AcDbEntity
  8
silktop
  6
ByLayer
 62
    7
370
   -1
100
AcDbSpline
210
0
220
0
230
0
 70
    8
 71
    3
 72
    8
 73
    4
 74
    0
 42
1e-07
 43
1e-07
 40
0
 40
0
 40
0
 40
0
 40
1
 40
1
 40
1
 40
1
 10
57.99767028552145
 20
50.37163004215231
 30
0
 10
57.24500695083697
 20
50.37163004215231
 30
0
 10
56.63435576863557
 20
49.76097885995093
 30
0
 10
56.63435576863557
 20
49.00831552526643
 30
0
  0
SPLINE
  5
149
100
AcDbEntity
  8
silktop
  6
ByLayer
 62
    7
370
   -1
100
AcDbSpline
210
0
220
0
230
0
 70
    8
 71
    3
 72
    8
 73
    4
 74
    0
 42
1e-07
 43
1e-07
 40
0
 40
0
 40
0
 40
0
 40
1
 40
1
 40
1
 40
1
 10
56.63435576863557
 20
49.00831552526643
 30
0
 10
56.63435576863557
 20
48.25565219058193
 30
0
 10
57.24500695083697
 20
47.63079992731673
 30
0
 10
57.99767028552145
 20
47.63079992731673
 30
0
  0
SPLINE
  5
14A
100
AcDbEntity
  8
silktop
  6
ByLayer
 62
    7
370
   -1
100
AcDbSpline
210
0
220
0
230
0
 70
    8
 71
    3
 72
    8
 73
    4
 74
    0
 42
1e-07
 43
1e-07
 40
0
 40
0
 40
0
 40
0
 40
1
 40
1
 40
1
 40
1
 10
57.99767028552145
 20
47.63079992731673
 30
0
 10
58.75033362020595
 20
47.63079992731673
 30
0
 10
59.37518588347115
 20
48.25565219058193
 30
0
 10
59.37518588347115
 20
49.00831552526643
 30
0
  0
LWPOLYLINE
  5
14B
100
AcDbEntity
  8
silktop
  6
ByLayer
 62
    7
370
   -1
100
AcDbPolyline
 90
    1
 70
    1
 43
0
 10
60.99412187227314
 20
49.00831552526643
  0
LWPOLYLINE
  5
14C
100
AcDbEntity
  8
silktop
  6
ByLayer
 62
    7
370
   -1
100
AcDbPolyline
 90
    1
 70
    1
 43
0
 10
59.37518588347115
 20
49.00831552526643
  0
SPLINE
  5
14D
100
AcDbEntity
  8
silktop
  6
ByLayer
 62
    7
370
   -1
100
AcDbSpline
210
0
220
0
230
0
 70
    8
 71
    3
 72
    8
 73
    4
 74
    0
 42
1e-07
 43
1e-07
 40
0
 40
0
 40
0
 40
0
 40
1
 40
1
 40
1
 40
1
 10
2.996451586751677
 20
0
 30
0
 10
2.996451586751677
 20
1.64733848639086
 30
0
 10
1.647338150929608
 20
2.982250505687871
 30
0
 10
0
 20
2.982250505687871
 30
0
  0
SPLINE
  5
14E
100
AcDbEntity
  8
silktop
  6
ByLayer
 62
    7
370
   -1
100
AcDbSpline
210
0
220
0
230
0
 70
    8
 71
    3
 72
    8
 73
    4
 74
    0
 42
1e-07
 43
1e-07
 40
0
 40
0
 40
0
 40
0
 40
1
 40
1
 40
1
 40
1
 10
0
 20
2.982250505687871
 30
0
 10
-1.647338486390858
 20
2.982250505687871
 30
0
 10
-2.982250505687866
 20
1.64733848639086
 30
0
 10
-2.982250505687866
 20
0
 30
0
  0
SPLINE
  5
14F
100
AcDbEntity
  8
silktop
  6
ByLayer
 62
    7
370
   -1
100
AcDbSpline
210
0
220
0
230
0
 70
    8
 71
    3
 72
    8
 73
    4
 74
    0
 42
1e-07
 43
1e-07
 40
0
 40
0
 40
0
 40
0
 40
1
 40
1
 40
1
 40
1
 10
-2.982250505687866
 20
0
 30
0
 10
-2.982250505687866
 20
-1.647338150929606
 30
0
 10
-1.647338486390858
 20
-2.996451586751674
 30
0
 10
0
 20
-2.996451586751674
 30
0
  0
SPLINE
  5
150
100
AcDbEntity
  8
silktop
  6
ByLayer
 62
    7
370
   -1
100
AcDbSpline
210
0
220
0
230
0
 70
    8
 71
    3
 72
    8
 73
    4
 74
    0
 42
1e-07
 43
1e-07
 40
0
 40
0
 40
0
 40
0
 40
1
 40
1
 40
1
 40
1
 10
0
 20
-2.996451586751674
 30
0
 10
1.647338150929608
 20
-2.996451586751674
 30
0
 10
2.996451586751677
 20
-1.647338150929606
 30
0
 10
2.996451586751677
 20
0
 30
0
  0
SPLINE
  5
151
100
AcDbEntity
  8
silktop
  6
ByLayer
 62
    7
370
   -1
100
AcDbSpline
210
0
220
0
230
0
 70
    8
 71
    3
 72
    8
 73
    4
 74
    0
 42
1e-07
 43
1e-07
 40
0
 40
0
 40
0
 40
0
 40
1
 40
1
 40
1
 40
1
 10
1.377515597949698
 20
0
 30
0
 10
1.377515597949698
 20
0.7526633346845006
 30
0
 10
0.7526633346844971
 20
1.363314516885881
 30
0
 10
0
 20
1.363314516885881
 30
0
  0
SPLINE
  5
152
100
AcDbEntity
  8
silktop
  6
ByLayer
 62
    7
370
   -1
100
AcDbSpline
210
0
220
0
230
0
 70
    8
 71
    3
 72
    8
 73
    4
 74
    0
 42
1e-07
 43
1e-07
 40
0
 40
0
 40
0
 40
0
 40
1
 40
1
 40
1
 40
1
 10
0
 20
1.363314516885881
 30
0
 10
-0.7526633346844989
 20
1.363314516885881
 30
0
 10
-1.363314516885882
 20
0.7526633346845006
 30
0
 10
-1.363314516885882
 20
0
 30
0
  0
SPLINE
  5
153
100
AcDbEntity
  8
silktop
  6
ByLayer
 62
    7
370
   -1
100
AcDbSpline
210
0
220
0
230
0
 70
    8
 71
    3
 72
    8
 73
    4
 74
    0
 42
1e-07
 43
1e-07
 40
0
 40
0
 40
0
 40
0
 40
1
 40
1
 40
1
 40
1
 10
-1.363314516885882
 20
0
 30
0
 10
-1.363314516885882
 20
-0.7526629992232454
 30
0
 10
-0.7526633346844989
 20
-1.37751559794969
 30
0
 10
0
 20
-1.37751559794969
 30
0
  0
SPLINE
  5
154
100
AcDbEntity
  8
silktop
  6
ByLayer
 62
    7
370
   -1
100
AcDbSpline
210
0
220
0
230
0
 70
    8
 71
    3
 72
    8
 73
    4
 74
    0
 42
1e-07
 43
1e-07
 40
0
 40
0
 40
0
 40
0
 40
1
 40
1
 40
1
 40
1
 10
0
 20
-1.37751559794969
 30
0
 10
0.7526633346844971
 20
-1.37751559794969
 30
0
 10
1.377515597949698
 20
-0.7526629992232454
 30
0
 10
1.377515597949698
 20
0
 30
0
  0
LWPOLYLINE
  5
155
100
AcDbEntity
  8
silktop
  6
ByLayer
 62
    7
370
   -1
100
AcDbPolyline
 90
    1
 70
    1
 43
0
 10
2.996451586751677
 20
0
  0
LWPOLYLINE
  5
156
100
AcDbEntity
  8
silktop
  6
ByLayer
 62
    7
370
   -1
100
AcDbPolyline
 90
    1
 70
    1
 43
0
 10
1.377515597949698
 20
0
  0
LWPOLYLINE
  5
157
100
AcDbEntity
  8
silktop
  6
ByLayer
 62
    7
370
   -1
100
AcDbPolyline
 90
   18
 70
    1
 43
0
 10
0.7668644157483069
 20
3.465090951931201
 10
-1.775149222348908
 20
3.465090951931201
 10
-1.973965699087267
 20
3.49349344952007
 10
-2.130178932634191
 20
3.60710310441431
 10
-2.24378858752843
 20
3.763316002499989
 10
-2.286392166181114
 20
3.97633389576341
 10
-2.24378858752843
 20
4.1609496268992
 10
-2.130178932634191
 20
4.31716252498488
 10
-1.973965699087267
 20
4.430772179879121
 10
-1.775149222348908
 20
4.4733757585318
 10
0.7668644157483069
 20
4.4733757585318
 10
0.9656812279479166
 20
4.430772179879121
 10
1.121894126033588
 20
4.31716252498488
 10
1.235503780927827
 20
4.1609496268992
 10
1.278107359580517
 20
3.94793173363578
 10
1.235503780927827
 20
3.763316002499989
 10
1.121894126033588
 20
3.60710310441431
 10
0.9656812279479166
 20
3.49349344952007
  0
LWPOLYLINE
  5
158
100
AcDbEntity
  8
silktop
  6
ByLayer
 62
    7
370
   -1
100
AcDbPolyline
 90
   14
 70
    1
 43
0
 10
0.7668644157483069
 20
3.720712423847299
 10
-1.775149222348908
 20
3.720712423847299
 10
-1.90295995830696
 20
3.749114921436179
 10
-1.988167115612328
 20
3.83432207874154
 10
-2.030770694265012
 20
3.97633389576341
 10
-1.988167115612328
 20
4.089943550657651
 10
-1.90295995830696
 20
4.175150707963009
 10
-1.775149222348908
 20
4.217754286615699
 10
0.7668644157483069
 20
4.217754286615699
 10
0.8946751517063571
 20
4.175150707963009
 10
0.9798823090117281
 20
4.089943550657651
 10
1.022485887664407
 20
3.94793173363578
 10
0.9798823090117281
 20
3.83432207874154
 10
0.8946751517063571
 20
3.749114921436179
  0
LWPOLYLINE
  5
159
100
AcDbEntity
  8
silktop
  6
ByLayer
 62
    7
370
   -1
100
AcDbPolyline
 90
   18
 70
    1
 43
0
 10
0.7668644157483069
 20
13.26391404204847
 10
-1.775149222348908
 20
13.26391404204847
 10
-1.973965699087267
 20
13.2923162041761
 10
-2.130178932634191
 20
13.40592585907034
 10
-2.24378858752843
 20
13.56213909261726
 10
-2.286392166181114
 20
13.77515698588068
 10
-2.24378858752843
 20
13.95977238155523
 10
-2.130178932634191
 20
14.11598561510215
 10
-1.973965699087267
 20
14.22959493453514
 10
-1.775149222348908
 20
14.27219851318782
 10
0.7668644157483069
 20
14.27219851318782
 10
0.9656812279479166
 20
14.22959493453514
 10
1.121894126033588
 20
14.11598561510215
 10
1.235503780927827
 20
13.95977238155523
 10
1.278107359580517
 20
13.7467544882918
 10
1.235503780927827
 20
13.56213909261726
 10
1.121894126033588
 20
13.40592585907034
 10
0.9656812279479166
 20
13.2923162041761
  0
LWPOLYLINE
  5
15A
100
AcDbEntity
  8
silktop
  6
ByLayer
 62
    7
370
   -1
100
AcDbPolyline
 90
   14
 70
    1
 43
0
 10
0.7668644157483069
 20
13.51953551396458
 10
-1.775149222348908
 20
13.51953551396458
 10
-1.90295995830696
 20
13.5479376760922
 10
-1.988167115612328
 20
13.63314483339756
 10
-2.030770694265012
 20
13.77515698588068
 10
-1.988167115612328
 20
13.88876630531367
 10
-1.90295995830696
 20
13.97397346261904
 10
-1.775149222348908
 20
14.01657704127172
 10
0.7668644157483069
 20
14.01657704127172
 10
0.8946751517063571
 20
13.97397346261904
 10
0.9798823090117281
 20
13.88876630531367
 10
1.022485887664407
 20
13.7467544882918
 10
0.9798823090117281
 20
13.63314483339756
 10
0.8946751517063571
 20
13.5479376760922
  0
SPLINE
  5
15B
100
AcDbEntity
  8
silktop
  6
ByLayer
 62
    7
370
   -1
100
AcDbSpline
210
0
220
0
230
0
 70
    8
 71
    3
 72
    8
 73
    4
 74
    0
 42
1e-07
 43
1e-07
 40
0
 40
0
 40
0
 40
0
 40
1
 40
1
 40
1
 40
1
 10
2.996451586751677
 20
49.00831552526643
 30
0
 10
2.996451586751677
 20
50.65565367619603
 30
0
 10
1.647338150929608
 20
51.99056603095431
 30
0
 10
0
 20
51.99056603095431
 30
0
  0
SPLINE
  5
15C
100
AcDbEntity
  8
silktop
  6
ByLayer
 62
    7
370
   -1
100
AcDbSpline
210
0
220
0
230
0
 70
    8
 71
    3
 72
    8
 73
    4
 74
    0
 42
1e-07
 43
1e-07
 40
0
 40
0
 40
0
 40
0
 40
1
 40
1
 40
1
 40
1
 10
0
 20
51.99056603095431
 30
0
 10
-1.647338486390858
 20
51.99056603095431
 30
0
 10
-2.982250505687866
 20
50.65565367619603
 30
0
 10
-2.982250505687866
 20
49.00831552526643
 30
0
  0
SPLINE
  5
15D
100
AcDbEntity
  8
silktop
  6
ByLayer
 62
    7
370
   -1
100
AcDbSpline
210
0
220
0
230
0
 70
    8
 71
    3
 72
    8
 73
    4
 74
    0
 42
1e-07
 43
1e-07
 40
0
 40
0
 40
0
 40
0
 40
1
 40
1
 40
1
 40
1
 10
-2.982250505687866
 20
49.00831552526643
 30
0
 10
-2.982250505687866
 20
47.36097703887557
 30
0
 10
-1.647338486390858
 20
46.01186393851475
 30
0
 10
0
 20
46.01186393851475
 30
0
  0
SPLINE
  5
15E
100
AcDbEntity
  8
silktop
  6
ByLayer
 62
    7
370
   -1
100
AcDbSpline
210
0
220
0
230
0
 70
    8
 71
    3
 72
    8
 73
    4
 74
    0
 42
1e-07
 43
1e-07
 40
0
 40
0
 40
0
 40
0
 40
1
 40
1
 40
1
 40
1
 10
0
 20
46.01186393851475
 30
0
 10
1.647338150929608
 20
46.01186393851475
 30
0
 10
2.996451586751677
 20
47.36097703887557
 30
0
 10
2.996451586751677
 20
49.00831552526643
 30
0
  0
SPLINE
  5
15F
100
AcDbEntity
  8
silktop
  6
ByLayer
 62
    7
370
   -1
100
AcDbSpline
210
0
220
0
230
0
 70
    8
 71
    3
 72
    8
 73
    4
 74
    0
 42
1e-07
 43
1e-07
 40
0
 40
0
 40
0
 40
0
 40
1
 40
1
 40
1
 40
1
 10
1.377515597949698
 20
49.00831552526643
 30
0
 10
1.377515597949698
 20
49.76097885995093
 30
0
 10
0.7526633346844971
 20
50.37163004215231
 30
0
 10
0
 20
50.37163004215231
 30
0
  0
SPLINE
  5
160
100
AcDbEntity
  8
silktop
  6
ByLayer
 62
    7
370
   -1
100
AcDbSpline
210
0
220
0
230
0
 70
    8
 71
    3
 72
    8
 73
    4
 74
    0
 42
1e-07
 43
1e-07
 40
0
 40
0
 40
0
 40
0
 40
1
 40
1
 40
1
 40
1
 10
0
 20
50.37163004215231
 30
0
 10
-0.7526633346844989
 20
50.37163004215231
 30
0
 10
-1.363314516885882
 20
49.76097885995093
 30
0
 10
-1.363314516885882
 20
49.00831552526643
 30
0
  0
SPLINE
  5
161
100
AcDbEntity
  8
silktop
  6
ByLayer
 62
    7
370
   -1
100
AcDbSpline
210
0
220
0
230
0
 70
    8
 71
    3
 72
    8
 73
    4
 74
    0
 42
1e-07
 43
1e-07
 40
0
 40
0
 40
0
 40
0
 40
1
 40
1
 40
1
 40
1
 10
-1.363314516885882
 20
49.00831552526643
 30
0
 10
-1.363314516885882
 20
48.25565219058193
 30
0
 10
-0.7526633346844989
 20
47.63079992731673
 30
0
 10
0
 20
47.63079992731673
 30
0
  0
SPLINE
  5
162
100
AcDbEntity
  8
silktop
  6
ByLayer
 62
    7
370
   -1
100
AcDbSpline
210
0
220
0
230
0
 70
    8
 71
    3
 72
    8
 73
    4
 74
    0
 42
1e-07
 43
1e-07
 40
0
 40
0
 40
0
 40
0
 40
1
 40
1
 40
1
 40
1
 10
0
 20
47.63079992731673
 30
0
 10
0.7526633346844971
 20
47.63079992731673
 30
0
 10
1.377515597949698
 20
48.25565219058193
 30
0
 10
1.377515597949698
 20
49.00831552526643
 30
0
  0
LWPOLYLINE
  5
163
100
AcDbEntity
  8
silktop
  6
ByLayer
 62
    7
370
   -1
100
AcDbPolyline
 90
    1
 70
    1
 43
0
 10
2.996451586751677
 20
49.00831552526643
  0
LWPOLYLINE
  5
164
100
AcDbEntity
  8
silktop
  6
ByLayer
 62
    7
370
   -1
100
AcDbPolyline
 90
    1
 70
    1
 43
0
 10
1.377515597949698
 20
49.00831552526643
  0
LWPOLYLINE
  5
165
100
AcDbEntity
  8
silktop
  6
ByLayer
 62
    7
370
   -1
100
AcDbPolyline
 90
   22
 70
    1
 43
0
 10
7.796454557979889
 20
6.958584401451271
 10
6.220122147830587
 20
6.958584401451271
 10
6.007104254567167
 20
6.986986899040149
 10
5.822488858892617
 20
7.072194056345511
 10
5.680477041870757
 20
7.214205873367371
 10
5.595269884565388
 20
7.398821269041919
 10
5.552666305912707
 20
7.6260405788304
 10
5.595269884565388
 20
7.824857055568762
 10
5.680477041870757
 20
8.009472786704562
 10
5.822488858892617
 20
8.151484603726422
 10
6.007104254567167
 20
8.236691761031791
 10
6.220122147830587
 20
8.279295339684468
 10
7.796454557979889
 20
8.279295339684468
 10
8.009472451243298
 20
8.236691761031791
 10
8.194088182379097
 20
8.151484603726422
 10
8.336099999400968
 20
8.009472786704562
 10
8.421307156706327
 20
7.824857055568762
 10
8.463910735359018
 20
7.597638081241529
 10
8.421307156706327
 20
7.398821269041919
 10
8.336099999400968
 20
7.214205873367371
 10
8.194088182379097
 20
7.072194056345511
 10
8.009472451243298
 20
6.986986899040149
  0
LWPOLYLINE
  5
166
100
AcDbEntity
  8
silktop
  6
ByLayer
 62
    7
370
   -1
100
AcDbPolyline
 90
   18
 70
    1
 43
0
 10
7.796454557979889
 20
7.214205873367371
 10
6.220122147830587
 20
7.214205873367371
 10
6.063909249744908
 20
7.242608370956249
 10
5.936098513786858
 20
7.327815528261612
 10
5.850891356481487
 20
7.455626264219669
 10
5.808287777828808
 20
7.6260405788304
 10
5.850891356481487
 20
7.76805239585226
 10
5.936098513786858
 20
7.895863131810321
 10
6.063909249744908
 20
7.98107028911568
 10
6.220122147830587
 20
8.023673867768371
 10
7.796454557979889
 20
8.023673867768371
 10
7.952667791526807
 20
7.98107028911568
 10
8.080478527484857
 20
7.895863131810321
 10
8.165685684790226
 20
7.76805239585226
 10
8.208289263442907
 20
7.597638081241529
 10
8.165685684790226
 20
7.455626264219669
 10
8.080478527484857
 20
7.327815528261612
 10
7.952667791526807
 20
7.242608370956249
  0
LWPOLYLINE
  5
167
100
AcDbEntity
  8
silktop
  6
ByLayer
 62
    7
370
   -1
100
AcDbPolyline
 90
   22
 70
    1
 43
0
 10
7.796454557979889
 20
12.15622099707869
 10
6.220122147830587
 20
12.15622099707869
 10
6.007104254567167
 20
12.18462315920632
 10
5.822488858892617
 20
12.26983031651169
 10
5.680477041870757
 20
12.4118424689948
 10
5.595269884565388
 20
12.59645786466935
 10
5.552666305912707
 20
12.82367683899657
 10
5.595269884565388
 20
13.02249365119618
 10
5.680477041870757
 20
13.20710904687073
 10
5.822488858892617
 20
13.34912119935384
 10
6.007104254567167
 20
13.43432835665921
 10
6.220122147830587
 20
13.47693193531189
 10
7.796454557979889
 20
13.47693193531189
 10
8.009472451243298
 20
13.43432835665921
 10
8.194088182379097
 20
13.34912119935384
 10
8.336099999400968
 20
13.20710904687073
 10
8.421307156706327
 20
13.02249365119618
 10
8.463910735359018
 20
12.79527467686895
 10
8.421307156706327
 20
12.59645786466935
 10
8.336099999400968
 20
12.4118424689948
 10
8.194088182379097
 20
12.26983031651169
 10
8.009472451243298
 20
12.18462315920632
  0
LWPOLYLINE
  5
168
100
AcDbEntity
  8
silktop
  6
ByLayer
 62
    7
370
   -1
100
AcDbPolyline
 90
   18
 70
    1
 43
0
 10
7.796454557979889
 20
12.4118424689948
 10
6.220122147830587
 20
12.4118424689948
 10
6.063909249744908
 20
12.44024463112242
 10
5.936098513786858
 20
12.52545178842779
 10
5.850891356481487
 20
12.65326252438584
 10
5.808287777828808
 20
12.82367683899657
 10
5.850891356481487
 20
12.96568899147969
 10
5.936098513786858
 20
13.09349972743774
 10
6.063909249744908
 20
13.17870688474311
 10
6.220122147830587
 20
13.22131046339579
 10
7.796454557979889
 20
13.22131046339579
 10
7.952667791526807
 20
13.17870688474311
 10
8.080478527484857
 20
13.09349972743774
 10
8.165685684790226
 20
12.96568899147969
 10
8.208289263442907
 20
12.79527467686895
 10
8.165685684790226
 20
12.65326252438584
 10
8.080478527484857
 20
12.52545178842779
 10
7.952667791526807
 20
12.44024463112242
  0
LWPOLYLINE
  5
169
100
AcDbEntity
  8
silktop
  6
ByLayer
 62
    7
370
   -1
100
AcDbPolyline
 90
    4
 70
    1
 43
0
 10
10.42367535338247
 20
44.43553152836546
 10
11.31835050508883
 20
44.43553152836546
 10
11.31835050508883
 20
47.48878777483363
 10
10.42367535338247
 20
47.48878777483363
  0
LWPOLYLINE
  5
16A
100
AcDbEntity
  8
silktop
  6
ByLayer
 62
    7
370
   -1
100
AcDbPolyline
 90
    4
 70
    1
 43
0
 10
8.421307156706327
 20
48.93730944902487
 10
9.315982308412686
 20
48.93730944902487
 10
9.315982308412686
 20
51.99056603095431
 10
8.421307156706327
 20
51.99056603095431
  0
LWPOLYLINE
  5
16B
100
AcDbEntity
  8
silktop
  6
ByLayer
 62
    7
370
   -1
100
AcDbPolyline
 90
    4
 70
    1
 43
0
 10
16.43077960794963
 20
44.43553152836546
 10
17.325454759656
 20
44.43553152836546
 10
17.325454759656
 20
47.48878777483363
 10
16.43077960794963
 20
47.48878777483363
  0
LWPOLYLINE
  5
16C
100
AcDbEntity
  8
silktop
  6
ByLayer
 62
    7
370
   -1
100
AcDbPolyline
 90
    4
 70
    1
 43
0
 10
18.43314780462577
 20
48.93730944902487
 10
19.32782295633214
 20
48.93730944902487
 10
19.32782295633214
 20
51.99056603095431
 10
18.43314780462577
 20
51.99056603095431
  0
LWPOLYLINE
  5
16D
100
AcDbEntity
  8
silktop
  6
ByLayer
 62
    7
370
   -1
100
AcDbPolyline
 90
    4
 70
    1
 43
0
 10
28.43078737148141
 20
44.43553152836546
 10
29.32546252318777
 20
44.43553152836546
 10
29.32546252318777
 20
47.48878777483363
 10
28.43078737148141
 20
47.48878777483363
  0
LINE
  5
16E
100
AcDbEntity
  8
0
  6
ByLayer
 62
  256
370
   -1
100
AcDbLine
 10
-3.493493449520072
 20
49.50535738803483
 11
-3.493493449520072
 21
-0.4970415273071396
  0
SPLINE
  5
16F
100
AcDbEntity
  8
silktop
  6
ByLayer
 62
    7
370
   -1
100
AcDbSpline
210
0
220
0
230
0
 70
    8
 71
    3
 72
    8
 73
    4
 74
    0
 42
1e-07
 43
1e-07
 40
0
 40
0
 40
0
 40
0
 40
1
 40
1
 40
1
 40
1
 10
58.50419236306493
 20
-3.493493114058819
 30
0
 10
60.15153051399453
 20
-3.493493114058819
 30
0
 10
61.50064394981659
 20
-2.144380013697999
 30
0
 10
61.50064394981659
 20
-0.4970415273071396
 30
0
  0
LINE
  5
170
100
AcDbEntity
  8
0
  6
ByLayer
 62
  256
370
   -1
100
AcDbLine
 10
58.50419236306493
 20
-3.493493114058819
 11
-0.5112429438322064
 21
-3.493493114058819
  0
SPLINE
  5
171
100
AcDbEntity
  8
silktop
  6
ByLayer
 62
    7
370
   -1
100
AcDbSpline
210
0
220
0
230
0
 70
    8
 71
    3
 72
    8
 73
    4
 74
    0
 42
1e-07
 43
1e-07
 40
0
 40
0
 40
0
 40
0
 40
1
 40
1
 40
1
 40
1
 10
61.50532187227314
 20
49.50535738803483
 30
0
 10
61.50532187227314
 20
51.15269553896443
 30
0
 10
60.15620843645108
 20
52.48760755826144
 30
0
 10
58.50887028552148
 20
52.48760755826144
 30
0
  0
LINE
  5
172
100
AcDbEntity
  8
0
  6
ByLayer
 62
  256
370
   -1
100
AcDbLine
 10
-0.5112429438322064
 20
52.48760755826144
 11
58.50887028552148
 21
52.48760755826144
  0
LINE
  5
173
100
AcDbEntity
  8
0
  6
ByLayer
 62
  256
370
   -1
100
AcDbLine
 10
61.50532187227314
 20
49.50535738803483
 11
61.50064394981659
 21
-0.4970415273071396
  0
ENDSEC
  0
SECTION
  2
OBJECTS
  0
DICTIONARY
  5
C
330
0
100
AcDbDictionary
281
    1
  3
ACAD_GROUP
350
D
  0
DICTIONARY
  5
D
330
C
100
AcDbDictionary
281
    1
  0
ENDSEC
  0
EOF
